<svg width="112" height="436" viewBox="0 0 112 436" fill="none" xmlns="http://www.w3.org/2000/svg">
<mask id="path-1-outside-1_46_1107" maskUnits="userSpaceOnUse" x="-0.5" y="-0.447754" width="113" height="436" fill="black">
<rect fill="white" x="-0.5" y="-0.447754" width="113" height="436"/>
<path d="M108.5 19.4522V41.8022L3.5 58.9023V42.4022L24.35 39.4022H24.05V20.6522L3.5 17.6522V2.35225L108.5 19.4522ZM38.3 37.4522L90.2 30.1022V29.8022L38.3 22.6022V37.4522ZM108.5 66.9073V91.8073C108.5 100.307 106.5 106.507 102.5 110.407C98.6 114.307 92.55 116.257 84.35 116.257H80.15C74.75 116.257 70.35 115.357 66.95 113.557C63.55 111.857 61.1 109.207 59.6 105.607H59.3C56.5 113.807 49.2 117.907 37.4 117.907H28.4C20.3 117.907 14.1 115.757 9.8 111.457C5.6 107.257 3.5 101.057 3.5 92.8573V66.9073H108.5ZM65.75 89.8573C65.75 93.1573 66.6 95.6073 68.3 97.2073C70 98.9073 72.85 99.7573 76.85 99.7573H82.7C86.5 99.7573 89.25 99.0573 90.95 97.6573C92.65 96.3573 93.5 94.2573 93.5 91.3573V83.4073H65.75V89.8573ZM18.5 92.8573C18.5 95.7573 19.25 97.9073 20.75 99.3073C22.35 100.707 25.05 101.407 28.85 101.407H38C42.8 101.407 46.1 100.557 47.9 98.8573C49.8 97.2573 50.75 94.5573 50.75 90.7573V83.4073H18.5V92.8573ZM2 151.402C2 143.302 4.3 137.102 8.9 132.802C13.5 128.502 20 126.352 28.4 126.352H83.6C92 126.352 98.5 128.502 103.1 132.802C107.7 137.102 110 143.302 110 151.402C110 159.502 107.7 165.702 103.1 170.002C98.5 174.302 92 176.452 83.6 176.452H28.4C20 176.452 13.5 174.302 8.9 170.002C4.3 165.702 2 159.502 2 151.402ZM17 151.402C17 157.102 20.45 159.952 27.35 159.952H84.65C91.55 159.952 95 157.102 95 151.402C95 145.702 91.55 142.852 84.65 142.852H27.35C20.45 142.852 17 145.702 17 151.402ZM2 211.61C2 203.61 4.25 197.51 8.75 193.31C13.35 189.11 19.9 187.01 28.4 187.01H108.5V203.51H27.2C23.6 203.51 21 204.21 19.4 205.61C17.8 207.11 17 209.21 17 211.91C17 214.61 17.8 216.66 19.4 218.06C21 219.56 23.6 220.31 27.2 220.31H108.5V236.21H28.4C19.9 236.21 13.35 234.11 8.75 229.91C4.25 225.71 2 219.61 2 211.61ZM93.5 260.862V243.612H108.5V294.612H93.5V277.362H3.5V260.862H93.5ZM2 350.624C2 342.624 4.25 336.524 8.75 332.324C13.35 328.124 19.9 326.024 28.4 326.024H108.5V342.524H27.2C23.6 342.524 21 343.224 19.4 344.624C17.8 346.124 17 348.224 17 350.924C17 353.624 17.8 355.674 19.4 357.074C21 358.574 23.6 359.324 27.2 359.324H108.5V375.224H28.4C19.9 375.224 13.35 373.124 8.75 368.924C4.25 364.724 2 358.624 2 350.624ZM2 408.426C2 400.426 4.25 394.376 8.75 390.276C13.35 386.176 19.9 384.126 28.4 384.126H34.4V399.726H27.2C20.4 399.726 17 402.576 17 408.276C17 411.076 17.8 413.176 19.4 414.576C21.1 416.076 23.8 416.826 27.5 416.826C31.9 416.826 35.75 415.826 39.05 413.826C42.45 411.826 46.5 408.126 51.2 402.726C57.2 395.926 62.6 391.176 67.4 388.476C72.3 385.776 77.8 384.426 83.9 384.426C92.2 384.426 98.6 386.526 103.1 390.726C107.7 394.926 110 401.026 110 409.026C110 416.926 107.7 422.876 103.1 426.876C98.6 430.976 92.1 433.026 83.6 433.026H79.25V417.426H84.65C88.25 417.426 90.85 416.726 92.45 415.326C94.15 413.926 95 411.876 95 409.176C95 403.676 91.65 400.926 84.95 400.926C81.15 400.926 77.6 401.926 74.3 403.926C71 406.026 67 409.776 62.3 415.176C56.3 422.076 50.85 426.826 45.95 429.426C41.05 432.026 35.3 433.326 28.7 433.326C20.1 433.326 13.5 431.176 8.9 426.876C4.3 422.676 2 416.526 2 408.426Z"/>
</mask>
<path d="M108.5 19.4522H110.5V17.7516L108.821 17.4783L108.5 19.4522ZM108.5 41.8022L108.821 43.7762L110.5 43.5029V41.8022H108.5ZM3.5 58.9023H1.5V61.2543L3.82148 60.8762L3.5 58.9023ZM3.5 42.4022L3.21516 40.4226L1.5 40.6694V42.4022H3.5ZM24.35 39.4022L24.6348 41.3819L24.35 37.4022V39.4022ZM24.05 39.4022H22.05V41.4022H24.05V39.4022ZM24.05 20.6522H26.05V18.923L24.3389 18.6732L24.05 20.6522ZM3.5 17.6522H1.5V19.3815L3.21109 19.6313L3.5 17.6522ZM3.5 2.35225L3.82148 0.378252L1.5 0.000182986V2.35225H3.5ZM38.3 37.4522H36.3V39.7554L38.5804 39.4325L38.3 37.4522ZM90.2 30.1022L90.4804 32.0825L92.2 31.839V30.1022H90.2ZM90.2 29.8022H92.2V28.0606L90.4748 27.8212L90.2 29.8022ZM38.3 22.6022L38.5748 20.6212L36.3 20.3056V22.6022H38.3ZM108.5 19.4522H106.5V41.8022H108.5H110.5V19.4522H108.5ZM108.5 41.8022L108.179 39.8283L3.17852 56.9283L3.5 58.9023L3.82148 60.8762L108.821 43.7762L108.5 41.8022ZM3.5 58.9023H5.5V42.4022H3.5H1.5V58.9023H3.5ZM3.5 42.4022L3.78484 44.3819L24.6348 41.3819L24.35 39.4022L24.0652 37.4226L3.21516 40.4226L3.5 42.4022ZM24.35 39.4022V37.4022H24.05V39.4022V41.4022H24.35V39.4022ZM24.05 39.4022H26.05V20.6522H24.05H22.05V39.4022H24.05ZM24.05 20.6522L24.3389 18.6732L3.78891 15.6732L3.5 17.6522L3.21109 19.6313L23.7611 22.6313L24.05 20.6522ZM3.5 17.6522H5.5V2.35225H3.5H1.5V17.6522H3.5ZM3.5 2.35225L3.17852 4.32624L108.179 21.4262L108.5 19.4522L108.821 17.4783L3.82148 0.378252L3.5 2.35225ZM38.3 37.4522L38.5804 39.4325L90.4804 32.0825L90.2 30.1022L89.9196 28.122L38.0196 35.472L38.3 37.4522ZM90.2 30.1022H92.2V29.8022H90.2H88.2V30.1022H90.2ZM90.2 29.8022L90.4748 27.8212L38.5748 20.6212L38.3 22.6022L38.0252 24.5833L89.9252 31.7833L90.2 29.8022ZM38.3 22.6022H36.3V37.4522H38.3H40.3V22.6022H38.3ZM108.5 66.9073H110.5V64.9073H108.5V66.9073ZM102.5 110.407L101.104 108.975L101.095 108.984L101.086 108.993L102.5 110.407ZM66.95 113.557L67.8858 111.79L67.8652 111.779L67.8444 111.768L66.95 113.557ZM59.6 105.607L61.4462 104.838L60.9333 103.607H59.6V105.607ZM59.3 105.607V103.607H57.8695L57.4073 104.961L59.3 105.607ZM9.8 111.457L8.38579 112.872L9.8 111.457ZM3.5 66.9073V64.9073H1.5V66.9073H3.5ZM68.3 97.2073L69.7142 95.7931L69.6928 95.7717L69.6707 95.7509L68.3 97.2073ZM90.95 97.6573L89.7351 96.0686L89.7064 96.0905L89.6786 96.1135L90.95 97.6573ZM93.5 83.4073H95.5V81.4073H93.5V83.4073ZM65.75 83.4073V81.4073H63.75V83.4073H65.75ZM20.75 99.3073L19.3854 100.769L19.4088 100.791L19.433 100.812L20.75 99.3073ZM47.9 98.8573L46.6117 97.3275L46.5682 97.3642L46.5267 97.4033L47.9 98.8573ZM50.75 83.4073H52.75V81.4073H50.75V83.4073ZM18.5 83.4073V81.4073H16.5V83.4073H18.5ZM108.5 66.9073H106.5V91.8073H108.5H110.5V66.9073H108.5ZM108.5 91.8073H106.5C106.5 100.045 104.556 105.609 101.104 108.975L102.5 110.407L103.896 111.839C108.444 107.406 110.5 100.569 110.5 91.8073H108.5ZM102.5 110.407L101.086 108.993C97.7097 112.369 92.2756 114.257 84.35 114.257V116.257V118.257C92.8244 118.257 99.4903 116.245 103.914 111.822L102.5 110.407ZM84.35 116.257V114.257H80.15V116.257V118.257H84.35V116.257ZM80.15 116.257V114.257C74.9521 114.257 70.9048 113.388 67.8858 111.79L66.95 113.557L66.0142 115.325C69.7952 117.327 74.5479 118.257 80.15 118.257V116.257ZM66.95 113.557L67.8444 111.768C64.8858 110.289 62.7668 108.008 61.4462 104.838L59.6 105.607L57.7538 106.377C59.4332 110.407 62.2142 113.425 66.0556 115.346L66.95 113.557ZM59.6 105.607V103.607H59.3V105.607V107.607H59.6V105.607ZM59.3 105.607L57.4073 104.961C56.1602 108.613 53.9503 111.289 50.7456 113.089C47.4924 114.916 43.0898 115.907 37.4 115.907V117.907V119.907C43.5102 119.907 48.6576 118.849 52.7044 116.576C56.7997 114.276 59.6398 110.801 61.1927 106.254L59.3 105.607ZM37.4 117.907V115.907H28.4V117.907V119.907H37.4V117.907ZM28.4 117.907V115.907C20.6484 115.907 15.0275 113.856 11.2142 110.043L9.8 111.457L8.38579 112.872C13.1725 117.658 19.9516 119.907 28.4 119.907V117.907ZM9.8 111.457L11.2142 110.043C7.51337 106.342 5.5 100.733 5.5 92.8573H3.5H1.5C1.5 101.382 3.68663 108.172 8.38579 112.872L9.8 111.457ZM3.5 92.8573H5.5V66.9073H3.5H1.5V92.8573H3.5ZM3.5 66.9073V68.9073H108.5V66.9073V64.9073H3.5V66.9073ZM65.75 89.8573H63.75C63.75 93.476 64.6849 96.5514 66.9293 98.6637L68.3 97.2073L69.6707 95.7509C68.5151 94.6633 67.75 92.8387 67.75 89.8573H65.75ZM68.3 97.2073L66.8858 98.6215C69.1444 100.88 72.6527 101.757 76.85 101.757V99.7573V97.7573C73.0473 97.7573 70.8556 96.9345 69.7142 95.7931L68.3 97.2073ZM76.85 99.7573V101.757H82.7V99.7573V97.7573H76.85V99.7573ZM82.7 99.7573V101.757C86.6588 101.757 89.983 101.045 92.2214 99.2012L90.95 97.6573L89.6786 96.1135C88.517 97.0701 86.3412 97.7573 82.7 97.7573V99.7573ZM90.95 97.6573L92.1649 99.246C94.5221 97.4435 95.5 94.6426 95.5 91.3573H93.5H91.5C91.5 93.872 90.7779 95.2712 89.7351 96.0686L90.95 97.6573ZM93.5 91.3573H95.5V83.4073H93.5H91.5V91.3573H93.5ZM93.5 83.4073V81.4073H65.75V83.4073V85.4073H93.5V83.4073ZM65.75 83.4073H63.75V89.8573H65.75H67.75V83.4073H65.75ZM18.5 92.8573H16.5C16.5 96.0774 17.3358 98.8565 19.3854 100.769L20.75 99.3073L22.1146 97.8452C21.1642 96.9581 20.5 95.4372 20.5 92.8573H18.5ZM20.75 99.3073L19.433 100.812C21.592 102.702 24.9086 103.407 28.85 103.407V101.407V99.4073C25.1914 99.4073 23.108 98.7131 22.067 97.8022L20.75 99.3073ZM28.85 101.407V103.407H38V101.407V99.4073H28.85V101.407ZM38 101.407V103.407C42.8916 103.407 46.881 102.571 49.2732 100.311L47.9 98.8573L46.5267 97.4033C45.319 98.5439 42.7084 99.4073 38 99.4073V101.407ZM47.9 98.8573L49.1883 100.387C51.7349 98.2426 52.75 94.8323 52.75 90.7573H50.75H48.75C48.75 94.2824 47.8651 96.272 46.6117 97.3275L47.9 98.8573ZM50.75 90.7573H52.75V83.4073H50.75H48.75V90.7573H50.75ZM50.75 83.4073V81.4073H18.5V83.4073V85.4073H50.75V83.4073ZM18.5 83.4073H16.5V92.8573H18.5H20.5V83.4073H18.5ZM8.9 132.802L10.2658 134.263L8.9 132.802ZM103.1 132.802L101.734 134.263L103.1 132.802ZM103.1 170.002L101.734 168.541L103.1 170.002ZM8.9 170.002L10.2658 168.541L8.9 170.002ZM2 151.402H4C4 143.688 6.17843 138.084 10.2658 134.263L8.9 132.802L7.53423 131.341C2.42157 136.12 0 142.916 0 151.402H2ZM8.9 132.802L10.2658 134.263C14.3857 130.412 20.3339 128.352 28.4 128.352V126.352V124.352C19.6661 124.352 12.6143 126.592 7.53423 131.341L8.9 132.802ZM28.4 126.352V128.352H83.6V126.352V124.352H28.4V126.352ZM83.6 126.352V128.352C91.6661 128.352 97.6143 130.412 101.734 134.263L103.1 132.802L104.466 131.341C99.3857 126.592 92.3339 124.352 83.6 124.352V126.352ZM103.1 132.802L101.734 134.263C105.822 138.084 108 143.688 108 151.402H110H112C112 142.916 109.578 136.12 104.466 131.341L103.1 132.802ZM110 151.402H108C108 159.116 105.822 164.72 101.734 168.541L103.1 170.002L104.466 171.463C109.578 166.684 112 159.888 112 151.402H110ZM103.1 170.002L101.734 168.541C97.6143 172.392 91.6661 174.452 83.6 174.452V176.452V178.452C92.3339 178.452 99.3857 176.212 104.466 171.463L103.1 170.002ZM83.6 176.452V174.452H28.4V176.452V178.452H83.6V176.452ZM28.4 176.452V174.452C20.3339 174.452 14.3857 172.392 10.2658 168.541L8.9 170.002L7.53423 171.463C12.6143 176.212 19.6661 178.452 28.4 178.452V176.452ZM8.9 170.002L10.2658 168.541C6.17843 164.72 4 159.116 4 151.402H2H0C0 159.888 2.42157 166.684 7.53423 171.463L8.9 170.002ZM17 151.402H15C15 154.671 16.0079 157.451 18.3137 159.356C20.5464 161.201 23.6748 161.952 27.35 161.952V159.952V157.952C24.1252 157.952 22.0786 157.278 20.8613 156.272C19.7171 155.327 19 153.832 19 151.402H17ZM27.35 159.952V161.952H84.65V159.952V157.952H27.35V159.952ZM84.65 159.952V161.952C88.3252 161.952 91.4536 161.201 93.6863 159.356C95.9921 157.451 97 154.671 97 151.402H95H93C93 153.832 92.2829 155.327 91.1387 156.272C89.9214 157.278 87.8748 157.952 84.65 157.952V159.952ZM95 151.402H97C97 148.132 95.9921 145.352 93.6863 143.447C91.4536 141.603 88.3252 140.852 84.65 140.852V142.852V144.852C87.8748 144.852 89.9214 145.526 91.1387 146.531C92.2829 147.476 93 148.971 93 151.402H95ZM84.65 142.852V140.852H27.35V142.852V144.852H84.65V142.852ZM27.35 142.852V140.852C23.6748 140.852 20.5464 141.603 18.3137 143.447C16.0079 145.352 15 148.132 15 151.402H17H19C19 148.971 19.7171 147.476 20.8613 146.531C22.0786 145.526 24.1252 144.852 27.35 144.852V142.852ZM8.75 193.31L7.40146 191.833L7.39337 191.841L7.38536 191.848L8.75 193.31ZM108.5 187.01H110.5V185.01H108.5V187.01ZM108.5 203.51V205.51H110.5V203.51H108.5ZM19.4 205.61L18.083 204.105L18.0572 204.128L18.0321 204.151L19.4 205.61ZM19.4 218.06L20.7679 216.601L20.7428 216.578L20.717 216.555L19.4 218.06ZM108.5 220.31H110.5V218.31H108.5V220.31ZM108.5 236.21V238.21H110.5V236.21H108.5ZM8.75 229.91L7.38536 231.373L7.39337 231.38L7.40146 231.387L8.75 229.91ZM2 211.61H4C4 203.99 6.13225 198.489 10.1146 194.773L8.75 193.31L7.38536 191.848C2.36775 196.531 0 203.231 0 211.61H2ZM8.75 193.31L10.0985 194.787C14.2136 191.03 20.2151 189.01 28.4 189.01V187.01V185.01C19.5849 185.01 12.4864 187.191 7.40146 191.833L8.75 193.31ZM28.4 187.01V189.01H108.5V187.01V185.01H28.4V187.01ZM108.5 187.01H106.5V203.51H108.5H110.5V187.01H108.5ZM108.5 203.51V201.51H27.2V203.51V205.51H108.5V203.51ZM27.2 203.51V201.51C23.425 201.51 20.2275 202.229 18.083 204.105L19.4 205.61L20.717 207.116C21.7725 206.192 23.775 205.51 27.2 205.51V203.51ZM19.4 205.61L18.0321 204.151C15.9387 206.114 15 208.795 15 211.91H17H19C19 209.626 19.6613 208.107 20.7679 207.07L19.4 205.61ZM17 211.91H15C15 215.02 15.9373 217.688 18.083 219.566L19.4 218.06L20.717 216.555C19.6627 215.633 19 214.201 19 211.91H17ZM19.4 218.06L18.0321 219.52C20.1786 221.532 23.3992 222.31 27.2 222.31V220.31V218.31C23.8008 218.31 21.8214 217.589 20.7679 216.601L19.4 218.06ZM27.2 220.31V222.31H108.5V220.31V218.31H27.2V220.31ZM108.5 220.31H106.5V236.21H108.5H110.5V220.31H108.5ZM108.5 236.21V234.21H28.4V236.21V238.21H108.5V236.21ZM28.4 236.21V234.21C20.2151 234.21 14.2136 232.191 10.0985 228.433L8.75 229.91L7.40146 231.387C12.4864 236.03 19.5849 238.21 28.4 238.21V236.21ZM8.75 229.91L10.1146 228.448C6.13225 224.731 4 219.231 4 211.61H2H0C0 219.99 2.36775 226.689 7.38536 231.373L8.75 229.91ZM93.5 260.862V262.862H95.5V260.862H93.5ZM93.5 243.612V241.612H91.5V243.612H93.5ZM108.5 243.612H110.5V241.612H108.5V243.612ZM108.5 294.612V296.612H110.5V294.612H108.5ZM93.5 294.612H91.5V296.612H93.5V294.612ZM93.5 277.362H95.5V275.362H93.5V277.362ZM3.5 277.362H1.5V279.362H3.5V277.362ZM3.5 260.862V258.862H1.5V260.862H3.5ZM93.5 260.862H95.5V243.612H93.5H91.5V260.862H93.5ZM93.5 243.612V245.612H108.5V243.612V241.612H93.5V243.612ZM108.5 243.612H106.5V294.612H108.5H110.5V243.612H108.5ZM108.5 294.612V292.612H93.5V294.612V296.612H108.5V294.612ZM93.5 294.612H95.5V277.362H93.5H91.5V294.612H93.5ZM93.5 277.362V275.362H3.5V277.362V279.362H93.5V277.362ZM3.5 277.362H5.5V260.862H3.5H1.5V277.362H3.5ZM3.5 260.862V262.862H93.5V260.862V258.862H3.5V260.862ZM8.75 332.324L7.40146 330.847L7.39337 330.855L7.38536 330.862L8.75 332.324ZM108.5 326.024H110.5V324.024H108.5V326.024ZM108.5 342.524V344.524H110.5V342.524H108.5ZM19.4 344.624L18.083 343.119L18.0572 343.142L18.0321 343.165L19.4 344.624ZM19.4 357.074L20.7679 355.615L20.7428 355.592L20.717 355.569L19.4 357.074ZM108.5 359.324H110.5V357.324H108.5V359.324ZM108.5 375.224V377.224H110.5V375.224H108.5ZM8.75 368.924L7.38536 370.386L7.39337 370.394L7.40146 370.401L8.75 368.924ZM2 350.624H4C4 343.003 6.13225 337.503 10.1146 333.786L8.75 332.324L7.38536 330.862C2.36775 335.545 0 342.245 0 350.624H2ZM8.75 332.324L10.0985 333.801C14.2136 330.044 20.2151 328.024 28.4 328.024V326.024V324.024C19.5849 324.024 12.4864 326.204 7.40146 330.847L8.75 332.324ZM28.4 326.024V328.024H108.5V326.024V324.024H28.4V326.024ZM108.5 326.024H106.5V342.524H108.5H110.5V326.024H108.5ZM108.5 342.524V340.524H27.2V342.524V344.524H108.5V342.524ZM27.2 342.524V340.524C23.425 340.524 20.2275 341.243 18.083 343.119L19.4 344.624L20.717 346.129C21.7725 345.206 23.775 344.524 27.2 344.524V342.524ZM19.4 344.624L18.0321 343.165C15.9387 345.128 15 347.808 15 350.924H17H19C19 348.64 19.6613 347.121 20.7679 346.083L19.4 344.624ZM17 350.924H15C15 354.034 15.9373 356.702 18.083 358.579L19.4 357.074L20.717 355.569C19.6627 354.646 19 353.215 19 350.924H17ZM19.4 357.074L18.0321 358.533C20.1786 360.546 23.3992 361.324 27.2 361.324V359.324V357.324C23.8008 357.324 21.8214 356.603 20.7679 355.615L19.4 357.074ZM27.2 359.324V361.324H108.5V359.324V357.324H27.2V359.324ZM108.5 359.324H106.5V375.224H108.5H110.5V359.324H108.5ZM108.5 375.224V373.224H28.4V375.224V377.224H108.5V375.224ZM28.4 375.224V373.224C20.2151 373.224 14.2136 371.204 10.0985 367.447L8.75 368.924L7.40146 370.401C12.4864 375.044 19.5849 377.224 28.4 377.224V375.224ZM8.75 368.924L10.1146 367.462C6.13225 363.745 4 358.245 4 350.624H2H0C0 359.003 2.36775 365.703 7.38536 370.386L8.75 368.924ZM8.75 390.276L7.41926 388.783L7.4111 388.79L7.40302 388.797L8.75 390.276ZM34.4 384.126H36.4V382.126H34.4V384.126ZM34.4 399.726V401.726H36.4V399.726H34.4ZM19.4 414.576L20.7233 413.076L20.717 413.071L19.4 414.576ZM39.05 413.826L38.036 412.102L38.0246 412.108L38.0134 412.115L39.05 413.826ZM51.2 402.726L49.7003 401.402L49.6914 401.413L51.2 402.726ZM67.4 388.476L66.4348 386.724L66.4271 386.728L66.4195 386.733L67.4 388.476ZM103.1 390.726L101.735 392.188L101.743 392.195L101.751 392.203L103.1 390.726ZM103.1 426.876L101.788 425.366L101.77 425.382L101.753 425.397L103.1 426.876ZM79.25 433.026H77.25V435.026H79.25V433.026ZM79.25 417.426V415.426H77.25V417.426H79.25ZM92.45 415.326L91.1786 413.782L91.1555 413.801L91.133 413.821L92.45 415.326ZM74.3 403.926L73.2634 402.215L73.2447 402.227L73.2263 402.238L74.3 403.926ZM62.3 415.176L60.7914 413.863L60.7908 413.863L62.3 415.176ZM45.95 429.426L45.0126 427.659L45.95 429.426ZM8.9 426.876L10.2658 425.415L10.2572 425.407L10.2485 425.399L8.9 426.876ZM2 408.426H4C4 400.802 6.13317 395.366 10.097 391.754L8.75 390.276L7.40302 388.797C2.36683 393.386 0 400.049 0 408.426H2ZM8.75 390.276L10.0807 391.769C14.1955 388.101 20.2039 386.126 28.4 386.126V384.126V382.126C19.5961 382.126 12.5045 384.25 7.41926 388.783L8.75 390.276ZM28.4 384.126V386.126H34.4V384.126V382.126H28.4V384.126ZM34.4 384.126H32.4V399.726H34.4H36.4V384.126H34.4ZM34.4 399.726V397.726H27.2V399.726V401.726H34.4V399.726ZM27.2 399.726V397.726C23.5693 397.726 20.4737 398.479 18.2652 400.33C15.9891 402.238 15 405.016 15 408.276H17H19C19 405.836 19.7109 404.338 20.8348 403.396C22.0263 402.397 24.0307 401.726 27.2 401.726V399.726ZM17 408.276H15C15 411.459 15.9217 414.19 18.083 416.081L19.4 414.576L20.717 413.071C19.6783 412.162 19 410.693 19 408.276H17ZM19.4 414.576L18.0768 416.075C20.3123 418.048 23.6014 418.826 27.5 418.826V416.826V414.826C23.9986 414.826 21.8877 414.103 20.7232 413.076L19.4 414.576ZM27.5 416.826V418.826C32.2132 418.826 36.4321 417.751 40.0866 415.536L39.05 413.826L38.0134 412.115C35.0679 413.9 31.5868 414.826 27.5 414.826V416.826ZM39.05 413.826L40.064 415.55C43.7438 413.385 47.9626 409.492 52.7086 404.039L51.2 402.726L49.6914 401.413C45.0374 406.76 41.1562 410.266 38.036 412.102L39.05 413.826ZM51.2 402.726L52.6997 404.049C58.6344 397.323 63.8614 392.761 68.3805 390.219L67.4 388.476L66.4195 386.733C61.3386 389.591 55.7656 394.528 49.7003 401.402L51.2 402.726ZM67.4 388.476L68.3652 390.227C72.9434 387.705 78.1063 386.426 83.9 386.426V384.426V382.426C77.4937 382.426 71.6567 383.847 66.4348 386.724L67.4 388.476ZM83.9 384.426V386.426C91.8731 386.426 97.719 388.439 101.735 392.188L103.1 390.726L104.465 389.264C99.481 384.612 92.5269 382.426 83.9 382.426V384.426ZM103.1 390.726L101.751 392.203C105.826 395.923 108 401.418 108 409.026H110H112C112 400.633 109.574 393.929 104.449 389.249L103.1 390.726ZM110 409.026H108C108 416.53 105.83 421.852 101.788 425.366L103.1 426.876L104.412 428.385C109.57 423.9 112 417.322 112 409.026H110ZM103.1 426.876L101.753 425.397C97.7453 429.049 91.7996 431.026 83.6 431.026V433.026V435.026C92.4005 435.026 99.4547 432.903 104.447 428.354L103.1 426.876ZM83.6 433.026V431.026H79.25V433.026V435.026H83.6V433.026ZM79.25 433.026H81.25V417.426H79.25H77.25V433.026H79.25ZM79.25 417.426V419.426H84.65V417.426V415.426H79.25V417.426ZM84.65 417.426V419.426C88.425 419.426 91.6225 418.707 93.767 416.831L92.45 415.326L91.133 413.821C90.0775 414.744 88.075 415.426 84.65 415.426V417.426ZM92.45 415.326L93.7214 416.87C95.9862 415.004 97 412.325 97 409.176H95H93C93 411.426 92.3139 412.847 91.1786 413.782L92.45 415.326ZM95 409.176H97C97 406.002 96.0143 403.296 93.7565 401.442C91.5742 399.651 88.5229 398.926 84.95 398.926V400.926V402.926C88.0771 402.926 90.0508 403.575 91.2185 404.534C92.3107 405.431 93 406.85 93 409.176H95ZM84.95 400.926V398.926C80.7786 398.926 76.8709 400.029 73.2634 402.215L74.3 403.926L75.3366 405.636C78.3291 403.822 81.5214 402.926 84.95 402.926V400.926ZM74.3 403.926L73.2263 402.238C69.6817 404.494 65.5314 408.417 60.7914 413.863L62.3 415.176L63.8086 416.489C68.4686 411.135 72.3183 407.557 75.3738 405.613L74.3 403.926ZM62.3 415.176L60.7908 413.863C54.8612 420.682 49.6002 425.225 45.0126 427.659L45.95 429.426L46.8874 431.192C52.0998 428.427 57.7388 423.469 63.8092 416.488L62.3 415.176ZM45.95 429.426L45.0126 427.659C40.4514 430.079 35.035 431.326 28.7 431.326V433.326V435.326C35.565 435.326 41.6486 433.972 46.8874 431.192L45.95 429.426ZM28.7 433.326V431.326C20.4191 431.326 14.3776 429.258 10.2658 425.415L8.9 426.876L7.53423 428.337C12.6224 433.093 19.7809 435.326 28.7 435.326V433.326ZM8.9 426.876L10.2485 425.399C6.17924 421.683 4 416.142 4 408.426H2H0C0 416.909 2.42075 423.668 7.55146 428.353L8.9 426.876Z" fill="#666666" mask="url(#path-1-outside-1_46_1107)"/>
</svg>
