<svg width="112" height="670" viewBox="0 0 112 670" fill="none" xmlns="http://www.w3.org/2000/svg">
<mask id="path-1-outside-1_16_39" maskUnits="userSpaceOnUse" x="-0.5" y="-0.149994" width="113" height="670" fill="black">
<rect fill="white" x="-0.5" y="-0.149994" width="113" height="670"/>
<path d="M108.5 2.00001V26.9C108.5 35.4 106.5 41.6 102.5 45.5C98.6 49.4 92.55 51.35 84.35 51.35H80.15C74.75 51.35 70.35 50.45 66.95 48.65C63.55 46.95 61.1 44.3 59.6 40.7H59.3C56.5 48.9 49.2 53 37.4 53H28.4C20.3 53 14.1 50.85 9.8 46.55C5.6 42.35 3.5 36.15 3.5 27.95V2.00001H108.5ZM65.75 24.95C65.75 28.25 66.6 30.7 68.3 32.3C70 34 72.85 34.85 76.85 34.85H82.7C86.5 34.85 89.25 34.15 90.95 32.75C92.65 31.45 93.5 29.35 93.5 26.45V18.5H65.75V24.95ZM18.5 27.95C18.5 30.85 19.25 33 20.75 34.4C22.35 35.8 25.05 36.5 28.85 36.5H38C42.8 36.5 46.1 35.65 47.9 33.95C49.8 32.35 50.75 29.65 50.75 25.85V18.5H18.5V27.95ZM2 86.4945C2 78.3945 4.3 72.1945 8.9 67.8945C13.5 63.5945 20 61.4445 28.4 61.4445H83.6C92 61.4445 98.5 63.5945 103.1 67.8945C107.7 72.1945 110 78.3945 110 86.4945C110 94.5945 107.7 100.795 103.1 105.095C98.5 109.395 92 111.545 83.6 111.545H28.4C20 111.545 13.5 109.395 8.9 105.095C4.3 100.795 2 94.5945 2 86.4945ZM17 86.4945C17 92.1945 20.45 95.0445 27.35 95.0445H84.65C91.55 95.0445 95 92.1945 95 86.4945C95 80.7945 91.55 77.9445 84.65 77.9445H27.35C20.45 77.9445 17 80.7945 17 86.4945ZM108.5 122.703V147.903C108.5 156.103 106.3 162.253 101.9 166.353C97.5 170.453 91.05 172.503 82.55 172.503H29.45C20.95 172.503 14.5 170.453 10.1 166.353C5.7 162.253 3.5 156.103 3.5 147.903V122.703H108.5ZM18.5 147.603C18.5 150.303 19.3 152.353 20.9 153.753C22.5 155.253 25.1 156.003 28.7 156.003H83.3C86.9 156.003 89.5 155.253 91.1 153.753C92.7 152.353 93.5 150.303 93.5 147.603V139.203H18.5V147.603ZM48.2 196.154L108.5 176.204V193.754L69.95 205.004V205.304L108.5 216.554V232.604L48.2 212.654H3.5V196.154H48.2ZM108.5 264.061V288.961C108.5 297.461 106.5 303.661 102.5 307.561C98.6 311.461 92.55 313.411 84.35 313.411H80.15C74.75 313.411 70.35 312.511 66.95 310.711C63.55 309.011 61.1 306.361 59.6 302.761H59.3C56.5 310.961 49.2 315.061 37.4 315.061H28.4C20.3 315.061 14.1 312.911 9.8 308.611C5.6 304.411 3.5 298.211 3.5 290.011V264.061H108.5ZM65.75 287.011C65.75 290.311 66.6 292.761 68.3 294.361C70 296.061 72.85 296.911 76.85 296.911H82.7C86.5 296.911 89.25 296.211 90.95 294.811C92.65 293.511 93.5 291.411 93.5 288.511V280.561H65.75V287.011ZM18.5 290.011C18.5 292.911 19.25 295.061 20.75 296.461C22.35 297.861 25.05 298.561 28.85 298.561H38C42.8 298.561 46.1 297.711 47.9 296.011C49.8 294.411 50.75 291.711 50.75 287.911V280.561H18.5V290.011ZM2 348.705C2 340.705 4.25 334.605 8.75 330.405C13.35 326.205 19.9 324.105 28.4 324.105H108.5V340.605H27.2C23.6 340.605 21 341.305 19.4 342.705C17.8 344.205 17 346.305 17 349.005C17 351.705 17.8 353.755 19.4 355.155C21 356.655 23.6 357.405 27.2 357.405H108.5V373.305H28.4C19.9 373.305 13.35 371.205 8.75 367.005C4.25 362.805 2 356.705 2 348.705ZM108.5 385.057V401.557H3.5V385.057H108.5ZM108.5 413.914V430.414H18.5V457.564H3.5V413.914H108.5ZM108.5 465.477V490.677C108.5 498.877 106.3 505.027 101.9 509.127C97.5 513.227 91.05 515.277 82.55 515.277H29.45C20.95 515.277 14.5 513.227 10.1 509.127C5.7 505.027 3.5 498.877 3.5 490.677V465.477H108.5ZM18.5 490.377C18.5 493.077 19.3 495.127 20.9 496.527C22.5 498.027 25.1 498.777 28.7 498.777H83.3C86.9 498.777 89.5 498.027 91.1 496.527C92.7 495.127 93.5 493.077 93.5 490.377V481.977H18.5V490.377ZM108.5 526.414V542.914H3.5V526.414H108.5ZM108.5 555.271V575.971L45.65 592.021V592.321H108.5V607.021H3.5V590.071L80.15 570.271V569.971H3.5V555.271H108.5ZM2 642.685C2 634.685 4.25 628.585 8.75 624.385C13.35 620.185 19.9 618.085 28.4 618.085H83.6C92.1 618.085 98.6 620.185 103.1 624.385C107.7 628.585 110 634.685 110 642.685C110 650.685 107.7 656.785 103.1 660.985C98.6 665.185 92.1 667.285 83.6 667.285H74.6V651.685H84.65C91.55 651.685 95 648.835 95 643.135C95 637.435 91.55 634.585 84.65 634.585H27.2C20.4 634.585 17 637.435 17 643.135C17 648.835 20.4 651.685 27.2 651.685H47.75V643.435H62.75V667.285H28.4C19.9 667.285 13.35 665.185 8.75 660.985C4.25 656.785 2 650.685 2 642.685Z"/>
</mask>
<path d="M108.5 2.00001H110.5V6.19888e-06H108.5V2.00001ZM102.5 45.5L101.104 44.068L101.095 44.0768L101.086 44.0858L102.5 45.5ZM66.95 48.65L67.8858 46.8824L67.8652 46.8716L67.8444 46.8612L66.95 48.65ZM59.6 40.7L61.4462 39.9308L60.9333 38.7H59.6V40.7ZM59.3 40.7V38.7H57.8695L57.4073 40.0537L59.3 40.7ZM9.8 46.55L8.38579 47.9642V47.9642L9.8 46.55ZM3.5 2.00001V6.19888e-06H1.5V2.00001H3.5ZM68.3 32.3L69.7142 30.8858L69.6928 30.8644L69.6707 30.8436L68.3 32.3ZM90.95 32.75L89.7351 31.1613L89.7064 31.1832L89.6786 31.2062L90.95 32.75ZM93.5 18.5H95.5V16.5H93.5V18.5ZM65.75 18.5V16.5H63.75V18.5H65.75ZM20.75 34.4L19.3854 35.8621L19.4088 35.884L19.433 35.9052L20.75 34.4ZM47.9 33.95L46.6117 32.4202L46.5682 32.4569L46.5267 32.496L47.9 33.95ZM50.75 18.5H52.75V16.5H50.75V18.5ZM18.5 18.5V16.5H16.5V18.5H18.5ZM108.5 2.00001H106.5V26.9H108.5H110.5V2.00001H108.5ZM108.5 26.9H106.5C106.5 35.1382 104.556 40.7018 101.104 44.068L102.5 45.5L103.896 46.932C108.444 42.4982 110.5 35.6618 110.5 26.9H108.5ZM102.5 45.5L101.086 44.0858C97.7097 47.4619 92.2756 49.35 84.35 49.35V51.35V53.35C92.8244 53.35 99.4903 51.3381 103.914 46.9142L102.5 45.5ZM84.35 51.35V49.35H80.15V51.35V53.35H84.35V51.35ZM80.15 51.35V49.35C74.9521 49.35 70.9048 48.4807 67.8858 46.8824L66.95 48.65L66.0142 50.4176C69.7952 52.4193 74.5479 53.35 80.15 53.35V51.35ZM66.95 48.65L67.8444 46.8612C64.8858 45.3818 62.7668 43.1003 61.4462 39.9308L59.6 40.7L57.7538 41.4692C59.4332 45.4997 62.2142 48.5182 66.0556 50.4389L66.95 48.65ZM59.6 40.7V38.7H59.3V40.7V42.7H59.6V40.7ZM59.3 40.7L57.4073 40.0537C56.1602 43.7058 53.9503 46.3813 50.7456 48.1812C47.4924 50.0084 43.0898 51 37.4 51V53V55C43.5102 55 48.6576 53.9416 52.7044 51.6688C56.7997 49.3687 59.6398 45.8942 61.1927 41.3463L59.3 40.7ZM37.4 53V51H28.4V53V55H37.4V53ZM28.4 53V51C20.6484 51 15.0275 48.9491 11.2142 45.1358L9.8 46.55L8.38579 47.9642C13.1725 52.7509 19.9516 55 28.4 55V53ZM9.8 46.55L11.2142 45.1358C7.51337 41.4349 5.5 35.8255 5.5 27.95H3.5H1.5C1.5 36.4745 3.68663 43.2651 8.38579 47.9642L9.8 46.55ZM3.5 27.95H5.5V2.00001H3.5H1.5V27.95H3.5ZM3.5 2.00001V4.00001H108.5V2.00001V6.19888e-06H3.5V2.00001ZM65.75 24.95H63.75C63.75 28.5686 64.6849 31.644 66.9293 33.7564L68.3 32.3L69.6707 30.8436C68.5151 29.756 67.75 27.9314 67.75 24.95H65.75ZM68.3 32.3L66.8858 33.7142C69.1444 35.9728 72.6527 36.85 76.85 36.85V34.85V32.85C73.0473 32.85 70.8556 32.0272 69.7142 30.8858L68.3 32.3ZM76.85 34.85V36.85H82.7V34.85V32.85H76.85V34.85ZM82.7 34.85V36.85C86.6588 36.85 89.983 36.1372 92.2214 34.2939L90.95 32.75L89.6786 31.2062C88.517 32.1628 86.3412 32.85 82.7 32.85V34.85ZM90.95 32.75L92.1649 34.3387C94.5221 32.5362 95.5 29.7353 95.5 26.45H93.5H91.5C91.5 28.9647 90.7779 30.3638 89.7351 31.1613L90.95 32.75ZM93.5 26.45H95.5V18.5H93.5H91.5V26.45H93.5ZM93.5 18.5V16.5H65.75V18.5V20.5H93.5V18.5ZM65.75 18.5H63.75V24.95H65.75H67.75V18.5H65.75ZM18.5 27.95H16.5C16.5 31.1701 17.3358 33.9492 19.3854 35.8621L20.75 34.4L22.1146 32.9379C21.1642 32.0508 20.5 30.5299 20.5 27.95H18.5ZM20.75 34.4L19.433 35.9052C21.592 37.7943 24.9086 38.5 28.85 38.5V36.5V34.5C25.1914 34.5 23.108 33.8057 22.067 32.8949L20.75 34.4ZM28.85 36.5V38.5H38V36.5V34.5H28.85V36.5ZM38 36.5V38.5C42.8916 38.5 46.881 37.6634 49.2732 35.404L47.9 33.95L46.5267 32.496C45.319 33.6366 42.7084 34.5 38 34.5V36.5ZM47.9 33.95L49.1883 35.4798C51.7349 33.3353 52.75 29.9249 52.75 25.85H50.75H48.75C48.75 29.3751 47.8651 31.3647 46.6117 32.4202L47.9 33.95ZM50.75 25.85H52.75V18.5H50.75H48.75V25.85H50.75ZM50.75 18.5V16.5H18.5V18.5V20.5H50.75V18.5ZM18.5 18.5H16.5V27.95H18.5H20.5V18.5H18.5ZM8.9 67.8945L10.2658 69.3556L8.9 67.8945ZM103.1 67.8945L101.734 69.3556L103.1 67.8945ZM103.1 105.095L101.734 103.633L103.1 105.095ZM8.9 105.095L10.2658 103.633L8.9 105.095ZM2 86.4945H4C4 78.7807 6.17843 73.1764 10.2658 69.3556L8.9 67.8945L7.53423 66.4335C2.42157 71.2127 0 78.0084 0 86.4945H2ZM8.9 67.8945L10.2658 69.3556C14.3857 65.5044 20.3339 63.4445 28.4 63.4445V61.4445V59.4445C19.6661 59.4445 12.6143 61.6847 7.53423 66.4335L8.9 67.8945ZM28.4 61.4445V63.4445H83.6V61.4445V59.4445H28.4V61.4445ZM83.6 61.4445V63.4445C91.6661 63.4445 97.6143 65.5044 101.734 69.3556L103.1 67.8945L104.466 66.4335C99.3857 61.6847 92.3339 59.4445 83.6 59.4445V61.4445ZM103.1 67.8945L101.734 69.3556C105.822 73.1764 108 78.7807 108 86.4945H110H112C112 78.0084 109.578 71.2127 104.466 66.4335L103.1 67.8945ZM110 86.4945H108C108 94.2084 105.822 99.8127 101.734 103.633L103.1 105.095L104.466 106.556C109.578 101.776 112 94.9807 112 86.4945H110ZM103.1 105.095L101.734 103.633C97.6143 107.485 91.6661 109.545 83.6 109.545V111.545V113.545C92.3339 113.545 99.3857 111.304 104.466 106.556L103.1 105.095ZM83.6 111.545V109.545H28.4V111.545V113.545H83.6V111.545ZM28.4 111.545V109.545C20.3339 109.545 14.3857 107.485 10.2658 103.633L8.9 105.095L7.53423 106.556C12.6143 111.304 19.6661 113.545 28.4 113.545V111.545ZM8.9 105.095L10.2658 103.633C6.17843 99.8127 4 94.2084 4 86.4945H2H0C0 94.9807 2.42157 101.776 7.53423 106.556L8.9 105.095ZM17 86.4945H15C15 89.7642 16.0079 92.5441 18.3137 94.449C20.5464 96.2934 23.6748 97.0445 27.35 97.0445V95.0445V93.0445C24.1252 93.0445 22.0786 92.3707 20.8613 91.3651C19.7171 90.4199 19 88.9249 19 86.4945H17ZM27.35 95.0445V97.0445H84.65V95.0445V93.0445H27.35V95.0445ZM84.65 95.0445V97.0445C88.3252 97.0445 91.4536 96.2934 93.6863 94.449C95.9921 92.5441 97 89.7642 97 86.4945H95H93C93 88.9249 92.2829 90.4199 91.1387 91.3651C89.9214 92.3707 87.8748 93.0445 84.65 93.0445V95.0445ZM95 86.4945H97C97 83.2249 95.9921 80.4449 93.6863 78.5401C91.4536 76.6957 88.3252 75.9445 84.65 75.9445V77.9445V79.9445C87.8748 79.9445 89.9214 80.6183 91.1387 81.624C92.2829 82.5691 93 84.0642 93 86.4945H95ZM84.65 77.9445V75.9445H27.35V77.9445V79.9445H84.65V77.9445ZM27.35 77.9445V75.9445C23.6748 75.9445 20.5464 76.6957 18.3137 78.5401C16.0079 80.4449 15 83.2249 15 86.4945H17H19C19 84.0642 19.7171 82.5691 20.8613 81.624C22.0786 80.6183 24.1252 79.9445 27.35 79.9445V77.9445ZM108.5 122.703H110.5V120.703H108.5V122.703ZM101.9 166.353L100.537 164.89H100.537L101.9 166.353ZM3.5 122.703V120.703H1.5V122.703H3.5ZM20.9 153.753L22.2679 152.294L22.2428 152.271L22.217 152.248L20.9 153.753ZM91.1 153.753L89.783 152.248L89.7572 152.271L89.7321 152.294L91.1 153.753ZM93.5 139.203H95.5V137.203H93.5V139.203ZM18.5 139.203V137.203H16.5V139.203H18.5ZM108.5 122.703H106.5V147.903H108.5H110.5V122.703H108.5ZM108.5 147.903H106.5C106.5 155.757 104.399 161.29 100.537 164.89L101.9 166.353L103.263 167.816C108.201 163.216 110.5 156.449 110.5 147.903H108.5ZM101.9 166.353L100.537 164.89C96.6358 168.525 90.7533 170.503 82.55 170.503V172.503V174.503C91.3467 174.503 98.3643 172.382 103.263 167.816L101.9 166.353ZM82.55 172.503V170.503H29.45V172.503V174.503H82.55V172.503ZM29.45 172.503V170.503C21.2467 170.503 15.3643 168.525 11.4635 164.89L10.1 166.353L8.73655 167.816C13.6357 172.382 20.6533 174.503 29.45 174.503V172.503ZM10.1 166.353L11.4635 164.89C7.60055 161.29 5.5 155.757 5.5 147.903H3.5H1.5C1.5 156.449 3.79945 163.216 8.73655 167.816L10.1 166.353ZM3.5 147.903H5.5V122.703H3.5H1.5V147.903H3.5ZM3.5 122.703V124.703H108.5V122.703V120.703H3.5V122.703ZM18.5 147.603H16.5C16.5 150.713 17.4373 153.381 19.583 155.258L20.9 153.753L22.217 152.248C21.1627 151.326 20.5 149.894 20.5 147.603H18.5ZM20.9 153.753L19.5321 155.212C21.6786 157.225 24.8992 158.003 28.7 158.003V156.003V154.003C25.3008 154.003 23.3214 153.282 22.2679 152.294L20.9 153.753ZM28.7 156.003V158.003H83.3V156.003V154.003H28.7V156.003ZM83.3 156.003V158.003C87.1008 158.003 90.3214 157.225 92.4679 155.212L91.1 153.753L89.7321 152.294C88.6786 153.282 86.6992 154.003 83.3 154.003V156.003ZM91.1 153.753L92.417 155.258C94.5627 153.381 95.5 150.713 95.5 147.603H93.5H91.5C91.5 149.894 90.8373 151.326 89.783 152.248L91.1 153.753ZM93.5 147.603H95.5V139.203H93.5H91.5V147.603H93.5ZM93.5 139.203V137.203H18.5V139.203V141.203H93.5V139.203ZM18.5 139.203H16.5V147.603H18.5H20.5V139.203H18.5ZM48.2 196.154V198.154H48.5223L48.8282 198.053L48.2 196.154ZM108.5 176.204H110.5V173.436L107.872 174.305L108.5 176.204ZM108.5 193.754L109.06 195.674L110.5 195.254V193.754H108.5ZM69.95 205.004L69.3897 203.084L67.95 203.504V205.004H69.95ZM69.95 205.304H67.95V206.804L69.3897 207.224L69.95 205.304ZM108.5 216.554H110.5V215.054L109.06 214.634L108.5 216.554ZM108.5 232.604L107.872 234.503L110.5 235.372V232.604H108.5ZM48.2 212.654L48.8282 210.755L48.5223 210.654H48.2V212.654ZM3.5 212.654H1.5V214.654H3.5V212.654ZM3.5 196.154V194.154H1.5V196.154H3.5ZM48.2 196.154L48.8282 198.053L109.128 178.103L108.5 176.204L107.872 174.305L47.5718 194.255L48.2 196.154ZM108.5 176.204H106.5V193.754H108.5H110.5V176.204H108.5ZM108.5 193.754L107.94 191.834L69.3897 203.084L69.95 205.004L70.5103 206.924L109.06 195.674L108.5 193.754ZM69.95 205.004H67.95V205.304H69.95H71.95V205.004H69.95ZM69.95 205.304L69.3897 207.224L107.94 218.474L108.5 216.554L109.06 214.634L70.5103 203.384L69.95 205.304ZM108.5 216.554H106.5V232.604H108.5H110.5V216.554H108.5ZM108.5 232.604L109.128 230.705L48.8282 210.755L48.2 212.654L47.5718 214.553L107.872 234.503L108.5 232.604ZM48.2 212.654V210.654H3.5V212.654V214.654H48.2V212.654ZM3.5 212.654H5.5V196.154H3.5H1.5V212.654H3.5ZM3.5 196.154V198.154H48.2V196.154V194.154H3.5V196.154ZM108.5 264.061H110.5V262.061H108.5V264.061ZM102.5 307.561L101.104 306.129L101.095 306.137L101.086 306.146L102.5 307.561ZM66.95 310.711L67.8858 308.943L67.8652 308.932L67.8444 308.922L66.95 310.711ZM59.6 302.761L61.4462 301.991L60.9333 300.761H59.6V302.761ZM59.3 302.761V300.761H57.8695L57.4073 302.114L59.3 302.761ZM9.8 308.611L8.38579 310.025L9.8 308.611ZM3.5 264.061V262.061H1.5V264.061H3.5ZM68.3 294.361L69.7142 292.946L69.6928 292.925L69.6707 292.904L68.3 294.361ZM90.95 294.811L89.7351 293.222L89.7064 293.244L89.6786 293.267L90.95 294.811ZM93.5 280.561H95.5V278.561H93.5V280.561ZM65.75 280.561V278.561H63.75V280.561H65.75ZM20.75 296.461L19.3854 297.923L19.4088 297.945L19.433 297.966L20.75 296.461ZM47.9 296.011L46.6117 294.481L46.5682 294.517L46.5267 294.557L47.9 296.011ZM50.75 280.561H52.75V278.561H50.75V280.561ZM18.5 280.561V278.561H16.5V280.561H18.5ZM108.5 264.061H106.5V288.961H108.5H110.5V264.061H108.5ZM108.5 288.961H106.5C106.5 297.199 104.556 302.762 101.104 306.129L102.5 307.561L103.896 308.993C108.444 304.559 110.5 297.722 110.5 288.961H108.5ZM102.5 307.561L101.086 306.146C97.7097 309.522 92.2756 311.411 84.35 311.411V313.411V315.411C92.8244 315.411 99.4903 313.399 103.914 308.975L102.5 307.561ZM84.35 313.411V311.411H80.15V313.411V315.411H84.35V313.411ZM80.15 313.411V311.411C74.9521 311.411 70.9048 310.541 67.8858 308.943L66.95 310.711L66.0142 312.478C69.7952 314.48 74.5479 315.411 80.15 315.411V313.411ZM66.95 310.711L67.8444 308.922C64.8858 307.442 62.7668 305.161 61.4462 301.991L59.6 302.761L57.7538 303.53C59.4332 307.56 62.2142 310.579 66.0556 312.499L66.95 310.711ZM59.6 302.761V300.761H59.3V302.761V304.761H59.6V302.761ZM59.3 302.761L57.4073 302.114C56.1602 305.766 53.9503 308.442 50.7456 310.242C47.4924 312.069 43.0898 313.061 37.4 313.061V315.061V317.061C43.5102 317.061 48.6576 316.002 52.7044 313.729C56.7997 311.429 59.6398 307.955 61.1927 303.407L59.3 302.761ZM37.4 315.061V313.061H28.4V315.061V317.061H37.4V315.061ZM28.4 315.061V313.061C20.6484 313.061 15.0275 311.01 11.2142 307.196L9.8 308.611L8.38579 310.025C13.1725 314.811 19.9516 317.061 28.4 317.061V315.061ZM9.8 308.611L11.2142 307.196C7.51337 303.495 5.5 297.886 5.5 290.011H3.5H1.5C1.5 298.535 3.68663 305.326 8.38579 310.025L9.8 308.611ZM3.5 290.011H5.5V264.061H3.5H1.5V290.011H3.5ZM3.5 264.061V266.061H108.5V264.061V262.061H3.5V264.061ZM65.75 287.011H63.75C63.75 290.629 64.6849 293.705 66.9293 295.817L68.3 294.361L69.6707 292.904C68.5151 291.817 67.75 289.992 67.75 287.011H65.75ZM68.3 294.361L66.8858 295.775C69.1444 298.033 72.6527 298.911 76.85 298.911V296.911V294.911C73.0473 294.911 70.8556 294.088 69.7142 292.946L68.3 294.361ZM76.85 296.911V298.911H82.7V296.911V294.911H76.85V296.911ZM82.7 296.911V298.911C86.6588 298.911 89.983 298.198 92.2214 296.354L90.95 294.811L89.6786 293.267C88.517 294.223 86.3412 294.911 82.7 294.911V296.911ZM90.95 294.811L92.1649 296.399C94.5221 294.597 95.5 291.796 95.5 288.511H93.5H91.5C91.5 291.025 90.7779 292.424 89.7351 293.222L90.95 294.811ZM93.5 288.511H95.5V280.561H93.5H91.5V288.511H93.5ZM93.5 280.561V278.561H65.75V280.561V282.561H93.5V280.561ZM65.75 280.561H63.75V287.011H65.75H67.75V280.561H65.75ZM18.5 290.011H16.5C16.5 293.231 17.3358 296.01 19.3854 297.923L20.75 296.461L22.1146 294.998C21.1642 294.111 20.5 292.59 20.5 290.011H18.5ZM20.75 296.461L19.433 297.966C21.592 299.855 24.9086 300.561 28.85 300.561V298.561V296.561C25.1914 296.561 23.108 295.866 22.067 294.955L20.75 296.461ZM28.85 298.561V300.561H38V298.561V296.561H28.85V298.561ZM38 298.561V300.561C42.8916 300.561 46.881 299.724 49.2732 297.465L47.9 296.011L46.5267 294.557C45.319 295.697 42.7084 296.561 38 296.561V298.561ZM47.9 296.011L49.1883 297.54C51.7349 295.396 52.75 291.986 52.75 287.911H50.75H48.75C48.75 291.436 47.8651 293.425 46.6117 294.481L47.9 296.011ZM50.75 287.911H52.75V280.561H50.75H48.75V287.911H50.75ZM50.75 280.561V278.561H18.5V280.561V282.561H50.75V280.561ZM18.5 280.561H16.5V290.011H18.5H20.5V280.561H18.5ZM8.75 330.405L7.40146 328.928L7.39337 328.935L7.38536 328.943L8.75 330.405ZM108.5 324.105H110.5V322.105H108.5V324.105ZM108.5 340.605V342.605H110.5V340.605H108.5ZM19.4 342.705L18.083 341.2L18.0572 341.223L18.0321 341.246L19.4 342.705ZM19.4 355.155L20.7679 353.696L20.7428 353.673L20.717 353.65L19.4 355.155ZM108.5 357.405H110.5V355.405H108.5V357.405ZM108.5 373.305V375.305H110.5V373.305H108.5ZM8.75 367.005L7.38536 368.467L7.39337 368.475L7.40146 368.482L8.75 367.005ZM2 348.705H4C4 341.084 6.13225 335.584 10.1146 331.867L8.75 330.405L7.38536 328.943C2.36775 333.626 0 340.326 0 348.705H2ZM8.75 330.405L10.0985 331.882C14.2136 328.125 20.2151 326.105 28.4 326.105V324.105V322.105C19.5849 322.105 12.4864 324.285 7.40146 328.928L8.75 330.405ZM28.4 324.105V326.105H108.5V324.105V322.105H28.4V324.105ZM108.5 324.105H106.5V340.605H108.5H110.5V324.105H108.5ZM108.5 340.605V338.605H27.2V340.605V342.605H108.5V340.605ZM27.2 340.605V338.605C23.425 338.605 20.2275 339.324 18.083 341.2L19.4 342.705L20.717 344.21C21.7725 343.287 23.775 342.605 27.2 342.605V340.605ZM19.4 342.705L18.0321 341.246C15.9387 343.209 15 345.889 15 349.005H17H19C19 346.721 19.6613 345.202 20.7679 344.164L19.4 342.705ZM17 349.005H15C15 352.115 15.9373 354.783 18.083 356.66L19.4 355.155L20.717 353.65C19.6627 352.727 19 351.296 19 349.005H17ZM19.4 355.155L18.0321 356.614C20.1786 358.626 23.3992 359.405 27.2 359.405V357.405V355.405C23.8008 355.405 21.8214 354.684 20.7679 353.696L19.4 355.155ZM27.2 357.405V359.405H108.5V357.405V355.405H27.2V357.405ZM108.5 357.405H106.5V373.305H108.5H110.5V357.405H108.5ZM108.5 373.305V371.305H28.4V373.305V375.305H108.5V373.305ZM28.4 373.305V371.305C20.2151 371.305 14.2136 369.285 10.0985 365.528L8.75 367.005L7.40146 368.482C12.4864 373.125 19.5849 375.305 28.4 375.305V373.305ZM8.75 367.005L10.1146 365.543C6.13225 361.826 4 356.326 4 348.705H2H0C0 357.084 2.36775 363.784 7.38536 368.467L8.75 367.005ZM108.5 385.057H110.5V383.057H108.5V385.057ZM108.5 401.557V403.557H110.5V401.557H108.5ZM3.5 401.557H1.5V403.557H3.5V401.557ZM3.5 385.057V383.057H1.5V385.057H3.5ZM108.5 385.057H106.5V401.557H108.5H110.5V385.057H108.5ZM108.5 401.557V399.557H3.5V401.557V403.557H108.5V401.557ZM3.5 401.557H5.5V385.057H3.5H1.5V401.557H3.5ZM3.5 385.057V387.057H108.5V385.057V383.057H3.5V385.057ZM108.5 413.914H110.5V411.914H108.5V413.914ZM108.5 430.414V432.414H110.5V430.414H108.5ZM18.5 430.414V428.414H16.5V430.414H18.5ZM18.5 457.564V459.564H20.5V457.564H18.5ZM3.5 457.564H1.5V459.564H3.5V457.564ZM3.5 413.914V411.914H1.5V413.914H3.5ZM108.5 413.914H106.5V430.414H108.5H110.5V413.914H108.5ZM108.5 430.414V428.414H18.5V430.414V432.414H108.5V430.414ZM18.5 430.414H16.5V457.564H18.5H20.5V430.414H18.5ZM18.5 457.564V455.564H3.5V457.564V459.564H18.5V457.564ZM3.5 457.564H5.5V413.914H3.5H1.5V457.564H3.5ZM3.5 413.914V415.914H108.5V413.914V411.914H3.5V413.914ZM108.5 465.477H110.5V463.477H108.5V465.477ZM101.9 509.127L100.537 507.663H100.537L101.9 509.127ZM3.5 465.477V463.477H1.5V465.477H3.5ZM20.9 496.527L22.2679 495.068L22.2428 495.044L22.217 495.021L20.9 496.527ZM91.1 496.527L89.783 495.021L89.7572 495.044L89.7321 495.068L91.1 496.527ZM93.5 481.977H95.5V479.977H93.5V481.977ZM18.5 481.977V479.977H16.5V481.977H18.5ZM108.5 465.477H106.5V490.677H108.5H110.5V465.477H108.5ZM108.5 490.677H106.5C106.5 498.531 104.399 504.064 100.537 507.663L101.9 509.127L103.263 510.59C108.201 505.989 110.5 499.222 110.5 490.677H108.5ZM101.9 509.127L100.537 507.663C96.6358 511.298 90.7533 513.277 82.55 513.277V515.277V517.277C91.3467 517.277 98.3643 515.155 103.263 510.59L101.9 509.127ZM82.55 515.277V513.277H29.45V515.277V517.277H82.55V515.277ZM29.45 515.277V513.277C21.2467 513.277 15.3643 511.298 11.4635 507.663L10.1 509.127L8.73655 510.59C13.6357 515.155 20.6533 517.277 29.45 517.277V515.277ZM10.1 509.127L11.4635 507.663C7.60055 504.064 5.5 498.531 5.5 490.677H3.5H1.5C1.5 499.222 3.79945 505.989 8.73655 510.59L10.1 509.127ZM3.5 490.677H5.5V465.477H3.5H1.5V490.677H3.5ZM3.5 465.477V467.477H108.5V465.477V463.477H3.5V465.477ZM18.5 490.377H16.5C16.5 493.486 17.4373 496.154 19.583 498.032L20.9 496.527L22.217 495.021C21.1627 494.099 20.5 492.667 20.5 490.377H18.5ZM20.9 496.527L19.5321 497.986C21.6786 499.998 24.8992 500.777 28.7 500.777V498.777V496.777C25.3008 496.777 23.3214 496.055 22.2679 495.068L20.9 496.527ZM28.7 498.777V500.777H83.3V498.777V496.777H28.7V498.777ZM83.3 498.777V500.777C87.1008 500.777 90.3214 499.998 92.4679 497.986L91.1 496.527L89.7321 495.068C88.6786 496.055 86.6992 496.777 83.3 496.777V498.777ZM91.1 496.527L92.417 498.032C94.5627 496.154 95.5 493.486 95.5 490.377H93.5H91.5C91.5 492.667 90.8373 494.099 89.783 495.021L91.1 496.527ZM93.5 490.377H95.5V481.977H93.5H91.5V490.377H93.5ZM93.5 481.977V479.977H18.5V481.977V483.977H93.5V481.977ZM18.5 481.977H16.5V490.377H18.5H20.5V481.977H18.5ZM108.5 526.414H110.5V524.414H108.5V526.414ZM108.5 542.914V544.914H110.5V542.914H108.5ZM3.5 542.914H1.5V544.914H3.5V542.914ZM3.5 526.414V524.414H1.5V526.414H3.5ZM108.5 526.414H106.5V542.914H108.5H110.5V526.414H108.5ZM108.5 542.914V540.914H3.5V542.914V544.914H108.5V542.914ZM3.5 542.914H5.5V526.414H3.5H1.5V542.914H3.5ZM3.5 526.414V528.414H108.5V526.414V524.414H3.5V526.414ZM108.5 555.272H110.5V553.272H108.5V555.272ZM108.5 575.971L108.995 577.909L110.5 577.525V575.971H108.5ZM45.65 592.022L45.1551 590.084L43.65 590.468V592.022H45.65ZM45.65 592.322H43.65V594.322H45.65V592.322ZM108.5 592.322H110.5V590.322H108.5V592.322ZM108.5 607.022V609.022H110.5V607.022H108.5ZM3.5 607.022H1.5V609.022H3.5V607.022ZM3.5 590.072L2.99979 588.135L1.5 588.522V590.072H3.5ZM80.15 570.272L80.6502 572.208L82.15 571.821V570.272H80.15ZM80.15 569.971H82.15V567.971H80.15V569.971ZM3.5 569.971H1.5V571.971H3.5V569.971ZM3.5 555.272V553.272H1.5V555.272H3.5ZM108.5 555.272H106.5V575.971H108.5H110.5V555.272H108.5ZM108.5 575.971L108.005 574.034L45.1551 590.084L45.65 592.022L46.1449 593.959L108.995 577.909L108.5 575.971ZM45.65 592.022H43.65V592.322H45.65H47.65V592.022H45.65ZM45.65 592.322V594.322H108.5V592.322V590.322H45.65V592.322ZM108.5 592.322H106.5V607.022H108.5H110.5V592.322H108.5ZM108.5 607.022V605.022H3.5V607.022V609.022H108.5V607.022ZM3.5 607.022H5.5V590.072H3.5H1.5V607.022H3.5ZM3.5 590.072L4.00021 592.008L80.6502 572.208L80.15 570.272L79.6498 568.335L2.99979 588.135L3.5 590.072ZM80.15 570.272H82.15V569.971H80.15H78.15V570.272H80.15ZM80.15 569.971V567.971H3.5V569.971V571.971H80.15V569.971ZM3.5 569.971H5.5V555.272H3.5H1.5V569.971H3.5ZM3.5 555.272V557.272H108.5V555.272V553.272H3.5V555.272ZM8.75 624.385L7.40146 622.908L7.39337 622.916L7.38536 622.923L8.75 624.385ZM103.1 624.385L101.735 625.847L101.743 625.855L101.751 625.862L103.1 624.385ZM103.1 660.985L101.751 659.508L101.743 659.516L101.735 659.523L103.1 660.985ZM74.6 667.285H72.6V669.285H74.6V667.285ZM74.6 651.685V649.685H72.6V651.685H74.6ZM47.75 651.685V653.685H49.75V651.685H47.75ZM47.75 643.435V641.435H45.75V643.435H47.75ZM62.75 643.435H64.75V641.435H62.75V643.435ZM62.75 667.285V669.285H64.75V667.285H62.75ZM8.75 660.985L7.38536 662.447L7.39337 662.455L7.40146 662.462L8.75 660.985ZM2 642.685H4C4 635.064 6.13225 629.564 10.1146 625.847L8.75 624.385L7.38536 622.923C2.36775 627.606 0 634.306 0 642.685H2ZM8.75 624.385L10.0985 625.862C14.2136 622.105 20.2151 620.085 28.4 620.085V618.085V616.085C19.5849 616.085 12.4864 618.265 7.40146 622.908L8.75 624.385ZM28.4 618.085V620.085H83.6V618.085V616.085H28.4V618.085ZM83.6 618.085V620.085C91.7882 620.085 97.727 622.106 101.735 625.847L103.1 624.385L104.465 622.923C99.473 618.264 92.4118 616.085 83.6 616.085V618.085ZM103.1 624.385L101.751 625.862C105.826 629.582 108 635.077 108 642.685H110H112C112 634.293 109.574 627.588 104.449 622.908L103.1 624.385ZM110 642.685H108C108 650.293 105.826 655.788 101.751 659.508L103.1 660.985L104.449 662.462C109.574 657.782 112 651.077 112 642.685H110ZM103.1 660.985L101.735 659.523C97.727 663.264 91.7882 665.285 83.6 665.285V667.285V669.285C92.4118 669.285 99.473 667.106 104.465 662.447L103.1 660.985ZM83.6 667.285V665.285H74.6V667.285V669.285H83.6V667.285ZM74.6 667.285H76.6V651.685H74.6H72.6V667.285H74.6ZM74.6 651.685V653.685H84.65V651.685V649.685H74.6V651.685ZM84.65 651.685V653.685C88.3252 653.685 91.4536 652.934 93.6863 651.09C95.9921 649.185 97 646.405 97 643.135H95H93C93 645.566 92.2829 647.061 91.1387 648.006C89.9214 649.011 87.8748 649.685 84.65 649.685V651.685ZM95 643.135H97C97 639.866 95.9921 637.086 93.6863 635.181C91.4536 633.336 88.3252 632.585 84.65 632.585V634.585V636.585C87.8748 636.585 89.9214 637.259 91.1387 638.265C92.2829 639.21 93 640.705 93 643.135H95ZM84.65 634.585V632.585H27.2V634.585V636.585H84.65V634.585ZM27.2 634.585V632.585C23.5693 632.585 20.4737 633.339 18.2652 635.19C15.9891 637.098 15 639.875 15 643.135H17H19C19 640.695 19.7109 639.197 20.8348 638.255C22.0263 637.257 24.0307 636.585 27.2 636.585V634.585ZM17 643.135H15C15 646.395 15.9891 649.172 18.2652 651.08C20.4737 652.932 23.5693 653.685 27.2 653.685V651.685V649.685C24.0307 649.685 22.0263 649.014 20.8348 648.015C19.7109 647.073 19 645.575 19 643.135H17ZM27.2 651.685V653.685H47.75V651.685V649.685H27.2V651.685ZM47.75 651.685H49.75V643.435H47.75H45.75V651.685H47.75ZM47.75 643.435V645.435H62.75V643.435V641.435H47.75V643.435ZM62.75 643.435H60.75V667.285H62.75H64.75V643.435H62.75ZM62.75 667.285V665.285H28.4V667.285V669.285H62.75V667.285ZM28.4 667.285V665.285C20.2151 665.285 14.2136 663.265 10.0985 659.508L8.75 660.985L7.40146 662.462C12.4864 667.105 19.5849 669.285 28.4 669.285V667.285ZM8.75 660.985L10.1146 659.523C6.13225 655.806 4 650.306 4 642.685H2H0C0 651.064 2.36775 657.764 7.38536 662.447L8.75 660.985Z" fill="#666666" mask="url(#path-1-outside-1_16_39)"/>
</svg>
