<svg width="225" height="276" viewBox="0 0 225 276" fill="none" xmlns="http://www.w3.org/2000/svg">
<path d="M69.5829 275.211C69.4132 274.777 69.2784 272.016 69.2784 269.08C69.2784 264.072 70.8862 252.718 72.2594 248.044C73.1632 244.973 72.8336 243.44 69.7927 236.545C65.8729 227.668 64.8343 222.18 65.7531 215.175C66.0926 212.584 66.6868 209.423 67.0713 208.155C67.4558 206.887 67.7704 205.613 67.7754 205.324C67.7804 205.039 65.9877 204.54 63.8007 204.225C61.6136 203.906 59.087 203.267 58.1832 202.802C57.2844 202.338 54.5231 199.911 52.0514 197.405C48.4462 193.75 46.3241 192.117 41.3158 189.166C31.2143 183.205 22.7805 177.453 19.9343 174.577C18.4763 173.104 15.9447 169.873 14.3119 167.402C12.679 164.93 9.26361 160.117 6.72701 156.702C-0.648131 146.781 -0.333551 147.335 0.300601 145.248C0.605193 144.249 1.43908 141.413 2.15812 138.942C3.83088 133.18 5.60351 128.546 7.21635 125.71C7.92041 124.472 9.45336 120.357 10.6268 116.563C13.8325 106.172 16.6238 102.672 25.0175 98.498L29.0322 96.5008L29.916 92.8609C31.8135 85.0419 35.868 79.2 41.845 75.6699C45.4852 73.518 50.868 72.1549 54.8277 72.3795L57.544 72.5343L54.4232 74.936C52.7055 76.2541 51.3024 77.5323 51.3024 77.767C51.3024 78.0067 52.7055 77.6222 54.4232 76.9182C58.6576 75.1756 67.3559 74.7263 71.3256 76.0444C74.6062 77.1329 77.7121 79.9589 79.255 83.2444C79.9041 84.6324 80.6531 85.7658 80.9178 85.7658C81.7217 85.7658 80.8229 80.2585 79.6345 77.8719C77.6022 73.8026 72.5889 70.8067 67.7803 70.7818C63.3862 70.7618 63.2314 70.2325 66.8516 67.6561C70.3619 65.1646 74.0969 63.462 79.7643 61.7893C81.8216 61.1802 84.4431 60.1516 85.5815 59.5025C88.5875 57.7899 92.6621 53.0416 95.2436 48.2433L97.4906 44.0741L97.4956 32.3405C97.5006 21.256 97.5655 20.4271 98.679 17.3614C102.02 8.17926 106.094 3.89525 111.512 3.88526C112.081 3.88027 113.544 3.22119 114.758 2.41731C118.882 -0.30888 124.045 -0.773231 127.815 1.24894C128.724 1.73327 132.424 3.13631 136.039 4.36958C141.442 6.20202 142.515 6.72629 142.046 7.2905C141.592 7.83474 141.836 8.27912 143.199 9.41753C145.317 11.1801 148.263 12.7878 150.919 13.6217L152.917 14.2508L151.294 14.6203C150.255 14.8549 149.671 15.2893 149.671 15.8286C149.671 16.7673 152.267 19.4036 154.155 20.3772L155.393 21.0163L154.28 21.5106C153.665 21.7852 153.166 22.1547 153.166 22.3295C153.166 22.5042 154.065 23.5278 155.163 24.6013C157.306 26.6884 157.6 27.3475 156.412 27.3475C155.173 27.3475 155.558 28.4459 157.495 30.4282L159.323 32.3006L157.87 32.8698C156.482 33.409 151.733 33.2392 148.587 32.5352C147.289 32.2456 147.249 32.3105 146.934 35.1616C146.41 39.8949 146.181 40.6788 144.862 42.0969C143.649 43.405 143.619 43.6297 143.769 49.5015L143.929 55.558L141.846 55.7078C139.474 55.8826 139.09 56.2471 138.271 59.1231C137.942 60.2765 137.158 61.5297 136.503 61.9591C135.769 62.4384 135.105 63.6018 134.751 65.0198C134.082 67.6711 132.679 69.2889 131.051 69.2889C130.422 69.2889 127.805 68.6048 125.234 67.776C122.662 66.9421 120.335 66.333 120.065 66.4229C119.621 66.5727 118.867 68.49 115.142 78.9304C113.484 83.5689 114.643 83.2543 117.993 78.1515C118.672 77.1229 119.451 76.2791 119.726 76.2791C120.545 76.2791 128.289 80.3534 128.005 80.633C127.865 80.7778 126.761 81.0774 125.558 81.3021C122.937 81.7914 117.714 84.0283 117.714 84.6624C117.714 84.912 120.035 85.2566 122.872 85.4313C128.774 85.7908 133.383 87.049 138.376 89.6554C142.051 91.5777 146.505 95.3225 147.644 97.4445C148.562 99.1571 149.172 99.0972 149.172 97.2997C149.172 95.4673 146.6 90.5192 144.518 88.3522C142.351 86.0904 137.927 83.469 135.06 82.7501C133.757 82.4205 132.694 81.9462 132.694 81.6965C132.694 80.5731 137.537 79.1501 142.181 78.9054C147.968 78.6008 151.543 79.2799 156.062 81.5417C160.032 83.524 165.649 88.3872 165.649 89.8351C165.649 90.3844 164.955 91.8373 164.102 93.0756C162.414 95.5322 162.504 96.4958 164.276 94.938C166.144 93.3003 169.255 91.368 171.876 90.2096C176.984 87.9578 184.175 89.246 187.84 93.0656C189.548 94.8431 191.09 98.0537 191.105 99.8512C191.115 100.96 191.5 101.374 193.238 102.143C195.559 103.167 196.229 102.752 194.8 101.179C194.166 100.475 193.832 99.1621 193.702 96.8154C193.532 93.8446 193.747 92.836 195.559 88.0277C196.683 85.0369 197.607 82.0111 197.607 81.3021C197.607 79.7642 194.93 67.6911 194.111 65.5441C193.033 62.7081 192.294 62.2986 188.294 62.2986C186.007 62.2986 183.546 61.9391 181.753 61.34C180.175 60.8107 176.909 60.2265 174.503 60.0468C168.9 59.6174 167.412 58.2942 169.374 55.4882C169.964 54.6493 169.994 54.145 169.534 52.9217C169 51.5137 169.095 51.2291 170.743 49.2319C174.912 44.179 178.422 40.8286 179.546 40.8286C180.834 40.8286 182.227 41.5676 191.909 47.3845C195.669 49.6413 199.444 52.1928 200.298 53.0565C201.292 54.0552 202.46 56.287 203.549 59.2529C205.596 64.8551 210.779 75.4602 215.283 83.2693C217.101 86.4249 219.198 90.8088 219.937 93.0057C221.165 96.6556 221.285 97.6792 221.305 104.839C221.315 109.153 221.465 112.523 221.64 112.329C221.809 112.139 222.364 110.741 222.873 109.233L223.792 106.487L224.121 108.983C224.306 110.356 224.621 114.286 224.825 117.721C225.26 125.161 225.345 125.021 219.323 126.888C212.222 129.095 209.436 129.645 204.098 129.899C200.743 130.059 196.563 130.703 192.489 131.682C183.87 133.754 179.88 134.043 174.612 132.975C169.025 131.841 166.264 130.598 161.455 127.028L157.445 124.057L156.432 125.46C152.717 130.578 151.259 132.336 147.669 136.011C144.568 139.186 143.219 141.034 141.816 144.034C140.029 147.859 139.994 148.044 139.904 154.67C139.854 158.374 139.579 162.364 139.3 163.532C139.005 164.77 138.96 166.433 139.2 167.527C140.213 172.175 141.182 182.291 141.192 188.293C141.202 198.034 141.861 203.117 143.574 206.767C144.363 208.459 147.594 213.662 150.744 218.331C159.682 231.567 164.246 241.493 166.668 252.952C167.777 258.21 168.496 269.928 167.936 273.663L167.587 276H118.737C74.6512 276 69.8526 275.925 69.5829 275.211ZM82.4757 180.234C82.4457 175.88 82.266 174.961 80.6931 171.147C78.6958 166.293 73.8822 158.354 70.0823 153.641C68.6142 151.814 66.1226 149.527 64.32 148.343C60.4402 145.797 55.6116 141.193 52.4858 137.049C51.1975 135.342 49.9692 133.749 49.7545 133.509C49.5447 133.264 48.4163 133.879 47.2528 134.877C44.3966 137.324 41.7452 138.522 37.5708 139.251C35.6483 139.586 34.0105 139.91 33.9306 139.965C33.8507 140.02 34.9792 142.057 36.4423 144.494C40.0774 150.55 41.106 153.037 42.5491 159.278C43.2282 162.224 44.3317 165.499 45.0008 166.558C47.6772 170.797 58.9671 182.92 60.8496 183.574C61.9132 183.944 63.0267 183.774 65.818 182.8C70.4618 181.187 76.4088 180.953 78.4761 182.311C79.235 182.805 80.2287 183.859 80.6831 184.648C81.9814 186.909 82.5156 185.591 82.4757 180.234ZM138.186 172.18C138.186 167.616 137.677 165.874 136.199 165.405C134.97 165.02 131.75 165.484 130.686 166.203C130.052 166.633 130.082 166.788 130.896 167.302C133.448 168.905 135.175 170.897 136.189 173.393C136.803 174.906 137.502 176.14 137.747 176.14C137.986 176.14 138.186 174.357 138.186 172.18ZM128.699 173.553C128.699 171.985 126.976 167.097 126.087 166.144C125.273 165.275 124.734 165.125 123.271 165.38C120.949 165.784 118.712 166.663 118.712 167.172C118.712 167.387 120.115 168.36 121.833 169.329C123.551 170.298 125.628 171.751 126.452 172.56C128.1 174.182 128.699 174.447 128.699 173.553ZM137.961 158.929C138.361 157.975 138.686 155.693 138.686 153.851C138.686 149.657 137.956 148.678 134.841 148.678C132.709 148.678 129.698 149.801 129.698 150.59C129.698 150.805 130.591 151.374 131.685 151.858C133.977 152.872 135.42 154.68 135.914 157.166C136.733 161.255 136.923 161.42 137.961 158.929ZM126.127 154.879C125.883 148.883 124.904 148.254 119.466 150.62L117.469 151.489L120.31 153.301C122.063 154.425 123.591 155.893 124.3 157.136C124.934 158.25 125.643 159.158 125.878 159.158C126.112 159.163 126.227 157.236 126.127 154.879ZM139.3 143.9C140.353 140.215 139.425 135.976 137.108 133.904C134.306 131.402 128.609 129.14 127.92 130.254C127.765 130.503 127.88 130.703 128.165 130.703C129.013 130.703 131.655 134.682 132.279 136.899C132.629 138.143 133.697 139.775 135.015 141.074C136.204 142.247 137.317 143.775 137.492 144.469C137.892 146.067 138.76 145.797 139.3 143.9ZM125.693 138.817C125.678 133.459 124.884 130.918 122.557 128.776L121.274 127.592L118.867 129.595C117.549 130.693 115.287 132.186 113.844 132.905C112.401 133.624 111.222 134.403 111.222 134.638C111.222 134.872 112.211 135.197 113.419 135.362C114.623 135.526 116.48 136.051 117.539 136.53C119.616 137.464 123.706 141.054 123.706 141.942C123.706 142.576 124.724 143.685 125.303 143.685C125.523 143.685 125.698 141.493 125.693 138.817ZM118.113 122.839C120.705 119.174 121.434 116.668 121.618 110.826C121.743 106.886 121.553 104.09 120.994 101.569C118.957 92.4215 112.875 84.3828 106.369 82.2358C103.827 81.3969 103.732 82.1159 106.124 84.1032C107.293 85.0718 108.96 86.9042 109.839 88.1775L111.427 90.4892L109.699 89.3358C107.507 87.8729 102.314 85.4263 100.432 84.9719C99.1934 84.6674 99.6278 85.2815 103.503 89.3109C108.446 94.4537 110.313 96.9552 112.595 101.494C116.6 109.468 117.339 115.354 115.402 123.893C115.102 125.216 115.157 125.281 116.111 124.766C116.68 124.462 117.584 123.598 118.113 122.839Z" fill="#B2B2B2"/>
</svg>
