<svg width="228" height="251" viewBox="0 0 228 251" fill="none" xmlns="http://www.w3.org/2000/svg">
<g filter="url(#filter0_d_19_328)">
<path d="M86.918 61.8232L75.9785 60.5439L75.9336 60.5391L75.9238 60.583L44.1875 208.343L44.1738 208.403H170.765L170.506 209.943H121.124L121.109 209.964L119.729 211.796L119.669 211.876H170.123L169.948 213L169.765 214.182L169.672 214.772L169.632 215.025L111.49 214.766H111.468L111.453 214.782L110.533 215.798L110.458 215.881L110.569 215.882L169.358 216.474L169.35 216.479L169.329 216.492L169.326 216.517L169.258 217.073L169.189 217.631L169.12 218.188L168.983 219.005L168.914 219.415L168.846 219.822L168.714 220.384L126.438 220.285H126.411L126.396 220.308L125.937 220.997L125.935 221L125.544 221.69L125.502 221.765H168.471L168.432 222.285L168.156 223.926L168.094 224.294L118.849 224.425H118.827L118.812 224.44L117.433 225.95L117.355 226.033H167.802L167.743 226.386L167.467 228.025L167.102 230.174H122.046L122.031 230.191L120.605 231.831L120.533 231.914H166.854L166.372 234.544H8.06055L44.2852 56.2344L44.2959 56.1807L44.2412 56.1748L32.9121 54.9346L70.915 8.10449L86.918 61.8232Z" fill="#B2B2B2" stroke="#666666" stroke-width="0.1"/>
<path d="M122.973 123.234L137.895 124.309L125.086 177.48C123.696 183.309 121.07 188.335 117.208 192.558C113.372 196.782 108.642 199.959 103.017 202.087C97.3946 204.188 91.245 204.998 84.5685 204.517C77.8384 204.031 72.2707 202.377 67.8654 199.553C63.4621 196.702 60.4029 192.964 58.6879 188.339C56.9997 183.716 56.8509 178.49 58.2414 172.661L71.0494 119.491L85.9709 120.566L73.4538 172.504C72.6434 175.896 72.6777 178.971 73.557 181.73C74.4649 184.463 76.1107 186.684 78.4941 188.392C80.9044 190.102 83.9998 191.094 87.7805 191.366C91.5611 191.639 95.0215 191.12 98.1615 189.81C101.302 188.5 103.933 186.588 106.054 184.072C108.178 181.53 109.645 178.563 110.456 175.172L122.973 123.234Z" fill="white"/>
<path d="M137.895 160.042L157.507 78.6577L188.396 80.8844C194.724 81.3406 199.76 82.8896 203.505 85.5313C207.251 88.1463 209.74 91.5734 210.971 95.8129C212.203 100.025 212.188 104.728 210.924 109.919C209.685 115.139 207.457 119.696 204.238 123.587C201.047 127.481 196.993 130.436 192.077 132.454C187.163 134.445 181.528 135.211 175.174 134.753L154.702 133.277L157.637 121.158L176.098 122.489C179.799 122.755 182.982 122.338 185.649 121.236C188.342 120.137 190.521 118.515 192.185 116.371C193.849 114.227 195.028 111.711 195.721 108.823C196.387 105.933 196.426 103.349 195.835 101.069C195.245 98.7895 193.908 96.9547 191.825 95.5647C189.771 94.1499 186.881 93.3081 183.153 93.0394L169.479 92.0537L152.816 161.118L137.895 160.042Z" fill="white"/>
</g>
<defs>
<filter id="filter0_d_19_328" x="0" y="0" width="227.884" height="250.594" filterUnits="userSpaceOnUse" color-interpolation-filters="sRGB">
<feFlood flood-opacity="0" result="BackgroundImageFix"/>
<feColorMatrix in="SourceAlpha" type="matrix" values="0 0 0 0 0 0 0 0 0 0 0 0 0 0 0 0 0 0 127 0" result="hardAlpha"/>
<feOffset dx="4" dy="4"/>
<feGaussianBlur stdDeviation="6"/>
<feComposite in2="hardAlpha" operator="out"/>
<feColorMatrix type="matrix" values="0 0 0 0 0 0 0 0 0 0 0 0 0 0 0 0 0 0 0.75 0"/>
<feBlend mode="normal" in2="BackgroundImageFix" result="effect1_dropShadow_19_328"/>
<feBlend mode="normal" in="SourceGraphic" in2="effect1_dropShadow_19_328" result="shape"/>
</filter>
</defs>
</svg>
