<svg width="198" height="261" viewBox="0 0 198 261" fill="none" xmlns="http://www.w3.org/2000/svg">
<path d="M80.1392 141.275C80.1392 142.575 80.5092 142.985 81.5492 142.495C80.6693 143.055 80.3892 143.425 80.5792 143.595C78.1892 143.895 77.5592 143.545 77.1292 141.905C76.8692 140.895 76.5992 140.325 76.1092 140.395C77.1192 139.225 78.1092 138.135 78.9992 137.215C81.8892 134.235 83.5092 132.275 84.4192 130.465C83.7592 131.935 82.8192 133.235 81.3892 134.815C79.4192 136.995 77.8092 138.945 77.8092 139.145C77.8092 139.335 81.2393 138.655 85.5492 137.625C85.1392 137.735 84.7392 137.845 84.3592 137.945C80.5992 139.005 80.4892 139.135 82.8092 139.745L83.0592 139.815C82.9592 139.805 82.8392 139.805 82.7292 139.805C81.0792 139.785 80.1392 140.325 80.1392 141.275ZM138.539 110.405C138.439 110.565 138.299 110.775 138.149 111.025C136.549 113.575 137.819 114.815 140.289 114.595C139.759 114.765 139.179 114.975 138.589 115.225C136.649 116.035 134.819 116.455 134.519 116.155C134.219 115.855 133.039 116.115 131.899 116.725C128.239 118.685 129.649 116.985 134.379 113.725C136.509 112.265 138.189 110.905 138.539 110.405ZM92.0392 144.515C92.1892 144.295 92.1292 144.245 91.8092 144.415C90.9892 144.855 89.8592 145.315 89.3092 145.435C88.9292 145.525 87.3192 146.115 85.2792 146.915C89.1392 145.045 92.7792 142.795 91.6092 142.785C90.2492 142.765 78.4092 146.675 74.3492 148.375C75.8092 147.645 77.9692 146.845 81.0592 145.825C84.7692 144.605 87.8092 143.155 87.8092 142.585C87.8092 141.985 87.0792 141.875 86.0592 142.325C85.9592 142.365 85.8392 142.415 85.6992 142.465C85.8492 142.405 85.9992 142.335 86.1592 142.275C91.2892 140.125 93.7492 140.295 93.1092 142.745C92.9792 143.245 92.6392 143.825 92.0392 144.515ZM122.649 101.145C122.579 101.195 122.509 101.255 122.419 101.315C120.039 103.065 121.649 103.735 124.789 102.765C124.349 102.925 123.889 103.095 123.389 103.275C119.699 104.675 116.989 105.295 117.379 104.655C117.879 103.845 117.149 103.645 114.919 103.975C112.929 104.265 112.099 104.085 112.689 103.495C113.209 102.975 115.709 102.315 118.249 102.025C120.479 101.775 121.949 101.465 122.649 101.145ZM144.809 43.495V46.105C144.809 46.145 144.809 46.195 144.809 46.245C144.799 44.505 144.669 44.585 143.459 46.235C142.609 47.395 141.629 47.785 140.809 47.275C140.189 46.895 139.909 46.8449 139.969 47.125C138.559 45.805 137.169 43.955 136.559 42.5149C136.989 43.045 137.739 43.5949 138.789 44.1149C141.639 45.5349 141.969 45.535 142.539 44.035C142.809 43.325 142.719 42.605 142.359 42.235C143.899 42.845 143.939 42.805 143.469 42.025C143.399 41.905 143.389 41.655 143.439 41.315C143.519 41.985 143.929 42.605 144.809 43.495ZM33.2292 54.535C31.8292 55.385 30.7792 55.715 29.7692 55.735C29.1292 55.755 28.6692 56.2849 28.4292 56.9549C27.7492 56.6349 25.5592 57.085 20.1792 58.355C17.9092 58.895 17.5492 58.7749 18.4792 57.7849C19.1192 57.0949 22.4992 56.2349 25.9792 55.8649C28.8392 55.5649 31.7692 55.015 33.2292 54.535ZM14.7892 248.775C14.9392 250.825 15.4392 250.285 17.5592 245.775C17.8092 245.245 18.0492 244.705 18.2792 244.185C17.6692 246.205 17.0992 249.605 16.8592 252.775C16.7992 253.715 16.7292 254.535 16.6692 255.245C16.6492 253.765 16.3592 252.775 15.8692 252.775C15.2892 252.775 14.8092 253.445 14.8092 254.275C14.8092 255.325 14.2992 255.745 13.5192 255.715C14.4692 255.105 14.7492 252.705 14.6992 248.235C14.6992 247.825 14.6992 247.415 14.6992 247.015C14.7092 247.595 14.7392 248.195 14.7892 248.775ZM164.809 79.275C164.809 79.765 165.609 79.365 166.719 78.485C164.879 80.125 162.769 81.8049 161.279 82.8149C161.539 82.1849 160.679 78.315 159.329 74.105C158.899 72.745 158.489 71.285 158.129 69.855C159.449 74.795 161.399 79.775 162.389 79.775C163.039 79.775 165.199 77.985 167.179 75.795C168.569 74.245 169.419 73.235 169.909 72.245C169.499 73.105 168.829 73.9649 167.789 75.1449C166.149 77.0149 164.809 78.875 164.809 79.275ZM125.919 102.365C126.049 102.315 126.179 102.265 126.309 102.205C128.349 101.355 130.269 100.905 130.569 101.205C130.869 101.495 129.769 102.315 128.119 103.005C125.079 104.295 124.769 106.355 127.199 106.215C126.689 106.345 126.069 106.525 125.369 106.755C119.179 108.795 119.049 107.115 125.179 104.345C132.149 101.195 131.979 100.295 125.919 102.365ZM93.3292 129.455C93.6092 129.655 93.8992 129.855 94.1992 130.065C95.4292 130.915 96.0392 131.465 96.1592 132.065C95.8992 131.995 95.3592 132.105 94.4692 132.325C92.8192 132.735 91.8892 132.435 91.4792 131.345C91.0692 130.295 91.4492 129.765 92.5892 129.735C93.1292 129.725 93.3792 129.635 93.3292 129.455ZM127.289 108.135C126.329 109.145 126.009 110.145 126.369 111.065C126.539 111.515 126.709 111.915 126.849 112.225C125.979 112.225 125.269 112.145 124.759 111.955C122.599 111.155 122.649 111.035 126.209 108.835C126.609 108.585 126.969 108.355 127.289 108.135ZM142.319 114.145C143.649 113.705 145.139 112.965 146.639 111.895C147.379 111.375 147.959 110.995 158.069 116.665C154.199 115.735 151.419 114.555 150.059 113.325C149.249 112.585 148.959 111.815 149.249 111.065C149.499 110.425 149.199 110.335 148.389 110.775C147.919 111.035 147.269 111.475 146.449 112.095C144.589 113.525 142.849 114.475 142.589 114.215C142.539 114.175 142.449 114.145 142.319 114.145ZM155.079 19.7249C154.989 18.5149 155.429 18.075 156.379 18.435C158.159 19.125 158.229 20.405 156.509 21.055C155.769 21.345 155.159 20.7849 155.079 19.7249ZM21.5392 236.555C21.8892 236.705 22.4192 236.775 23.1392 236.775C24.5492 236.775 25.9892 237.255 26.3492 237.835C26.7992 238.565 25.8292 238.685 23.3392 238.215C22.0492 237.975 21.1892 237.875 20.6492 237.935C20.8992 237.825 21.1892 237.765 21.5192 237.755C22.9292 237.745 23.0092 237.555 21.9292 236.875C21.7792 236.775 21.6492 236.675 21.5392 236.555ZM11.7292 160.685C13.3292 160.045 14.4992 160.065 15.1792 160.745C15.8892 161.455 15.1292 161.755 12.7592 161.715C9.51924 161.655 9.45924 161.585 11.7292 160.685ZM111.809 151.275C111.809 150.455 112.539 149.775 113.429 149.775C114.759 149.775 114.829 150.045 113.809 151.275C113.129 152.095 112.399 152.775 112.189 152.775C111.979 152.775 111.809 152.095 111.809 151.275ZM95.6792 133.615C95.6492 133.655 95.6292 133.685 95.6092 133.725C94.9692 134.755 93.0792 135.875 91.4292 136.205C90.6792 136.355 89.6092 136.595 88.4692 136.875C92.5092 135.755 94.9892 134.635 95.6792 133.615ZM88.7692 123.785C88.7393 123.815 88.6992 123.845 88.6492 123.875C87.7192 124.445 88.8893 126.055 91.9092 128.395C91.8392 128.355 91.7592 128.305 91.6792 128.265C89.0192 126.825 87.1892 123.935 88.7692 123.785ZM50.6092 37.5449C51.2492 37.7549 48.1292 41.385 43.6792 45.605C43.5292 45.745 43.3792 45.885 43.2292 46.025C47.4092 41.885 51.1893 37.7349 50.6092 37.5449ZM70.4692 147.465C70.2592 147.795 70.0392 148.125 69.8092 148.475C65.1992 155.455 64.9393 156.145 66.5493 157.335L66.5592 157.345C66.7592 157.495 66.9392 157.635 67.0992 157.765C66.9392 157.625 66.7593 157.485 66.5493 157.335C64.9093 156.125 65.0792 155.585 68.9492 149.655C69.3892 148.995 69.8992 148.255 70.4692 147.465ZM82.3992 141.995C82.6892 141.805 83.0092 141.575 83.3692 141.305C84.0592 140.785 84.4892 140.445 84.6392 140.225L85.3092 140.405L82.3992 141.995ZM133.139 111.185C137.209 110.095 138.499 109.715 138.659 109.995C138.689 110.055 138.669 110.165 138.589 110.305C138.609 110.265 138.609 110.235 138.589 110.215C138.399 110.035 135.999 110.465 133.139 111.185ZM170.719 64.275C171.879 66.725 172.059 69.6449 171.369 72.1749C171.919 69.6249 171.739 66.415 170.719 64.275ZM143.059 37.275C144.259 34.655 145.999 31.875 147.029 31.525C147.399 31.395 147.919 31.375 148.509 31.435C146.469 31.345 145.349 32.7549 143.299 36.7949C143.219 36.9549 143.139 37.115 143.059 37.275ZM81.1792 153.095C81.1592 152.785 81.8192 152.335 83.3092 151.505C83.4992 151.395 83.6992 151.275 83.9192 151.145C83.4092 151.515 82.8692 151.895 82.3092 152.295L81.1792 153.095ZM128.649 105.965L130.309 105.605L129.229 106.485C129.449 106.125 129.249 105.945 128.649 105.965ZM6.98924 250.825C6.16924 249.705 5.52924 248.505 5.23924 247.345C5.09924 246.785 5.05925 245.945 5.10925 244.975C5.09925 247.195 5.69924 249.025 6.98924 250.825ZM85.3892 127.315C85.3992 127.275 85.3992 127.245 85.4092 127.215C86.1092 121.995 86.5792 119.745 87.1992 119.035C86.6692 119.805 86.1892 121.885 85.7192 125.315C85.6292 126.035 85.5192 126.705 85.3892 127.315ZM118.689 99.3649C118.699 99.3749 118.719 99.375 118.729 99.375C122.289 99.815 123.439 100.075 123.129 100.645C123.059 100.195 121.579 99.7349 118.689 99.3649ZM158.789 80.525C158.799 82.255 159.189 83.3849 159.739 83.7049C159.629 83.7549 159.529 83.7749 159.469 83.7749C159.109 83.7749 158.799 82.3149 158.789 80.525ZM144.749 47.135C144.579 48.265 144.079 48.725 143.049 48.775C143.849 48.575 144.539 47.995 144.749 47.135ZM28.3192 58.7049C28.4392 59.2149 28.7092 59.605 29.1392 59.735C28.4392 59.855 28.1392 59.5249 28.3192 58.7049ZM19.9292 238.795C19.9292 238.825 19.9392 238.865 19.9492 238.905C20.0892 239.615 19.6492 241.205 18.9592 242.535C19.6192 240.825 20.0092 239.455 19.9392 239.025C19.9192 238.945 19.9192 238.865 19.9292 238.795ZM88.0292 118.855C88.5992 119.155 89.0292 120.225 89.1892 121.315C88.7692 120.005 88.3892 119.185 88.0292 118.855ZM153.699 33.6549C153.769 33.7749 153.809 33.895 153.809 34.005C153.809 34.445 153.109 34.665 151.959 34.635C153.269 34.545 153.869 34.1649 153.699 33.6549ZM15.0992 241.235C15.2392 240.345 15.4092 239.725 15.5892 239.485C16.1192 238.825 16.3892 237.235 16.1792 235.965C16.3892 237.235 16.2092 238.725 15.7792 239.275C15.5092 239.625 15.2792 240.315 15.0992 241.235ZM71.9192 158.775C72.7192 158.775 75.1192 157.975 77.5992 156.905C75.3392 157.915 72.9592 158.775 71.9192 158.775ZM99.6592 103.855C103.529 101.785 107.679 100.355 111.539 99.6749C107.679 100.365 103.489 101.805 99.6592 103.855ZM21.2292 234.895C21.2292 235.055 21.1992 235.205 21.1392 235.355C21.0992 235.455 21.0692 235.555 21.0492 235.645C21.0192 235.405 21.0592 235.185 21.1792 234.995C21.1992 234.965 21.2092 234.925 21.2292 234.895ZM71.8092 150.965C71.8092 150.485 72.0092 150.045 72.4692 149.595C72.0792 150.075 71.8092 150.605 71.8092 150.965ZM75.9692 150.575C74.0892 151.245 72.9592 151.515 72.3592 151.465C72.9392 151.495 74.0292 151.225 75.9692 150.575ZM135.309 40.305C134.979 40.165 134.809 39.645 134.809 38.785C134.809 39.565 135.009 40.125 135.309 40.305ZM17.9892 233.725C18.1892 233.135 19.0992 232.945 20.0192 233.305C20.0192 233.305 20.0292 233.305 20.0392 233.315C19.0992 232.965 18.1892 233.145 17.9892 233.725ZM149.589 50.875C149.609 50.195 149.499 49.515 149.289 48.855C149.519 49.505 149.609 50.165 149.589 50.875ZM13.7792 260.575C14.4192 260.495 14.9092 260.385 15.2892 260.185C14.9092 260.405 14.4292 260.495 13.7792 260.575ZM136.249 41.075C136.259 40.935 136.299 40.805 136.359 40.705C136.329 40.815 136.299 40.935 136.249 41.075ZM151.259 55.715C150.289 54.655 149.539 52.475 149.589 50.885C149.549 52.485 150.299 54.655 151.259 55.715ZM34.2592 56.655C34.8192 56.215 35.3992 55.745 35.9792 55.255C35.3692 55.765 34.7992 56.225 34.2592 56.655Z" fill="#F2F2F2"/>
<path d="M7.78935 258.545C0.999355 253.965 -1.57065 246.125 0.949351 237.695C1.80935 234.835 1.79935 232.425 0.929354 227.975C0.289354 224.715 0.0493534 221.315 0.389353 220.415C1.13935 218.485 5.94935 218.235 10.6794 219.885C13.1594 220.745 14.2094 220.685 15.4894 219.635C16.9694 218.415 17.0194 218.495 15.9694 220.465C15.3294 221.675 14.3493 222.945 13.7993 223.275C12.4293 224.125 12.5593 228.125 14.0093 229.575C14.9393 230.505 14.9293 231.055 13.9393 232.025C11.7193 234.205 8.49935 229.155 9.11935 224.495C9.56935 221.165 9.43935 220.835 8.11935 221.935C6.97935 222.885 6.70935 224.575 7.05935 228.735C7.32935 232.015 6.90935 236.395 6.03935 239.465C5.21935 242.365 4.85935 245.845 5.23935 247.345C6.53935 252.525 14.8094 258.515 14.8094 254.275C14.8094 253.445 15.2893 252.775 15.8693 252.775C16.4793 252.775 16.7993 254.355 16.6193 256.525C16.3593 259.695 15.9194 260.325 13.7794 260.575C12.3594 260.735 9.71935 259.845 7.78935 258.545ZM14.7894 248.775C14.4794 244.735 14.9394 240.355 15.7794 239.275C16.2094 238.725 16.3894 237.235 16.1794 235.965C15.9694 234.695 16.2194 233.905 16.7194 234.225C17.2294 234.535 17.7994 234.305 17.9894 233.725C18.1894 233.135 19.1194 232.955 20.0694 233.325C21.0194 233.685 21.5194 234.435 21.1794 234.995C20.8294 235.545 21.1694 236.395 21.9294 236.875C23.0094 237.555 22.9293 237.745 21.5194 237.755C20.5294 237.765 19.8193 238.335 19.9393 239.025C20.0593 239.715 18.9894 242.755 17.5594 245.775C15.4394 250.285 14.9394 250.825 14.7894 248.775ZM25.8393 207.835C25.8193 207.045 26.6694 205.475 27.7094 204.335C28.7594 203.205 30.4494 200.895 31.4594 199.205C40.9094 183.465 44.7794 179.465 53.1094 176.805C57.0894 175.525 62.4693 169.665 66.3093 162.415C68.2094 158.835 68.2194 158.565 66.5593 157.345C64.9393 156.155 65.1893 155.475 69.8093 148.475C75.5593 139.755 76.3794 139.015 77.1294 141.905C77.5894 143.645 78.2594 143.925 80.9994 143.545C82.8194 143.285 85.0993 142.735 86.0593 142.325C87.0793 141.875 87.8093 141.985 87.8093 142.585C87.8093 143.155 84.7693 144.605 81.0593 145.825C74.0294 148.135 71.8093 149.365 71.8093 150.965C71.8093 152.085 74.1693 151.435 82.3093 148.115C85.6094 146.765 88.7593 145.555 89.3093 145.435C89.8594 145.315 90.9893 144.855 91.8093 144.415C92.6293 143.965 91.7393 145.005 89.8093 146.715C87.8793 148.435 84.9594 150.585 83.3093 151.505C80.8194 152.895 80.6194 153.245 82.1594 153.565C83.4494 153.845 82.4493 154.675 78.8093 156.365C75.9493 157.695 72.8493 158.775 71.9193 158.775C70.1993 158.775 63.6994 168.915 62.2994 173.775C61.3094 177.215 57.8893 180.745 56.1793 180.085C55.4093 179.785 53.3193 180.565 51.5393 181.825C48.6894 183.825 33.3993 199.965 27.8993 206.775C26.6093 208.365 25.8594 208.755 25.8393 207.835ZM58.8294 197.645C58.8094 196.035 61.4794 193.115 62.2694 193.895C62.4894 194.125 61.8093 195.425 60.7593 196.785C59.3394 198.645 58.8494 198.865 58.8294 197.645ZM142.849 197.645C134.009 196.165 128.009 192.665 119.059 183.775C114.519 179.275 110.809 174.825 110.809 173.905C110.809 171.675 113.599 167.775 115.189 167.775C115.889 167.775 117.519 166.655 118.809 165.275C121.369 162.555 123.409 162.065 124.059 164.015C124.699 165.955 137.369 153.265 143.519 144.525C146.519 140.265 149.389 136.775 149.889 136.775C151.979 136.775 149.899 140.975 145.459 145.725C142.839 148.515 140.949 151.195 141.249 151.675C141.549 152.165 140.599 153.335 139.139 154.295C134.059 157.625 127.809 164.045 127.809 165.935C127.809 166.985 128.489 168.095 129.309 168.415C131.479 169.245 131.159 170.295 128.319 171.585C125.159 173.025 123.389 172.335 121.899 169.065C120.989 167.075 120.439 166.745 119.529 167.655C118.629 168.555 118.639 169.225 119.589 170.555C121.589 173.345 124.649 180.065 125.259 182.985C126.299 187.985 136.189 193.635 144.059 193.735C147.429 193.775 149.189 192.465 146.929 191.605C144.799 190.805 135.809 182.405 135.809 181.225C135.809 180.505 135.129 179.235 134.299 178.415C133.369 177.475 133.179 176.665 133.799 176.275C135.109 175.475 135.119 169.775 133.809 169.775C133.259 169.775 132.809 169.255 132.809 168.625C132.809 167.885 133.449 168.025 134.559 168.985C135.519 169.825 136.839 170.325 137.489 170.085C138.929 169.555 141.159 173.405 140.259 174.865C138.649 177.465 141.109 182.985 146.429 188.735C151.839 194.575 153.059 198.065 149.799 198.405C148.979 198.495 145.849 198.155 142.849 197.645ZM69.8093 188.305C69.8093 187.355 75.9694 184.665 77.1294 185.105C77.7794 185.345 76.6394 186.275 74.5893 187.165C70.6593 188.865 69.8093 189.065 69.8093 188.305ZM81.4193 178.955C80.6893 177.775 83.3393 175.455 84.8493 175.955C85.5093 176.175 85.1593 177.055 83.9893 178.115C82.8793 179.115 81.7494 179.485 81.4193 178.955ZM68.8093 167.975C68.8093 165.555 70.1594 163.775 71.9994 163.775C73.0893 163.775 73.7993 164.295 73.5893 164.935C73.0493 166.565 68.8093 169.265 68.8093 167.975ZM157.809 159.485C157.809 159.185 162.199 157.945 167.559 156.725C180.359 153.805 184.149 152.435 191.129 148.145C197.899 143.975 199.859 144.275 193.939 148.565C186.559 153.905 173.109 159.035 165.059 159.565C161.069 159.825 157.809 159.795 157.809 159.485ZM116.519 143.145C116.169 142.805 116.579 141.185 117.419 139.555C118.269 137.925 118.809 136.475 118.629 136.345C118.459 136.205 115.379 135.305 111.809 134.335C103.529 132.085 95.8093 128.815 95.8093 127.545C95.8093 127.005 96.3693 126.805 97.0593 127.095C108.149 131.825 117.559 134.775 121.809 134.855C123.739 134.885 126.209 135.275 127.309 135.705C129.059 136.395 128.909 136.585 126.089 137.205C124.309 137.605 121.759 139.235 120.399 140.845C117.779 143.965 117.499 144.125 116.519 143.145ZM80.1394 141.275C80.1394 140.325 81.0793 139.785 82.7293 139.805C85.2094 139.835 85.2393 139.895 83.3693 141.305C80.9093 143.165 80.1394 143.155 80.1394 141.275ZM77.8093 139.145C77.8093 138.945 79.4193 136.995 81.3894 134.815C84.2094 131.705 85.1294 129.665 85.7194 125.315C86.7194 117.955 87.7994 116.795 89.2494 121.525C89.6594 122.855 89.5194 123.775 88.9094 123.775C87.0894 123.775 88.9493 126.785 91.6793 128.265C93.5593 129.285 93.8194 129.705 92.5893 129.735C91.4493 129.765 91.0693 130.295 91.4793 131.345C91.8894 132.435 92.8194 132.735 94.4694 132.325C96.5894 131.795 96.7293 131.925 95.6993 133.575C94.9493 134.785 91.6393 136.135 86.1793 137.465C81.5793 138.585 77.8093 139.345 77.8093 139.145ZM153.309 134.775C152.969 134.225 152.949 133.355 153.259 132.855C154.079 131.525 150.809 131.025 147.379 131.945C145.119 132.555 144.719 132.465 145.629 131.555C146.919 130.265 161.149 128.585 163.409 129.455C164.179 129.745 164.809 130.365 164.809 130.815C164.809 131.765 160.859 133.265 159.189 132.955C158.579 132.845 157.509 133.425 156.819 134.265C155.359 136.015 154.179 136.185 153.309 134.775ZM182.699 133.035C182.639 132.615 182.669 131.265 182.769 130.025C182.999 127.255 177.399 121.335 175.319 122.135C174.519 122.435 171.379 121.595 168.349 120.245C165.309 118.905 160.689 117.295 158.069 116.665C151.909 115.185 148.489 113.055 149.219 111.135C149.609 110.125 148.789 110.365 146.639 111.895C140.979 115.925 135.439 115.355 138.149 111.025C139.099 109.505 139.479 109.485 132.809 111.275C129.789 112.085 127.249 112.755 127.169 112.765C127.089 112.765 126.729 112.005 126.369 111.065C125.939 109.945 126.499 108.715 128.009 107.485L130.309 105.605L128.109 106.085C124.729 106.815 124.749 104.435 128.119 103.005C129.769 102.315 130.869 101.495 130.569 101.205C130.269 100.905 128.349 101.355 126.309 102.205C122.229 103.915 119.669 103.325 122.419 101.315C123.919 100.215 123.429 99.955 118.729 99.375C113.359 98.705 106.119 100.405 99.6594 103.855C97.4494 105.035 97.3993 104.995 98.8093 103.255C100.179 101.565 100.149 101.465 98.4793 102.085C97.4693 102.465 96.2894 102.775 95.8594 102.775C95.4294 102.775 93.8993 103.965 92.4493 105.415C90.4693 107.385 89.7993 109.075 89.7794 112.165C89.7494 115.625 89.5794 115.975 88.6594 114.395C86.9894 111.515 88.3994 102.995 91.2694 98.6649C92.6694 96.535 93.5093 94.1649 93.1693 93.2849C92.8393 92.4149 93.3693 90.815 94.3393 89.735C95.3593 88.615 95.6293 87.7749 94.9593 87.7749C93.0793 87.7749 93.6494 85.1249 95.8594 83.6449C97.3894 82.6249 98.0194 80.8849 98.3594 76.7749C98.6094 73.755 99.2593 68.575 99.8093 65.2749C100.359 61.9749 101.179 55.675 101.639 51.275C102.179 46.015 102.709 43.965 103.189 45.275C103.589 46.375 104.569 48.565 105.379 50.135C106.559 52.445 106.589 52.9049 105.499 52.485C104.539 52.115 104.199 52.755 104.319 54.625C104.809 61.8149 106.089 65.6749 108.879 68.3349C111.589 70.9449 112.759 73.7749 111.109 73.7749C110.719 73.7749 108.889 72.3149 107.029 70.5249L103.659 67.2749L104.339 70.2749C105.299 74.5949 107.949 77.965 112.309 80.435C115.879 82.4549 115.969 82.615 113.719 82.965C112.389 83.1649 109.879 83.0449 108.139 82.6749C105.679 82.1649 105.089 82.3249 105.499 83.3949C105.789 84.1549 105.499 84.7749 104.859 84.7749C104.219 84.7749 103.969 85.2249 104.309 85.7749C104.649 86.325 104.169 86.7749 103.239 86.7749C100.749 86.7749 94.8093 90.715 94.8093 92.3549C94.8093 94.255 95.7393 94.1349 99.3093 91.7749C102.569 89.6149 107.849 89.255 114.279 90.7449C118.959 91.825 119.339 91.6249 117.859 88.8649C116.899 87.0749 117.019 86.7749 118.719 86.7749C119.799 86.7749 120.969 87.2249 121.309 87.7749C122.029 88.935 123.869 89.1349 123.689 88.0249C123.309 85.6249 124.179 85.965 127.289 89.4149C130.299 92.7649 130.769 92.9949 130.789 91.1449C130.799 89.9749 130.109 88.4349 129.259 87.7249C128.399 87.0249 127.239 85.575 126.669 84.515C125.769 82.835 125.909 82.675 127.759 83.265C129.679 83.865 129.819 83.655 129.179 81.1049C128.549 78.545 128.639 78.4049 130.139 79.6449C131.059 80.4049 131.809 81.6249 131.809 82.3649C131.809 83.1549 132.429 83.4749 133.309 83.1349C134.129 82.825 134.809 81.7449 134.809 80.7549C134.809 79.7549 135.289 78.7849 135.869 78.5849C136.459 78.3949 137.069 76.535 137.239 74.465C137.409 72.2749 138.329 70.045 139.419 69.155C141.079 67.795 141.099 67.6749 139.559 68.1649C137.509 68.8049 137.279 67.7449 139.059 65.825C140.079 64.725 139.989 64.595 138.559 65.095C135.769 66.075 136.459 63.195 139.559 60.935C142.609 58.715 142.139 56.9949 138.959 58.695C135.809 60.3849 135.429 58.215 138.449 55.845C141.539 53.415 141.469 53.255 136.859 52.065L133.409 51.175L135.799 48.785C137.389 47.195 137.769 46.2649 136.939 45.985C136.259 45.755 134.859 44.675 133.839 43.575C132.809 42.475 130.809 41.505 129.389 41.425C126.509 41.255 126.039 39.665 128.309 37.775C130.449 35.995 130.159 34.445 127.809 35.065C126.409 35.435 125.809 35.095 125.799 33.935C125.779 31.165 118.039 23.9249 113.719 22.635C110.279 21.595 109.239 21.695 106.029 23.315C103.979 24.345 101.529 25.2149 100.579 25.2349C99.6294 25.2549 98.8394 25.615 98.8294 26.025C98.8194 26.4349 98.8093 27.215 98.8093 27.745C98.8093 28.275 100.049 29.385 101.559 30.205C105.599 32.395 102.739 32.0949 97.6693 29.7949C92.8894 27.6249 86.7593 27.3149 79.8093 28.8749C77.3293 29.4349 74.2693 29.8649 72.9994 29.8349C71.7294 29.8049 69.3694 30.4749 67.7494 31.3049C64.4694 33.0049 44.2094 48.265 35.9794 55.255C33.0394 57.735 30.0993 59.775 29.4393 59.775C27.6493 59.775 27.9794 55.785 29.7694 55.735C32.3793 55.6749 35.2893 53.565 43.6793 45.605C48.1293 41.385 51.2494 37.7549 50.6094 37.5449C49.0494 37.0249 50.5394 34.775 52.4494 34.775C53.2794 34.775 56.5494 32.5249 59.7194 29.775C65.9394 24.365 68.9994 23.315 68.0593 26.925C67.5593 28.855 67.7893 29.0049 70.3993 28.3749C71.9993 28.0049 74.0593 26.8049 74.9694 25.7349C76.3594 24.0949 77.9794 23.7649 84.9694 23.705C90.5594 23.655 92.6493 23.3549 91.3093 22.775C90.2094 22.305 87.8493 21.885 86.0593 21.8449C84.2693 21.8049 82.8093 21.315 82.8093 20.755C82.8093 20.195 83.8194 19.9449 85.0593 20.1949C96.7193 22.5849 100.849 22.9149 104.349 21.7649C108.919 20.2549 113.679 20.9749 119.679 24.0949C122.219 25.4249 125.319 26.825 126.559 27.205C128.509 27.815 128.809 27.555 128.809 25.215C128.809 23.725 127.859 20.9649 126.689 19.0849C123.229 13.4849 122.739 9.42495 125.049 5.59495C127.649 1.25495 127.799 1.13495 128.619 2.47495C129.139 3.30495 130.789 3.18495 134.819 2.04495C142.339 -0.095053 148.759 -0.585047 152.159 0.714953C154.579 1.63495 154.919 2.19495 154.369 4.38495C153.929 6.13495 154.399 8.10495 155.809 10.495C156.949 12.435 157.599 14.3049 157.229 14.6549C156.869 14.9949 156.069 14.4149 155.439 13.3649C152.159 7.82495 149.209 5.57495 144.519 5.04495C140.049 4.54495 139.599 4.72495 136.189 8.33495C132.939 11.7749 132.639 12.575 133.079 16.465C133.349 18.835 133.239 20.775 132.849 20.775C131.439 20.775 131.779 30.825 133.289 33.735C134.129 35.3549 134.809 37.625 134.809 38.785C134.809 40.125 135.229 40.635 135.959 40.175C136.689 39.725 136.849 39.905 136.379 40.665C135.339 42.345 140.479 48.775 142.859 48.775C144.309 48.775 144.809 48.085 144.809 46.105V43.425L147.239 45.705C148.789 47.165 149.639 49.035 149.589 50.885C149.539 52.475 150.289 54.655 151.259 55.715C152.919 57.555 152.589 60.3749 150.829 59.2849C150.369 59.0049 150.229 59.6649 150.509 60.7549C150.809 61.8949 149.699 65.305 147.889 68.765C145.309 73.735 144.949 75.1649 145.869 76.8849C146.849 78.7049 146.739 78.885 145.039 78.345C143.379 77.825 142.569 79.005 139.319 86.7449C136.349 93.8349 135.799 96.0549 136.719 97.1649C137.359 97.9449 141.359 100.255 145.599 102.305C149.839 104.355 155.789 107.235 158.809 108.705C165.869 112.135 182.759 123.485 183.439 125.265C183.729 126.005 184.069 127.365 184.209 128.275C184.339 129.185 184.959 130.255 185.589 130.635C186.359 131.115 186.089 131.745 184.769 132.565C183.689 133.245 182.759 133.455 182.699 133.035ZM109.809 97.2749C112.149 96.4549 116.369 95.7449 119.189 95.715C123.669 95.655 123.999 95.515 121.809 94.625C118.329 93.215 111.159 94.0649 105.809 96.5349C100.369 99.0449 103.269 99.5849 109.809 97.2749ZM107.309 92.7749C106.969 92.2249 105.589 91.7749 104.249 91.7749C102.909 91.7749 101.809 92.2249 101.809 92.7749C101.809 93.325 103.189 93.7749 104.869 93.7749C106.649 93.7749 107.669 93.3549 107.309 92.7749ZM136.309 125.775C136.669 125.195 135.739 124.775 134.119 124.775L131.309 124.765L134.579 122.775C139.039 120.055 139.829 120.255 138.499 123.775C137.879 125.425 136.989 126.775 136.529 126.775C136.069 126.775 135.969 126.325 136.309 125.775ZM52.8894 120.435C54.0394 119.135 67.3693 113.035 70.3093 112.455C71.9594 112.135 75.1094 112.225 77.3093 112.665C81.4294 113.495 81.4393 113.475 75.8093 115.505C74.7494 115.895 75.0394 116.245 76.8093 116.715L79.3093 117.385L76.8093 118.055C75.4294 118.425 72.0593 118.465 69.3093 118.145C64.9393 117.635 59.7594 118.425 53.9994 120.485C53.0694 120.825 52.5694 120.795 52.8894 120.435ZM158.809 101.955C158.809 100.935 166.769 96.395 167.419 97.045C168.139 97.775 161.859 102.775 160.229 102.775C159.449 102.775 158.809 102.405 158.809 101.955ZM151.509 92.2749C149.749 88.575 150.179 87.9849 153.059 90.1649C154.809 91.4949 155.529 95.7749 153.999 95.7749C153.549 95.7749 152.429 94.2049 151.509 92.2749ZM170.829 94.5549C170.789 93.1949 175.209 84.7749 175.959 84.7749C177.059 84.7749 175.039 89.895 172.799 92.7749C171.729 94.1549 170.839 94.9449 170.829 94.5549ZM65.9394 88.295C67.9394 87.5649 71.3094 85.815 73.4394 84.405C77.4294 81.775 89.7893 79.375 88.4893 81.485C88.1393 82.055 85.6894 82.7249 83.0494 82.9749C79.7594 83.2949 76.8794 84.435 73.8794 86.6049C70.8094 88.835 68.4394 89.7549 65.9094 89.7049L62.3094 89.6349L65.9394 88.295ZM158.789 80.5249C158.779 78.7349 157.969 75.4749 156.999 73.2749C156.019 71.075 155.089 67.4749 154.919 65.2749C154.759 63.0749 154.159 60.715 153.589 60.025C152.869 59.145 152.929 58.775 153.799 58.775C154.549 58.775 154.839 57.985 154.519 56.775C154.229 55.675 154.349 54.555 154.789 54.285C155.839 53.635 156.779 57.325 156.809 62.275C156.819 64.475 157.959 69.795 159.329 74.1049C160.709 78.405 161.579 82.3449 161.259 82.8549C160.049 84.8049 158.809 83.6349 158.789 80.5249ZM164.809 79.2749C164.809 78.8749 166.149 77.0149 167.789 75.1449C170.429 72.1449 170.709 71.215 170.269 67.015C169.909 63.575 170.029 62.8249 170.719 64.2749C172.249 67.4949 171.889 73.1149 170.009 75.2749C167.669 77.9849 164.809 80.185 164.809 79.2749ZM176.809 77.0249C176.819 75.5649 181.639 70.2849 182.339 70.9749C182.729 71.3649 181.979 73.0249 180.679 74.6749C178.369 77.5849 176.799 78.5449 176.809 77.0249ZM57.4794 72.1049C56.3293 70.9549 56.7494 69.7749 58.3094 69.7749C59.1294 69.7749 59.8094 70.4549 59.8094 71.2749C59.8094 72.8349 58.6294 73.255 57.4794 72.1049ZM40.4394 62.7249C43.0794 57.8649 47.2994 54.125 56.1094 48.8349C58.1994 47.575 60.1394 46.7749 60.4094 47.0449C60.6894 47.3249 58.0694 49.1349 54.5894 51.0849C47.0394 55.305 45.5894 56.785 42.9194 63.025C41.6994 65.865 40.2394 67.7749 39.2794 67.7749C37.9694 67.7749 38.1794 66.8749 40.4394 62.7249ZM109.809 46.275C109.809 44.785 110.239 43.925 110.809 44.275C111.359 44.615 111.809 45.515 111.809 46.275C111.809 47.035 111.359 47.935 110.809 48.275C110.239 48.625 109.809 47.765 109.809 46.275ZM142.079 42.1149C141.189 41.7649 141.529 40.285 143.299 36.7949C146.059 31.3449 147.139 30.685 151.059 32.025C155.039 33.395 154.439 34.985 150.079 34.605C146.679 34.305 146.209 34.575 144.679 37.775C143.769 39.705 143.219 41.615 143.469 42.025C143.969 42.845 143.889 42.8549 142.079 42.1149Z" fill="#B3B3B3"/>
</svg>
