<svg width="173" height="260" viewBox="0 0 173 260" fill="none" xmlns="http://www.w3.org/2000/svg">
<path d="M95.4056 258.493C97.5099 257.64 100.833 256.109 102.785 255.097L106.337 253.249L100.483 253.096C95.4493 252.959 93.733 253.167 88.1851 254.583C84.6431 255.486 81.1285 256.366 80.3742 256.53C78.0403 257.044 80.489 256.022 88.9831 252.937C95.9959 250.395 98.2806 249.148 95.9522 249.148C95.4985 249.148 95.1323 248.661 95.1323 248.054C95.1323 247.354 95.4985 246.961 96.1435 246.961C96.6955 246.961 97.5974 246.469 98.144 245.862C99.1224 244.779 99.1115 244.768 97.2695 245.118C96.2473 245.315 95.094 245.719 94.7114 246.02C94.3288 246.321 93.886 246.441 93.733 246.288C93.5799 246.135 91.9894 246.315 90.1911 246.693C88.3982 247.065 86.9334 247.158 86.9334 246.895C86.9334 246.627 87.1793 246.414 87.48 246.414C87.7806 246.414 88.0266 246.168 88.0266 245.867C88.0266 245.233 85.6707 245.123 85.064 245.73C84.8399 245.955 82.894 246.173 80.735 246.212C78.5814 246.25 76.0835 246.447 75.1816 246.654C73.591 247.021 73.5746 247.004 74.635 246.124C75.6735 245.26 75.5424 245.227 72.1753 245.495C70.224 245.648 65.9168 246.261 62.6099 246.851C50.0492 249.093 45.9388 249.389 38.9698 248.568L32.5473 247.808L40.6697 247.431C45.1353 247.218 49.4425 246.879 50.2351 246.671C51.0276 246.469 54.5094 245.845 57.9639 245.298C68.9778 243.543 71.8747 243.013 72.9952 242.553C73.5965 242.302 75.1324 241.941 76.406 241.749C77.685 241.558 78.893 241.137 79.0897 240.814C79.3302 240.421 78.7126 240.333 77.1767 240.535C75.7938 240.721 74.9083 240.623 74.9083 240.278C74.9083 239.929 74.6186 239.961 74.1431 240.355C73.5528 240.842 73.3122 240.825 73.1155 240.284C72.9078 239.721 72.7165 239.715 72.1371 240.262C71.6834 240.683 69.9452 240.929 67.5566 240.902C63.1292 240.853 63.4408 240.514 68.4312 239.956L71.902 239.568L66.2011 238.332C63.0636 237.654 59.7622 236.73 58.8603 236.281C57.9584 235.833 56.7778 235.609 56.2312 235.778C55.5534 235.997 55.3239 235.866 55.5152 235.373C55.6901 234.914 55.056 234.422 53.7333 234.012C52.6018 233.656 51.1861 233.192 50.5849 232.978C49.5081 232.601 49.5081 232.607 50.5576 233.421C51.5196 234.176 51.3337 234.209 48.486 233.76C45.2993 233.263 31.6946 228.981 28.7211 227.548C27.1579 226.788 27.1469 226.75 28.4041 226.739C29.1365 226.734 31.4705 227.33 33.5968 228.062C37.0512 229.255 41.4513 230.102 48.5352 230.939C50.0274 231.114 50.8582 230.999 50.8582 230.611C50.8582 230.283 50.6505 230.009 50.399 230.009C49.437 230.009 40.5877 222.665 37.0184 218.898C33.6897 215.393 28.3276 208.694 27.0814 206.496C26.8299 206.042 28.7758 207.95 31.4104 210.734C36.1985 215.786 43.02 221.26 49.7978 225.476C54.3782 228.325 62.3312 232.388 62.6701 232.049C62.8122 231.907 61.6261 231.114 60.0355 230.288C56.816 228.615 55.7775 227.882 55.7775 227.28C55.7775 227.056 57.9803 227.948 60.6695 229.26C63.725 230.758 66.2339 231.628 67.3653 231.589C68.3546 231.551 69.7813 231.688 70.5356 231.896C71.2899 232.103 70.3442 231.496 68.4476 230.545C66.5454 229.594 65.1079 228.697 65.25 228.549C65.3976 228.407 66.2995 228.691 67.256 229.189C68.2125 229.686 69.1199 229.965 69.2729 229.812C69.426 229.659 67.9884 228.751 66.0808 227.794C61.1123 225.306 55.5042 221.49 54.4548 219.882C53.9574 219.127 52.0115 216.847 50.1312 214.824C48.2509 212.801 45.8568 210.045 44.8183 208.699L42.9326 206.255L45.3922 208.021C48.9232 210.559 53.5638 213.604 53.9027 213.604C54.8429 213.604 60.4017 217.749 62.5772 220.073C65.25 222.933 70.8744 227.122 71.3718 226.624C71.5249 226.466 70.2896 225.285 68.6225 223.994C66.9554 222.704 65.6818 221.555 65.802 221.44C65.9168 221.326 67.8135 222.343 70.0108 223.699C72.2136 225.055 74.1431 226.034 74.307 225.87C74.471 225.706 74.3398 225.405 74.0173 225.197C72.5962 224.273 65.0696 218.351 65.0696 218.159C65.0696 217.459 76.5754 226.017 78.893 228.44C80.3414 229.954 80.5601 229.719 80.1829 227.002C79.8167 224.311 77.9364 220.166 77.0837 220.166C76.7886 220.166 76.5481 219.805 76.5481 219.362C76.5481 218.92 74.6678 216.951 72.3666 214.988C68.3984 211.603 66.7094 210.58 67.584 212.101C67.8135 212.5 67.7698 212.593 67.4801 212.33C67.2068 212.079 66.9772 211.587 66.9718 211.237C66.9663 210.881 66.4252 210.613 65.7693 210.635C65.1133 210.657 64.7034 210.477 64.8564 210.225C65.0095 209.979 64.8728 209.744 64.5558 209.711C62.4405 209.459 53.1703 205.003 50.9019 203.149L49.5792 202.066L51.2299 200.557C52.2301 199.649 53.0336 198.244 53.2632 197.014C53.4764 195.898 53.859 195.116 54.1213 195.275C54.3837 195.439 55.0834 194.892 55.6737 194.061C57.0566 192.109 59.6037 186.815 59.6037 185.886C59.6037 185.492 59.8442 185.17 60.1339 185.17C60.4236 185.17 60.5438 185.602 60.3962 186.126C60.2541 186.651 60.4946 186.345 60.9374 185.443C61.3801 184.541 61.7518 184.109 61.7627 184.486C61.7791 184.863 62.1235 185.17 62.528 185.17C63.5228 185.17 65.0696 186.952 65.0696 188.1C65.0696 188.615 65.4413 189.172 65.8895 189.347C66.3377 189.517 66.7094 190.135 66.7094 190.714C66.7094 192.907 68.3984 195.636 71.8583 199.053C76.8815 204.002 83.4024 208.481 86.6983 209.241C88.1796 209.58 90.2512 210.225 91.3061 210.673C93.4324 211.576 96.772 215.584 96.772 217.241C96.772 217.826 97.0453 218.58 97.3788 218.914C98.1167 219.652 97.5646 220.713 96.4441 220.713C95.974 220.713 95.7007 221.118 95.7936 221.67C95.9139 222.397 95.575 222.627 94.3616 222.627C92.3774 222.627 91.8964 223.814 93.4433 224.896C94.695 225.777 94.5146 226.876 93.2028 226.373C92.6999 226.181 92.3993 226.395 92.3993 226.958C92.3993 227.455 92.771 227.997 93.2192 228.172C93.6674 228.341 94.0391 228.812 94.0391 229.211C94.0391 230.873 96.4714 232.147 101.779 233.257L103.779 233.673L104.146 231.157C104.774 226.821 109.032 219.636 109.748 221.692C109.95 222.261 110.175 222.266 110.901 221.719C111.399 221.342 111.049 221.883 110.131 222.922C108.283 225.006 107.157 227.291 107.157 228.948C107.157 229.834 106.594 231.229 105.627 232.727C105.534 232.869 105.228 232.623 104.949 232.18C104.37 231.261 104.195 235.882 104.758 237.348C105.348 238.884 106.042 238.266 105.785 236.434C105.621 235.291 105.676 235.051 105.933 235.751C106.157 236.352 106.961 237.829 107.715 239.032C108.475 240.235 109.431 241.881 109.841 242.685C110.721 244.423 112.984 245.49 115.159 245.189L116.723 244.981L115.356 244.391C114.012 243.811 114.028 243.795 116.078 243.401C117.226 243.177 118.439 242.559 118.772 242.028C119.171 241.383 119.663 241.203 120.237 241.487C123.309 243.013 124.348 243.352 125.627 243.248C126.414 243.182 127.305 242.881 127.605 242.581C128.524 241.662 129.201 241.985 128.403 242.963C128.168 243.253 128.021 243.45 127.966 243.565C126.141 243.953 125.583 244.478 125.364 245.894C125.2 246.972 125.315 246.955 127.89 245.512C130.513 244.035 130.956 243.193 129.136 243.374C129.781 243.231 130.732 243.133 131.524 243.133C132.552 243.133 133.394 242.854 133.394 242.515C133.394 242.176 133.919 241.044 134.564 240.005C135.411 238.627 135.848 238.31 136.171 238.835C136.427 239.245 136.351 239.715 135.99 239.934C135.618 240.164 136.028 240.47 136.974 240.678C137.859 240.875 138.953 241.159 139.406 241.312C139.86 241.465 141.582 241.793 143.233 242.039C144.883 242.285 146.638 242.646 147.124 242.843C147.791 243.106 147.988 242.887 147.944 241.935C147.889 240.858 147.283 240.486 143.779 239.409C138.969 237.922 136.564 236.905 139.133 237.435C140.035 237.621 142.063 237.954 143.642 238.173C146.222 238.534 146.512 238.474 146.512 237.55C146.512 236.987 146.015 235.554 145.408 234.362C144.615 232.814 143.954 232.196 143.079 232.196C141.451 232.196 140.281 230.348 141.084 229.052C141.516 228.352 141.494 227.652 141.002 226.455C140.625 225.553 140.363 224.628 140.412 224.404C140.543 223.792 135.979 217.749 132.519 213.949C130.841 212.106 128.447 209.312 127.195 207.737C125.944 206.162 124.309 204.719 123.555 204.522C122.801 204.325 121.024 202.969 119.603 201.503C118.182 200.038 116.827 198.84 116.592 198.84C116.357 198.84 115.919 198.288 115.624 197.61C115.323 196.932 114.739 196.379 114.318 196.379C113.891 196.379 113.481 195.937 113.405 195.395C113.323 194.854 112.951 194.044 112.58 193.591C112.033 192.934 111.803 192.913 111.399 193.481C111.016 194.028 110.956 194.001 111.147 193.372C111.279 192.918 110.874 191.983 110.246 191.294C109.262 190.211 109.213 189.954 109.907 189.473C110.612 188.981 110.612 188.877 109.901 188.593C108.819 188.166 103.255 182.878 103.561 182.567C103.697 182.435 104.37 182.72 105.058 183.201C107.584 184.973 107.163 184.005 104.364 181.615C102.779 180.259 101.15 179.154 100.746 179.154C99.8494 179.154 96.0997 177.279 94.4326 175.994C93.7658 175.48 90.4589 172.254 87.0864 168.825C81.5931 163.231 80.8607 162.662 80.0354 163.351C79.1936 164.051 79.2537 164.144 80.6967 164.428C82.1999 164.724 82.0851 164.839 78.5814 166.479C76.5481 167.436 74.7006 168.212 74.482 168.212C74.2688 168.207 73.4434 167.037 72.6563 165.604C70.6886 162.033 64.8783 154.4 61.8556 151.42L59.3522 148.953L58.669 150.627C57.1057 154.449 55.619 161.148 55.2965 165.757L54.9576 170.679L46.8243 171.226L46.3488 173.079C45.7913 175.223 45.8022 175.239 49.765 176.984C54.8866 179.242 56.8707 180.751 56.8707 182.408C56.8707 185.618 50.0219 196.472 47.0102 198.031C45.3157 198.906 44.0804 198.682 44.4521 197.561C44.8784 196.281 39.9591 191.95 35.7011 189.861C31.2027 187.658 29.6066 186.449 27.7209 183.813C26.6823 182.359 26.5512 181.418 26.5074 175.064C26.4582 166.949 26.0647 164.85 24.7091 165.331C23.0256 165.927 27.0103 162.148 31.0387 159.321C33.2141 157.79 34.9086 156.45 34.7993 156.341C34.4057 155.953 27.8848 160.103 25.8133 162.066C25.4142 162.444 25.0371 162.75 24.966 162.75C24.6654 162.75 25.6766 154.558 26.2833 152.087C26.6495 150.583 27.5241 148.177 28.2292 146.744C29.4754 144.196 29.4809 144.152 28.3659 144.748C27.2344 145.355 27.2344 145.355 28.2401 143.529C28.7977 142.523 29.7323 141.145 30.3117 140.467C30.8966 139.789 31.0988 139.236 30.7599 139.236C30.4265 139.236 30.0002 139.482 29.8143 139.783C29.1967 140.778 28.6391 140.352 28.0488 138.438C27.5077 136.661 27.5733 136.464 29.1912 135.234C30.1313 134.512 32.8261 133.041 35.1709 131.953C39.2485 130.072 43.1567 127.879 48.8085 124.292C50.2351 123.389 51.4048 122.58 51.4048 122.503C51.4048 122.421 48.1471 123.914 44.1624 125.817C37.8329 128.841 31.0551 131.581 29.9127 131.581C29.7105 131.581 29.541 131.275 29.5356 130.897C29.5356 130.52 29.1639 129.497 28.7047 128.628C28.2511 127.753 27.9231 125.905 27.9778 124.527C28.0324 123.143 27.8903 121.235 27.6607 120.283C27.0376 117.735 28.6282 117.708 32.2303 120.218C36.4882 123.192 36.8162 122.766 33.0666 119.13C27.9778 114.203 26.972 112.819 23.9275 106.553C22.3588 103.326 20.9704 100.439 20.8447 100.138C20.719 99.8376 22.2385 101.155 24.2172 103.064C26.2013 104.978 28.3932 106.935 29.0874 107.417C30.3172 108.259 30.3336 108.248 29.541 107.236C29.0928 106.662 28.3495 105.716 27.9012 105.136C27.453 104.557 26.4473 103.321 25.6711 102.386C24.3703 100.816 19.9374 94.1123 18.9426 92.2094C18.7075 91.761 19.2979 92.2477 20.2544 93.303C21.9707 95.1896 21.9598 95.1568 19.6805 90.8423C17.7783 87.2333 17.2755 86.2053 16.8819 86.249C16.7015 86.2709 16.543 86.5224 16.2807 86.8505C14.3075 89.3276 4.50157 87.5887 1.36959 84.2039C0.0741645 82.804 -0.488827 80.1793 0.51144 80.1793C0.773804 80.1793 1.16188 79.0747 1.36412 77.7185C1.56636 76.3624 1.94351 75.2578 2.20588 75.2578C2.46824 75.2578 3.23348 76.3624 3.90579 77.7131C5.96644 81.8416 5.70955 80.0152 3.54504 75.1703C1.73035 71.1074 1.48438 69.9974 1.24934 64.9666C1.0471 60.5865 1.20015 58.6562 1.93805 56.3213C2.78527 53.6145 3.15695 53.1716 5.63302 51.8483C8.97271 50.0602 16.7781 44.9091 18.4725 43.3725C19.6695 42.2843 19.7023 42.2843 19.7023 43.3178C19.7023 44.4333 16.9803 46.2925 8.27853 51.1101C3.24987 53.8934 2.60489 54.7793 2.0419 59.6733C1.70848 62.577 2.19495 61.8989 3.23894 58.0001C3.96591 55.2878 5.20121 54.1121 10.137 51.4436C12.2413 50.3117 15.2695 48.5509 16.8655 47.5393C19.5274 45.8551 20.7955 45.6145 20.7955 46.8011C20.7955 47.594 10.5524 53.3849 9.14762 53.3849C7.92325 53.3849 5.12469 56.3815 4.81313 58.0274C4.63822 58.9242 4.76394 59.3671 5.15202 59.2414C5.49091 59.1265 5.88446 58.35 6.0375 57.5079C6.19055 56.6658 6.92298 55.5886 7.67728 55.1074L9.04377 54.2434L7.95058 55.512C7.10336 56.4908 6.85739 57.5681 6.85739 60.2475C6.85739 62.2981 7.13616 63.9987 7.54063 64.4034C8.08723 64.9502 8.22388 64.4799 8.22388 62.052C8.22388 57.9016 9.62315 56.0151 15.3405 52.4279C20.2817 49.3329 21.6264 48.447 22.561 48.7697C22.9546 48.9009 23.2771 49.2563 23.7745 49.7539C25.9554 51.9358 31.1589 55.2878 34.0723 56.3869C36.3297 57.24 36.8763 57.2782 38.0679 56.6385C40.1832 55.5065 45.3212 49.7321 46.6494 46.998C47.6934 44.8544 47.9995 44.5974 49.2075 44.8872C49.9672 45.0677 53.7606 45.5817 57.6359 46.0191C65.5834 46.9214 66.1355 47.1729 71.2079 52.0615L74.5639 55.2987L69.9179 46.5496L72.9624 49.7047C74.635 51.4436 76.0015 53.188 76.0015 53.5817C76.0015 53.9754 76.9854 55.6761 78.1879 57.3603C80.3141 60.3241 80.3414 60.4225 79.1444 60.6303C77.9583 60.8381 77.9528 60.8654 79.0078 61.3138C79.609 61.5708 81.0138 62.3528 82.1343 63.0472L84.1676 64.3159L81.7407 67.7882C79.4341 71.091 75.7883 74.7985 73.5036 76.1656C72.4705 76.7835 72.465 76.8108 73.4872 77.5818C74.072 78.0248 74.2907 78.5169 73.99 78.7028C73.4762 79.02 72.5306 78.2763 67.3926 73.5189C66.1136 72.3378 64.8564 71.5012 64.5941 71.6597C64.3317 71.8183 63.9546 73.0049 63.7523 74.29C63.5501 75.575 62.7302 77.6092 61.9376 78.8122C60.0683 81.6447 56.8215 87.966 57.1003 88.2449C57.2151 88.3597 58.1224 87.2716 59.1172 85.8225C60.112 84.3734 61.3637 82.7111 61.9048 82.1259C62.8723 81.076 62.8832 81.076 62.8778 82.1259C62.8723 82.7111 62.2656 84.4882 61.5277 86.085C60.4673 88.3597 60.2651 89.4042 60.5876 90.9626C61.074 93.2921 62.0688 93.8827 62.5061 92.0946C62.6755 91.4056 63.3369 89.1198 63.9764 87.0146C64.6159 84.9093 65.4522 81.7104 65.8348 79.9058L66.5345 76.6249L66.9062 81.2729C67.1084 83.832 67.0592 87.6434 66.7914 89.7487C66.1737 94.6154 66.5181 96.9011 68.0595 98.1151C68.7701 98.6729 69.2565 99.6298 69.2237 100.401C69.1745 101.555 69.4916 101.79 71.6287 102.189C74.9302 102.807 80.5218 102.424 80.8115 101.56C80.9591 101.117 81.3198 101.287 81.8555 102.047C82.5934 103.108 82.577 103.288 81.6587 103.983C81.1012 104.404 80.1939 104.759 79.6363 104.77C79.0843 104.781 77.9747 105.24 77.1767 105.793C75.1925 107.165 73.9135 107.575 73.5254 106.952C73.0554 106.181 69.8414 106.312 67.7753 107.181L65.977 107.936L69.027 108.822C70.6995 109.309 72.4596 109.708 72.9351 109.708C73.4106 109.708 74.6022 110.43 75.5806 111.315C77.1111 112.693 77.204 112.918 76.242 112.847C75.2691 112.781 66.3869 118.862 66.8242 119.299C66.9116 119.387 68.9504 118.501 71.3554 117.33C77.1657 114.503 79.4888 113.864 80.9974 114.673C81.8883 115.149 82.7027 115.143 84.348 114.651C85.6762 114.252 86.7147 114.192 87.0263 114.503C87.7587 115.236 84.0091 117.921 81.7298 118.293C80.6858 118.462 79.8276 118.763 79.8276 118.96C79.8276 119.157 81.3636 121.032 83.2439 123.132C89.9068 130.558 92.4485 133.752 93.2575 135.693C93.7111 136.77 95.504 139.428 97.2421 141.588C101.156 146.454 104.971 151.649 104.971 152.114C104.971 152.305 104.495 153.071 103.911 153.815C103.304 154.586 102.992 155.559 103.184 156.084C103.457 156.849 103.304 156.822 102.265 155.914C100.161 154.077 105.468 163.668 107.698 165.73C108.753 166.709 110.929 168.721 112.53 170.203C115.17 172.636 115.482 173.183 115.843 175.89L116.242 178.881L116.646 176.672C116.87 175.458 116.914 173.675 116.745 172.707C116.575 171.745 116.635 170.952 116.881 170.952C117.526 170.952 121.915 174.249 121.915 174.736C121.915 176.103 119.423 182.359 118.291 183.852C116.958 185.596 116.952 185.629 118.062 185.979C118.68 186.176 119.182 186.564 119.182 186.848C119.182 189.15 123.156 184.404 123.845 181.276C124.031 180.412 124.391 179.701 124.643 179.701C125.878 179.701 135.132 195.165 141.002 207.042C142.566 210.198 144.522 213.397 145.359 214.151C146.195 214.906 147.031 215.95 147.223 216.475C147.807 218.077 148.343 217.531 150.475 213.156C156.886 200.032 158.149 195.04 157.083 186.99C156.597 183.316 154.279 176.841 153.104 175.874C152.924 175.726 152.311 174.862 151.743 173.96C151.18 173.057 149.721 171.089 148.507 169.585C146.468 167.059 146.436 166.977 148.108 168.491C152.874 172.811 158.472 181.325 159.751 186.208C160.734 189.943 161.226 194.744 160.909 197.473C160.488 201.137 158.187 206.9 156.269 209.109C155.411 210.099 154.711 211.171 154.711 211.494C154.711 211.816 154.099 212.811 153.344 213.703C152.59 214.6 151.978 215.677 151.978 216.109C151.978 216.535 151.738 216.885 151.448 216.885C151.158 216.885 151.06 216.519 151.235 216.065C151.748 214.725 150.535 215.13 149.557 216.628C148.72 217.902 148.72 218.077 149.54 218.898C150.032 219.39 150.65 220.369 150.918 221.074C151.464 222.507 153.071 222.824 153.071 221.501C153.071 221.03 153.301 220.79 153.58 220.965C153.858 221.134 154.263 220.997 154.47 220.658C154.678 220.319 154.514 219.827 154.099 219.565C153.498 219.187 153.536 219.089 154.279 219.084C155.301 219.073 156.334 217.531 155.985 216.546C155.848 216.169 156.247 216.021 157.012 216.164C158.073 216.36 158.745 215.666 161.407 211.619C163.134 208.995 164.55 207.097 164.55 207.409C164.55 208.191 159.16 216.699 156.231 220.538C152.989 224.792 152.771 225.52 154.246 227.089C154.908 227.789 155.837 228.374 156.307 228.38C157.007 228.385 157.029 228.478 156.422 228.861C155.323 229.555 157.723 231.846 159.155 231.475C159.98 231.256 160.155 231.414 159.92 232.153C159.745 232.7 160.374 234.411 161.401 236.166C162.79 238.545 163.424 239.174 164.276 238.999C167.179 238.392 168.37 238.321 168.097 238.769C167.928 239.043 166.878 239.431 165.758 239.639C163.883 239.983 162.937 240.639 162.921 241.613C162.915 241.826 163.342 241.842 163.866 241.64C164.757 241.296 164.752 241.378 163.823 242.794C162.828 244.309 162.937 245.009 164.178 245.063C164.533 245.08 166.665 245.676 168.911 246.392L173 247.688L171.147 248.317L169.294 248.94L171.158 249.509C172.606 249.952 171.437 250.034 165.916 249.886C159.384 249.706 158.942 249.755 160.45 250.488C162.576 251.521 161.379 251.532 156.624 250.526C152.306 249.607 147.928 249.438 148.398 250.203C148.906 251.018 142.877 251.516 139.346 250.947C135.804 250.378 135.744 250.663 139.133 251.991C144.266 254.009 144.271 254.037 139.406 253.719C130.235 253.129 127.097 253.194 127.256 253.971C127.376 254.545 126.523 254.616 123.074 254.315C120.691 254.108 118.455 254.119 118.1 254.337C117.745 254.556 116.061 254.786 114.356 254.846C112.651 254.906 108.923 255.6 106.064 256.382C90.366 260.686 89.6609 260.828 95.4056 258.493ZM32.6074 52.1545C28.7922 50.0875 24.3648 46.2324 23.1896 43.9631C22.397 42.4265 22.4189 42.2625 23.6214 40.9829C24.7201 39.8127 24.9223 38.9542 25.0863 34.6835C25.2284 31.1729 25.1082 29.8441 24.6763 30.112C24.3211 30.3307 24.0751 30.0683 24.0751 29.4613C24.0751 28.8981 23.2224 27.0225 22.1784 25.2836C21.129 23.5501 20.0248 21.2261 19.7187 20.1215C19.0027 17.546 18.9918 12.5371 19.7023 12.0996C20.5769 11.5583 20.3364 10.7326 19.3088 10.7326C18.5381 10.7326 18.5873 10.5795 19.5876 9.87405C20.2653 9.40378 20.6698 8.78587 20.5004 8.50699C20.3255 8.22811 20.4512 7.99844 20.7737 7.99844C21.129 7.99844 21.2328 7.40787 21.036 6.49467C20.7846 5.33541 20.8393 5.17683 21.2875 5.81114C21.7794 6.50014 21.8723 6.45093 21.8778 5.49398C21.8833 4.8706 22.561 3.76602 23.3864 3.03327C24.4741 2.07086 24.6272 2.02165 23.933 2.84736C22.6321 4.40034 22.7305 5.11668 24.0751 3.89726C24.6763 3.35043 25.1683 3.06062 25.1683 3.24107C25.1683 3.42699 26.3763 2.97313 27.8521 2.22944C29.3279 1.49123 31.7274 0.747549 33.1813 0.583502C34.6353 0.424923 36.4992 0.184321 37.3245 0.0585511C38.3084 -0.0945598 38.7785 0.0530824 38.691 0.49601C38.609 0.917065 39.101 1.10845 40.0138 1.01549C40.8173 0.928002 42.5226 1.09752 43.8071 1.38733C45.3103 1.72637 46.4964 1.7209 47.1359 1.38187C47.7918 1.02643 48.1252 1.03737 48.1252 1.41468C48.1252 1.72637 47.9284 1.98337 47.6825 1.98337C47.442 1.98337 46.7642 2.34428 46.1793 2.78721C45.1955 3.53089 45.2829 3.59104 47.442 3.60744C49.1091 3.61838 50.0984 3.29028 50.9456 2.44271L52.1263 1.26156L51.8147 2.44271C51.6289 3.14811 51.7601 3.62931 52.1372 3.63478C52.5198 3.63478 52.4706 3.83164 52.006 4.12146C51.3993 4.5097 51.4485 4.65734 52.2793 4.8542C53.1976 5.06746 53.1593 5.16589 51.9514 5.69084C50.6505 6.25954 50.645 6.29235 51.7819 6.32516C52.4433 6.34156 53.367 5.81114 53.8317 5.14402C54.3017 4.47689 54.6843 4.2527 54.6843 4.64641C54.6843 5.04559 54.1815 6.07362 53.5638 6.9376L52.4488 8.51246L53.8644 8.86789C54.8975 9.1249 55.5097 8.94445 56.1109 8.20077C56.8762 7.24382 56.8926 7.26023 56.3187 8.4359C55.9852 9.1249 55.1107 9.96701 54.3782 10.3006C52.9188 10.9677 52.8259 11.181 53.542 12.3129C53.8371 12.7777 54.5695 12.9636 55.4496 12.7941C56.6083 12.5754 56.7614 12.6629 56.264 13.2698C55.4441 14.2541 54.4001 14.2104 52.733 13.1167C51.1205 12.0613 50.3881 12.4879 51.454 13.8659C52.17 14.79 52.1536 14.79 51.0768 13.8768C49.601 12.6191 48.4368 12.6191 48.9396 13.8768C49.918 16.3266 50.1968 20.8597 49.437 22.0573C48.4368 23.6376 48.4641 24.0313 49.765 26.7217C51.1096 29.4996 51.1096 29.68 49.8306 30.0136C48.8194 30.2761 48.7374 30.544 47.7918 36.8161C47.4584 39.0088 47.513 39.1292 49.0162 39.4736C49.8798 39.6705 52.2247 40.3158 54.2252 40.9063C56.2257 41.4969 59.0571 42.1968 60.511 42.4702C62.916 42.9132 62.7958 42.935 59.2101 42.7382C55.5589 42.5304 49.1473 40.9829 48.7921 40.2228C48.7101 40.0369 47.2343 39.9549 45.5125 40.0369L42.386 40.1791L41.741 44.8161L43.0474 43.296C44.6434 41.4368 45.1791 41.7922 44.3592 44.1599C42.9763 48.1244 38.2592 53.959 36.4664 53.9153C36.1166 53.9098 34.3784 53.1169 32.6074 52.1545ZM13.4602 154.044L10.8093 151.348L10.5633 146.799C10.4048 143.797 9.96751 141.538 9.27333 140.177C8.66115 138.968 8.22388 136.989 8.22388 135.419C8.22388 133.938 7.46958 129.82 6.5513 126.277C2.05284 108.931 1.75221 106.853 2.89459 101.144C3.66529 97.3003 3.67622 96.3379 2.98751 92.7289C2.56117 90.4869 2.21135 88.6058 2.21135 88.5511C2.21135 88.491 3.62702 89.0706 5.35426 89.8362C7.97791 91.0009 9.06016 91.1868 11.9079 90.9626L15.3241 90.6947L15.0071 92.9585C14.8322 94.1998 14.3403 96.4855 13.9139 98.0331C12.8699 101.861 12.941 103.993 14.2692 108.034C15.3023 111.195 15.3624 112.245 15.0126 121.158C14.4824 134.605 14.6136 135.234 18.8661 139.592C22.0472 142.856 22.3479 143.376 22.7031 146.208C22.9108 147.898 23.2935 149.823 23.5449 150.484C23.8947 151.409 23.7198 151.944 22.807 152.77C21.0907 154.318 17.3629 156.735 16.6851 156.735C16.3681 156.735 14.9142 155.521 13.4602 154.044ZM116.28 120.201C116.121 119.392 116.22 118.648 116.493 118.55C116.772 118.446 116.996 118.014 116.996 117.582C116.996 117.156 117.269 116.363 117.608 115.821C118.089 115.05 117.969 114.35 117.051 112.546C116.406 111.288 115.657 110.255 115.378 110.255C114.449 110.255 114.247 111.255 114.892 112.677C115.373 113.732 115.378 114.421 114.908 115.449C114.17 117.073 113.17 117.248 113.17 115.756C113.17 115.171 112.924 114.542 112.623 114.356C112.323 114.17 112.077 113.454 112.077 112.765C112.077 112.081 111.661 110.687 111.158 109.669C110.65 108.652 110.164 106.219 110.082 104.261C109.967 101.576 109.688 100.532 108.95 100.029C108.414 99.6571 107.726 99.1431 107.42 98.8861C106.392 98.0221 97.3022 92.7617 93.5963 90.8861C89.486 88.8081 87.48 87.2497 87.48 86.1287C87.48 85.7131 86.7803 84.9038 85.9222 84.3351C85.0695 83.761 83.9107 82.6072 83.3532 81.776C82.7902 80.9393 81.1559 79.709 79.7129 79.0309C78.2753 78.3583 77.0947 77.6529 77.0947 77.467C77.0947 77.2866 78.2699 76.089 79.7129 74.8149C81.1504 73.5408 82.7793 71.6488 83.3368 70.6208L84.348 68.7397L87.2176 70.7957C88.7972 71.9277 91.1421 73.2018 92.4266 73.6283C94.8972 74.4431 95.0831 74.618 104.976 85.6475C108.343 89.4096 111.508 92.8546 112.006 93.303C113.514 94.681 117.843 101.112 118.625 103.146C119.029 104.201 120.079 106.536 120.959 108.341C122.265 111.015 122.511 112.125 122.309 114.323C122.09 116.631 121.746 117.292 119.937 118.867C117.767 120.754 117.001 121.432 116.657 121.257C116.455 121.164 116.395 120.786 116.28 120.201ZM130.453 233.241L128.474 230.583L129.382 228.243C129.879 226.958 130.497 225.635 130.748 225.301C131.35 224.514 129.409 222.036 127.359 220.976C124.162 219.319 118.598 220.68 117.614 223.36L117.083 224.814L117.04 223.097C117.001 221.577 116.777 221.342 115.05 221.014L113.104 220.653L114.454 219.587C115.192 219.002 116.072 218.526 116.4 218.526C116.728 218.526 116.996 218.296 116.996 218.017C116.996 217.733 117.504 217.345 118.127 217.148C119.494 216.716 125.758 217.372 125.588 217.93C125.457 218.351 132.333 225.088 132.891 225.088C134.263 225.088 136.482 230.725 135.941 232.831C135.761 233.536 134.897 234.509 134.022 235.002L132.437 235.893L130.453 233.241ZM118.395 238.31C118.177 237.621 117.215 237.162 115.252 236.806L112.426 236.298L111.645 233.454C111.175 231.759 110.497 230.518 109.967 230.376C109.426 230.228 109.612 230.108 110.437 230.064C111.191 230.02 112.787 229.134 113.984 228.084C115.181 227.04 116.296 226.181 116.466 226.181C116.63 226.181 117.958 227.395 119.417 228.877L122.074 231.573L120.921 234.028C120.281 235.379 119.499 236.648 119.177 236.85C118.854 237.047 118.74 237.681 118.925 238.255C119.106 238.835 119.133 239.305 118.98 239.305C118.833 239.305 118.565 238.857 118.395 238.31ZM99.6745 151.502C100.325 151.255 100.057 150.463 98.3572 147.548C97.182 145.541 96.2255 143.726 96.2255 143.507C96.2255 143.288 95.2416 141.56 94.0445 139.668C92.842 137.776 91.8582 135.808 91.8582 135.299C91.8527 134.785 91.5084 134.173 91.082 133.932C90.6611 133.691 89.0378 131.898 87.48 129.94C82.8011 124.073 78.6033 119.567 78.1004 119.879C77.838 120.037 78.4612 121.202 79.4778 122.46C83.0088 126.829 93.3394 142.271 95.9139 147.029C97.335 149.659 98.5813 151.813 98.6851 151.813C98.7835 151.813 99.2317 151.671 99.6745 151.502ZM141.358 204.915C140.587 203.69 139.953 202.564 139.953 202.416C139.953 202.263 139.133 200.847 138.127 199.261C137.127 197.675 135.536 194.854 134.602 192.995C132.607 189.036 131.59 187.193 131.197 186.81C131.038 186.662 129.841 184.874 128.535 182.846C127.228 180.817 125.971 179.154 125.742 179.154C125.512 179.154 125.2 178.679 125.047 178.099C124.878 177.443 125.004 177.153 125.392 177.323C126.266 177.7 130.53 183.584 133.039 187.865C134.197 189.839 135.356 191.589 135.618 191.753C136.302 192.18 143.347 206.567 143.03 206.884C142.883 207.026 142.134 206.146 141.358 204.915ZM54.6898 66.7875C55.2309 67.1211 57.6797 63.8566 57.226 63.4027C56.8871 63.0637 56.0126 63.4027 54.5586 64.4471C53.7879 64.9994 53.4545 64.9666 52.7603 64.2721C52.2793 63.7909 52.0607 63.0254 52.2629 62.5059C52.6729 61.4396 54.7117 61.2865 55.6682 62.2434C56.1765 62.752 56.3241 62.4512 56.3241 60.8764C56.3241 59.7608 56.5701 58.8531 56.8707 58.8531C57.1713 58.8531 57.4173 58.5578 57.4173 58.1969C57.4173 57.6884 57.2697 57.6884 56.7614 58.1969C56.4006 58.5578 55.2309 58.8586 54.1651 58.8586C51.4157 58.8695 49.765 59.4054 49.765 60.2858C49.765 60.7014 49.9836 61.0404 50.246 61.0404C51.0932 61.0404 51.3392 63.8347 50.5193 64.1464C50.1094 64.3049 49.918 64.6768 50.0984 64.9721C50.7051 65.9454 53.859 67.6078 54.0503 67.05C54.1487 66.7493 54.4384 66.6289 54.6898 66.7875ZM68.3656 47.6651C67.1467 46.1886 62.1344 44.7943 56.7942 44.4333C51.3337 44.0615 47.7098 43.1811 48.4914 42.4156C48.7429 42.175 50.9128 42.3171 53.3179 42.7382C55.7229 43.1538 59.5108 43.7826 61.7299 44.1326C65.0915 44.6575 66.1027 45.0731 67.7425 46.5988C68.8302 47.6104 69.5626 48.4416 69.3713 48.447C69.1855 48.458 68.7318 48.1025 68.3656 47.6651ZM124.829 248.738C124.965 248.514 123.774 248.289 122.178 248.246C117.264 248.098 113.552 246.731 108.923 243.346C107.824 242.542 107.72 242.537 108.015 243.302C108.644 244.943 113.203 247.923 116.176 248.639C118.401 249.175 124.523 249.246 124.829 248.738ZM93.2575 152.672C94.2741 151.655 94.2523 151.463 92.8858 149.538C92.1533 148.51 91.4264 148.035 90.9016 148.232C90.448 148.407 89.7374 148.27 89.322 147.925C88.7153 147.422 88.5731 147.619 88.5731 148.964C88.5731 150.145 89.0596 151.031 90.2567 152.037C92.2189 153.689 92.2353 153.694 93.2575 152.672ZM139.68 164.122C137.821 163.253 136.127 161.979 136.127 161.459C136.127 160.568 139.215 161.251 140.86 162.504C143.768 164.724 143.052 165.708 139.68 164.122ZM159.1 225.771C159.111 225.547 160.002 224.497 161.084 223.447L163.047 221.533L161.538 223.857C160.177 225.963 159.056 226.838 159.1 225.771ZM62.0032 98.4541C62.5006 97.1581 62.4022 95.3864 61.8556 95.7255C61.2544 96.0973 60.7406 99.3181 61.2817 99.3181C61.4949 99.3181 61.8228 98.9299 62.0032 98.4541ZM99.434 248.656C99.9204 248.35 99.3629 248.175 97.8106 248.153C96.1599 248.131 95.6898 248.273 96.2473 248.623C97.2476 249.257 98.461 249.274 99.434 248.656ZM49.765 239.07C49.765 238.567 50.2296 238.211 50.9019 238.211C52.2356 238.211 52.0498 239.491 50.6778 239.754C50.1367 239.857 49.765 239.579 49.765 239.07ZM19.4072 148.571C19.9647 147.668 18.8005 147.45 17.7346 148.259C16.7289 149.019 16.7343 149.046 17.8931 149.063C18.5545 149.074 19.2323 148.849 19.4072 148.571ZM103.604 234.931C103.419 234.63 102.79 234.384 102.205 234.384C101.62 234.384 101.145 234.63 101.145 234.931C101.145 235.231 101.773 235.477 102.544 235.477C103.337 235.477 103.796 235.242 103.604 234.931ZM91.011 151.228C90.3714 150.195 91.3061 149.938 92.2572 150.889C93.1099 151.742 93.1099 151.813 92.2736 151.813C91.7762 151.813 91.2077 151.551 91.011 151.228ZM130.661 257.35C130.661 256.667 131.24 256.667 132.301 257.35C132.962 257.777 132.885 257.881 131.891 257.886C131.213 257.892 130.661 257.651 130.661 257.35ZM159.734 219.04C159.865 218.646 160.297 218.214 160.691 218.083C161.101 217.946 161.303 218.148 161.166 218.559C161.035 218.952 160.603 219.384 160.21 219.516C159.8 219.652 159.598 219.45 159.734 219.04ZM52.7713 57.2126C52.5854 56.9119 52.2028 56.6658 51.9186 56.6658C51.6343 56.6658 51.4048 56.9119 51.4048 57.2126C51.4048 57.5134 51.7874 57.7595 52.2575 57.7595C52.7275 57.7595 52.9571 57.5134 52.7713 57.2126ZM50.0383 58.8531C50.2241 58.5523 49.9946 58.3063 49.5245 58.3063C49.0544 58.3063 48.6718 58.5523 48.6718 58.8531C48.6718 59.1539 48.9014 59.3999 49.1856 59.3999C49.4698 59.3999 49.8525 59.1539 50.0383 58.8531ZM162.363 236.571C162.363 236.27 162.746 236.024 163.216 236.024C163.686 236.024 163.916 236.27 163.73 236.571C163.544 236.872 163.161 237.118 162.877 237.118C162.593 237.118 162.363 236.872 162.363 236.571Z" fill="#B2B2B2"/>
</svg>
