<svg width="179" height="100" viewBox="0 0 179 100" fill="none" xmlns="http://www.w3.org/2000/svg">
<g filter="url(#filter0_d_119_104)">
<mask id="path-1-outside-1_119_104" maskUnits="userSpaceOnUse" x="11.6001" y="8" width="155" height="76" fill="black">
<rect fill="white" x="11.6001" y="8" width="155" height="76"/>
<path d="M30.2001 82C24.9334 82 20.9001 80.5 18.1001 77.5C15.3668 74.5 14.0001 70.2667 14.0001 64.8V27.2C14.0001 21.7333 15.3668 17.5 18.1001 14.5C20.9001 11.5 24.9334 10 30.2001 10C35.4668 10 39.4668 11.5 42.2001 14.5C45.0001 17.5 46.4001 21.7333 46.4001 27.2V34.6H36.0001V26.5C36.0001 22.1667 34.1668 20 30.5001 20C26.8334 20 25.0001 22.1667 25.0001 26.5V65.6C25.0001 69.8667 26.8334 72 30.5001 72C34.1668 72 36.0001 69.8667 36.0001 65.6V54.9H46.4001V64.8C46.4001 70.2667 45.0001 74.5 42.2001 77.5C39.4668 80.5 35.4668 82 30.2001 82ZM61.4813 11H76.3813L87.7814 81H76.7813L74.7813 67.1V67.3H62.2813L60.2813 81H50.0813L61.4813 11ZM73.4813 57.8L68.5813 23.2H68.3813L63.5813 57.8H73.4813ZM93.1181 11H109.418C115.085 11 119.218 12.3333 121.818 15C124.418 17.6 125.718 21.6333 125.718 27.1V31.4C125.718 38.6667 123.318 43.2667 118.518 45.2V45.4C121.185 46.2 123.051 47.8333 124.118 50.3C125.251 52.7667 125.818 56.0667 125.818 60.2V72.5C125.818 74.5 125.885 76.1333 126.018 77.4C126.151 78.6 126.485 79.8 127.018 81H115.818C115.418 79.8667 115.151 78.8 115.018 77.8C114.885 76.8 114.818 75 114.818 72.4V59.6C114.818 56.4 114.285 54.1667 113.218 52.9C112.218 51.6333 110.451 51 107.918 51H104.118V81H93.1181V11ZM108.118 41C110.318 41 111.951 40.4333 113.018 39.3C114.151 38.1667 114.718 36.2667 114.718 33.6V28.2C114.718 25.6667 114.251 23.8333 113.318 22.7C112.451 21.5667 111.051 21 109.118 21H104.118V41H108.118ZM141.855 21H130.355V11H164.355V21H152.855V81H141.855V21Z"/>
</mask>
<path d="M30.2001 82C24.9334 82 20.9001 80.5 18.1001 77.5C15.3668 74.5 14.0001 70.2667 14.0001 64.8V27.2C14.0001 21.7333 15.3668 17.5 18.1001 14.5C20.9001 11.5 24.9334 10 30.2001 10C35.4668 10 39.4668 11.5 42.2001 14.5C45.0001 17.5 46.4001 21.7333 46.4001 27.2V34.6H36.0001V26.5C36.0001 22.1667 34.1668 20 30.5001 20C26.8334 20 25.0001 22.1667 25.0001 26.5V65.6C25.0001 69.8667 26.8334 72 30.5001 72C34.1668 72 36.0001 69.8667 36.0001 65.6V54.9H46.4001V64.8C46.4001 70.2667 45.0001 74.5 42.2001 77.5C39.4668 80.5 35.4668 82 30.2001 82ZM61.4813 11H76.3813L87.7814 81H76.7813L74.7813 67.1V67.3H62.2813L60.2813 81H50.0813L61.4813 11ZM73.4813 57.8L68.5813 23.2H68.3813L63.5813 57.8H73.4813ZM93.1181 11H109.418C115.085 11 119.218 12.3333 121.818 15C124.418 17.6 125.718 21.6333 125.718 27.1V31.4C125.718 38.6667 123.318 43.2667 118.518 45.2V45.4C121.185 46.2 123.051 47.8333 124.118 50.3C125.251 52.7667 125.818 56.0667 125.818 60.2V72.5C125.818 74.5 125.885 76.1333 126.018 77.4C126.151 78.6 126.485 79.8 127.018 81H115.818C115.418 79.8667 115.151 78.8 115.018 77.8C114.885 76.8 114.818 75 114.818 72.4V59.6C114.818 56.4 114.285 54.1667 113.218 52.9C112.218 51.6333 110.451 51 107.918 51H104.118V81H93.1181V11ZM108.118 41C110.318 41 111.951 40.4333 113.018 39.3C114.151 38.1667 114.718 36.2667 114.718 33.6V28.2C114.718 25.6667 114.251 23.8333 113.318 22.7C112.451 21.5667 111.051 21 109.118 21H104.118V41H108.118ZM141.855 21H130.355V11H164.355V21H152.855V81H141.855V21Z" fill="white"/>
<path d="M18.1001 77.5L16.6217 78.847L16.6298 78.8559L16.638 78.8646L18.1001 77.5ZM18.1001 14.5L16.638 13.1354L16.6298 13.1441L16.6217 13.153L18.1001 14.5ZM42.2001 14.5L40.7217 15.847L40.7298 15.8559L40.738 15.8646L42.2001 14.5ZM46.4001 34.6V36.6H48.4001V34.6H46.4001ZM36.0001 34.6H34.0001V36.6H36.0001V34.6ZM36.0001 54.9V52.9H34.0001V54.9H36.0001ZM46.4001 54.9H48.4001V52.9H46.4001V54.9ZM42.2001 77.5L40.738 76.1354L40.7298 76.1441L40.7217 76.153L42.2001 77.5ZM30.2001 82V80C25.3215 80 21.8837 78.6227 19.5622 76.1354L18.1001 77.5L16.638 78.8646C19.9165 82.3773 24.5454 84 30.2001 84V82ZM18.1001 77.5L19.5785 76.153C17.2827 73.6333 16.0001 69.9439 16.0001 64.8H14.0001H12.0001C12.0001 70.5894 13.4508 75.3667 16.6217 78.847L18.1001 77.5ZM14.0001 64.8H16.0001V27.2H14.0001H12.0001V64.8H14.0001ZM14.0001 27.2H16.0001C16.0001 22.0561 17.2827 18.3667 19.5785 15.847L18.1001 14.5L16.6217 13.153C13.4508 16.6333 12.0001 21.4106 12.0001 27.2H14.0001ZM18.1001 14.5L19.5622 15.8646C21.8837 13.3773 25.3215 12 30.2001 12V10V8C24.5454 8 19.9165 9.62271 16.638 13.1354L18.1001 14.5ZM30.2001 10V12C35.0814 12 38.4723 13.3781 40.7217 15.847L42.2001 14.5L43.6785 13.153C40.4613 9.6219 35.8521 8 30.2001 8V10ZM42.2001 14.5L40.738 15.8646C43.0905 18.3852 44.4001 22.0678 44.4001 27.2H46.4001H48.4001C48.4001 21.3988 46.9097 16.6148 43.6622 13.1354L42.2001 14.5ZM46.4001 27.2H44.4001V34.6H46.4001H48.4001V27.2H46.4001ZM46.4001 34.6V32.6H36.0001V34.6V36.6H46.4001V34.6ZM36.0001 34.6H38.0001V26.5H36.0001H34.0001V34.6H36.0001ZM36.0001 26.5H38.0001C38.0001 24.099 37.4992 21.9255 36.1519 20.3331C34.7504 18.6768 32.7374 18 30.5001 18V20V22C31.9295 22 32.6665 22.4065 33.0983 22.9169C33.5843 23.4912 34.0001 24.5676 34.0001 26.5H36.0001ZM30.5001 20V18C28.2628 18 26.2498 18.6768 24.8483 20.3331C23.501 21.9255 23.0001 24.099 23.0001 26.5H25.0001H27.0001C27.0001 24.5676 27.4159 23.4912 27.9019 22.9169C28.3337 22.4065 29.0707 22 30.5001 22V20ZM25.0001 26.5H23.0001V65.6H25.0001H27.0001V26.5H25.0001ZM25.0001 65.6H23.0001C23.0001 67.9737 23.5036 70.1272 24.8583 71.7035C26.2628 73.3379 28.2727 74 30.5001 74V72V70C29.0608 70 28.3208 69.5955 27.8919 69.0965C27.4133 68.5395 27.0001 67.493 27.0001 65.6H25.0001ZM30.5001 72V74C32.7275 74 34.7374 73.3379 36.1419 71.7035C37.4966 70.1272 38.0001 67.9737 38.0001 65.6H36.0001H34.0001C34.0001 67.493 33.5869 68.5395 33.1083 69.0965C32.6794 69.5955 31.9394 70 30.5001 70V72ZM36.0001 65.6H38.0001V54.9H36.0001H34.0001V65.6H36.0001ZM36.0001 54.9V56.9H46.4001V54.9V52.9H36.0001V54.9ZM46.4001 54.9H44.4001V64.8H46.4001H48.4001V54.9H46.4001ZM46.4001 64.8H44.4001C44.4001 69.9322 43.0905 73.6148 40.738 76.1354L42.2001 77.5L43.6622 78.8646C46.9097 75.3852 48.4001 70.6012 48.4001 64.8H46.4001ZM42.2001 77.5L40.7217 76.153C38.4723 78.6219 35.0814 80 30.2001 80V82V84C35.8521 84 40.4613 82.3781 43.6785 78.847L42.2001 77.5ZM61.4813 11V9H59.7807L59.5074 10.6785L61.4813 11ZM76.3813 11L78.3553 10.6785L78.082 9H76.3813V11ZM87.7814 81V83H90.1334L89.7553 80.6785L87.7814 81ZM76.7813 81L74.8017 81.2848L75.0485 83H76.7813V81ZM74.7813 67.1L76.761 66.8152L72.7813 67.1H74.7813ZM74.7813 67.3V69.3H76.7813V67.3H74.7813ZM62.2813 67.3V65.3H60.5521L60.3023 67.0111L62.2813 67.3ZM60.2813 81V83H62.0106L62.2604 81.2889L60.2813 81ZM50.0813 81L48.1074 80.6785L47.7293 83H50.0813V81ZM73.4813 57.8V59.8H75.7845L75.4616 57.5196L73.4813 57.8ZM68.5813 23.2L70.5616 22.9196L70.3181 21.2H68.5813V23.2ZM68.3813 23.2V21.2H66.6397L66.4003 22.9252L68.3813 23.2ZM63.5813 57.8L61.6003 57.5252L61.2847 59.8H63.5813V57.8ZM61.4813 11V13H76.3813V11V9H61.4813V11ZM76.3813 11L74.4074 11.3215L85.8074 81.3215L87.7814 81L89.7553 80.6785L78.3553 10.6785L76.3813 11ZM87.7814 81V79H76.7813V81V83H87.7814V81ZM76.7813 81L78.761 80.7152L76.761 66.8152L74.7813 67.1L72.8017 67.3848L74.8017 81.2848L76.7813 81ZM74.7813 67.1H72.7813V67.3H74.7813H76.7813V67.1H74.7813ZM74.7813 67.3V65.3H62.2813V67.3V69.3H74.7813V67.3ZM62.2813 67.3L60.3023 67.0111L58.3023 80.7111L60.2813 81L62.2604 81.2889L64.2604 67.5889L62.2813 67.3ZM60.2813 81V79H50.0813V81V83H60.2813V81ZM50.0813 81L52.0553 81.3215L63.4553 11.3215L61.4813 11L59.5074 10.6785L48.1074 80.6785L50.0813 81ZM73.4813 57.8L75.4616 57.5196L70.5616 22.9196L68.5813 23.2L66.6011 23.4804L71.5011 58.0804L73.4813 57.8ZM68.5813 23.2V21.2H68.3813V23.2V25.2H68.5813V23.2ZM68.3813 23.2L66.4003 22.9252L61.6003 57.5252L63.5813 57.8L65.5624 58.0748L70.3624 23.4748L68.3813 23.2ZM63.5813 57.8V59.8H73.4813V57.8V55.8H63.5813V57.8ZM93.1181 11V9H91.1181V11H93.1181ZM121.818 15L120.386 16.3962L120.395 16.4053L120.404 16.4142L121.818 15ZM118.518 45.2L117.771 43.3448L116.518 43.8494V45.2H118.518ZM118.518 45.4H116.518V46.8881L117.943 47.3157L118.518 45.4ZM124.118 50.3L122.282 51.0938L122.291 51.1145L122.301 51.135L124.118 50.3ZM126.018 77.4L124.029 77.6094L124.03 77.6209L126.018 77.4ZM127.018 81V83H130.096L128.846 80.1877L127.018 81ZM115.818 81L113.932 81.6656L114.403 83H115.818V81ZM113.218 52.9L111.648 54.1393L111.668 54.1641L111.688 54.1883L113.218 52.9ZM104.118 51V49H102.118V51H104.118ZM104.118 81V83H106.118V81H104.118ZM93.1181 81H91.1181V83H93.1181V81ZM113.018 39.3L111.604 37.8858L111.582 37.9072L111.562 37.9293L113.018 39.3ZM113.318 22.7L111.729 23.9149L111.751 23.9436L111.774 23.9714L113.318 22.7ZM104.118 21V19H102.118V21H104.118ZM104.118 41H102.118V43H104.118V41ZM93.1181 11V13H109.418V11V9H93.1181V11ZM109.418 11V13C114.823 13 118.32 14.277 120.386 16.3962L121.818 15L123.25 13.6038C120.116 10.3896 115.347 9 109.418 9V11ZM121.818 15L120.404 16.4142C122.48 18.4903 123.718 21.9077 123.718 27.1H125.718H127.718C127.718 21.3589 126.356 16.7097 123.232 13.5858L121.818 15ZM125.718 27.1H123.718V31.4H125.718H127.718V27.1H125.718ZM125.718 31.4H123.718C123.718 34.8328 123.148 37.4517 122.145 39.3749C121.165 41.2538 119.728 42.5566 117.771 43.3448L118.518 45.2L119.265 47.0552C122.108 45.91 124.272 43.9462 125.691 41.2251C127.088 38.5483 127.718 35.2339 127.718 31.4H125.718ZM118.518 45.2H116.518V45.4H118.518H120.518V45.2H118.518ZM118.518 45.4L117.943 47.3157C120.068 47.9531 121.459 49.1908 122.282 51.0938L124.118 50.3L125.954 49.5062C124.643 46.4758 122.301 44.4469 119.093 43.4843L118.518 45.4ZM124.118 50.3L122.301 51.135C123.267 53.2391 123.818 56.2185 123.818 60.2H125.818H127.818C127.818 55.9148 127.235 52.2943 125.935 49.465L124.118 50.3ZM125.818 60.2H123.818V72.5H125.818H127.818V60.2H125.818ZM125.818 72.5H123.818C123.818 74.5354 123.886 76.2457 124.029 77.6094L126.018 77.4L128.007 77.1906C127.884 76.021 127.818 74.4646 127.818 72.5H125.818ZM126.018 77.4L124.03 77.6209C124.188 79.0421 124.581 80.4409 125.19 81.8123L127.018 81L128.846 80.1877C128.389 79.1591 128.115 78.1579 128.006 77.1791L126.018 77.4ZM127.018 81V79H115.818V81V83H127.018V81ZM115.818 81L117.704 80.3344C117.342 79.3072 117.113 78.3759 117.001 77.5357L115.018 77.8L113.036 78.0643C113.19 79.2241 113.495 80.4261 113.932 81.6656L115.818 81ZM115.018 77.8L117.001 77.5357C116.887 76.6837 116.818 75.007 116.818 72.4H114.818H112.818C112.818 74.993 112.883 76.9163 113.036 78.0643L115.018 77.8ZM114.818 72.4H116.818V59.6H114.818H112.818V72.4H114.818ZM114.818 59.6H116.818C116.818 56.3077 116.296 53.4496 114.748 51.6117L113.218 52.9L111.688 54.1883C112.274 54.8837 112.818 56.4923 112.818 59.6H114.818ZM113.218 52.9L114.788 51.6607C113.234 49.6926 110.712 49 107.918 49V51V53C110.191 53 111.202 53.574 111.648 54.1393L113.218 52.9ZM107.918 51V49H104.118V51V53H107.918V51ZM104.118 51H102.118V81H104.118H106.118V51H104.118ZM104.118 81V79H93.1181V81V83H104.118V81ZM93.1181 81H95.1181V11H93.1181H91.1181V81H93.1181ZM108.118 41V43C110.637 43 112.895 42.3485 114.474 40.6707L113.018 39.3L111.562 37.9293C111.007 38.5182 109.999 39 108.118 39V41ZM113.018 39.3L114.432 40.7142C116.124 39.0223 116.718 36.4639 116.718 33.6H114.718H112.718C112.718 36.0694 112.179 37.311 111.604 37.8858L113.018 39.3ZM114.718 33.6H116.718V28.2H114.718H112.718V33.6H114.718ZM114.718 28.2H116.718C116.718 25.5079 116.239 23.1003 114.862 21.4286L113.318 22.7L111.774 23.9714C112.264 24.5664 112.718 25.8254 112.718 28.2H114.718ZM113.318 22.7L114.907 21.4851C113.538 19.6946 111.437 19 109.118 19V21V23C110.666 23 111.365 23.4387 111.729 23.9149L113.318 22.7ZM109.118 21V19H104.118V21V23H109.118V21ZM104.118 21H102.118V41H104.118H106.118V21H104.118ZM104.118 41V43H108.118V41V39H104.118V41ZM141.855 21H143.855V19H141.855V21ZM130.355 21H128.355V23H130.355V21ZM130.355 11V9H128.355V11H130.355ZM164.355 11H166.355V9H164.355V11ZM164.355 21V23H166.355V21H164.355ZM152.855 21V19H150.855V21H152.855ZM152.855 81V83H154.855V81H152.855ZM141.855 81H139.855V83H141.855V81ZM141.855 21V19H130.355V21V23H141.855V21ZM130.355 21H132.355V11H130.355H128.355V21H130.355ZM130.355 11V13H164.355V11V9H130.355V11ZM164.355 11H162.355V21H164.355H166.355V11H164.355ZM164.355 21V19H152.855V21V23H164.355V21ZM152.855 21H150.855V81H152.855H154.855V21H152.855ZM152.855 81V79H141.855V81V83H152.855V81ZM141.855 81H143.855V21H141.855H139.855V81H141.855Z" fill="#666666" mask="url(#path-1-outside-1_119_104)"/>
</g>
<defs>
<filter id="filter0_d_119_104" x="0" y="0" width="178.355" height="100" filterUnits="userSpaceOnUse" color-interpolation-filters="sRGB">
<feFlood flood-opacity="0" result="BackgroundImageFix"/>
<feColorMatrix in="SourceAlpha" type="matrix" values="0 0 0 0 0 0 0 0 0 0 0 0 0 0 0 0 0 0 127 0" result="hardAlpha"/>
<feOffset dy="4"/>
<feGaussianBlur stdDeviation="6"/>
<feComposite in2="hardAlpha" operator="out"/>
<feColorMatrix type="matrix" values="0 0 0 0 0 0 0 0 0 0 0 0 0 0 0 0 0 0 0.5 0"/>
<feBlend mode="normal" in2="BackgroundImageFix" result="effect1_dropShadow_119_104"/>
<feBlend mode="normal" in="SourceGraphic" in2="effect1_dropShadow_119_104" result="shape"/>
</filter>
</defs>
</svg>
