<svg width="272" height="75" viewBox="0 0 272 75" fill="none" xmlns="http://www.w3.org/2000/svg">
<g filter="url(#filter0_d_33_903)">
<mask id="path-1-outside-1_33_903" maskUnits="userSpaceOnUse" x="11.376" y="7.43994" width="249" height="51" fill="black">
<rect fill="white" x="11.376" y="7.43994" width="249" height="51"/>
<path d="M14 10.6399H24.752C28.2506 10.6399 30.8746 11.5786 32.624 13.4559C34.3733 15.3333 35.248 18.0853 35.248 21.7119V44.3679C35.248 47.9946 34.3733 50.7466 32.624 52.6239C30.8746 54.5013 28.2506 55.4399 24.752 55.4399H14V10.6399ZM24.624 49.0399C25.776 49.0399 26.6506 48.6986 27.248 48.0159C27.888 47.3333 28.208 46.2239 28.208 44.6879V21.3919C28.208 19.8559 27.888 18.7466 27.248 18.0639C26.6506 17.3813 25.776 17.0399 24.624 17.0399H21.04V49.0399H24.624ZM40 10.6399H59.2V17.0399H47.04V28.8799H56.704V35.2799H47.04V49.0399H59.2V55.4399H40V10.6399ZM72.527 56.0799C69.1136 56.0799 66.5323 55.1199 64.783 53.1999C63.0336 51.2373 62.159 48.4426 62.159 44.8159V42.2559H68.815V45.3279C68.815 48.2293 70.031 49.6799 72.463 49.6799C73.6576 49.6799 74.5536 49.3386 75.151 48.6559C75.791 47.9306 76.111 46.7786 76.111 45.1999C76.111 43.3226 75.6843 41.6799 74.831 40.2719C73.9776 38.8213 72.399 37.0933 70.095 35.0879C67.1936 32.5279 65.167 30.2239 64.015 28.1759C62.863 26.0853 62.287 23.7386 62.287 21.1359C62.287 17.5946 63.183 14.8639 64.975 12.9439C66.767 10.9813 69.3696 9.99994 72.783 9.99994C76.1536 9.99994 78.6923 10.9813 80.399 12.9439C82.1483 14.8639 83.023 17.6373 83.023 21.2639V23.1199H76.367V20.8159C76.367 19.2799 76.0683 18.1706 75.471 17.4879C74.8736 16.7626 73.999 16.3999 72.847 16.3999C70.5003 16.3999 69.327 17.8293 69.327 20.6879C69.327 22.3093 69.7536 23.8239 70.607 25.2319C71.503 26.6399 73.103 28.3466 75.407 30.3519C78.351 32.9119 80.3776 35.2373 81.487 37.3279C82.5963 39.4186 83.151 41.8719 83.151 44.6879C83.151 48.3573 82.2336 51.1733 80.399 53.1359C78.607 55.0986 75.983 56.0799 72.527 56.0799ZM97.1075 56.0799C93.7368 56.0799 91.1555 55.1199 89.3635 53.1999C87.6141 51.2799 86.7395 48.5706 86.7395 45.0719V21.0079C86.7395 17.5093 87.6141 14.7999 89.3635 12.8799C91.1555 10.9599 93.7368 9.99994 97.1075 9.99994C100.478 9.99994 103.038 10.9599 104.787 12.8799C106.579 14.7999 107.475 17.5093 107.475 21.0079V25.7439H100.819V20.5599C100.819 17.7866 99.6461 16.3999 97.2995 16.3999C94.9528 16.3999 93.7795 17.7866 93.7795 20.5599V45.5839C93.7795 48.3146 94.9528 49.6799 97.2995 49.6799C99.6461 49.6799 100.819 48.3146 100.819 45.5839V38.7359H107.475V45.0719C107.475 48.5706 106.579 51.2799 104.787 53.1999C103.038 55.1199 100.478 56.0799 97.1075 56.0799ZM111.687 10.6399H122.119C125.746 10.6399 128.391 11.4933 130.055 13.1999C131.719 14.8639 132.551 17.4453 132.551 20.9439V23.6959C132.551 28.3466 131.015 31.2906 127.943 32.5279V32.6559C129.65 33.1679 130.845 34.2133 131.527 35.7919C132.253 37.3706 132.615 39.4826 132.615 42.1279V49.9999C132.615 51.2799 132.658 52.3253 132.743 53.1359C132.829 53.9039 133.042 54.6719 133.383 55.4399H126.215C125.959 54.7146 125.789 54.0319 125.703 53.3919C125.618 52.7519 125.575 51.5999 125.575 49.9359V41.7439C125.575 39.6959 125.234 38.2666 124.551 37.4559C123.911 36.6453 122.781 36.2399 121.159 36.2399H118.727V55.4399H111.687V10.6399ZM121.287 29.8399C122.695 29.8399 123.741 29.4773 124.423 28.7519C125.149 28.0266 125.511 26.8106 125.511 25.1039V21.6479C125.511 20.0266 125.213 18.8533 124.615 18.1279C124.061 17.4026 123.165 17.0399 121.927 17.0399H118.727V29.8399H121.287ZM137.5 10.6399H144.54V55.4399H137.5V10.6399ZM149.812 10.6399H160.18C163.679 10.6399 166.303 11.5786 168.052 13.4559C169.802 15.3333 170.676 18.0853 170.676 21.7119V26.1279C170.676 29.7546 169.802 32.5066 168.052 34.3839C166.303 36.2613 163.679 37.1999 160.18 37.1999H156.852V55.4399H149.812V10.6399ZM160.18 30.7999C161.332 30.7999 162.186 30.4799 162.74 29.8399C163.338 29.1999 163.636 28.1119 163.636 26.5759V21.2639C163.636 19.7279 163.338 18.6399 162.74 17.9999C162.186 17.3599 161.332 17.0399 160.18 17.0399H156.852V30.7999H160.18ZM180.129 17.0399H172.769V10.6399H194.529V17.0399H187.169V55.4399H180.129V17.0399ZM197.937 10.6399H204.977V55.4399H197.937V10.6399ZM220.426 56.0799C216.97 56.0799 214.325 55.0986 212.49 53.1359C210.655 51.1733 209.738 48.3999 209.738 44.8159V21.2639C209.738 17.6799 210.655 14.9066 212.49 12.9439C214.325 10.9813 216.97 9.99994 220.426 9.99994C223.882 9.99994 226.527 10.9813 228.362 12.9439C230.197 14.9066 231.114 17.6799 231.114 21.2639V44.8159C231.114 48.3999 230.197 51.1733 228.362 53.1359C226.527 55.0986 223.882 56.0799 220.426 56.0799ZM220.426 49.6799C222.858 49.6799 224.074 48.2079 224.074 45.2639V20.8159C224.074 17.8719 222.858 16.3999 220.426 16.3999C217.994 16.3999 216.778 17.8719 216.778 20.8159V45.2639C216.778 48.2079 217.994 49.6799 220.426 49.6799ZM235.875 10.6399H244.707L251.555 37.4559H251.683V10.6399H257.955V55.4399H250.723L242.275 22.7359H242.147V55.4399H235.875V10.6399Z"/>
</mask>
<path d="M14 10.6399H24.752C28.2506 10.6399 30.8746 11.5786 32.624 13.4559C34.3733 15.3333 35.248 18.0853 35.248 21.7119V44.3679C35.248 47.9946 34.3733 50.7466 32.624 52.6239C30.8746 54.5013 28.2506 55.4399 24.752 55.4399H14V10.6399ZM24.624 49.0399C25.776 49.0399 26.6506 48.6986 27.248 48.0159C27.888 47.3333 28.208 46.2239 28.208 44.6879V21.3919C28.208 19.8559 27.888 18.7466 27.248 18.0639C26.6506 17.3813 25.776 17.0399 24.624 17.0399H21.04V49.0399H24.624ZM40 10.6399H59.2V17.0399H47.04V28.8799H56.704V35.2799H47.04V49.0399H59.2V55.4399H40V10.6399ZM72.527 56.0799C69.1136 56.0799 66.5323 55.1199 64.783 53.1999C63.0336 51.2373 62.159 48.4426 62.159 44.8159V42.2559H68.815V45.3279C68.815 48.2293 70.031 49.6799 72.463 49.6799C73.6576 49.6799 74.5536 49.3386 75.151 48.6559C75.791 47.9306 76.111 46.7786 76.111 45.1999C76.111 43.3226 75.6843 41.6799 74.831 40.2719C73.9776 38.8213 72.399 37.0933 70.095 35.0879C67.1936 32.5279 65.167 30.2239 64.015 28.1759C62.863 26.0853 62.287 23.7386 62.287 21.1359C62.287 17.5946 63.183 14.8639 64.975 12.9439C66.767 10.9813 69.3696 9.99994 72.783 9.99994C76.1536 9.99994 78.6923 10.9813 80.399 12.9439C82.1483 14.8639 83.023 17.6373 83.023 21.2639V23.1199H76.367V20.8159C76.367 19.2799 76.0683 18.1706 75.471 17.4879C74.8736 16.7626 73.999 16.3999 72.847 16.3999C70.5003 16.3999 69.327 17.8293 69.327 20.6879C69.327 22.3093 69.7536 23.8239 70.607 25.2319C71.503 26.6399 73.103 28.3466 75.407 30.3519C78.351 32.9119 80.3776 35.2373 81.487 37.3279C82.5963 39.4186 83.151 41.8719 83.151 44.6879C83.151 48.3573 82.2336 51.1733 80.399 53.1359C78.607 55.0986 75.983 56.0799 72.527 56.0799ZM97.1075 56.0799C93.7368 56.0799 91.1555 55.1199 89.3635 53.1999C87.6141 51.2799 86.7395 48.5706 86.7395 45.0719V21.0079C86.7395 17.5093 87.6141 14.7999 89.3635 12.8799C91.1555 10.9599 93.7368 9.99994 97.1075 9.99994C100.478 9.99994 103.038 10.9599 104.787 12.8799C106.579 14.7999 107.475 17.5093 107.475 21.0079V25.7439H100.819V20.5599C100.819 17.7866 99.6461 16.3999 97.2995 16.3999C94.9528 16.3999 93.7795 17.7866 93.7795 20.5599V45.5839C93.7795 48.3146 94.9528 49.6799 97.2995 49.6799C99.6461 49.6799 100.819 48.3146 100.819 45.5839V38.7359H107.475V45.0719C107.475 48.5706 106.579 51.2799 104.787 53.1999C103.038 55.1199 100.478 56.0799 97.1075 56.0799ZM111.687 10.6399H122.119C125.746 10.6399 128.391 11.4933 130.055 13.1999C131.719 14.8639 132.551 17.4453 132.551 20.9439V23.6959C132.551 28.3466 131.015 31.2906 127.943 32.5279V32.6559C129.65 33.1679 130.845 34.2133 131.527 35.7919C132.253 37.3706 132.615 39.4826 132.615 42.1279V49.9999C132.615 51.2799 132.658 52.3253 132.743 53.1359C132.829 53.9039 133.042 54.6719 133.383 55.4399H126.215C125.959 54.7146 125.789 54.0319 125.703 53.3919C125.618 52.7519 125.575 51.5999 125.575 49.9359V41.7439C125.575 39.6959 125.234 38.2666 124.551 37.4559C123.911 36.6453 122.781 36.2399 121.159 36.2399H118.727V55.4399H111.687V10.6399ZM121.287 29.8399C122.695 29.8399 123.741 29.4773 124.423 28.7519C125.149 28.0266 125.511 26.8106 125.511 25.1039V21.6479C125.511 20.0266 125.213 18.8533 124.615 18.1279C124.061 17.4026 123.165 17.0399 121.927 17.0399H118.727V29.8399H121.287ZM137.5 10.6399H144.54V55.4399H137.5V10.6399ZM149.812 10.6399H160.18C163.679 10.6399 166.303 11.5786 168.052 13.4559C169.802 15.3333 170.676 18.0853 170.676 21.7119V26.1279C170.676 29.7546 169.802 32.5066 168.052 34.3839C166.303 36.2613 163.679 37.1999 160.18 37.1999H156.852V55.4399H149.812V10.6399ZM160.18 30.7999C161.332 30.7999 162.186 30.4799 162.74 29.8399C163.338 29.1999 163.636 28.1119 163.636 26.5759V21.2639C163.636 19.7279 163.338 18.6399 162.74 17.9999C162.186 17.3599 161.332 17.0399 160.18 17.0399H156.852V30.7999H160.18ZM180.129 17.0399H172.769V10.6399H194.529V17.0399H187.169V55.4399H180.129V17.0399ZM197.937 10.6399H204.977V55.4399H197.937V10.6399ZM220.426 56.0799C216.97 56.0799 214.325 55.0986 212.49 53.1359C210.655 51.1733 209.738 48.3999 209.738 44.8159V21.2639C209.738 17.6799 210.655 14.9066 212.49 12.9439C214.325 10.9813 216.97 9.99994 220.426 9.99994C223.882 9.99994 226.527 10.9813 228.362 12.9439C230.197 14.9066 231.114 17.6799 231.114 21.2639V44.8159C231.114 48.3999 230.197 51.1733 228.362 53.1359C226.527 55.0986 223.882 56.0799 220.426 56.0799ZM220.426 49.6799C222.858 49.6799 224.074 48.2079 224.074 45.2639V20.8159C224.074 17.8719 222.858 16.3999 220.426 16.3999C217.994 16.3999 216.778 17.8719 216.778 20.8159V45.2639C216.778 48.2079 217.994 49.6799 220.426 49.6799ZM235.875 10.6399H244.707L251.555 37.4559H251.683V10.6399H257.955V55.4399H250.723L242.275 22.7359H242.147V55.4399H235.875V10.6399Z" fill="white"/>
<path d="M14 10.6399V8.63994H12V10.6399H14ZM32.624 13.4559L31.1608 14.8194L31.1608 14.8194L32.624 13.4559ZM32.624 52.6239L34.0872 53.9874L32.624 52.6239ZM14 55.4399H12V57.4399H14V55.4399ZM27.248 48.0159L25.7889 46.6481L25.7654 46.6731L25.7428 46.6989L27.248 48.0159ZM27.248 18.0639L25.7428 19.3809L25.7654 19.4068L25.7889 19.4318L27.248 18.0639ZM21.04 17.0399V15.0399H19.04V17.0399H21.04ZM21.04 49.0399H19.04V51.0399H21.04V49.0399ZM14 10.6399V12.6399H24.752V10.6399V8.63994H14V10.6399ZM24.752 10.6399V12.6399C27.9047 12.6399 29.9119 13.4792 31.1608 14.8194L32.624 13.4559L34.0872 12.0925C31.8374 9.67806 28.5965 8.63994 24.752 8.63994V10.6399ZM32.624 13.4559L31.1608 14.8194C32.4449 16.1975 33.248 18.382 33.248 21.7119H35.248H37.248C37.248 17.7885 36.3017 14.469 34.0872 12.0925L32.624 13.4559ZM35.248 21.7119H33.248V44.3679H35.248H37.248V21.7119H35.248ZM35.248 44.3679H33.248C33.248 47.6979 32.4449 49.8824 31.1608 51.2605L32.624 52.6239L34.0872 53.9874C36.3017 51.6109 37.248 48.2913 37.248 44.3679H35.248ZM32.624 52.6239L31.1608 51.2605C29.9119 52.6007 27.9047 53.4399 24.752 53.4399V55.4399V57.4399C28.5965 57.4399 31.8374 56.4018 34.0872 53.9874L32.624 52.6239ZM24.752 55.4399V53.4399H14V55.4399V57.4399H24.752V55.4399ZM14 55.4399H16V10.6399H14H12V55.4399H14ZM24.624 49.0399V51.0399C26.1855 51.0399 27.6783 50.5614 28.7531 49.3329L27.248 48.0159L25.7428 46.6989C25.623 46.8359 25.3664 47.0399 24.624 47.0399V49.0399ZM27.248 48.0159L28.7071 49.3838C29.8593 48.1547 30.208 46.4247 30.208 44.6879H28.208H26.208C26.208 46.0231 25.9166 46.5118 25.7889 46.6481L27.248 48.0159ZM28.208 44.6879H30.208V21.3919H28.208H26.208V44.6879H28.208ZM28.208 21.3919H30.208C30.208 19.6551 29.8593 17.9252 28.7071 16.6961L27.248 18.0639L25.7889 19.4318C25.9166 19.568 26.208 20.0567 26.208 21.3919H28.208ZM27.248 18.0639L28.7531 16.7469C27.6783 15.5185 26.1855 15.0399 24.624 15.0399V17.0399V19.0399C25.3664 19.0399 25.623 19.244 25.7428 19.3809L27.248 18.0639ZM24.624 17.0399V15.0399H21.04V17.0399V19.0399H24.624V17.0399ZM21.04 17.0399H19.04V49.0399H21.04H23.04V17.0399H21.04ZM21.04 49.0399V51.0399H24.624V49.0399V47.0399H21.04V49.0399ZM40 10.6399V8.63994H38V10.6399H40ZM59.2 10.6399H61.2V8.63994H59.2V10.6399ZM59.2 17.0399V19.0399H61.2V17.0399H59.2ZM47.04 17.0399V15.0399H45.04V17.0399H47.04ZM47.04 28.8799H45.04V30.8799H47.04V28.8799ZM56.704 28.8799H58.704V26.8799H56.704V28.8799ZM56.704 35.2799V37.2799H58.704V35.2799H56.704ZM47.04 35.2799V33.2799H45.04V35.2799H47.04ZM47.04 49.0399H45.04V51.0399H47.04V49.0399ZM59.2 49.0399H61.2V47.0399H59.2V49.0399ZM59.2 55.4399V57.4399H61.2V55.4399H59.2ZM40 55.4399H38V57.4399H40V55.4399ZM40 10.6399V12.6399H59.2V10.6399V8.63994H40V10.6399ZM59.2 10.6399H57.2V17.0399H59.2H61.2V10.6399H59.2ZM59.2 17.0399V15.0399H47.04V17.0399V19.0399H59.2V17.0399ZM47.04 17.0399H45.04V28.8799H47.04H49.04V17.0399H47.04ZM47.04 28.8799V30.8799H56.704V28.8799V26.8799H47.04V28.8799ZM56.704 28.8799H54.704V35.2799H56.704H58.704V28.8799H56.704ZM56.704 35.2799V33.2799H47.04V35.2799V37.2799H56.704V35.2799ZM47.04 35.2799H45.04V49.0399H47.04H49.04V35.2799H47.04ZM47.04 49.0399V51.0399H59.2V49.0399V47.0399H47.04V49.0399ZM59.2 49.0399H57.2V55.4399H59.2H61.2V49.0399H59.2ZM59.2 55.4399V53.4399H40V55.4399V57.4399H59.2V55.4399ZM40 55.4399H42V10.6399H40H38V55.4399H40ZM64.783 53.1999L63.29 54.5307L63.2972 54.5388L63.3046 54.5469L64.783 53.1999ZM62.159 42.2559V40.2559H60.159V42.2559H62.159ZM68.815 42.2559H70.815V40.2559H68.815V42.2559ZM75.151 48.6559L73.6513 47.3327L73.6458 47.3389L75.151 48.6559ZM74.831 40.2719L73.1071 41.286L73.1138 41.2973L73.1206 41.3085L74.831 40.2719ZM70.095 35.0879L68.7717 36.5877L68.7819 36.5965L70.095 35.0879ZM64.015 28.1759L62.2633 29.1411L62.2675 29.1488L62.2718 29.1565L64.015 28.1759ZM64.975 12.9439L66.4371 14.3086L66.4446 14.3006L66.4519 14.2925L64.975 12.9439ZM80.399 12.9439L78.8898 14.2563L78.905 14.2738L78.9206 14.2909L80.399 12.9439ZM83.023 23.1199V25.1199H85.023V23.1199H83.023ZM76.367 23.1199H74.367V25.1199H76.367V23.1199ZM75.471 17.4879L73.9271 18.7594L73.9461 18.7824L73.9658 18.8049L75.471 17.4879ZM70.607 25.2319L68.8966 26.2685L68.9079 26.2872L68.9197 26.3057L70.607 25.2319ZM75.407 30.3519L74.0939 31.8605L74.0946 31.8612L75.407 30.3519ZM81.487 37.3279L79.7203 38.2654L81.487 37.3279ZM80.399 53.1359L78.9379 51.7702L78.9299 51.7787L78.922 51.7874L80.399 53.1359ZM72.527 56.0799V54.0799C69.4901 54.0799 67.5222 53.2368 66.2614 51.853L64.783 53.1999L63.3046 54.5469C65.5424 57.0031 68.7372 58.0799 72.527 58.0799V56.0799ZM64.783 53.1999L66.276 51.8692C64.9592 50.3918 64.159 48.1387 64.159 44.8159H62.159H60.159C60.159 48.7465 61.1081 52.0828 63.29 54.5307L64.783 53.1999ZM62.159 44.8159H64.159V42.2559H62.159H60.159V44.8159H62.159ZM62.159 42.2559V44.2559H68.815V42.2559V40.2559H62.159V42.2559ZM68.815 42.2559H66.815V45.3279H68.815H70.815V42.2559H68.815ZM68.815 45.3279H66.815C66.815 47.0093 67.16 48.6429 68.1942 49.8767C69.2852 51.1782 70.8369 51.6799 72.463 51.6799V49.6799V47.6799C71.657 47.6799 71.3848 47.4563 71.2597 47.3071C71.078 47.0903 70.815 46.5479 70.815 45.3279H68.815ZM72.463 49.6799V51.6799C74.0405 51.6799 75.5677 51.2169 76.6561 49.973L75.151 48.6559L73.6458 47.3389C73.5396 47.4603 73.2748 47.6799 72.463 47.6799V49.6799ZM75.151 48.6559L76.6507 49.9792C77.7632 48.7183 78.111 46.9772 78.111 45.1999H76.111H74.111C74.111 46.58 73.8188 47.1429 73.6513 47.3327L75.151 48.6559ZM76.111 45.1999H78.111C78.111 43.0094 77.6096 40.9978 76.5414 39.2353L74.831 40.2719L73.1206 41.3085C73.7591 42.362 74.111 43.6358 74.111 45.1999H76.111ZM74.831 40.2719L76.5548 39.2579C75.537 37.5275 73.7649 35.6307 71.408 33.5793L70.095 35.0879L68.7819 36.5965C71.0331 38.5559 72.4183 40.115 73.1071 41.286L74.831 40.2719ZM70.095 35.0879L71.4182 33.5883C68.5909 31.0936 66.7521 28.9625 65.7581 27.1954L64.015 28.1759L62.2718 29.1565C63.5818 31.4854 65.7964 33.9623 68.7717 36.5876L70.095 35.0879ZM64.015 28.1759L65.7667 27.2107C64.792 25.4419 64.287 23.4323 64.287 21.1359H62.287H60.287C60.287 24.0449 60.9339 26.7286 62.2633 29.1411L64.015 28.1759ZM62.287 21.1359H64.287C64.287 17.9215 65.0964 15.745 66.4371 14.3086L64.975 12.9439L63.5129 11.5793C61.2695 13.9829 60.287 17.2677 60.287 21.1359H62.287ZM64.975 12.9439L66.4519 14.2925C67.764 12.8555 69.7619 11.9999 72.783 11.9999V9.99994V7.99994C68.9774 7.99994 65.77 9.10707 63.498 11.5954L64.975 12.9439ZM72.783 9.99994V11.9999C75.7576 11.9999 77.6684 12.8518 78.8898 14.2563L80.399 12.9439L81.9082 11.6316C79.7162 9.11079 76.5496 7.99994 72.783 7.99994V9.99994ZM80.399 12.9439L78.9206 14.2909C80.2214 15.7187 81.023 17.9377 81.023 21.2639H83.023H85.023C85.023 17.3368 84.0752 14.0092 81.8774 11.597L80.399 12.9439ZM83.023 21.2639H81.023V23.1199H83.023H85.023V21.2639H83.023ZM83.023 23.1199V21.1199H76.367V23.1199V25.1199H83.023V23.1199ZM76.367 23.1199H78.367V20.8159H76.367H74.367V23.1199H76.367ZM76.367 20.8159H78.367C78.367 19.105 78.0499 17.3981 76.9761 16.1709L75.471 17.4879L73.9658 18.8049C74.0867 18.9431 74.367 19.4549 74.367 20.8159H76.367ZM75.471 17.4879L77.0148 16.2165C75.9524 14.9265 74.4483 14.3999 72.847 14.3999V16.3999V18.3999C73.5496 18.3999 73.7949 18.5988 73.9271 18.7594L75.471 17.4879ZM72.847 16.3999V14.3999C71.2498 14.3999 69.7262 14.9055 68.6611 16.203C67.658 17.4249 67.327 19.0357 67.327 20.6879H69.327H71.327C71.327 19.4815 71.5826 18.9483 71.7528 18.7409C71.8611 18.6091 72.0975 18.3999 72.847 18.3999V16.3999ZM69.327 20.6879H67.327C67.327 22.6807 67.8569 24.5531 68.8966 26.2685L70.607 25.2319L72.3174 24.1953C71.6504 23.0948 71.327 21.9379 71.327 20.6879H69.327ZM70.607 25.2319L68.9197 26.3057C69.9713 27.9583 71.7439 29.8152 74.0939 31.8605L75.407 30.3519L76.72 28.8433C74.462 26.8781 73.0347 25.3216 72.2943 24.1582L70.607 25.2319ZM75.407 30.3519L74.0946 31.8612C76.9577 34.3508 78.7767 36.4871 79.7203 38.2654L81.487 37.3279L83.2537 36.3905C81.9786 33.9875 79.7443 31.4731 76.7193 28.8427L75.407 30.3519ZM81.487 37.3279L79.7203 38.2654C80.6498 40.0172 81.151 42.1369 81.151 44.6879H83.151H85.151C85.151 41.6069 84.5428 38.82 83.2537 36.3905L81.487 37.3279ZM83.151 44.6879H81.151C81.151 48.0382 80.3163 50.2957 78.9379 51.7702L80.399 53.1359L81.86 54.5017C84.151 52.0509 85.151 48.6763 85.151 44.6879H83.151ZM80.399 53.1359L78.922 51.7874C77.6146 53.2194 75.5995 54.0799 72.527 54.0799V56.0799V58.0799C76.3664 58.0799 79.5994 56.9779 81.8759 54.4845L80.399 53.1359ZM89.3635 53.1999L87.8851 54.5469L87.8932 54.5558L87.9014 54.5646L89.3635 53.1999ZM89.3635 12.8799L87.9014 11.5153L87.8932 11.5241L87.8851 11.533L89.3635 12.8799ZM104.787 12.8799L103.309 14.2269L103.317 14.2358L103.325 14.2446L104.787 12.8799ZM107.475 25.7439V27.7439H109.475V25.7439H107.475ZM100.819 25.7439H98.8195V27.7439H100.819V25.7439ZM100.819 38.7359V36.7359H98.8195V38.7359H100.819ZM107.475 38.7359H109.475V36.7359H107.475V38.7359ZM104.787 53.1999L103.325 51.8353L103.317 51.8441L103.309 51.853L104.787 53.1999ZM97.1075 56.0799V54.0799C94.1249 54.0799 92.1391 53.2427 90.8256 51.8353L89.3635 53.1999L87.9014 54.5646C90.1718 56.9972 93.3487 58.0799 97.1075 58.0799V56.0799ZM89.3635 53.1999L90.8419 51.853C89.5301 50.4132 88.7395 48.2478 88.7395 45.0719H86.7395H84.7395C84.7395 48.8934 85.6982 52.1467 87.8851 54.5469L89.3635 53.1999ZM86.7395 45.0719H88.7395V21.0079H86.7395H84.7395V45.0719H86.7395ZM86.7395 21.0079H88.7395C88.7395 17.8321 89.5301 15.6667 90.8419 14.2269L89.3635 12.8799L87.8851 11.533C85.6982 13.9332 84.7395 17.1865 84.7395 21.0079H86.7395ZM89.3635 12.8799L90.8256 14.2446C92.1391 12.8372 94.1249 11.9999 97.1075 11.9999V9.99994V7.99994C93.3487 7.99994 90.1718 9.08265 87.9014 11.5153L89.3635 12.8799ZM97.1075 9.99994V11.9999C100.093 11.9999 102.044 12.838 103.309 14.2269L104.787 12.8799L106.266 11.533C104.033 9.08184 100.864 7.99994 97.1075 7.99994V9.99994ZM104.787 12.8799L103.325 14.2446C104.67 15.6851 105.475 17.8438 105.475 21.0079H107.475H109.475C109.475 17.1748 108.489 13.9147 106.25 11.5153L104.787 12.8799ZM107.475 21.0079H105.475V25.7439H107.475H109.475V21.0079H107.475ZM107.475 25.7439V23.7439H100.819V25.7439V27.7439H107.475V25.7439ZM100.819 25.7439H102.819V20.5599H100.819H98.8195V25.7439H100.819ZM100.819 20.5599H102.819C102.819 18.939 102.484 17.3504 101.466 16.1481C100.395 14.8817 98.8768 14.3999 97.2995 14.3999V16.3999V18.3999C98.0689 18.3999 98.3109 18.6115 98.4127 18.7318C98.5687 18.9161 98.8195 19.4076 98.8195 20.5599H100.819ZM97.2995 16.3999V14.3999C95.7222 14.3999 94.2042 14.8817 93.1327 16.1481C92.1153 17.3504 91.7795 18.939 91.7795 20.5599H93.7795H95.7795C95.7795 19.4076 96.0303 18.9161 96.1862 18.7318C96.2881 18.6115 96.5301 18.3999 97.2995 18.3999V16.3999ZM93.7795 20.5599H91.7795V45.5839H93.7795H95.7795V20.5599H93.7795ZM93.7795 45.5839H91.7795C91.7795 47.1896 92.118 48.7671 93.1426 49.9595C94.2171 51.2098 95.7321 51.6799 97.2995 51.6799V49.6799V47.6799C96.5202 47.6799 96.2751 47.4674 96.1763 47.3524C96.0276 47.1794 95.7795 46.7089 95.7795 45.5839H93.7795ZM97.2995 49.6799V51.6799C98.8669 51.6799 100.382 51.2098 101.456 49.9595C102.481 48.7671 102.819 47.1896 102.819 45.5839H100.819H98.8195C98.8195 46.7089 98.5713 47.1794 98.4226 47.3524C98.3238 47.4674 98.0787 47.6799 97.2995 47.6799V49.6799ZM100.819 45.5839H102.819V38.7359H100.819H98.8195V45.5839H100.819ZM100.819 38.7359V40.7359H107.475V38.7359V36.7359H100.819V38.7359ZM107.475 38.7359H105.475V45.0719H107.475H109.475V38.7359H107.475ZM107.475 45.0719H105.475C105.475 48.2361 104.67 50.3947 103.325 51.8353L104.787 53.1999L106.25 54.5646C108.489 52.1651 109.475 48.9051 109.475 45.0719H107.475ZM104.787 53.1999L103.309 51.853C102.044 53.2418 100.093 54.0799 97.1075 54.0799V56.0799V58.0799C100.864 58.0799 104.033 56.998 106.266 54.5469L104.787 53.1999ZM111.687 10.6399V8.63994H109.687V10.6399H111.687ZM130.055 13.1999L128.623 14.5961L128.632 14.6052L128.641 14.6142L130.055 13.1999ZM127.943 32.5279L127.196 30.6728L125.943 31.1774V32.5279H127.943ZM127.943 32.6559H125.943V34.144L127.369 34.5716L127.943 32.6559ZM131.527 35.7919L129.692 36.5858L129.701 36.6065L129.71 36.6269L131.527 35.7919ZM132.743 53.1359L130.754 53.3453L130.756 53.3568L132.743 53.1359ZM133.383 55.4399V57.4399H136.461L135.211 54.6277L133.383 55.4399ZM126.215 55.4399L124.329 56.1056L124.8 57.4399H126.215V55.4399ZM124.551 37.4559L122.982 38.6952L123.001 38.72L123.022 38.7442L124.551 37.4559ZM118.727 36.2399V34.2399H116.727V36.2399H118.727ZM118.727 55.4399V57.4399H120.727V55.4399H118.727ZM111.687 55.4399H109.687V57.4399H111.687V55.4399ZM124.423 28.7519L123.009 27.3377L122.988 27.3591L122.967 27.3812L124.423 28.7519ZM124.615 18.1279L123.027 19.3428L123.049 19.3715L123.072 19.3994L124.615 18.1279ZM118.727 17.0399V15.0399H116.727V17.0399H118.727ZM118.727 29.8399H116.727V31.8399H118.727V29.8399ZM111.687 10.6399V12.6399H122.119V10.6399V8.63994H111.687V10.6399ZM122.119 10.6399V12.6399C125.484 12.6399 127.493 13.437 128.623 14.5961L130.055 13.1999L131.487 11.8037C129.29 9.54956 126.008 8.63994 122.119 8.63994V10.6399ZM130.055 13.1999L128.641 14.6142C129.781 15.7543 130.551 17.7197 130.551 20.9439H132.551H134.551C134.551 17.1709 133.658 13.9736 131.47 11.7857L130.055 13.1999ZM132.551 20.9439H130.551V23.6959H132.551H134.551V20.9439H132.551ZM132.551 23.6959H130.551C130.551 25.8207 130.198 27.3716 129.626 28.4668C129.078 29.5177 128.289 30.2326 127.196 30.6728L127.943 32.5279L128.691 34.3831C130.67 33.586 132.185 32.2101 133.173 30.3171C134.137 28.4683 134.551 26.2218 134.551 23.6959H132.551ZM127.943 32.5279H125.943V32.6559H127.943H129.943V32.5279H127.943ZM127.943 32.6559L127.369 34.5716C128.534 34.921 129.253 35.5708 129.692 36.5858L131.527 35.7919L133.363 34.9981C132.437 32.8558 130.767 31.4149 128.518 30.7403L127.943 32.6559ZM131.527 35.7919L129.71 36.6269C130.269 37.843 130.615 39.6345 130.615 42.1279H132.615H134.615C134.615 39.3307 134.237 36.8982 133.345 34.9569L131.527 35.7919ZM132.615 42.1279H130.615V49.9999H132.615H134.615V42.1279H132.615ZM132.615 49.9999H130.615C130.615 51.3153 130.659 52.4376 130.754 53.3453L132.743 53.1359L134.732 52.9266C134.657 52.213 134.615 51.2446 134.615 49.9999H132.615ZM132.743 53.1359L130.756 53.3568C130.866 54.3461 131.138 55.3129 131.556 56.2522L133.383 55.4399L135.211 54.6277C134.946 54.031 134.792 53.4618 134.731 52.9151L132.743 53.1359ZM133.383 55.4399V53.4399H126.215V55.4399V57.4399H133.383V55.4399ZM126.215 55.4399L128.101 54.7743C127.883 54.1552 127.75 53.6079 127.686 53.1276L125.703 53.3919L123.721 53.6563C123.828 54.456 124.036 55.2741 124.329 56.1056L126.215 55.4399ZM125.703 53.3919L127.686 53.1276C127.62 52.6357 127.575 51.6069 127.575 49.9359H125.575H123.575C123.575 51.5929 123.616 52.8682 123.721 53.6563L125.703 53.3919ZM125.575 49.9359H127.575V41.7439H125.575H123.575V49.9359H125.575ZM125.575 41.7439H127.575C127.575 39.6036 127.245 37.5496 126.081 36.1677L124.551 37.4559L123.022 38.7442C123.223 38.9836 123.575 39.7883 123.575 41.7439H125.575ZM124.551 37.4559L126.121 36.2167C124.927 34.7046 123.041 34.2399 121.159 34.2399V36.2399V38.2399C122.52 38.2399 122.895 38.586 122.982 38.6952L124.551 37.4559ZM121.159 36.2399V34.2399H118.727V36.2399V38.2399H121.159V36.2399ZM118.727 36.2399H116.727V55.4399H118.727H120.727V36.2399H118.727ZM118.727 55.4399V53.4399H111.687V55.4399V57.4399H118.727V55.4399ZM111.687 55.4399H113.687V10.6399H111.687H109.687V55.4399H111.687ZM121.287 29.8399V31.8399C123.014 31.8399 124.685 31.3924 125.88 30.1227L124.423 28.7519L122.967 27.3812C122.797 27.5621 122.377 27.8399 121.287 27.8399V29.8399ZM124.423 28.7519L125.838 30.1662C127.122 28.8822 127.511 27.0079 127.511 25.1039H125.511H123.511C123.511 26.6133 123.176 27.171 123.009 27.3377L124.423 28.7519ZM125.511 25.1039H127.511V21.6479H125.511H123.511V25.1039H125.511ZM125.511 21.6479H127.511C127.511 19.8678 127.2 18.1202 126.159 16.8565L124.615 18.1279L123.072 19.3994C123.226 19.5863 123.511 20.1854 123.511 21.6479H125.511ZM124.615 18.1279L126.204 16.913C125.147 15.5305 123.55 15.0399 121.927 15.0399V17.0399V19.0399C122.78 19.0399 122.975 19.2747 123.027 19.3428L124.615 18.1279ZM121.927 17.0399V15.0399H118.727V17.0399V19.0399H121.927V17.0399ZM118.727 17.0399H116.727V29.8399H118.727H120.727V17.0399H118.727ZM118.727 29.8399V31.8399H121.287V29.8399V27.8399H118.727V29.8399ZM137.5 10.6399V8.63994H135.5V10.6399H137.5ZM144.54 10.6399H146.54V8.63994H144.54V10.6399ZM144.54 55.4399V57.4399H146.54V55.4399H144.54ZM137.5 55.4399H135.5V57.4399H137.5V55.4399ZM137.5 10.6399V12.6399H144.54V10.6399V8.63994H137.5V10.6399ZM144.54 10.6399H142.54V55.4399H144.54H146.54V10.6399H144.54ZM144.54 55.4399V53.4399H137.5V55.4399V57.4399H144.54V55.4399ZM137.5 55.4399H139.5V10.6399H137.5H135.5V55.4399H137.5ZM149.812 10.6399V8.63994H147.812V10.6399H149.812ZM168.052 13.4559L166.589 14.8194V14.8194L168.052 13.4559ZM168.052 34.3839L166.589 33.0205L168.052 34.3839ZM156.852 37.1999V35.1999H154.852V37.1999H156.852ZM156.852 55.4399V57.4399H158.852V55.4399H156.852ZM149.812 55.4399H147.812V57.4399H149.812V55.4399ZM162.74 29.8399L161.278 28.4753L161.253 28.5022L161.229 28.5301L162.74 29.8399ZM162.74 17.9999L161.229 19.3098L161.253 19.3376L161.278 19.3646L162.74 17.9999ZM156.852 17.0399V15.0399H154.852V17.0399H156.852ZM156.852 30.7999H154.852V32.7999H156.852V30.7999ZM149.812 10.6399V12.6399H160.18V10.6399V8.63994H149.812V10.6399ZM160.18 10.6399V12.6399C163.333 12.6399 165.34 13.4792 166.589 14.8194L168.052 13.4559L169.516 12.0925C167.266 9.67806 164.025 8.63994 160.18 8.63994V10.6399ZM168.052 13.4559L166.589 14.8194C167.873 16.1975 168.676 18.382 168.676 21.7119H170.676H172.676C172.676 17.7885 171.73 14.469 169.516 12.0925L168.052 13.4559ZM170.676 21.7119H168.676V26.1279H170.676H172.676V21.7119H170.676ZM170.676 26.1279H168.676C168.676 29.4579 167.873 31.6424 166.589 33.0205L168.052 34.3839L169.516 35.7474C171.73 33.3709 172.676 30.0513 172.676 26.1279H170.676ZM168.052 34.3839L166.589 33.0205C165.34 34.3607 163.333 35.1999 160.18 35.1999V37.1999V39.1999C164.025 39.1999 167.266 38.1618 169.516 35.7474L168.052 34.3839ZM160.18 37.1999V35.1999H156.852V37.1999V39.1999H160.18V37.1999ZM156.852 37.1999H154.852V55.4399H156.852H158.852V37.1999H156.852ZM156.852 55.4399V53.4399H149.812V55.4399V57.4399H156.852V55.4399ZM149.812 55.4399H151.812V10.6399H149.812H147.812V55.4399H149.812ZM160.18 30.7999V32.7999C161.693 32.7999 163.194 32.3704 164.252 31.1498L162.74 29.8399L161.229 28.5301C161.178 28.5895 160.972 28.7999 160.18 28.7999V30.7999ZM162.74 29.8399L164.203 31.2046C165.327 30 165.636 28.2688 165.636 26.5759H163.636H161.636C161.636 27.9551 161.349 28.3999 161.278 28.4753L162.74 29.8399ZM163.636 26.5759H165.636V21.2639H163.636H161.636V26.5759H163.636ZM163.636 21.2639H165.636C165.636 19.5711 165.327 17.8399 164.203 16.6353L162.74 17.9999L161.278 19.3646C161.349 19.44 161.636 19.8848 161.636 21.2639H163.636ZM162.74 17.9999L164.252 16.6901C163.194 15.4695 161.693 15.0399 160.18 15.0399V17.0399V19.0399C160.972 19.0399 161.178 19.2504 161.229 19.3098L162.74 17.9999ZM160.18 17.0399V15.0399H156.852V17.0399V19.0399H160.18V17.0399ZM156.852 17.0399H154.852V30.7999H156.852H158.852V17.0399H156.852ZM156.852 30.7999V32.7999H160.18V30.7999V28.7999H156.852V30.7999ZM180.129 17.0399H182.129V15.0399H180.129V17.0399ZM172.769 17.0399H170.769V19.0399H172.769V17.0399ZM172.769 10.6399V8.63994H170.769V10.6399H172.769ZM194.529 10.6399H196.529V8.63994H194.529V10.6399ZM194.529 17.0399V19.0399H196.529V17.0399H194.529ZM187.169 17.0399V15.0399H185.169V17.0399H187.169ZM187.169 55.4399V57.4399H189.169V55.4399H187.169ZM180.129 55.4399H178.129V57.4399H180.129V55.4399ZM180.129 17.0399V15.0399H172.769V17.0399V19.0399H180.129V17.0399ZM172.769 17.0399H174.769V10.6399H172.769H170.769V17.0399H172.769ZM172.769 10.6399V12.6399H194.529V10.6399V8.63994H172.769V10.6399ZM194.529 10.6399H192.529V17.0399H194.529H196.529V10.6399H194.529ZM194.529 17.0399V15.0399H187.169V17.0399V19.0399H194.529V17.0399ZM187.169 17.0399H185.169V55.4399H187.169H189.169V17.0399H187.169ZM187.169 55.4399V53.4399H180.129V55.4399V57.4399H187.169V55.4399ZM180.129 55.4399H182.129V17.0399H180.129H178.129V55.4399H180.129ZM197.937 10.6399V8.63994H195.937V10.6399H197.937ZM204.977 10.6399H206.977V8.63994H204.977V10.6399ZM204.977 55.4399V57.4399H206.977V55.4399H204.977ZM197.937 55.4399H195.937V57.4399H197.937V55.4399ZM197.937 10.6399V12.6399H204.977V10.6399V8.63994H197.937V10.6399ZM204.977 10.6399H202.977V55.4399H204.977H206.977V10.6399H204.977ZM204.977 55.4399V53.4399H197.937V55.4399V57.4399H204.977V55.4399ZM197.937 55.4399H199.937V10.6399H197.937H195.937V55.4399H197.937ZM212.49 53.1359L213.951 51.7702L212.49 53.1359ZM212.49 12.9439L213.951 14.3097L212.49 12.9439ZM228.362 12.9439L226.901 14.3097L228.362 12.9439ZM228.362 53.1359L226.901 51.7702L228.362 53.1359ZM220.426 56.0799V54.0799C217.356 54.0799 215.306 53.2202 213.951 51.7702L212.49 53.1359L211.029 54.5017C213.343 56.977 216.584 58.0799 220.426 58.0799V56.0799ZM212.49 53.1359L213.951 51.7702C212.565 50.2876 211.738 48.066 211.738 44.8159H209.738H207.738C207.738 48.7339 208.745 52.0589 211.029 54.5017L212.49 53.1359ZM209.738 44.8159H211.738V21.2639H209.738H207.738V44.8159H209.738ZM209.738 21.2639H211.738C211.738 18.0139 212.565 15.7923 213.951 14.3097L212.49 12.9439L211.029 11.5782C208.745 14.0209 207.738 17.346 207.738 21.2639H209.738ZM212.49 12.9439L213.951 14.3097C215.306 12.8597 217.356 11.9999 220.426 11.9999V9.99994V7.99994C216.584 7.99994 213.343 9.10284 211.029 11.5782L212.49 12.9439ZM220.426 9.99994V11.9999C223.496 11.9999 225.545 12.8597 226.901 14.3097L228.362 12.9439L229.823 11.5782C227.509 9.10284 224.268 7.99994 220.426 7.99994V9.99994ZM228.362 12.9439L226.901 14.3097C228.287 15.7923 229.114 18.0139 229.114 21.2639H231.114H233.114C233.114 17.346 232.106 14.0209 229.823 11.5782L228.362 12.9439ZM231.114 21.2639H229.114V44.8159H231.114H233.114V21.2639H231.114ZM231.114 44.8159H229.114C229.114 48.066 228.287 50.2876 226.901 51.7702L228.362 53.1359L229.823 54.5017C232.106 52.0589 233.114 48.7339 233.114 44.8159H231.114ZM228.362 53.1359L226.901 51.7702C225.545 53.2202 223.496 54.0799 220.426 54.0799V56.0799V58.0799C224.268 58.0799 227.509 56.977 229.823 54.5017L228.362 53.1359ZM220.426 49.6799V51.6799C222.062 51.6799 223.616 51.1666 224.704 49.8497C225.731 48.606 226.074 46.9612 226.074 45.2639H224.074H222.074C222.074 46.5107 221.809 47.0739 221.62 47.3022C221.492 47.4573 221.222 47.6799 220.426 47.6799V49.6799ZM224.074 45.2639H226.074V20.8159H224.074H222.074V45.2639H224.074ZM224.074 20.8159H226.074C226.074 19.1187 225.731 17.4739 224.704 16.2302C223.616 14.9133 222.062 14.3999 220.426 14.3999V16.3999V18.3999C221.222 18.3999 221.492 18.6226 221.62 18.7777C221.809 19.006 222.074 19.5692 222.074 20.8159H224.074ZM220.426 16.3999V14.3999C218.79 14.3999 217.236 14.9133 216.148 16.2302C215.121 17.4739 214.778 19.1187 214.778 20.8159H216.778H218.778C218.778 19.5692 219.043 19.006 219.232 18.7777C219.36 18.6226 219.63 18.3999 220.426 18.3999V16.3999ZM216.778 20.8159H214.778V45.2639H216.778H218.778V20.8159H216.778ZM216.778 45.2639H214.778C214.778 46.9612 215.121 48.606 216.148 49.8497C217.236 51.1666 218.79 51.6799 220.426 51.6799V49.6799V47.6799C219.63 47.6799 219.36 47.4573 219.232 47.3022C219.043 47.0739 218.778 46.5107 218.778 45.2639H216.778ZM235.875 10.6399V8.63994H233.875V10.6399H235.875ZM244.707 10.6399L246.645 10.1451L246.26 8.63994H244.707V10.6399ZM251.555 37.4559L249.617 37.9508L250.002 39.4559H251.555V37.4559ZM251.683 37.4559V39.4559H253.683V37.4559H251.683ZM251.683 10.6399V8.63994H249.683V10.6399H251.683ZM257.955 10.6399H259.955V8.63994H257.955V10.6399ZM257.955 55.4399V57.4399H259.955V55.4399H257.955ZM250.723 55.4399L248.787 55.9402L249.174 57.4399H250.723V55.4399ZM242.275 22.7359L244.211 22.2357L243.824 20.7359H242.275V22.7359ZM242.147 22.7359V20.7359H240.147V22.7359H242.147ZM242.147 55.4399V57.4399H244.147V55.4399H242.147ZM235.875 55.4399H233.875V57.4399H235.875V55.4399ZM235.875 10.6399V12.6399H244.707V10.6399V8.63994H235.875V10.6399ZM244.707 10.6399L242.769 11.1348L249.617 37.9508L251.555 37.4559L253.493 36.9611L246.645 10.1451L244.707 10.6399ZM251.555 37.4559V39.4559H251.683V37.4559V35.4559H251.555V37.4559ZM251.683 37.4559H253.683V10.6399H251.683H249.683V37.4559H251.683ZM251.683 10.6399V12.6399H257.955V10.6399V8.63994H251.683V10.6399ZM257.955 10.6399H255.955V55.4399H257.955H259.955V10.6399H257.955ZM257.955 55.4399V53.4399H250.723V55.4399V57.4399H257.955V55.4399ZM250.723 55.4399L252.659 54.9397L244.211 22.2357L242.275 22.7359L240.339 23.2362L248.787 55.9402L250.723 55.4399ZM242.275 22.7359V20.7359H242.147V22.7359V24.7359H242.275V22.7359ZM242.147 22.7359H240.147V55.4399H242.147H244.147V22.7359H242.147ZM242.147 55.4399V53.4399H235.875V55.4399V57.4399H242.147V55.4399ZM235.875 55.4399H237.875V10.6399H235.875H233.875V55.4399H235.875Z" fill="#666666" mask="url(#path-1-outside-1_33_903)"/>
</g>
<defs>
<filter id="filter0_d_33_903" x="0" y="0" width="271.955" height="74.08" filterUnits="userSpaceOnUse" color-interpolation-filters="sRGB">
<feFlood flood-opacity="0" result="BackgroundImageFix"/>
<feColorMatrix in="SourceAlpha" type="matrix" values="0 0 0 0 0 0 0 0 0 0 0 0 0 0 0 0 0 0 127 0" result="hardAlpha"/>
<feOffset dy="4"/>
<feGaussianBlur stdDeviation="6"/>
<feComposite in2="hardAlpha" operator="out"/>
<feColorMatrix type="matrix" values="0 0 0 0 0 0 0 0 0 0 0 0 0 0 0 0 0 0 0.5 0"/>
<feBlend mode="normal" in2="BackgroundImageFix" result="effect1_dropShadow_33_903"/>
<feBlend mode="normal" in="SourceGraphic" in2="effect1_dropShadow_33_903" result="shape"/>
</filter>
</defs>
</svg>
