<svg width="48" height="58" viewBox="0 0 48 58" fill="none" xmlns="http://www.w3.org/2000/svg">
<path d="M30.1477 22.1818V26.7273H16.6818V22.1818H30.1477ZM19.7642 44V20.6051C19.7642 19.0237 20.072 17.7121 20.6875 16.6705C21.3125 15.6288 22.1648 14.8475 23.2443 14.3267C24.3239 13.8059 25.5502 13.5455 26.9233 13.5455C27.8513 13.5455 28.6989 13.6165 29.4659 13.7585C30.2424 13.9006 30.8201 14.0284 31.1989 14.142L30.1193 18.6875C29.8826 18.6117 29.589 18.5407 29.2386 18.4744C28.8977 18.4081 28.5473 18.375 28.1875 18.375C27.2973 18.375 26.6771 18.5833 26.3267 19C25.9763 19.4072 25.8011 19.9801 25.8011 20.7188V44H19.7642Z" fill="white"/>
<circle cx="24" cy="29" r="23" stroke="#B3B3B3" stroke-width="2"/>
</svg>
