<svg width="650" height="100" viewBox="0 0 650 100" fill="none" xmlns="http://www.w3.org/2000/svg">
<g filter="url(#filter0_d_31_494)">
<mask id="path-1-outside-1_31_494" maskUnits="userSpaceOnUse" x="11.9" y="8" width="626" height="76" fill="black">
<rect fill="white" x="11.9" y="8" width="626" height="76"/>
<path d="M14 11H43.1V21H25V40.5H39.2V50.5H25V81H14V11ZM48.375 11H78.375V21H59.375V39.5H74.475V49.5H59.375V71H78.375V81H48.375V11ZM93.2031 11H108.103L119.503 81H108.503L106.503 67.1V67.3H94.0031L92.0031 81H81.8031L93.2031 11ZM105.203 57.8L100.303 23.2H100.103L95.3031 57.8H105.203ZM128.85 21H117.35V11H151.35V21H139.85V81H128.85V21ZM172.676 82C167.342 82 163.276 80.5 160.476 77.5C157.676 74.4333 156.276 70.0667 156.276 64.4V11H167.276V65.2C167.276 67.6 167.742 69.3333 168.676 70.4C169.676 71.4667 171.076 72 172.876 72C174.676 72 176.042 71.4667 176.976 70.4C177.976 69.3333 178.476 67.6 178.476 65.2V11H189.076V64.4C189.076 70.0667 187.676 74.4333 184.876 77.5C182.076 80.5 178.009 82 172.676 82ZM196.91 11H213.21C218.877 11 223.01 12.3333 225.61 15C228.21 17.6 229.51 21.6333 229.51 27.1V31.4C229.51 38.6667 227.11 43.2667 222.31 45.2V45.4C224.977 46.2 226.843 47.8333 227.91 50.3C229.043 52.7667 229.61 56.0667 229.61 60.2V72.5C229.61 74.5 229.677 76.1333 229.81 77.4C229.943 78.6 230.277 79.8 230.81 81H219.61C219.21 79.8667 218.943 78.8 218.81 77.8C218.677 76.8 218.61 75 218.61 72.4V59.6C218.61 56.4 218.077 54.1667 217.01 52.9C216.01 51.6333 214.243 51 211.71 51H207.91V81H196.91V11ZM211.91 41C214.11 41 215.743 40.4333 216.81 39.3C217.943 38.1667 218.51 36.2667 218.51 33.6V28.2C218.51 25.6667 218.043 23.8333 217.11 22.7C216.243 21.5667 214.843 21 212.91 21H207.91V41H211.91ZM237.242 11H267.242V21H248.242V39.5H263.342V49.5H248.242V71H267.242V81H237.242V11ZM273.57 11H290.37C295.837 11 299.937 12.4667 302.67 15.4C305.404 18.3333 306.77 22.6333 306.77 28.3V63.7C306.77 69.3667 305.404 73.6667 302.67 76.6C299.937 79.5333 295.837 81 290.37 81H273.57V11ZM290.17 71C291.97 71 293.337 70.4667 294.27 69.4C295.27 68.3333 295.77 66.6 295.77 64.2V27.8C295.77 25.4 295.27 23.6667 294.27 22.6C293.337 21.5333 291.97 21 290.17 21H284.57V71H290.17ZM330.211 11H346.411C351.878 11 355.978 12.4667 358.711 15.4C361.444 18.3333 362.811 22.6333 362.811 28.3V35.2C362.811 40.8667 361.444 45.1667 358.711 48.1C355.978 51.0333 351.878 52.5 346.411 52.5H341.211V81H330.211V11ZM346.411 42.5C348.211 42.5 349.544 42 350.411 41C351.344 40 351.811 38.3 351.811 35.9V27.6C351.811 25.2 351.344 23.5 350.411 22.5C349.544 21.5 348.211 21 346.411 21H341.211V42.5H346.411ZM368.785 11H385.085C390.752 11 394.885 12.3333 397.485 15C400.085 17.6 401.385 21.6333 401.385 27.1V31.4C401.385 38.6667 398.985 43.2667 394.185 45.2V45.4C396.852 46.2 398.718 47.8333 399.785 50.3C400.918 52.7667 401.485 56.0667 401.485 60.2V72.5C401.485 74.5 401.552 76.1333 401.685 77.4C401.818 78.6 402.152 79.8 402.685 81H391.485C391.085 79.8667 390.818 78.8 390.685 77.8C390.552 76.8 390.485 75 390.485 72.4V59.6C390.485 56.4 389.952 54.1667 388.885 52.9C387.885 51.6333 386.118 51 383.585 51H379.785V81H368.785V11ZM383.785 41C385.985 41 387.618 40.4333 388.685 39.3C389.818 38.1667 390.385 36.2667 390.385 33.6V28.2C390.385 25.6667 389.918 23.8333 388.985 22.7C388.118 21.5667 386.718 21 384.785 21H379.785V41H383.785ZM425.017 82C419.617 82 415.484 80.4667 412.617 77.4C409.751 74.3333 408.317 70 408.317 64.4V27.6C408.317 22 409.751 17.6667 412.617 14.6C415.484 11.5333 419.617 10 425.017 10C430.417 10 434.551 11.5333 437.417 14.6C440.284 17.6667 441.717 22 441.717 27.6V64.4C441.717 70 440.284 74.3333 437.417 77.4C434.551 80.4667 430.417 82 425.017 82ZM425.017 72C428.817 72 430.717 69.7 430.717 65.1V26.9C430.717 22.3 428.817 20 425.017 20C421.217 20 419.317 22.3 419.317 26.9V65.1C419.317 69.7 421.217 72 425.017 72ZM449.156 11H465.956C471.423 11 475.523 12.4667 478.256 15.4C480.99 18.3333 482.356 22.6333 482.356 28.3V63.7C482.356 69.3667 480.99 73.6667 478.256 76.6C475.523 79.5333 471.423 81 465.956 81H449.156V11ZM465.756 71C467.556 71 468.923 70.4667 469.856 69.4C470.856 68.3333 471.356 66.6 471.356 64.2V27.8C471.356 25.4 470.856 23.6667 469.856 22.6C468.923 21.5333 467.556 21 465.756 21H460.156V71H465.756ZM505.781 82C500.448 82 496.381 80.5 493.581 77.5C490.781 74.4333 489.381 70.0667 489.381 64.4V11H500.381V65.2C500.381 67.6 500.848 69.3333 501.781 70.4C502.781 71.4667 504.181 72 505.981 72C507.781 72 509.148 71.4667 510.081 70.4C511.081 69.3333 511.581 67.6 511.581 65.2V11H522.181V64.4C522.181 70.0667 520.781 74.4333 517.981 77.5C515.181 80.5 511.115 82 505.781 82ZM545.516 82C540.249 82 536.216 80.5 533.416 77.5C530.682 74.5 529.316 70.2667 529.316 64.8V27.2C529.316 21.7333 530.682 17.5 533.416 14.5C536.216 11.5 540.249 10 545.516 10C550.782 10 554.782 11.5 557.516 14.5C560.316 17.5 561.716 21.7333 561.716 27.2V34.6H551.316V26.5C551.316 22.1667 549.482 20 545.816 20C542.149 20 540.316 22.1667 540.316 26.5V65.6C540.316 69.8667 542.149 72 545.816 72C549.482 72 551.316 69.8667 551.316 65.6V54.9H561.716V64.8C561.716 70.2667 560.316 74.5 557.516 77.5C554.782 80.5 550.782 82 545.516 82ZM576.897 21H565.397V11H599.397V21H587.897V81H576.897V21ZM619.023 82C613.689 82 609.656 80.5 606.923 77.5C604.189 74.4333 602.823 70.0667 602.823 64.4V60.4H613.223V65.2C613.223 69.7333 615.123 72 618.923 72C620.789 72 622.189 71.4667 623.123 70.4C624.123 69.2667 624.623 67.4667 624.623 65C624.623 62.0667 623.956 59.5 622.623 57.3C621.289 55.0333 618.823 52.3333 615.223 49.2C610.689 45.2 607.523 41.6 605.723 38.4C603.923 35.1333 603.023 31.4667 603.023 27.4C603.023 21.8667 604.423 17.6 607.223 14.6C610.023 11.5333 614.089 10 619.423 10C624.689 10 628.656 11.5333 631.323 14.6C634.056 17.6 635.423 21.9333 635.423 27.6V30.5H625.023V26.9C625.023 24.5 624.556 22.7667 623.623 21.7C622.689 20.5667 621.323 20 619.523 20C615.856 20 614.023 22.2333 614.023 26.7C614.023 29.2333 614.689 31.6 616.023 33.8C617.423 36 619.923 38.6667 623.523 41.8C628.123 45.8 631.289 49.4333 633.023 52.7C634.756 55.9667 635.623 59.8 635.623 64.2C635.623 69.9333 634.189 74.3333 631.323 77.4C628.523 80.4667 624.423 82 619.023 82Z"/>
</mask>
<path d="M14 11H43.1V21H25V40.5H39.2V50.5H25V81H14V11ZM48.375 11H78.375V21H59.375V39.5H74.475V49.5H59.375V71H78.375V81H48.375V11ZM93.2031 11H108.103L119.503 81H108.503L106.503 67.1V67.3H94.0031L92.0031 81H81.8031L93.2031 11ZM105.203 57.8L100.303 23.2H100.103L95.3031 57.8H105.203ZM128.85 21H117.35V11H151.35V21H139.85V81H128.85V21ZM172.676 82C167.342 82 163.276 80.5 160.476 77.5C157.676 74.4333 156.276 70.0667 156.276 64.4V11H167.276V65.2C167.276 67.6 167.742 69.3333 168.676 70.4C169.676 71.4667 171.076 72 172.876 72C174.676 72 176.042 71.4667 176.976 70.4C177.976 69.3333 178.476 67.6 178.476 65.2V11H189.076V64.4C189.076 70.0667 187.676 74.4333 184.876 77.5C182.076 80.5 178.009 82 172.676 82ZM196.91 11H213.21C218.877 11 223.01 12.3333 225.61 15C228.21 17.6 229.51 21.6333 229.51 27.1V31.4C229.51 38.6667 227.11 43.2667 222.31 45.2V45.4C224.977 46.2 226.843 47.8333 227.91 50.3C229.043 52.7667 229.61 56.0667 229.61 60.2V72.5C229.61 74.5 229.677 76.1333 229.81 77.4C229.943 78.6 230.277 79.8 230.81 81H219.61C219.21 79.8667 218.943 78.8 218.81 77.8C218.677 76.8 218.61 75 218.61 72.4V59.6C218.61 56.4 218.077 54.1667 217.01 52.9C216.01 51.6333 214.243 51 211.71 51H207.91V81H196.91V11ZM211.91 41C214.11 41 215.743 40.4333 216.81 39.3C217.943 38.1667 218.51 36.2667 218.51 33.6V28.2C218.51 25.6667 218.043 23.8333 217.11 22.7C216.243 21.5667 214.843 21 212.91 21H207.91V41H211.91ZM237.242 11H267.242V21H248.242V39.5H263.342V49.5H248.242V71H267.242V81H237.242V11ZM273.57 11H290.37C295.837 11 299.937 12.4667 302.67 15.4C305.404 18.3333 306.77 22.6333 306.77 28.3V63.7C306.77 69.3667 305.404 73.6667 302.67 76.6C299.937 79.5333 295.837 81 290.37 81H273.57V11ZM290.17 71C291.97 71 293.337 70.4667 294.27 69.4C295.27 68.3333 295.77 66.6 295.77 64.2V27.8C295.77 25.4 295.27 23.6667 294.27 22.6C293.337 21.5333 291.97 21 290.17 21H284.57V71H290.17ZM330.211 11H346.411C351.878 11 355.978 12.4667 358.711 15.4C361.444 18.3333 362.811 22.6333 362.811 28.3V35.2C362.811 40.8667 361.444 45.1667 358.711 48.1C355.978 51.0333 351.878 52.5 346.411 52.5H341.211V81H330.211V11ZM346.411 42.5C348.211 42.5 349.544 42 350.411 41C351.344 40 351.811 38.3 351.811 35.9V27.6C351.811 25.2 351.344 23.5 350.411 22.5C349.544 21.5 348.211 21 346.411 21H341.211V42.5H346.411ZM368.785 11H385.085C390.752 11 394.885 12.3333 397.485 15C400.085 17.6 401.385 21.6333 401.385 27.1V31.4C401.385 38.6667 398.985 43.2667 394.185 45.2V45.4C396.852 46.2 398.718 47.8333 399.785 50.3C400.918 52.7667 401.485 56.0667 401.485 60.2V72.5C401.485 74.5 401.552 76.1333 401.685 77.4C401.818 78.6 402.152 79.8 402.685 81H391.485C391.085 79.8667 390.818 78.8 390.685 77.8C390.552 76.8 390.485 75 390.485 72.4V59.6C390.485 56.4 389.952 54.1667 388.885 52.9C387.885 51.6333 386.118 51 383.585 51H379.785V81H368.785V11ZM383.785 41C385.985 41 387.618 40.4333 388.685 39.3C389.818 38.1667 390.385 36.2667 390.385 33.6V28.2C390.385 25.6667 389.918 23.8333 388.985 22.7C388.118 21.5667 386.718 21 384.785 21H379.785V41H383.785ZM425.017 82C419.617 82 415.484 80.4667 412.617 77.4C409.751 74.3333 408.317 70 408.317 64.4V27.6C408.317 22 409.751 17.6667 412.617 14.6C415.484 11.5333 419.617 10 425.017 10C430.417 10 434.551 11.5333 437.417 14.6C440.284 17.6667 441.717 22 441.717 27.6V64.4C441.717 70 440.284 74.3333 437.417 77.4C434.551 80.4667 430.417 82 425.017 82ZM425.017 72C428.817 72 430.717 69.7 430.717 65.1V26.9C430.717 22.3 428.817 20 425.017 20C421.217 20 419.317 22.3 419.317 26.9V65.1C419.317 69.7 421.217 72 425.017 72ZM449.156 11H465.956C471.423 11 475.523 12.4667 478.256 15.4C480.99 18.3333 482.356 22.6333 482.356 28.3V63.7C482.356 69.3667 480.99 73.6667 478.256 76.6C475.523 79.5333 471.423 81 465.956 81H449.156V11ZM465.756 71C467.556 71 468.923 70.4667 469.856 69.4C470.856 68.3333 471.356 66.6 471.356 64.2V27.8C471.356 25.4 470.856 23.6667 469.856 22.6C468.923 21.5333 467.556 21 465.756 21H460.156V71H465.756ZM505.781 82C500.448 82 496.381 80.5 493.581 77.5C490.781 74.4333 489.381 70.0667 489.381 64.4V11H500.381V65.2C500.381 67.6 500.848 69.3333 501.781 70.4C502.781 71.4667 504.181 72 505.981 72C507.781 72 509.148 71.4667 510.081 70.4C511.081 69.3333 511.581 67.6 511.581 65.2V11H522.181V64.4C522.181 70.0667 520.781 74.4333 517.981 77.5C515.181 80.5 511.115 82 505.781 82ZM545.516 82C540.249 82 536.216 80.5 533.416 77.5C530.682 74.5 529.316 70.2667 529.316 64.8V27.2C529.316 21.7333 530.682 17.5 533.416 14.5C536.216 11.5 540.249 10 545.516 10C550.782 10 554.782 11.5 557.516 14.5C560.316 17.5 561.716 21.7333 561.716 27.2V34.6H551.316V26.5C551.316 22.1667 549.482 20 545.816 20C542.149 20 540.316 22.1667 540.316 26.5V65.6C540.316 69.8667 542.149 72 545.816 72C549.482 72 551.316 69.8667 551.316 65.6V54.9H561.716V64.8C561.716 70.2667 560.316 74.5 557.516 77.5C554.782 80.5 550.782 82 545.516 82ZM576.897 21H565.397V11H599.397V21H587.897V81H576.897V21ZM619.023 82C613.689 82 609.656 80.5 606.923 77.5C604.189 74.4333 602.823 70.0667 602.823 64.4V60.4H613.223V65.2C613.223 69.7333 615.123 72 618.923 72C620.789 72 622.189 71.4667 623.123 70.4C624.123 69.2667 624.623 67.4667 624.623 65C624.623 62.0667 623.956 59.5 622.623 57.3C621.289 55.0333 618.823 52.3333 615.223 49.2C610.689 45.2 607.523 41.6 605.723 38.4C603.923 35.1333 603.023 31.4667 603.023 27.4C603.023 21.8667 604.423 17.6 607.223 14.6C610.023 11.5333 614.089 10 619.423 10C624.689 10 628.656 11.5333 631.323 14.6C634.056 17.6 635.423 21.9333 635.423 27.6V30.5H625.023V26.9C625.023 24.5 624.556 22.7667 623.623 21.7C622.689 20.5667 621.323 20 619.523 20C615.856 20 614.023 22.2333 614.023 26.7C614.023 29.2333 614.689 31.6 616.023 33.8C617.423 36 619.923 38.6667 623.523 41.8C628.123 45.8 631.289 49.4333 633.023 52.7C634.756 55.9667 635.623 59.8 635.623 64.2C635.623 69.9333 634.189 74.3333 631.323 77.4C628.523 80.4667 624.423 82 619.023 82Z" fill="white"/>
<path d="M14 11V9H12V11H14ZM43.1 11H45.1V9H43.1V11ZM43.1 21V23H45.1V21H43.1ZM25 21V19H23V21H25ZM25 40.5H23V42.5H25V40.5ZM39.2 40.5H41.2V38.5H39.2V40.5ZM39.2 50.5V52.5H41.2V50.5H39.2ZM25 50.5V48.5H23V50.5H25ZM25 81V83H27V81H25ZM14 81H12V83H14V81ZM14 11V13H43.1V11V9H14V11ZM43.1 11H41.1V21H43.1H45.1V11H43.1ZM43.1 21V19H25V21V23H43.1V21ZM25 21H23V40.5H25H27V21H25ZM25 40.5V42.5H39.2V40.5V38.5H25V40.5ZM39.2 40.5H37.2V50.5H39.2H41.2V40.5H39.2ZM39.2 50.5V48.5H25V50.5V52.5H39.2V50.5ZM25 50.5H23V81H25H27V50.5H25ZM25 81V79H14V81V83H25V81ZM14 81H16V11H14H12V81H14ZM48.375 11V9H46.375V11H48.375ZM78.375 11H80.375V9H78.375V11ZM78.375 21V23H80.375V21H78.375ZM59.375 21V19H57.375V21H59.375ZM59.375 39.5H57.375V41.5H59.375V39.5ZM74.475 39.5H76.475V37.5H74.475V39.5ZM74.475 49.5V51.5H76.475V49.5H74.475ZM59.375 49.5V47.5H57.375V49.5H59.375ZM59.375 71H57.375V73H59.375V71ZM78.375 71H80.375V69H78.375V71ZM78.375 81V83H80.375V81H78.375ZM48.375 81H46.375V83H48.375V81ZM48.375 11V13H78.375V11V9H48.375V11ZM78.375 11H76.375V21H78.375H80.375V11H78.375ZM78.375 21V19H59.375V21V23H78.375V21ZM59.375 21H57.375V39.5H59.375H61.375V21H59.375ZM59.375 39.5V41.5H74.475V39.5V37.5H59.375V39.5ZM74.475 39.5H72.475V49.5H74.475H76.475V39.5H74.475ZM74.475 49.5V47.5H59.375V49.5V51.5H74.475V49.5ZM59.375 49.5H57.375V71H59.375H61.375V49.5H59.375ZM59.375 71V73H78.375V71V69H59.375V71ZM78.375 71H76.375V81H78.375H80.375V71H78.375ZM78.375 81V79H48.375V81V83H78.375V81ZM48.375 81H50.375V11H48.375H46.375V81H48.375ZM93.2031 11V9H91.5025L91.2291 10.6785L93.2031 11ZM108.103 11L110.077 10.6785L109.804 9H108.103V11ZM119.503 81V83H121.855L121.477 80.6785L119.503 81ZM108.503 81L106.524 81.2848L106.77 83H108.503V81ZM106.503 67.1L108.483 66.8152L104.503 67.1H106.503ZM106.503 67.3V69.3H108.503V67.3H106.503ZM94.0031 67.3V65.3H92.2739L92.0241 67.0111L94.0031 67.3ZM92.0031 81V83H93.7323L93.9821 81.2889L92.0031 81ZM81.8031 81L79.8291 80.6785L79.4511 83H81.8031V81ZM105.203 57.8V59.8H107.506L107.183 57.5196L105.203 57.8ZM100.303 23.2L102.283 22.9196L102.04 21.2H100.303V23.2ZM100.103 23.2V21.2H98.3614L98.1221 22.9252L100.103 23.2ZM95.3031 57.8L93.3221 57.5252L93.0065 59.8H95.3031V57.8ZM93.2031 11V13H108.103V11V9H93.2031V11ZM108.103 11L106.129 11.3215L117.529 81.3215L119.503 81L121.477 80.6785L110.077 10.6785L108.103 11ZM119.503 81V79H108.503V81V83H119.503V81ZM108.503 81L110.483 80.7152L108.483 66.8152L106.503 67.1L104.524 67.3848L106.524 81.2848L108.503 81ZM106.503 67.1H104.503V67.3H106.503H108.503V67.1H106.503ZM106.503 67.3V65.3H94.0031V67.3V69.3H106.503V67.3ZM94.0031 67.3L92.0241 67.0111L90.0241 80.7111L92.0031 81L93.9821 81.2889L95.9821 67.5889L94.0031 67.3ZM92.0031 81V79H81.8031V81V83H92.0031V81ZM81.8031 81L83.7771 81.3215L95.1771 11.3215L93.2031 11L91.2291 10.6785L79.8291 80.6785L81.8031 81ZM105.203 57.8L107.183 57.5196L102.283 22.9196L100.303 23.2L98.3229 23.4804L103.223 58.0804L105.203 57.8ZM100.303 23.2V21.2H100.103V23.2V25.2H100.303V23.2ZM100.103 23.2L98.1221 22.9252L93.3221 57.5252L95.3031 57.8L97.2841 58.0748L102.084 23.4748L100.103 23.2ZM95.3031 57.8V59.8H105.203V57.8V55.8H95.3031V57.8ZM128.85 21H130.85V19H128.85V21ZM117.35 21H115.35V23H117.35V21ZM117.35 11V9H115.35V11H117.35ZM151.35 11H153.35V9H151.35V11ZM151.35 21V23H153.35V21H151.35ZM139.85 21V19H137.85V21H139.85ZM139.85 81V83H141.85V81H139.85ZM128.85 81H126.85V83H128.85V81ZM128.85 21V19H117.35V21V23H128.85V21ZM117.35 21H119.35V11H117.35H115.35V21H117.35ZM117.35 11V13H151.35V11V9H117.35V11ZM151.35 11H149.35V21H151.35H153.35V11H151.35ZM151.35 21V19H139.85V21V23H151.35V21ZM139.85 21H137.85V81H139.85H141.85V21H139.85ZM139.85 81V79H128.85V81V83H139.85V81ZM128.85 81H130.85V21H128.85H126.85V81H128.85ZM160.476 77.5L158.999 78.8485L159.006 78.8566L159.014 78.8646L160.476 77.5ZM156.276 11V9H154.276V11H156.276ZM167.276 11H169.276V9H167.276V11ZM168.676 70.4L167.171 71.717L167.193 71.7428L167.217 71.7679L168.676 70.4ZM176.976 70.4L175.517 69.0321L175.493 69.0572L175.471 69.083L176.976 70.4ZM178.476 11V9H176.476V11H178.476ZM189.076 11H191.076V9H189.076V11ZM184.876 77.5L186.338 78.8646L186.345 78.8566L186.353 78.8485L184.876 77.5ZM172.676 82V80C167.722 80 164.255 78.6178 161.938 76.1354L160.476 77.5L159.014 78.8646C162.297 82.3822 166.963 84 172.676 84V82ZM160.476 77.5L161.953 76.1515C159.595 73.5697 158.276 69.7515 158.276 64.4H156.276H154.276C154.276 70.3818 155.756 75.297 158.999 78.8485L160.476 77.5ZM156.276 64.4H158.276V11H156.276H154.276V64.4H156.276ZM156.276 11V13H167.276V11V9H156.276V11ZM167.276 11H165.276V65.2H167.276H169.276V11H167.276ZM167.276 65.2H165.276C165.276 67.775 165.761 70.1059 167.171 71.717L168.676 70.4L170.181 69.083C169.724 68.5608 169.276 67.425 169.276 65.2H167.276ZM168.676 70.4L167.217 71.7679C168.679 73.328 170.66 74 172.876 74V72V70C171.492 70 170.672 69.6054 170.135 69.0321L168.676 70.4ZM172.876 72V74C175.085 74 177.07 73.3294 178.481 71.717L176.976 70.4L175.471 69.083C175.015 69.6039 174.266 70 172.876 70V72ZM176.976 70.4L178.435 71.7679C179.947 70.1548 180.476 67.8008 180.476 65.2H178.476H176.476C176.476 67.3992 176.004 68.5119 175.517 69.0321L176.976 70.4ZM178.476 65.2H180.476V11H178.476H176.476V65.2H178.476ZM178.476 11V13H189.076V11V9H178.476V11ZM189.076 11H187.076V64.4H189.076H191.076V11H189.076ZM189.076 64.4H187.076C187.076 69.7515 185.756 73.5697 183.399 76.1515L184.876 77.5L186.353 78.8485C189.595 75.297 191.076 70.3818 191.076 64.4H189.076ZM184.876 77.5L183.414 76.1354C181.097 78.6178 177.63 80 172.676 80V82V84C178.388 84 183.055 82.3822 186.338 78.8646L184.876 77.5ZM196.91 11V9H194.91V11H196.91ZM225.61 15L224.178 16.3962L224.187 16.4053L224.196 16.4142L225.61 15ZM222.31 45.2L221.563 43.3448L220.31 43.8494V45.2H222.31ZM222.31 45.4H220.31V46.8881L221.735 47.3157L222.31 45.4ZM227.91 50.3L226.074 51.0938L226.083 51.1145L226.093 51.135L227.91 50.3ZM229.81 77.4L227.821 77.6094L227.822 77.6209L229.81 77.4ZM230.81 81V83H233.888L232.638 80.1877L230.81 81ZM219.61 81L217.724 81.6656L218.195 83H219.61V81ZM217.01 52.9L215.44 54.1393L215.46 54.1641L215.48 54.1883L217.01 52.9ZM207.91 51V49H205.91V51H207.91ZM207.91 81V83H209.91V81H207.91ZM196.91 81H194.91V83H196.91V81ZM216.81 39.3L215.396 37.8858L215.375 37.9072L215.354 37.9293L216.81 39.3ZM217.11 22.7L215.521 23.9149L215.543 23.9436L215.566 23.9714L217.11 22.7ZM207.91 21V19H205.91V21H207.91ZM207.91 41H205.91V43H207.91V41ZM196.91 11V13H213.21V11V9H196.91V11ZM213.21 11V13C218.615 13 222.112 14.277 224.178 16.3962L225.61 15L227.042 13.6038C223.908 10.3896 219.139 9 213.21 9V11ZM225.61 15L224.196 16.4142C226.272 18.4903 227.51 21.9077 227.51 27.1H229.51H231.51C231.51 21.3589 230.148 16.7097 227.024 13.5858L225.61 15ZM229.51 27.1H227.51V31.4H229.51H231.51V27.1H229.51ZM229.51 31.4H227.51C227.51 34.8328 226.94 37.4517 225.937 39.3749C224.957 41.2538 223.52 42.5566 221.563 43.3448L222.31 45.2L223.057 47.0552C225.9 45.91 228.064 43.9462 229.483 41.2251C230.88 38.5483 231.51 35.2339 231.51 31.4H229.51ZM222.31 45.2H220.31V45.4H222.31H224.31V45.2H222.31ZM222.31 45.4L221.735 47.3157C223.86 47.9531 225.252 49.1908 226.074 51.0938L227.91 50.3L229.746 49.5062C228.435 46.4758 226.093 44.4469 222.885 43.4843L222.31 45.4ZM227.91 50.3L226.093 51.135C227.06 53.2391 227.61 56.2185 227.61 60.2H229.61H231.61C231.61 55.9148 231.027 52.2943 229.728 49.465L227.91 50.3ZM229.61 60.2H227.61V72.5H229.61H231.61V60.2H229.61ZM229.61 72.5H227.61C227.61 74.5354 227.678 76.2457 227.821 77.6094L229.81 77.4L231.799 77.1906C231.676 76.021 231.61 74.4646 231.61 72.5H229.61ZM229.81 77.4L227.822 77.6209C227.98 79.0421 228.373 80.4409 228.983 81.8123L230.81 81L232.638 80.1877C232.181 79.1591 231.907 78.1579 231.798 77.1791L229.81 77.4ZM230.81 81V79H219.61V81V83H230.81V81ZM219.61 81L221.496 80.3344C221.134 79.3072 220.905 78.3759 220.793 77.5357L218.81 77.8L216.828 78.0643C216.982 79.2241 217.287 80.4261 217.724 81.6656L219.61 81ZM218.81 77.8L220.793 77.5357C220.679 76.6837 220.61 75.007 220.61 72.4H218.61H216.61C216.61 74.993 216.675 76.9163 216.828 78.0643L218.81 77.8ZM218.61 72.4H220.61V59.6H218.61H216.61V72.4H218.61ZM218.61 59.6H220.61C220.61 56.3077 220.088 53.4496 218.54 51.6117L217.01 52.9L215.48 54.1883C216.066 54.8837 216.61 56.4923 216.61 59.6H218.61ZM217.01 52.9L218.58 51.6607C217.026 49.6926 214.504 49 211.71 49V51V53C213.983 53 214.994 53.574 215.44 54.1393L217.01 52.9ZM211.71 51V49H207.91V51V53H211.71V51ZM207.91 51H205.91V81H207.91H209.91V51H207.91ZM207.91 81V79H196.91V81V83H207.91V81ZM196.91 81H198.91V11H196.91H194.91V81H196.91ZM211.91 41V43C214.429 43 216.688 42.3485 218.267 40.6707L216.81 39.3L215.354 37.9293C214.799 38.5182 213.792 39 211.91 39V41ZM216.81 39.3L218.224 40.7142C219.916 39.0223 220.51 36.4639 220.51 33.6H218.51H216.51C216.51 36.0694 215.971 37.311 215.396 37.8858L216.81 39.3ZM218.51 33.6H220.51V28.2H218.51H216.51V33.6H218.51ZM218.51 28.2H220.51C220.51 25.5079 220.031 23.1003 218.654 21.4286L217.11 22.7L215.566 23.9714C216.056 24.5664 216.51 25.8254 216.51 28.2H218.51ZM217.11 22.7L218.699 21.4851C217.33 19.6946 215.229 19 212.91 19V21V23C214.458 23 215.157 23.4387 215.521 23.9149L217.11 22.7ZM212.91 21V19H207.91V21V23H212.91V21ZM207.91 21H205.91V41H207.91H209.91V21H207.91ZM207.91 41V43H211.91V41V39H207.91V41ZM237.242 11V9H235.242V11H237.242ZM267.242 11H269.242V9H267.242V11ZM267.242 21V23H269.242V21H267.242ZM248.242 21V19H246.242V21H248.242ZM248.242 39.5H246.242V41.5H248.242V39.5ZM263.342 39.5H265.342V37.5H263.342V39.5ZM263.342 49.5V51.5H265.342V49.5H263.342ZM248.242 49.5V47.5H246.242V49.5H248.242ZM248.242 71H246.242V73H248.242V71ZM267.242 71H269.242V69H267.242V71ZM267.242 81V83H269.242V81H267.242ZM237.242 81H235.242V83H237.242V81ZM237.242 11V13H267.242V11V9H237.242V11ZM267.242 11H265.242V21H267.242H269.242V11H267.242ZM267.242 21V19H248.242V21V23H267.242V21ZM248.242 21H246.242V39.5H248.242H250.242V21H248.242ZM248.242 39.5V41.5H263.342V39.5V37.5H248.242V39.5ZM263.342 39.5H261.342V49.5H263.342H265.342V39.5H263.342ZM263.342 49.5V47.5H248.242V49.5V51.5H263.342V49.5ZM248.242 49.5H246.242V71H248.242H250.242V49.5H248.242ZM248.242 71V73H267.242V71V69H248.242V71ZM267.242 71H265.242V81H267.242H269.242V71H267.242ZM267.242 81V79H237.242V81V83H267.242V81ZM237.242 81H239.242V11H237.242H235.242V81H237.242ZM273.57 11V9H271.57V11H273.57ZM302.67 15.4L301.207 16.7634V16.7635L302.67 15.4ZM302.67 76.6L304.134 77.9634L302.67 76.6ZM273.57 81H271.57V83H273.57V81ZM294.27 69.4L292.811 68.0321L292.788 68.0572L292.765 68.083L294.27 69.4ZM294.27 22.6L292.765 23.917L292.788 23.9428L292.811 23.9679L294.27 22.6ZM284.57 21V19H282.57V21H284.57ZM284.57 71H282.57V73H284.57V71ZM273.57 11V13H290.37V11V9H273.57V11ZM290.37 11V13C295.491 13 298.974 14.3672 301.207 16.7634L302.67 15.4L304.134 14.0365C300.9 10.5661 296.183 9 290.37 9V11ZM302.67 15.4L301.207 16.7635C303.475 19.1976 304.77 22.9301 304.77 28.3H306.77H308.77C308.77 22.3366 307.332 17.4691 304.134 14.0365L302.67 15.4ZM306.77 28.3H304.77V63.7H306.77H308.77V28.3H306.77ZM306.77 63.7H304.77C304.77 69.0699 303.475 72.8024 301.207 75.2365L302.67 76.6L304.134 77.9634C307.332 74.5309 308.77 69.6634 308.77 63.7H306.77ZM302.67 76.6L301.207 75.2365C298.974 77.6328 295.491 79 290.37 79V81V83C296.183 83 300.9 81.4339 304.134 77.9634L302.67 76.6ZM290.37 81V79H273.57V81V83H290.37V81ZM273.57 81H275.57V11H273.57H271.57V81H273.57ZM290.17 71V73C292.38 73 294.365 72.3294 295.775 70.717L294.27 69.4L292.765 68.083C292.309 68.6039 291.561 69 290.17 69V71ZM294.27 69.4L295.729 70.7679C297.242 69.1548 297.77 66.8008 297.77 64.2H295.77H293.77C293.77 66.3992 293.299 67.5119 292.811 68.0321L294.27 69.4ZM295.77 64.2H297.77V27.8H295.77H293.77V64.2H295.77ZM295.77 27.8H297.77C297.77 25.1992 297.242 22.8452 295.729 21.2321L294.27 22.6L292.811 23.9679C293.299 24.4881 293.77 25.6008 293.77 27.8H295.77ZM294.27 22.6L295.775 21.283C294.365 19.6706 292.38 19 290.17 19V21V23C291.561 23 292.309 23.3961 292.765 23.917L294.27 22.6ZM290.17 21V19H284.57V21V23H290.17V21ZM284.57 21H282.57V71H284.57H286.57V21H284.57ZM284.57 71V73H290.17V71V69H284.57V71ZM330.211 11V9H328.211V11H330.211ZM358.711 15.4L357.248 16.7634V16.7635L358.711 15.4ZM358.711 48.1L357.248 46.7365L358.711 48.1ZM341.211 52.5V50.5H339.211V52.5H341.211ZM341.211 81V83H343.211V81H341.211ZM330.211 81H328.211V83H330.211V81ZM350.411 41L348.949 39.6354L348.924 39.6623L348.9 39.6901L350.411 41ZM350.411 22.5L348.9 23.8099L348.924 23.8377L348.949 23.8646L350.411 22.5ZM341.211 21V19H339.211V21H341.211ZM341.211 42.5H339.211V44.5H341.211V42.5ZM330.211 11V13H346.411V11V9H330.211V11ZM346.411 11V13C351.532 13 355.015 14.3672 357.248 16.7634L358.711 15.4L360.174 14.0365C356.94 10.5661 352.224 9 346.411 9V11ZM358.711 15.4L357.248 16.7635C359.516 19.1976 360.811 22.9301 360.811 28.3H362.811H364.811C364.811 22.3366 363.373 17.4691 360.174 14.0365L358.711 15.4ZM362.811 28.3H360.811V35.2H362.811H364.811V28.3H362.811ZM362.811 35.2H360.811C360.811 40.5699 359.516 44.3024 357.248 46.7365L358.711 48.1L360.174 49.4634C363.373 46.0309 364.811 41.1634 364.811 35.2H362.811ZM358.711 48.1L357.248 46.7365C355.015 49.1328 351.532 50.5 346.411 50.5V52.5V54.5C352.224 54.5 356.94 52.9339 360.174 49.4634L358.711 48.1ZM346.411 52.5V50.5H341.211V52.5V54.5H346.411V52.5ZM341.211 52.5H339.211V81H341.211H343.211V52.5H341.211ZM341.211 81V79H330.211V81V83H341.211V81ZM330.211 81H332.211V11H330.211H328.211V81H330.211ZM346.411 42.5V44.5C348.572 44.5 350.552 43.8905 351.922 42.3099L350.411 41L348.9 39.6901C348.536 40.1095 347.85 40.5 346.411 40.5V42.5ZM350.411 41L351.873 42.3646C353.333 40.8001 353.811 38.4569 353.811 35.9H351.811H349.811C349.811 38.1431 349.355 39.1999 348.949 39.6354L350.411 41ZM351.811 35.9H353.811V27.6H351.811H349.811V35.9H351.811ZM351.811 27.6H353.811C353.811 25.0431 353.333 22.6999 351.873 21.1354L350.411 22.5L348.949 23.8646C349.355 24.3001 349.811 25.3569 349.811 27.6H351.811ZM350.411 22.5L351.922 21.1901C350.552 19.6095 348.572 19 346.411 19V21V23C347.85 23 348.536 23.3905 348.9 23.8099L350.411 22.5ZM346.411 21V19H341.211V21V23H346.411V21ZM341.211 21H339.211V42.5H341.211H343.211V21H341.211ZM341.211 42.5V44.5H346.411V42.5V40.5H341.211V42.5ZM368.785 11V9H366.785V11H368.785ZM397.485 15L396.053 16.3962L396.062 16.4053L396.071 16.4142L397.485 15ZM394.185 45.2L393.438 43.3448L392.185 43.8494V45.2H394.185ZM394.185 45.4H392.185V46.8881L393.61 47.3157L394.185 45.4ZM399.785 50.3L397.949 51.0938L397.958 51.1145L397.968 51.135L399.785 50.3ZM401.685 77.4L399.696 77.6094L399.697 77.6209L401.685 77.4ZM402.685 81V83H405.763L404.513 80.1877L402.685 81ZM391.485 81L389.599 81.6656L390.07 83H391.485V81ZM388.885 52.9L387.315 54.1393L387.335 54.1641L387.355 54.1883L388.885 52.9ZM379.785 51V49H377.785V51H379.785ZM379.785 81V83H381.785V81H379.785ZM368.785 81H366.785V83H368.785V81ZM388.685 39.3L387.271 37.8858L387.25 37.9072L387.229 37.9293L388.685 39.3ZM388.985 22.7L387.396 23.9149L387.418 23.9436L387.441 23.9714L388.985 22.7ZM379.785 21V19H377.785V21H379.785ZM379.785 41H377.785V43H379.785V41ZM368.785 11V13H385.085V11V9H368.785V11ZM385.085 11V13C390.49 13 393.987 14.277 396.053 16.3962L397.485 15L398.917 13.6038C395.783 10.3896 391.014 9 385.085 9V11ZM397.485 15L396.071 16.4142C398.147 18.4903 399.385 21.9077 399.385 27.1H401.385H403.385C403.385 21.3589 402.023 16.7097 398.899 13.5858L397.485 15ZM401.385 27.1H399.385V31.4H401.385H403.385V27.1H401.385ZM401.385 31.4H399.385C399.385 34.8328 398.815 37.4517 397.812 39.3749C396.832 41.2538 395.395 42.5566 393.438 43.3448L394.185 45.2L394.932 47.0552C397.775 45.91 399.939 43.9462 401.358 41.2251C402.755 38.5483 403.385 35.2339 403.385 31.4H401.385ZM394.185 45.2H392.185V45.4H394.185H396.185V45.2H394.185ZM394.185 45.4L393.61 47.3157C395.735 47.9531 397.127 49.1908 397.949 51.0938L399.785 50.3L401.621 49.5062C400.31 46.4758 397.968 44.4469 394.76 43.4843L394.185 45.4ZM399.785 50.3L397.968 51.135C398.935 53.2391 399.485 56.2185 399.485 60.2H401.485H403.485C403.485 55.9148 402.902 52.2943 401.603 49.465L399.785 50.3ZM401.485 60.2H399.485V72.5H401.485H403.485V60.2H401.485ZM401.485 72.5H399.485C399.485 74.5354 399.553 76.2457 399.696 77.6094L401.685 77.4L403.674 77.1906C403.551 76.021 403.485 74.4646 403.485 72.5H401.485ZM401.685 77.4L399.697 77.6209C399.855 79.0421 400.248 80.4409 400.858 81.8123L402.685 81L404.513 80.1877C404.056 79.1591 403.782 78.1579 403.673 77.1791L401.685 77.4ZM402.685 81V79H391.485V81V83H402.685V81ZM391.485 81L393.371 80.3344C393.009 79.3072 392.78 78.3759 392.668 77.5357L390.685 77.8L388.703 78.0643C388.857 79.2241 389.162 80.4261 389.599 81.6656L391.485 81ZM390.685 77.8L392.668 77.5357C392.554 76.6837 392.485 75.007 392.485 72.4H390.485H388.485C388.485 74.993 388.55 76.9163 388.703 78.0643L390.685 77.8ZM390.485 72.4H392.485V59.6H390.485H388.485V72.4H390.485ZM390.485 59.6H392.485C392.485 56.3077 391.963 53.4496 390.415 51.6117L388.885 52.9L387.355 54.1883C387.941 54.8837 388.485 56.4923 388.485 59.6H390.485ZM388.885 52.9L390.455 51.6607C388.901 49.6926 386.379 49 383.585 49V51V53C385.858 53 386.869 53.574 387.315 54.1393L388.885 52.9ZM383.585 51V49H379.785V51V53H383.585V51ZM379.785 51H377.785V81H379.785H381.785V51H379.785ZM379.785 81V79H368.785V81V83H379.785V81ZM368.785 81H370.785V11H368.785H366.785V81H368.785ZM383.785 41V43C386.304 43 388.562 42.3485 390.142 40.6707L388.685 39.3L387.229 37.9293C386.674 38.5182 385.667 39 383.785 39V41ZM388.685 39.3L390.099 40.7142C391.791 39.0223 392.385 36.4639 392.385 33.6H390.385H388.385C388.385 36.0694 387.846 37.311 387.271 37.8858L388.685 39.3ZM390.385 33.6H392.385V28.2H390.385H388.385V33.6H390.385ZM390.385 28.2H392.385C392.385 25.5079 391.906 23.1003 390.529 21.4286L388.985 22.7L387.441 23.9714C387.931 24.5664 388.385 25.8254 388.385 28.2H390.385ZM388.985 22.7L390.574 21.4851C389.205 19.6946 387.104 19 384.785 19V21V23C386.333 23 387.032 23.4387 387.396 23.9149L388.985 22.7ZM384.785 21V19H379.785V21V23H384.785V21ZM379.785 21H377.785V41H379.785H381.785V21H379.785ZM379.785 41V43H383.785V41V39H379.785V41ZM412.617 77.4L414.078 76.0342L412.617 77.4ZM412.617 14.6L414.078 15.9658L412.617 14.6ZM437.417 14.6L435.956 15.9658V15.9658L437.417 14.6ZM437.417 77.4L435.956 76.0342L437.417 77.4ZM425.017 82V80C420.003 80 416.466 78.5882 414.078 76.0342L412.617 77.4L411.156 78.7658C414.502 82.3451 419.231 84 425.017 84V82ZM412.617 77.4L414.078 76.0342C411.66 73.4477 410.317 69.6661 410.317 64.4H408.317H406.317C406.317 70.3339 407.841 75.219 411.156 78.7658L412.617 77.4ZM408.317 64.4H410.317V27.6H408.317H406.317V64.4H408.317ZM408.317 27.6H410.317C410.317 22.3339 411.66 18.5523 414.078 15.9658L412.617 14.6L411.156 13.2342C407.841 16.781 406.317 21.6661 406.317 27.6H408.317ZM412.617 14.6L414.078 15.9658C416.466 13.4118 420.003 12 425.017 12V10V8C419.231 8 414.502 9.6549 411.156 13.2342L412.617 14.6ZM425.017 10V12C430.031 12 433.569 13.4118 435.956 15.9658L437.417 14.6L438.878 13.2342C435.532 9.6549 430.803 8 425.017 8V10ZM437.417 14.6L435.956 15.9658C438.374 18.5523 439.717 22.3339 439.717 27.6H441.717H443.717C443.717 21.6661 442.194 16.781 438.878 13.2342L437.417 14.6ZM441.717 27.6H439.717V64.4H441.717H443.717V27.6H441.717ZM441.717 64.4H439.717C439.717 69.6661 438.374 73.4477 435.956 76.0342L437.417 77.4L438.878 78.7658C442.194 75.219 443.717 70.3339 443.717 64.4H441.717ZM437.417 77.4L435.956 76.0342C433.569 78.5882 430.031 80 425.017 80V82V84C430.803 84 435.532 82.3451 438.878 78.7658L437.417 77.4ZM425.017 72V74C427.337 74 429.404 73.2796 430.834 71.5488C432.203 69.8911 432.717 67.6252 432.717 65.1H430.717H428.717C428.717 67.1748 428.281 68.3589 427.75 69.0012C427.28 69.5704 426.498 70 425.017 70V72ZM430.717 65.1H432.717V26.9H430.717H428.717V65.1H430.717ZM430.717 26.9H432.717C432.717 24.3748 432.203 22.1089 430.834 20.4512C429.404 18.7204 427.337 18 425.017 18V20V22C426.498 22 427.28 22.4296 427.75 22.9988C428.281 23.6411 428.717 24.8252 428.717 26.9H430.717ZM425.017 20V18C422.698 18 420.63 18.7204 419.2 20.4512C417.831 22.1089 417.317 24.3748 417.317 26.9H419.317H421.317C421.317 24.8252 421.753 23.6411 422.284 22.9988C422.754 22.4296 423.537 22 425.017 22V20ZM419.317 26.9H417.317V65.1H419.317H421.317V26.9H419.317ZM419.317 65.1H417.317C417.317 67.6252 417.831 69.8911 419.2 71.5488C420.63 73.2796 422.698 74 425.017 74V72V70C423.537 70 422.754 69.5704 422.284 69.0012C421.753 68.3589 421.317 67.1748 421.317 65.1H419.317ZM449.156 11V9H447.156V11H449.156ZM478.256 15.4L476.793 16.7634V16.7635L478.256 15.4ZM478.256 76.6L479.719 77.9634L478.256 76.6ZM449.156 81H447.156V83H449.156V81ZM469.856 69.4L468.397 68.0321L468.374 68.0572L468.351 68.083L469.856 69.4ZM469.856 22.6L468.351 23.917L468.374 23.9428L468.397 23.9679L469.856 22.6ZM460.156 21V19H458.156V21H460.156ZM460.156 71H458.156V73H460.156V71ZM449.156 11V13H465.956V11V9H449.156V11ZM465.956 11V13C471.077 13 474.56 14.3672 476.793 16.7634L478.256 15.4L479.719 14.0365C476.486 10.5661 471.769 9 465.956 9V11ZM478.256 15.4L476.793 16.7635C479.061 19.1976 480.356 22.9301 480.356 28.3H482.356H484.356C484.356 22.3366 482.918 17.4691 479.719 14.0365L478.256 15.4ZM482.356 28.3H480.356V63.7H482.356H484.356V28.3H482.356ZM482.356 63.7H480.356C480.356 69.0699 479.061 72.8024 476.793 75.2365L478.256 76.6L479.719 77.9634C482.918 74.5309 484.356 69.6634 484.356 63.7H482.356ZM478.256 76.6L476.793 75.2365C474.56 77.6328 471.077 79 465.956 79V81V83C471.769 83 476.486 81.4339 479.719 77.9634L478.256 76.6ZM465.956 81V79H449.156V81V83H465.956V81ZM449.156 81H451.156V11H449.156H447.156V81H449.156ZM465.756 71V73C467.966 73 469.951 72.3294 471.361 70.717L469.856 69.4L468.351 68.083C467.895 68.6039 467.147 69 465.756 69V71ZM469.856 69.4L471.315 70.7679C472.828 69.1548 473.356 66.8008 473.356 64.2H471.356H469.356C469.356 66.3992 468.885 67.5119 468.397 68.0321L469.856 69.4ZM471.356 64.2H473.356V27.8H471.356H469.356V64.2H471.356ZM471.356 27.8H473.356C473.356 25.1992 472.828 22.8452 471.315 21.2321L469.856 22.6L468.397 23.9679C468.885 24.4881 469.356 25.6008 469.356 27.8H471.356ZM469.856 22.6L471.361 21.283C469.951 19.6706 467.966 19 465.756 19V21V23C467.147 23 467.895 23.3961 468.351 23.917L469.856 22.6ZM465.756 21V19H460.156V21V23H465.756V21ZM460.156 21H458.156V71H460.156H462.156V21H460.156ZM460.156 71V73H465.756V71V69H460.156V71ZM493.581 77.5L492.104 78.8485L492.112 78.8566L492.119 78.8646L493.581 77.5ZM489.381 11V9H487.381V11H489.381ZM500.381 11H502.381V9H500.381V11ZM501.781 70.4L500.276 71.717L500.299 71.7428L500.322 71.7679L501.781 70.4ZM510.081 70.4L508.622 69.0321L508.599 69.0572L508.576 69.083L510.081 70.4ZM511.581 11V9H509.581V11H511.581ZM522.181 11H524.181V9H522.181V11ZM517.981 77.5L519.443 78.8646L519.451 78.8566L519.458 78.8485L517.981 77.5ZM505.781 82V80C500.827 80 497.36 78.6178 495.043 76.1354L493.581 77.5L492.119 78.8646C495.402 82.3822 500.069 84 505.781 84V82ZM493.581 77.5L495.058 76.1515C492.701 73.5697 491.381 69.7515 491.381 64.4H489.381H487.381C487.381 70.3818 488.862 75.297 492.104 78.8485L493.581 77.5ZM489.381 64.4H491.381V11H489.381H487.381V64.4H489.381ZM489.381 11V13H500.381V11V9H489.381V11ZM500.381 11H498.381V65.2H500.381H502.381V11H500.381ZM500.381 65.2H498.381C498.381 67.775 498.866 70.1059 500.276 71.717L501.781 70.4L503.286 69.083C502.829 68.5608 502.381 67.425 502.381 65.2H500.381ZM501.781 70.4L500.322 71.7679C501.785 73.328 503.765 74 505.981 74V72V70C504.597 70 503.778 69.6054 503.24 69.0321L501.781 70.4ZM505.981 72V74C508.191 74 510.176 73.3294 511.586 71.717L510.081 70.4L508.576 69.083C508.12 69.6039 507.372 70 505.981 70V72ZM510.081 70.4L511.54 71.7679C513.053 70.1548 513.581 67.8008 513.581 65.2H511.581H509.581C509.581 67.3992 509.11 68.5119 508.622 69.0321L510.081 70.4ZM511.581 65.2H513.581V11H511.581H509.581V65.2H511.581ZM511.581 11V13H522.181V11V9H511.581V11ZM522.181 11H520.181V64.4H522.181H524.181V11H522.181ZM522.181 64.4H520.181C520.181 69.7515 518.862 73.5697 516.504 76.1515L517.981 77.5L519.458 78.8485C522.701 75.297 524.181 70.3818 524.181 64.4H522.181ZM517.981 77.5L516.519 76.1354C514.202 78.6178 510.735 80 505.781 80V82V84C511.494 84 516.16 82.3822 519.443 78.8646L517.981 77.5ZM533.416 77.5L531.937 78.847L531.945 78.8559L531.954 78.8646L533.416 77.5ZM533.416 14.5L531.954 13.1354L531.945 13.1441L531.937 13.153L533.416 14.5ZM557.516 14.5L556.037 15.847L556.045 15.8559L556.053 15.8646L557.516 14.5ZM561.716 34.6V36.6H563.716V34.6H561.716ZM551.316 34.6H549.316V36.6H551.316V34.6ZM551.316 54.9V52.9H549.316V54.9H551.316ZM561.716 54.9H563.716V52.9H561.716V54.9ZM557.516 77.5L556.053 76.1354L556.045 76.1441L556.037 76.153L557.516 77.5ZM545.516 82V80C540.637 80 537.199 78.6227 534.878 76.1354L533.416 77.5L531.954 78.8646C535.232 82.3773 539.861 84 545.516 84V82ZM533.416 77.5L534.894 76.153C532.598 73.6333 531.316 69.9439 531.316 64.8H529.316H527.316C527.316 70.5894 528.766 75.3667 531.937 78.847L533.416 77.5ZM529.316 64.8H531.316V27.2H529.316H527.316V64.8H529.316ZM529.316 27.2H531.316C531.316 22.0561 532.598 18.3667 534.894 15.847L533.416 14.5L531.937 13.153C528.766 16.6333 527.316 21.4106 527.316 27.2H529.316ZM533.416 14.5L534.878 15.8646C537.199 13.3773 540.637 12 545.516 12V10V8C539.861 8 535.232 9.62271 531.954 13.1354L533.416 14.5ZM545.516 10V12C550.397 12 553.788 13.3781 556.037 15.847L557.516 14.5L558.994 13.153C555.777 9.6219 551.168 8 545.516 8V10ZM557.516 14.5L556.053 15.8646C558.406 18.3852 559.716 22.0678 559.716 27.2H561.716H563.716C563.716 21.3988 562.225 16.6148 558.978 13.1354L557.516 14.5ZM561.716 27.2H559.716V34.6H561.716H563.716V27.2H561.716ZM561.716 34.6V32.6H551.316V34.6V36.6H561.716V34.6ZM551.316 34.6H553.316V26.5H551.316H549.316V34.6H551.316ZM551.316 26.5H553.316C553.316 24.099 552.815 21.9255 551.467 20.3331C550.066 18.6768 548.053 18 545.816 18V20V22C547.245 22 547.982 22.4065 548.414 22.9169C548.9 23.4912 549.316 24.5676 549.316 26.5H551.316ZM545.816 20V18C543.578 18 541.565 18.6768 540.164 20.3331C538.816 21.9255 538.316 24.099 538.316 26.5H540.316H542.316C542.316 24.5676 542.731 23.4912 543.217 22.9169C543.649 22.4065 544.386 22 545.816 22V20ZM540.316 26.5H538.316V65.6H540.316H542.316V26.5H540.316ZM540.316 65.6H538.316C538.316 67.9737 538.819 70.1272 540.174 71.7035C541.578 73.3379 543.588 74 545.816 74V72V70C544.376 70 543.636 69.5955 543.207 69.0965C542.729 68.5395 542.316 67.493 542.316 65.6H540.316ZM545.816 72V74C548.043 74 550.053 73.3379 551.457 71.7035C552.812 70.1272 553.316 67.9737 553.316 65.6H551.316H549.316C549.316 67.493 548.902 68.5395 548.424 69.0965C547.995 69.5955 547.255 70 545.816 70V72ZM551.316 65.6H553.316V54.9H551.316H549.316V65.6H551.316ZM551.316 54.9V56.9H561.716V54.9V52.9H551.316V54.9ZM561.716 54.9H559.716V64.8H561.716H563.716V54.9H561.716ZM561.716 64.8H559.716C559.716 69.9322 558.406 73.6148 556.053 76.1354L557.516 77.5L558.978 78.8646C562.225 75.3852 563.716 70.6012 563.716 64.8H561.716ZM557.516 77.5L556.037 76.153C553.788 78.6219 550.397 80 545.516 80V82V84C551.168 84 555.777 82.3781 558.994 78.847L557.516 77.5ZM576.897 21H578.897V19H576.897V21ZM565.397 21H563.397V23H565.397V21ZM565.397 11V9H563.397V11H565.397ZM599.397 11H601.397V9H599.397V11ZM599.397 21V23H601.397V21H599.397ZM587.897 21V19H585.897V21H587.897ZM587.897 81V83H589.897V81H587.897ZM576.897 81H574.897V83H576.897V81ZM576.897 21V19H565.397V21V23H576.897V21ZM565.397 21H567.397V11H565.397H563.397V21H565.397ZM565.397 11V13H599.397V11V9H565.397V11ZM599.397 11H597.397V21H599.397H601.397V11H599.397ZM599.397 21V19H587.897V21V23H599.397V21ZM587.897 21H585.897V81H587.897H589.897V21H587.897ZM587.897 81V79H576.897V81V83H587.897V81ZM576.897 81H578.897V21H576.897H574.897V81H576.897ZM606.923 77.5L605.43 78.8307L605.437 78.8389L605.444 78.847L606.923 77.5ZM602.823 60.4V58.4H600.823V60.4H602.823ZM613.223 60.4H615.223V58.4H613.223V60.4ZM623.123 70.4L621.623 69.0767L621.618 69.083L623.123 70.4ZM622.623 57.3L620.899 58.314L620.905 58.3254L620.912 58.3366L622.623 57.3ZM615.223 49.2L613.899 50.6997L613.91 50.7086L615.223 49.2ZM605.723 38.4L603.971 39.3652L603.975 39.3729L603.98 39.3805L605.723 38.4ZM607.223 14.6L608.685 15.9646L608.692 15.9566L608.7 15.9485L607.223 14.6ZM631.323 14.6L629.813 15.9124L629.829 15.9298L629.844 15.947L631.323 14.6ZM635.423 30.5V32.5H637.423V30.5H635.423ZM625.023 30.5H623.023V32.5H625.023V30.5ZM623.623 21.7L622.079 22.9714L622.098 22.9945L622.118 23.017L623.623 21.7ZM616.023 33.8L614.312 34.8366L614.324 34.8553L614.335 34.8737L616.023 33.8ZM623.523 41.8L622.21 43.3086L622.21 43.3092L623.523 41.8ZM633.023 52.7L631.256 53.6374L633.023 52.7ZM631.323 77.4L629.862 76.0342L629.854 76.0428L629.846 76.0515L631.323 77.4ZM619.023 82V80C614.066 80 610.646 78.6168 608.401 76.153L606.923 77.5L605.444 78.847C608.666 82.3832 613.313 84 619.023 84V82ZM606.923 77.5L608.416 76.1693C606.115 73.5878 604.823 69.7627 604.823 64.4H602.823H600.823C600.823 70.3706 602.264 75.2788 605.43 78.8307L606.923 77.5ZM602.823 64.4H604.823V60.4H602.823H600.823V64.4H602.823ZM602.823 60.4V62.4H613.223V60.4V58.4H602.823V60.4ZM613.223 60.4H611.223V65.2H613.223H615.223V60.4H613.223ZM613.223 65.2H611.223C611.223 67.6974 611.739 69.9429 613.115 71.5848C614.548 73.2943 616.613 74 618.923 74V72V70C617.433 70 616.647 69.5724 616.18 69.0152C615.657 68.3904 615.223 67.236 615.223 65.2H613.223ZM618.923 72V74C621.172 74 623.203 73.3449 624.628 71.717L623.123 70.4L621.618 69.083C621.175 69.5884 620.406 70 618.923 70V72ZM623.123 70.4L624.622 71.7232C626.095 70.0544 626.623 67.6653 626.623 65H624.623H622.623C622.623 67.268 622.15 68.479 621.623 69.0768L623.123 70.4ZM624.623 65H626.623C626.623 61.7535 625.881 58.8179 624.333 56.2634L622.623 57.3L620.912 58.3366C622.031 60.1821 622.623 62.3798 622.623 65H624.623ZM622.623 57.3L624.347 56.286C622.849 53.7396 620.189 50.8707 616.536 47.6914L615.223 49.2L613.91 50.7086C617.457 53.7959 619.73 56.3271 620.899 58.314L622.623 57.3ZM615.223 49.2L616.546 47.7003C612.087 43.7656 609.108 40.3386 607.466 37.4195L605.723 38.4L603.98 39.3805C605.937 42.8614 609.292 46.6344 613.899 50.6997L615.223 49.2ZM605.723 38.4L607.474 37.4348C605.852 34.49 605.023 31.1604 605.023 27.4H603.023H601.023C601.023 31.7729 601.994 35.7767 603.971 39.3652L605.723 38.4ZM603.023 27.4H605.023C605.023 22.1935 606.336 18.481 608.685 15.9646L607.223 14.6L605.761 13.2354C602.509 16.719 601.023 21.5398 601.023 27.4H603.023ZM607.223 14.6L608.7 15.9485C611.02 13.4075 614.482 12 619.423 12V10V8C613.697 8 609.026 9.65912 605.746 13.2515L607.223 14.6ZM619.423 10V12C624.293 12 627.632 13.4038 629.813 15.9124L631.323 14.6L632.832 13.2876C629.68 9.66285 625.085 8 619.423 8V10ZM631.323 14.6L629.844 15.947C632.129 18.4547 633.423 22.2338 633.423 27.6H635.423H637.423C637.423 21.6329 635.983 16.7453 632.801 13.253L631.323 14.6ZM635.423 27.6H633.423V30.5H635.423H637.423V27.6H635.423ZM635.423 30.5V28.5H625.023V30.5V32.5H635.423V30.5ZM625.023 30.5H627.023V26.9H625.023H623.023V30.5H625.023ZM625.023 26.9H627.023C627.023 24.325 626.538 21.9941 625.128 20.383L623.623 21.7L622.118 23.017C622.574 23.5392 623.023 24.675 623.023 26.9H625.023ZM623.623 21.7L625.167 20.4286C623.768 18.7305 621.772 18 619.523 18V20V22C620.873 22 621.611 22.4028 622.079 22.9714L623.623 21.7ZM619.523 20V18C617.265 18 615.247 18.7065 613.852 20.406C612.519 22.0299 612.023 24.2438 612.023 26.7H614.023H616.023C616.023 24.6896 616.443 23.5534 616.944 22.944C617.382 22.4102 618.113 22 619.523 22V20ZM614.023 26.7H612.023C612.023 29.6047 612.793 32.3291 614.312 34.8366L616.023 33.8L617.733 32.7634C616.586 30.8709 616.023 28.8619 616.023 26.7H614.023ZM616.023 33.8L614.335 34.8737C615.891 37.3183 618.564 40.1352 622.21 43.3086L623.523 41.8L624.836 40.2914C621.282 37.1981 618.954 34.6817 617.71 32.7262L616.023 33.8ZM623.523 41.8L622.21 43.3092C626.729 47.2388 629.688 50.6831 631.256 53.6374L633.023 52.7L634.789 51.7626C632.89 48.1835 629.516 44.3612 624.835 40.2908L623.523 41.8ZM633.023 52.7L631.256 53.6374C632.81 56.5653 633.623 60.065 633.623 64.2H635.623H637.623C637.623 59.535 636.702 55.368 634.789 51.7626L633.023 52.7ZM635.623 64.2H633.623C633.623 69.6143 632.272 73.4557 629.862 76.0342L631.323 77.4L632.784 78.7658C636.107 75.211 637.623 70.2524 637.623 64.2H635.623ZM631.323 77.4L629.846 76.0515C627.53 78.5874 624.039 80 619.023 80V82V84C624.806 84 629.515 82.3459 632.8 78.7485L631.323 77.4Z" fill="#666666" mask="url(#path-1-outside-1_31_494)"/>
</g>
<defs>
<filter id="filter0_d_31_494" x="0" y="0" width="649.623" height="100" filterUnits="userSpaceOnUse" color-interpolation-filters="sRGB">
<feFlood flood-opacity="0" result="BackgroundImageFix"/>
<feColorMatrix in="SourceAlpha" type="matrix" values="0 0 0 0 0 0 0 0 0 0 0 0 0 0 0 0 0 0 127 0" result="hardAlpha"/>
<feOffset dy="4"/>
<feGaussianBlur stdDeviation="6"/>
<feComposite in2="hardAlpha" operator="out"/>
<feColorMatrix type="matrix" values="0 0 0 0 0 0 0 0 0 0 0 0 0 0 0 0 0 0 0.5 0"/>
<feBlend mode="normal" in2="BackgroundImageFix" result="effect1_dropShadow_31_494"/>
<feBlend mode="normal" in="SourceGraphic" in2="effect1_dropShadow_31_494" result="shape"/>
</filter>
</defs>
</svg>
