<svg width="112" height="446" viewBox="0 0 112 446" fill="none" xmlns="http://www.w3.org/2000/svg">
<mask id="path-1-outside-1_17_165" maskUnits="userSpaceOnUse" x="-0.5" y="-0.149994" width="113" height="446" fill="black">
<rect fill="white" x="-0.5" y="-0.149994" width="113" height="446"/>
<path d="M108.5 2.00001V45.65H93.5V18.5H64.25V39.8H49.25V18.5H3.5V2.00001H108.5ZM2 77.4125C2 69.3125 4.3 63.1125 8.9 58.8125C13.5 54.5125 20 52.3625 28.4 52.3625H83.6C92 52.3625 98.5 54.5125 103.1 58.8125C107.7 63.1125 110 69.3125 110 77.4125C110 85.5125 107.7 91.7125 103.1 96.0125C98.5 100.313 92 102.463 83.6 102.463H28.4C20 102.463 13.5 100.313 8.9 96.0125C4.3 91.7125 2 85.5125 2 77.4125ZM17 77.4125C17 83.1125 20.45 85.9625 27.35 85.9625H84.65C91.55 85.9625 95 83.1125 95 77.4125C95 71.7125 91.55 68.8625 84.65 68.8625H27.35C20.45 68.8625 17 71.7125 17 77.4125ZM2 137.471C2 129.371 4.3 123.171 8.9 118.871C13.5 114.571 20 112.421 28.4 112.421H83.6C92 112.421 98.5 114.571 103.1 118.871C107.7 123.171 110 129.371 110 137.471C110 145.571 107.7 151.771 103.1 156.071C98.5 160.371 92 162.521 83.6 162.521H28.4C20 162.521 13.5 160.371 8.9 156.071C4.3 151.771 2 145.571 2 137.471ZM17 137.471C17 143.171 20.45 146.021 27.35 146.021H84.65C91.55 146.021 95 143.171 95 137.471C95 131.771 91.55 128.921 84.65 128.921H27.35C20.45 128.921 17 131.771 17 137.471ZM93.5 185.994V168.744H108.5V219.744H93.5V202.494H3.5V185.994H93.5ZM108.5 227.732V252.632C108.5 261.132 106.5 267.332 102.5 271.232C98.6 275.132 92.55 277.082 84.35 277.082H80.15C74.75 277.082 70.35 276.182 66.95 274.382C63.55 272.682 61.1 270.032 59.6 266.432H59.3C56.5 274.632 49.2 278.732 37.4 278.732H28.4C20.3 278.732 14.1 276.582 9.8 272.282C5.6 268.082 3.5 261.882 3.5 253.682V227.732H108.5ZM65.75 250.682C65.75 253.982 66.6 256.432 68.3 258.032C70 259.732 72.85 260.582 76.85 260.582H82.7C86.5 260.582 89.25 259.882 90.95 258.482C92.65 257.182 93.5 255.082 93.5 252.182V244.232H65.75V250.682ZM18.5 253.682C18.5 256.582 19.25 258.732 20.75 260.132C22.35 261.532 25.05 262.232 28.85 262.232H38C42.8 262.232 46.1 261.382 47.9 259.682C49.8 258.082 50.75 255.382 50.75 251.582V244.232H18.5V253.682ZM108.5 301.127V323.477L3.5 340.577V324.077L24.35 321.077H24.05V302.327L3.5 299.327V284.027L108.5 301.127ZM38.3 319.127L90.2 311.777V311.477L38.3 304.277V319.127ZM108.5 348.582V365.082H18.5V392.232H3.5V348.582H108.5ZM108.5 400.145V416.645H18.5V443.795H3.5V400.145H108.5Z"/>
</mask>
<path d="M108.5 2.00001H110.5V6.19888e-06H108.5V2.00001ZM108.5 45.65V47.65H110.5V45.65H108.5ZM93.5 45.65H91.5V47.65H93.5V45.65ZM93.5 18.5H95.5V16.5H93.5V18.5ZM64.25 18.5V16.5H62.25V18.5H64.25ZM64.25 39.8V41.8H66.25V39.8H64.25ZM49.25 39.8H47.25V41.8H49.25V39.8ZM49.25 18.5H51.25V16.5H49.25V18.5ZM3.5 18.5H1.5V20.5H3.5V18.5ZM3.5 2.00001V6.19888e-06H1.5V2.00001H3.5ZM108.5 2.00001H106.5V45.65H108.5H110.5V2.00001H108.5ZM108.5 45.65V43.65H93.5V45.65V47.65H108.5V45.65ZM93.5 45.65H95.5V18.5H93.5H91.5V45.65H93.5ZM93.5 18.5V16.5H64.25V18.5V20.5H93.5V18.5ZM64.25 18.5H62.25V39.8H64.25H66.25V18.5H64.25ZM64.25 39.8V37.8H49.25V39.8V41.8H64.25V39.8ZM49.25 39.8H51.25V18.5H49.25H47.25V39.8H49.25ZM49.25 18.5V16.5H3.5V18.5V20.5H49.25V18.5ZM3.5 18.5H5.5V2.00001H3.5H1.5V18.5H3.5ZM3.5 2.00001V4.00001H108.5V2.00001V6.19888e-06H3.5V2.00001ZM8.9 58.8125L10.2658 60.2736L8.9 58.8125ZM103.1 58.8125L101.734 60.2736L103.1 58.8125ZM103.1 96.0125L101.734 94.5515L103.1 96.0125ZM8.9 96.0125L10.2658 94.5515L8.9 96.0125ZM2 77.4125H4C4 69.6986 6.17843 64.0943 10.2658 60.2736L8.9 58.8125L7.53423 57.3515C2.42157 62.1307 0 68.9264 0 77.4125H2ZM8.9 58.8125L10.2658 60.2736C14.3857 56.4223 20.3339 54.3625 28.4 54.3625V52.3625V50.3625C19.6661 50.3625 12.6143 52.6027 7.53423 57.3515L8.9 58.8125ZM28.4 52.3625V54.3625H83.6V52.3625V50.3625H28.4V52.3625ZM83.6 52.3625V54.3625C91.6661 54.3625 97.6143 56.4223 101.734 60.2736L103.1 58.8125L104.466 57.3515C99.3857 52.6027 92.3339 50.3625 83.6 50.3625V52.3625ZM103.1 58.8125L101.734 60.2736C105.822 64.0943 108 69.6986 108 77.4125H110H112C112 68.9264 109.578 62.1307 104.466 57.3515L103.1 58.8125ZM110 77.4125H108C108 85.1264 105.822 90.7307 101.734 94.5515L103.1 96.0125L104.466 97.4736C109.578 92.6943 112 85.8986 112 77.4125H110ZM103.1 96.0125L101.734 94.5515C97.6143 98.4027 91.6661 100.463 83.6 100.463V102.463V104.463C92.3339 104.463 99.3857 102.222 104.466 97.4736L103.1 96.0125ZM83.6 102.463V100.463H28.4V102.463V104.463H83.6V102.463ZM28.4 102.463V100.463C20.3339 100.463 14.3857 98.4027 10.2658 94.5515L8.9 96.0125L7.53423 97.4736C12.6143 102.222 19.6661 104.463 28.4 104.463V102.463ZM8.9 96.0125L10.2658 94.5515C6.17843 90.7307 4 85.1264 4 77.4125H2H0C0 85.8986 2.42157 92.6943 7.53423 97.4736L8.9 96.0125ZM17 77.4125H15C15 80.6821 16.0079 83.4621 18.3137 85.3669C20.5464 87.2113 23.6748 87.9625 27.35 87.9625V85.9625V83.9625C24.1252 83.9625 22.0786 83.2887 20.8613 82.2831C19.7171 81.3379 19 79.8429 19 77.4125H17ZM27.35 85.9625V87.9625H84.65V85.9625V83.9625H27.35V85.9625ZM84.65 85.9625V87.9625C88.3252 87.9625 91.4536 87.2113 93.6863 85.3669C95.9921 83.4621 97 80.6821 97 77.4125H95H93C93 79.8429 92.2829 81.3379 91.1387 82.2831C89.9214 83.2887 87.8748 83.9625 84.65 83.9625V85.9625ZM95 77.4125H97C97 74.1429 95.9921 71.3629 93.6863 69.4581C91.4536 67.6137 88.3252 66.8625 84.65 66.8625V68.8625V70.8625C87.8748 70.8625 89.9214 71.5363 91.1387 72.5419C92.2829 73.4871 93 74.9821 93 77.4125H95ZM84.65 68.8625V66.8625H27.35V68.8625V70.8625H84.65V68.8625ZM27.35 68.8625V66.8625C23.6748 66.8625 20.5464 67.6137 18.3137 69.4581C16.0079 71.3629 15 74.1429 15 77.4125H17H19C19 74.9821 19.7171 73.4871 20.8613 72.5419C22.0786 71.5363 24.1252 70.8625 27.35 70.8625V68.8625ZM8.9 118.871L10.2658 120.332L8.9 118.871ZM103.1 118.871L101.734 120.332L103.1 118.871ZM103.1 156.071L101.734 154.61L103.1 156.071ZM8.9 156.071L10.2658 154.61L8.9 156.071ZM2 137.471H4C4 129.757 6.17843 124.153 10.2658 120.332L8.9 118.871L7.53423 117.41C2.42157 122.189 0 128.985 0 137.471H2ZM8.9 118.871L10.2658 120.332C14.3857 116.481 20.3339 114.421 28.4 114.421V112.421V110.421C19.6661 110.421 12.6143 112.661 7.53423 117.41L8.9 118.871ZM28.4 112.421V114.421H83.6V112.421V110.421H28.4V112.421ZM83.6 112.421V114.421C91.6661 114.421 97.6143 116.481 101.734 120.332L103.1 118.871L104.466 117.41C99.3857 112.661 92.3339 110.421 83.6 110.421V112.421ZM103.1 118.871L101.734 120.332C105.822 124.153 108 129.757 108 137.471H110H112C112 128.985 109.578 122.189 104.466 117.41L103.1 118.871ZM110 137.471H108C108 145.185 105.822 150.789 101.734 154.61L103.1 156.071L104.466 157.532C109.578 152.753 112 145.957 112 137.471H110ZM103.1 156.071L101.734 154.61C97.6143 158.461 91.6661 160.521 83.6 160.521V162.521V164.521C92.3339 164.521 99.3857 162.281 104.466 157.532L103.1 156.071ZM83.6 162.521V160.521H28.4V162.521V164.521H83.6V162.521ZM28.4 162.521V160.521C20.3339 160.521 14.3857 158.461 10.2658 154.61L8.9 156.071L7.53423 157.532C12.6143 162.281 19.6661 164.521 28.4 164.521V162.521ZM8.9 156.071L10.2658 154.61C6.17843 150.789 4 145.185 4 137.471H2H0C0 145.957 2.42157 152.753 7.53423 157.532L8.9 156.071ZM17 137.471H15C15 140.741 16.0079 143.521 18.3137 145.426C20.5464 147.27 23.6748 148.021 27.35 148.021V146.021V144.021C24.1252 144.021 22.0786 143.347 20.8613 142.342C19.7171 141.397 19 139.901 19 137.471H17ZM27.35 146.021V148.021H84.65V146.021V144.021H27.35V146.021ZM84.65 146.021V148.021C88.3252 148.021 91.4536 147.27 93.6863 145.426C95.9921 143.521 97 140.741 97 137.471H95H93C93 139.901 92.2829 141.397 91.1387 142.342C89.9214 143.347 87.8748 144.021 84.65 144.021V146.021ZM95 137.471H97C97 134.201 95.9921 131.422 93.6863 129.517C91.4536 127.672 88.3252 126.921 84.65 126.921V128.921V130.921C87.8748 130.921 89.9214 131.595 91.1387 132.601C92.2829 133.546 93 135.041 93 137.471H95ZM84.65 128.921V126.921H27.35V128.921V130.921H84.65V128.921ZM27.35 128.921V126.921C23.6748 126.921 20.5464 127.672 18.3137 129.517C16.0079 131.422 15 134.201 15 137.471H17H19C19 135.041 19.7171 133.546 20.8613 132.601C22.0786 131.595 24.1252 130.921 27.35 130.921V128.921ZM93.5 185.994V187.994H95.5V185.994H93.5ZM93.5 168.744V166.744H91.5V168.744H93.5ZM108.5 168.744H110.5V166.744H108.5V168.744ZM108.5 219.744V221.744H110.5V219.744H108.5ZM93.5 219.744H91.5V221.744H93.5V219.744ZM93.5 202.494H95.5V200.494H93.5V202.494ZM3.5 202.494H1.5V204.494H3.5V202.494ZM3.5 185.994V183.994H1.5V185.994H3.5ZM93.5 185.994H95.5V168.744H93.5H91.5V185.994H93.5ZM93.5 168.744V170.744H108.5V168.744V166.744H93.5V168.744ZM108.5 168.744H106.5V219.744H108.5H110.5V168.744H108.5ZM108.5 219.744V217.744H93.5V219.744V221.744H108.5V219.744ZM93.5 219.744H95.5V202.494H93.5H91.5V219.744H93.5ZM93.5 202.494V200.494H3.5V202.494V204.494H93.5V202.494ZM3.5 202.494H5.5V185.994H3.5H1.5V202.494H3.5ZM3.5 185.994V187.994H93.5V185.994V183.994H3.5V185.994ZM108.5 227.732H110.5V225.732H108.5V227.732ZM102.5 271.232L101.104 269.8L101.095 269.809L101.086 269.818L102.5 271.232ZM66.95 274.382L67.8858 272.615L67.8652 272.604L67.8444 272.594L66.95 274.382ZM59.6 266.432L61.4462 265.663L60.9333 264.432H59.6V266.432ZM59.3 266.432V264.432H57.8695L57.4073 265.786L59.3 266.432ZM9.8 272.282L8.38579 273.697L9.8 272.282ZM3.5 227.732V225.732H1.5V227.732H3.5ZM68.3 258.032L69.7142 256.618L69.6928 256.597L69.6707 256.576L68.3 258.032ZM90.95 258.482L89.7351 256.894L89.7064 256.916L89.6786 256.939L90.95 258.482ZM93.5 244.232H95.5V242.232H93.5V244.232ZM65.75 244.232V242.232H63.75V244.232H65.75ZM20.75 260.132L19.3854 261.595L19.4088 261.616L19.433 261.638L20.75 260.132ZM47.9 259.682L46.6117 258.153L46.5682 258.189L46.5267 258.228L47.9 259.682ZM50.75 244.232H52.75V242.232H50.75V244.232ZM18.5 244.232V242.232H16.5V244.232H18.5ZM108.5 227.732H106.5V252.632H108.5H110.5V227.732H108.5ZM108.5 252.632H106.5C106.5 260.871 104.556 266.434 101.104 269.8L102.5 271.232L103.896 272.664C108.444 268.231 110.5 261.394 110.5 252.632H108.5ZM102.5 271.232L101.086 269.818C97.7097 273.194 92.2756 275.082 84.35 275.082V277.082V279.082C92.8244 279.082 99.4903 277.071 103.914 272.647L102.5 271.232ZM84.35 277.082V275.082H80.15V277.082V279.082H84.35V277.082ZM80.15 277.082V275.082C74.9521 275.082 70.9048 274.213 67.8858 272.615L66.95 274.382L66.0142 276.15C69.7952 278.152 74.5479 279.082 80.15 279.082V277.082ZM66.95 274.382L67.8444 272.594C64.8858 271.114 62.7668 268.833 61.4462 265.663L59.6 266.432L57.7538 267.202C59.4332 271.232 62.2142 274.251 66.0556 276.171L66.95 274.382ZM59.6 266.432V264.432H59.3V266.432V268.432H59.6V266.432ZM59.3 266.432L57.4073 265.786C56.1602 269.438 53.9503 272.114 50.7456 273.914C47.4924 275.741 43.0898 276.732 37.4 276.732V278.732V280.732C43.5102 280.732 48.6576 279.674 52.7044 277.401C56.7997 275.101 59.6398 271.627 61.1927 267.079L59.3 266.432ZM37.4 278.732V276.732H28.4V278.732V280.732H37.4V278.732ZM28.4 278.732V276.732C20.6484 276.732 15.0275 274.682 11.2142 270.868L9.8 272.282L8.38579 273.697C13.1725 278.483 19.9516 280.732 28.4 280.732V278.732ZM9.8 272.282L11.2142 270.868C7.51337 267.167 5.5 261.558 5.5 253.682H3.5H1.5C1.5 262.207 3.68663 268.997 8.38579 273.697L9.8 272.282ZM3.5 253.682H5.5V227.732H3.5H1.5V253.682H3.5ZM3.5 227.732V229.732H108.5V227.732V225.732H3.5V227.732ZM65.75 250.682H63.75C63.75 254.301 64.6849 257.376 66.9293 259.489L68.3 258.032L69.6707 256.576C68.5151 255.488 67.75 253.664 67.75 250.682H65.75ZM68.3 258.032L66.8858 259.447C69.1444 261.705 72.6527 262.582 76.85 262.582V260.582V258.582C73.0473 258.582 70.8556 257.76 69.7142 256.618L68.3 258.032ZM76.85 260.582V262.582H82.7V260.582V258.582H76.85V260.582ZM82.7 260.582V262.582C86.6588 262.582 89.983 261.87 92.2214 260.026L90.95 258.482L89.6786 256.939C88.517 257.895 86.3412 258.582 82.7 258.582V260.582ZM90.95 258.482L92.1649 260.071C94.5221 258.269 95.5 255.468 95.5 252.182H93.5H91.5C91.5 254.697 90.7779 256.096 89.7351 256.894L90.95 258.482ZM93.5 252.182H95.5V244.232H93.5H91.5V252.182H93.5ZM93.5 244.232V242.232H65.75V244.232V246.232H93.5V244.232ZM65.75 244.232H63.75V250.682H65.75H67.75V244.232H65.75ZM18.5 253.682H16.5C16.5 256.903 17.3358 259.682 19.3854 261.595L20.75 260.132L22.1146 258.67C21.1642 257.783 20.5 256.262 20.5 253.682H18.5ZM20.75 260.132L19.433 261.638C21.592 263.527 24.9086 264.232 28.85 264.232V262.232V260.232C25.1914 260.232 23.108 259.538 22.067 258.627L20.75 260.132ZM28.85 262.232V264.232H38V262.232V260.232H28.85V262.232ZM38 262.232V264.232C42.8916 264.232 46.881 263.396 49.2732 261.136L47.9 259.682L46.5267 258.228C45.319 259.369 42.7084 260.232 38 260.232V262.232ZM47.9 259.682L49.1883 261.212C51.7349 259.068 52.75 255.657 52.75 251.582H50.75H48.75C48.75 255.107 47.8651 257.097 46.6117 258.153L47.9 259.682ZM50.75 251.582H52.75V244.232H50.75H48.75V251.582H50.75ZM50.75 244.232V242.232H18.5V244.232V246.232H50.75V244.232ZM18.5 244.232H16.5V253.682H18.5H20.5V244.232H18.5ZM108.5 301.127H110.5V299.426L108.821 299.153L108.5 301.127ZM108.5 323.477L108.821 325.451L110.5 325.178V323.477H108.5ZM3.5 340.577H1.5V342.929L3.82148 342.551L3.5 340.577ZM3.5 324.077L3.21516 322.097L1.5 322.344V324.077H3.5ZM24.35 321.077L24.6348 323.057L24.35 319.077V321.077ZM24.05 321.077H22.05V323.077H24.05V321.077ZM24.05 302.327H26.05V300.598L24.3389 300.348L24.05 302.327ZM3.5 299.327H1.5V301.056L3.21109 301.306L3.5 299.327ZM3.5 284.027L3.82148 282.053L1.5 281.675V284.027H3.5ZM38.3 319.127H36.3V321.43L38.5804 321.107L38.3 319.127ZM90.2 311.777L90.4804 313.757L92.2 313.514V311.777H90.2ZM90.2 311.477H92.2V309.735L90.4748 309.496L90.2 311.477ZM38.3 304.277L38.5748 302.296L36.3 301.98V304.277H38.3ZM108.5 301.127H106.5V323.477H108.5H110.5V301.127H108.5ZM108.5 323.477L108.179 321.503L3.17852 338.603L3.5 340.577L3.82148 342.551L108.821 325.451L108.5 323.477ZM3.5 340.577H5.5V324.077H3.5H1.5V340.577H3.5ZM3.5 324.077L3.78484 326.057L24.6348 323.057L24.35 321.077L24.0652 319.097L3.21516 322.097L3.5 324.077ZM24.35 321.077V319.077H24.05V321.077V323.077H24.35V321.077ZM24.05 321.077H26.05V302.327H24.05H22.05V321.077H24.05ZM24.05 302.327L24.3389 300.348L3.78891 297.348L3.5 299.327L3.21109 301.306L23.7611 304.306L24.05 302.327ZM3.5 299.327H5.5V284.027H3.5H1.5V299.327H3.5ZM3.5 284.027L3.17852 286.001L108.179 303.101L108.5 301.127L108.821 299.153L3.82148 282.053L3.5 284.027ZM38.3 319.127L38.5804 321.107L90.4804 313.757L90.2 311.777L89.9196 309.797L38.0196 317.147L38.3 319.127ZM90.2 311.777H92.2V311.477H90.2H88.2V311.777H90.2ZM90.2 311.477L90.4748 309.496L38.5748 302.296L38.3 304.277L38.0252 306.258L89.9252 313.458L90.2 311.477ZM38.3 304.277H36.3V319.127H38.3H40.3V304.277H38.3ZM108.5 348.582H110.5V346.582H108.5V348.582ZM108.5 365.082V367.082H110.5V365.082H108.5ZM18.5 365.082V363.082H16.5V365.082H18.5ZM18.5 392.232V394.232H20.5V392.232H18.5ZM3.5 392.232H1.5V394.232H3.5V392.232ZM3.5 348.582V346.582H1.5V348.582H3.5ZM108.5 348.582H106.5V365.082H108.5H110.5V348.582H108.5ZM108.5 365.082V363.082H18.5V365.082V367.082H108.5V365.082ZM18.5 365.082H16.5V392.232H18.5H20.5V365.082H18.5ZM18.5 392.232V390.232H3.5V392.232V394.232H18.5V392.232ZM3.5 392.232H5.5V348.582H3.5H1.5V392.232H3.5ZM3.5 348.582V350.582H108.5V348.582V346.582H3.5V348.582ZM108.5 400.145H110.5V398.145H108.5V400.145ZM108.5 416.645V418.645H110.5V416.645H108.5ZM18.5 416.645V414.645H16.5V416.645H18.5ZM18.5 443.795V445.795H20.5V443.795H18.5ZM3.5 443.795H1.5V445.795H3.5V443.795ZM3.5 400.145V398.145H1.5V400.145H3.5ZM108.5 400.145H106.5V416.645H108.5H110.5V400.145H108.5ZM108.5 416.645V414.645H18.5V416.645V418.645H108.5V416.645ZM18.5 416.645H16.5V443.795H18.5H20.5V416.645H18.5ZM18.5 443.795V441.795H3.5V443.795V445.795H18.5V443.795ZM3.5 443.795H5.5V400.145H3.5H1.5V443.795H3.5ZM3.5 400.145V402.145H108.5V400.145V398.145H3.5V400.145Z" fill="#666666" mask="url(#path-1-outside-1_17_165)"/>
</svg>
