<svg width="242" height="830" viewBox="0 0 242 830" fill="none" xmlns="http://www.w3.org/2000/svg">
<g clip-path="url(#paint0_diamond_270_220_clip_path)" data-figma-skip-parse="true"><g transform="matrix(-0.188225 0.000771836 -0.00177748 -0.258991 263.044 248.857)"><rect x="0" y="0" width="1689.24" height="2769.07" fill="url(#paint0_diamond_270_220)" opacity="1" shape-rendering="crispEdges"/><rect x="0" y="0" width="1689.24" height="2769.07" transform="scale(1 -1)" fill="url(#paint0_diamond_270_220)" opacity="1" shape-rendering="crispEdges"/><rect x="0" y="0" width="1689.24" height="2769.07" transform="scale(-1 1)" fill="url(#paint0_diamond_270_220)" opacity="1" shape-rendering="crispEdges"/><rect x="0" y="0" width="1689.24" height="2769.07" transform="scale(-1)" fill="url(#paint0_diamond_270_220)" opacity="1" shape-rendering="crispEdges"/></g></g><path d="M239.027 148.301C238.341 128.384 238.628 97.7621 238.628 97.7621V48.881V0C76.4541 15.7344 -49 122.707 -49 252.33C-49 382.512 77.5406 489.849 240.732 504.858C240.677 422.174 240.623 361.693 240.623 361.693C240 343.898 243.51 328.767 236.836 313.314C233.466 307.753 229.723 302.091 226.199 296.147C219.011 284.024 206 270.725 205.639 254.708C205.119 231.717 223.126 215.31 231.893 199.909C241.095 183.747 239.73 168.693 239.027 148.301Z" data-figma-gradient-fill="{&#34;type&#34;:&#34;GRADIENT_DIAMOND&#34;,&#34;stops&#34;:[{&#34;color&#34;:{&#34;r&#34;:0.70196080207824707,&#34;g&#34;:0.70196080207824707,&#34;b&#34;:0.70196080207824707,&#34;a&#34;:1.0},&#34;position&#34;:0.22847443819046021},{&#34;color&#34;:{&#34;r&#34;:0.011764706112444401,&#34;g&#34;:0.043137256056070328,&#34;b&#34;:0.070588238537311554,&#34;a&#34;:0.0},&#34;position&#34;:1.0}],&#34;stopsVar&#34;:[{&#34;color&#34;:{&#34;r&#34;:0.70196080207824707,&#34;g&#34;:0.70196080207824707,&#34;b&#34;:0.70196080207824707,&#34;a&#34;:1.0},&#34;position&#34;:0.22847443819046021},{&#34;color&#34;:{&#34;r&#34;:0.011764706112444401,&#34;g&#34;:0.043137256056070328,&#34;b&#34;:0.070588238537311554,&#34;a&#34;:0.0},&#34;position&#34;:1.0}],&#34;transform&#34;:{&#34;m00&#34;:-376.44934082031250,&#34;m01&#34;:-3.554952859878540,&#34;m02&#34;:453.04574584960938,&#34;m10&#34;:1.5436722040176392,&#34;m11&#34;:-517.98205566406250,&#34;m12&#34;:507.07583618164062},&#34;opacity&#34;:1.0,&#34;blendMode&#34;:&#34;NORMAL&#34;,&#34;visible&#34;:true}"/>
<path d="M239.027 148.301C238.341 128.384 238.628 97.7621 238.628 97.7621V48.881V0C76.4541 15.7344 -49 122.707 -49 252.33C-49 382.512 77.5406 489.849 240.732 504.858C240.677 422.174 240.623 361.693 240.623 361.693C240 343.898 243.51 328.767 236.836 313.314C233.466 307.753 229.723 302.091 226.199 296.147C219.011 284.024 206 270.725 205.639 254.708C205.119 231.717 223.126 215.31 231.893 199.909C241.095 183.747 239.73 168.693 239.027 148.301Z" fill="url(#paint1_linear_270_220)" fill-opacity="0.2"/>
<path d="M240.614 965.128C240.972 951.684 240.849 679.019 240.732 504.858C240.677 422.174 240.623 361.693 240.623 361.693C240 343.898 243.51 328.767 236.836 313.314C233.466 307.753 229.723 302.091 226.199 296.147C219.011 284.024 206 270.725 205.639 254.708C205.12 231.717 223.126 215.31 231.894 199.909C241.095 183.747 239.73 168.693 239.027 148.301C238.341 128.384 238.628 97.7621 238.628 97.7621V48.881V0" stroke="#B3B3B3"/>
<defs>
<clipPath id="paint0_diamond_270_220_clip_path"><path d="M239.027 148.301C238.341 128.384 238.628 97.7621 238.628 97.7621V48.881V0C76.4541 15.7344 -49 122.707 -49 252.33C-49 382.512 77.5406 489.849 240.732 504.858C240.677 422.174 240.623 361.693 240.623 361.693C240 343.898 243.51 328.767 236.836 313.314C233.466 307.753 229.723 302.091 226.199 296.147C219.011 284.024 206 270.725 205.639 254.708C205.119 231.717 223.126 215.31 231.893 199.909C241.095 183.747 239.73 168.693 239.027 148.301Z"/></clipPath><linearGradient id="paint0_diamond_270_220" x1="0" y1="0" x2="500" y2="500" gradientUnits="userSpaceOnUse">
<stop offset="0.228474" stop-color="#B3B3B3"/>
<stop offset="1" stop-color="#030B12" stop-opacity="0"/>
</linearGradient>
<linearGradient id="paint1_linear_270_220" x1="62.8365" y1="104.136" x2="426.122" y2="329.086" gradientUnits="userSpaceOnUse">
<stop stop-color="#030B12" stop-opacity="0"/>
<stop offset="1" stop-color="#B3B3B3" stop-opacity="0.2"/>
</linearGradient>
</defs>
</svg>
