<svg width="72" height="72" viewBox="0 0 72 72" fill="none" xmlns="http://www.w3.org/2000/svg">
<circle cx="36" cy="36" r="35" fill="#1B1B24" fill-opacity="0.4" stroke="#666666" stroke-width="2"/>
<path d="M36.5845 16.3071L33.8481 15.9878L33.8032 15.9829L33.7935 16.0269L25.6899 53.7544L25.6772 53.8149H58.0015L57.9478 54.1333H45.3521L45.3374 54.1538L44.9849 54.6216L44.9243 54.7017H57.8384L57.8003 54.9458L57.7534 55.2476L57.73 55.3979L57.7241 55.4302L42.9106 55.3647H42.8892L42.8735 55.3813L42.6392 55.6411L42.564 55.7231L42.6753 55.7241L57.6372 55.8745L57.6235 55.9868L57.606 56.1294L57.5884 56.271L57.5542 56.478L57.5366 56.5835L57.519 56.6851L57.4917 56.7983L46.728 56.7739H46.7007L46.686 56.7964L46.5688 56.9722L46.5669 56.9761L46.4673 57.1519L46.4243 57.2261H57.4194L57.4126 57.3159L57.3774 57.5249L57.3423 57.7349L57.3315 57.7974L44.7896 57.8315H44.7681L44.7534 57.8472L44.4009 58.2329L44.3237 58.3159H57.2446L57.2368 58.3628L57.1665 58.7817L57.0786 59.2993H45.5894L45.5737 59.3159L45.2104 59.7349L45.1382 59.8179H57.0024L56.8931 60.4146H16.5483L25.7876 14.9321L25.7993 14.8784L25.7446 14.8726L22.9194 14.563L32.5347 2.71338L36.5845 16.3071Z" fill="#B2B2B2" stroke="#666666" stroke-width="0.1"/>
</svg>
