<svg width="111" height="407" viewBox="0 0 111 407" fill="none" xmlns="http://www.w3.org/2000/svg">
<mask id="path-1-outside-1_18_212" maskUnits="userSpaceOnUse" x="-0.5" y="-0.149994" width="111" height="407" fill="black">
<rect fill="white" x="-0.5" y="-0.149994" width="111" height="407"/>
<path d="M108.5 2.00001V18.5H18.5V45.65H3.5V2.00001H108.5ZM108.5 53.5625V98.5625H93.5V70.0625H65.75V92.7125H50.75V70.0625H18.5V98.5625H3.5V53.5625H108.5ZM108.5 103.705V120.355L27.05 131.155V131.455L108.5 142.255V157.405L3.5 141.505V119.605L108.5 103.705ZM108.5 165.33V210.33H93.5V181.83H65.75V204.48H50.75V181.83H18.5V210.33H3.5V165.33H108.5ZM108.5 219.822V236.322H18.5V263.472H3.5V219.822H108.5ZM2 319.408C2 311.408 4.25 305.308 8.75 301.108C13.35 296.908 19.9 294.808 28.4 294.808H108.5V311.308H27.2C23.6 311.308 21 312.008 19.4 313.408C17.8 314.908 17 317.008 17 319.708C17 322.408 17.8 324.458 19.4 325.858C21 327.358 23.6 328.108 27.2 328.108H108.5V344.008H28.4C19.9 344.008 13.35 341.908 8.75 337.708C4.25 333.508 2 327.408 2 319.408ZM108.5 355.76V380.06C108.5 388.26 106.3 394.41 101.9 398.51C97.5 402.61 91.05 404.66 82.55 404.66H72.2C63.7 404.66 57.25 402.61 52.85 398.51C48.45 394.41 46.25 388.26 46.25 380.06V372.26H3.5V355.76H108.5ZM61.25 380.06C61.25 382.76 62 384.76 63.5 386.06C65 387.46 67.55 388.16 71.15 388.16H83.6C87.2 388.16 89.75 387.46 91.25 386.06C92.75 384.76 93.5 382.76 93.5 380.06V372.26H61.25V380.06Z"/>
</mask>
<path d="M108.5 2.00001H110.5V6.19888e-06H108.5V2.00001ZM108.5 18.5V20.5H110.5V18.5H108.5ZM18.5 18.5V16.5H16.5V18.5H18.5ZM18.5 45.65V47.65H20.5V45.65H18.5ZM3.5 45.65H1.5V47.65H3.5V45.65ZM3.5 2.00001V6.19888e-06H1.5V2.00001H3.5ZM108.5 2.00001H106.5V18.5H108.5H110.5V2.00001H108.5ZM108.5 18.5V16.5H18.5V18.5V20.5H108.5V18.5ZM18.5 18.5H16.5V45.65H18.5H20.5V18.5H18.5ZM18.5 45.65V43.65H3.5V45.65V47.65H18.5V45.65ZM3.5 45.65H5.5V2.00001H3.5H1.5V45.65H3.5ZM3.5 2.00001V4.00001H108.5V2.00001V6.19888e-06H3.5V2.00001ZM108.5 53.5625H110.5V51.5625H108.5V53.5625ZM108.5 98.5625V100.563H110.5V98.5625H108.5ZM93.5 98.5625H91.5V100.563H93.5V98.5625ZM93.5 70.0625H95.5V68.0625H93.5V70.0625ZM65.75 70.0625V68.0625H63.75V70.0625H65.75ZM65.75 92.7125V94.7125H67.75V92.7125H65.75ZM50.75 92.7125H48.75V94.7125H50.75V92.7125ZM50.75 70.0625H52.75V68.0625H50.75V70.0625ZM18.5 70.0625V68.0625H16.5V70.0625H18.5ZM18.5 98.5625V100.563H20.5V98.5625H18.5ZM3.5 98.5625H1.5V100.563H3.5V98.5625ZM3.5 53.5625V51.5625H1.5V53.5625H3.5ZM108.5 53.5625H106.5V98.5625H108.5H110.5V53.5625H108.5ZM108.5 98.5625V96.5625H93.5V98.5625V100.563H108.5V98.5625ZM93.5 98.5625H95.5V70.0625H93.5H91.5V98.5625H93.5ZM93.5 70.0625V68.0625H65.75V70.0625V72.0625H93.5V70.0625ZM65.75 70.0625H63.75V92.7125H65.75H67.75V70.0625H65.75ZM65.75 92.7125V90.7125H50.75V92.7125V94.7125H65.75V92.7125ZM50.75 92.7125H52.75V70.0625H50.75H48.75V92.7125H50.75ZM50.75 70.0625V68.0625H18.5V70.0625V72.0625H50.75V70.0625ZM18.5 70.0625H16.5V98.5625H18.5H20.5V70.0625H18.5ZM18.5 98.5625V96.5625H3.5V98.5625V100.563H18.5V98.5625ZM3.5 98.5625H5.5V53.5625H3.5H1.5V98.5625H3.5ZM3.5 53.5625V55.5625H108.5V53.5625V51.5625H3.5V53.5625ZM108.5 103.705H110.5V101.379L108.201 101.727L108.5 103.705ZM108.5 120.355L108.763 122.337L110.5 122.107V120.355H108.5ZM27.05 131.155L26.7871 129.172L25.05 129.402V131.155H27.05ZM27.05 131.455H25.05V133.207L26.7871 133.437L27.05 131.455ZM108.5 142.255H110.5V140.502L108.763 140.272L108.5 142.255ZM108.5 157.405L108.201 159.382L110.5 159.73V157.405H108.5ZM3.5 141.505H1.5V143.225L3.20055 143.482L3.5 141.505ZM3.5 119.605L3.20055 117.627L1.5 117.885V119.605H3.5ZM108.5 103.705H106.5V120.355H108.5H110.5V103.705H108.5ZM108.5 120.355L108.237 118.372L26.7871 129.172L27.05 131.155L27.3129 133.137L108.763 122.337L108.5 120.355ZM27.05 131.155H25.05V131.455H27.05H29.05V131.155H27.05ZM27.05 131.455L26.7871 133.437L108.237 144.237L108.5 142.255L108.763 140.272L27.3129 129.472L27.05 131.455ZM108.5 142.255H106.5V157.405H108.5H110.5V142.255H108.5ZM108.5 157.405L108.799 155.427L3.79945 139.527L3.5 141.505L3.20055 143.482L108.201 159.382L108.5 157.405ZM3.5 141.505H5.5V119.605H3.5H1.5V141.505H3.5ZM3.5 119.605L3.79945 121.582L108.799 105.682L108.5 103.705L108.201 101.727L3.20055 117.627L3.5 119.605ZM108.5 165.33H110.5V163.33H108.5V165.33ZM108.5 210.33V212.33H110.5V210.33H108.5ZM93.5 210.33H91.5V212.33H93.5V210.33ZM93.5 181.83H95.5V179.83H93.5V181.83ZM65.75 181.83V179.83H63.75V181.83H65.75ZM65.75 204.48V206.48H67.75V204.48H65.75ZM50.75 204.48H48.75V206.48H50.75V204.48ZM50.75 181.83H52.75V179.83H50.75V181.83ZM18.5 181.83V179.83H16.5V181.83H18.5ZM18.5 210.33V212.33H20.5V210.33H18.5ZM3.5 210.33H1.5V212.33H3.5V210.33ZM3.5 165.33V163.33H1.5V165.33H3.5ZM108.5 165.33H106.5V210.33H108.5H110.5V165.33H108.5ZM108.5 210.33V208.33H93.5V210.33V212.33H108.5V210.33ZM93.5 210.33H95.5V181.83H93.5H91.5V210.33H93.5ZM93.5 181.83V179.83H65.75V181.83V183.83H93.5V181.83ZM65.75 181.83H63.75V204.48H65.75H67.75V181.83H65.75ZM65.75 204.48V202.48H50.75V204.48V206.48H65.75V204.48ZM50.75 204.48H52.75V181.83H50.75H48.75V204.48H50.75ZM50.75 181.83V179.83H18.5V181.83V183.83H50.75V181.83ZM18.5 181.83H16.5V210.33H18.5H20.5V181.83H18.5ZM18.5 210.33V208.33H3.5V210.33V212.33H18.5V210.33ZM3.5 210.33H5.5V165.33H3.5H1.5V210.33H3.5ZM3.5 165.33V167.33H108.5V165.33V163.33H3.5V165.33ZM108.5 219.822H110.5V217.822H108.5V219.822ZM108.5 236.322V238.322H110.5V236.322H108.5ZM18.5 236.322V234.322H16.5V236.322H18.5ZM18.5 263.472V265.472H20.5V263.472H18.5ZM3.5 263.472H1.5V265.472H3.5V263.472ZM3.5 219.822V217.822H1.5V219.822H3.5ZM108.5 219.822H106.5V236.322H108.5H110.5V219.822H108.5ZM108.5 236.322V234.322H18.5V236.322V238.322H108.5V236.322ZM18.5 236.322H16.5V263.472H18.5H20.5V236.322H18.5ZM18.5 263.472V261.472H3.5V263.472V265.472H18.5V263.472ZM3.5 263.472H5.5V219.822H3.5H1.5V263.472H3.5ZM3.5 219.822V221.822H108.5V219.822V217.822H3.5V219.822ZM8.75 301.108L7.40146 299.631L7.39337 299.639L7.38536 299.646L8.75 301.108ZM108.5 294.808H110.5V292.808H108.5V294.808ZM108.5 311.308V313.308H110.5V311.308H108.5ZM19.4 313.408L18.083 311.903L18.0572 311.926L18.0321 311.949L19.4 313.408ZM19.4 325.858L20.7679 324.399L20.7428 324.376L20.717 324.353L19.4 325.858ZM108.5 328.108H110.5V326.108H108.5V328.108ZM108.5 344.008V346.008H110.5V344.008H108.5ZM8.75 337.708L7.38536 339.17L7.39337 339.178L7.40146 339.185L8.75 337.708ZM2 319.408H4C4 311.788 6.13225 306.287 10.1146 302.57L8.75 301.108L7.38536 299.646C2.36775 304.329 0 311.029 0 319.408H2ZM8.75 301.108L10.0985 302.585C14.2136 298.828 20.2151 296.808 28.4 296.808V294.808V292.808C19.5849 292.808 12.4864 294.988 7.40146 299.631L8.75 301.108ZM28.4 294.808V296.808H108.5V294.808V292.808H28.4V294.808ZM108.5 294.808H106.5V311.308H108.5H110.5V294.808H108.5ZM108.5 311.308V309.308H27.2V311.308V313.308H108.5V311.308ZM27.2 311.308V309.308C23.425 309.308 20.2275 310.027 18.083 311.903L19.4 313.408L20.717 314.913C21.7725 313.99 23.775 313.308 27.2 313.308V311.308ZM19.4 313.408L18.0321 311.949C15.9387 313.912 15 316.592 15 319.708H17H19C19 317.424 19.6613 315.905 20.7679 314.867L19.4 313.408ZM17 319.708H15C15 322.818 15.9373 325.486 18.083 327.363L19.4 325.858L20.717 324.353C19.6627 323.431 19 321.999 19 319.708H17ZM19.4 325.858L18.0321 327.317C20.1786 329.33 23.3992 330.108 27.2 330.108V328.108V326.108C23.8008 326.108 21.8214 325.387 20.7679 324.399L19.4 325.858ZM27.2 328.108V330.108H108.5V328.108V326.108H27.2V328.108ZM108.5 328.108H106.5V344.008H108.5H110.5V328.108H108.5ZM108.5 344.008V342.008H28.4V344.008V346.008H108.5V344.008ZM28.4 344.008V342.008C20.2151 342.008 14.2136 339.988 10.0985 336.231L8.75 337.708L7.40146 339.185C12.4864 343.828 19.5849 346.008 28.4 346.008V344.008ZM8.75 337.708L10.1146 336.246C6.13225 332.529 4 327.029 4 319.408H2H0C0 327.788 2.36775 334.487 7.38536 339.17L8.75 337.708ZM108.5 355.76H110.5V353.76H108.5V355.76ZM101.9 398.51L100.537 397.047H100.537L101.9 398.51ZM52.85 398.51L54.2135 397.047L52.85 398.51ZM46.25 372.26H48.25V370.26H46.25V372.26ZM3.5 372.26H1.5V374.26H3.5V372.26ZM3.5 355.76V353.76H1.5V355.76H3.5ZM63.5 386.06L64.8646 384.598L64.8377 384.573L64.8099 384.548L63.5 386.06ZM91.25 386.06L89.9401 384.548L89.9123 384.573L89.8854 384.598L91.25 386.06ZM93.5 372.26H95.5V370.26H93.5V372.26ZM61.25 372.26V370.26H59.25V372.26H61.25ZM108.5 355.76H106.5V380.06H108.5H110.5V355.76H108.5ZM108.5 380.06H106.5C106.5 387.914 104.399 393.447 100.537 397.047L101.9 398.51L103.263 399.973C108.201 395.373 110.5 388.606 110.5 380.06H108.5ZM101.9 398.51L100.537 397.047C96.6358 400.681 90.7533 402.66 82.55 402.66V404.66V406.66C91.3467 406.66 98.3643 404.538 103.263 399.973L101.9 398.51ZM82.55 404.66V402.66H72.2V404.66V406.66H82.55V404.66ZM72.2 404.66V402.66C63.9967 402.66 58.1143 400.681 54.2135 397.047L52.85 398.51L51.4866 399.973C56.3858 404.538 63.4033 406.66 72.2 406.66V404.66ZM52.85 398.51L54.2135 397.047C50.3506 393.447 48.25 387.914 48.25 380.06H46.25H44.25C44.25 388.606 46.5495 395.373 51.4866 399.973L52.85 398.51ZM46.25 380.06H48.25V372.26H46.25H44.25V380.06H46.25ZM46.25 372.26V370.26H3.5V372.26V374.26H46.25V372.26ZM3.5 372.26H5.5V355.76H3.5H1.5V372.26H3.5ZM3.5 355.76V357.76H108.5V355.76V353.76H3.5V355.76ZM61.25 380.06H59.25C59.25 383.12 60.1095 385.768 62.1901 387.571L63.5 386.06L64.8099 384.548C63.8905 383.752 63.25 382.399 63.25 380.06H61.25ZM63.5 386.06L62.1354 387.522C64.1999 389.449 67.3931 390.16 71.15 390.16V388.16V386.16C67.7069 386.16 65.8001 385.471 64.8646 384.598L63.5 386.06ZM71.15 388.16V390.16H83.6V388.16V386.16H71.15V388.16ZM83.6 388.16V390.16C87.3569 390.16 90.5501 389.449 92.6146 387.522L91.25 386.06L89.8854 384.598C88.9499 385.471 87.0431 386.16 83.6 386.16V388.16ZM91.25 386.06L92.5599 387.571C94.6405 385.768 95.5 383.12 95.5 380.06H93.5H91.5C91.5 382.399 90.8595 383.752 89.9401 384.548L91.25 386.06ZM93.5 380.06H95.5V372.26H93.5H91.5V380.06H93.5ZM93.5 372.26V370.26H61.25V372.26V374.26H93.5V372.26ZM61.25 372.26H59.25V380.06H61.25H63.25V372.26H61.25Z" fill="#666666" mask="url(#path-1-outside-1_18_212)"/>
</svg>
