<svg width="152" height="690" viewBox="0 0 152 690" fill="none" xmlns="http://www.w3.org/2000/svg">
<mask id="path-1-outside-1_33_714" maskUnits="userSpaceOnUse" x="12" y="217.5" width="113" height="255" fill="black">
<rect fill="white" x="12" y="217.5" width="113" height="255"/>
<path d="M16 470.35V453.85H106V426.7H121V470.35H16ZM122.5 395.523C122.5 403.623 120.2 409.823 115.6 414.123C111 418.423 104.5 420.573 96.1 420.573H40.9C32.5 420.573 26 418.423 21.4 414.123C16.8 409.823 14.5 403.623 14.5 395.523C14.5 387.423 16.8 381.223 21.4 376.923C26 372.623 32.5 370.473 40.9 370.473H96.1C104.5 370.473 111 372.623 115.6 376.923C120.2 381.223 122.5 387.423 122.5 395.523ZM107.5 395.523C107.5 389.823 104.05 386.973 97.15 386.973H39.85C32.95 386.973 29.5 389.823 29.5 395.523C29.5 401.223 32.95 404.073 39.85 404.073H97.15C104.05 404.073 107.5 401.223 107.5 395.523ZM122.5 335.915C122.5 343.915 120.25 350.015 115.75 354.215C111.15 358.415 104.6 360.515 96.1 360.515H40.9C32.4 360.515 25.9 358.415 21.4 354.215C16.8 350.015 14.5 343.915 14.5 335.915C14.5 327.915 16.8 321.815 21.4 317.615C25.9 313.415 32.4 311.315 40.9 311.315H49.9V326.915H39.85C32.95 326.915 29.5 329.765 29.5 335.465C29.5 341.165 32.95 344.015 39.85 344.015H97.3C104.1 344.015 107.5 341.165 107.5 335.465C107.5 329.765 104.1 326.915 97.3 326.915H76.75V335.165H61.75V311.315H96.1C104.6 311.315 111.15 313.415 115.75 317.615C120.25 321.815 122.5 327.915 122.5 335.915ZM16 300.721V284.221H121V300.721H16ZM16 271.864V251.164L78.85 235.114V234.814H16V220.114H121V237.064L44.35 256.864V257.164H121V271.864H16Z"/>
</mask>
<path d="M16 470.35H14V472.35H16V470.35ZM16 453.85V451.85H14V453.85H16ZM106 453.85V455.85H108V453.85H106ZM106 426.7V424.7H104V426.7H106ZM121 426.7H123V424.7H121V426.7ZM121 470.35V472.35H123V470.35H121ZM16 470.35H18V453.85H16H14V470.35H16ZM16 453.85V455.85H106V453.85V451.85H16V453.85ZM106 453.85H108V426.7H106H104V453.85H106ZM106 426.7V428.7H121V426.7V424.7H106V426.7ZM121 426.7H119V470.35H121H123V426.7H121ZM121 470.35V468.35H16V470.35V472.35H121V470.35ZM115.6 414.123L114.234 412.662L115.6 414.123ZM21.4 414.123L22.7658 412.662L21.4 414.123ZM21.4 376.923L22.7658 378.384L21.4 376.923ZM115.6 376.923L114.234 378.384L115.6 376.923ZM122.5 395.523H120.5C120.5 403.237 118.322 408.842 114.234 412.662L115.6 414.123L116.966 415.584C122.078 410.805 124.5 404.01 124.5 395.523H122.5ZM115.6 414.123L114.234 412.662C110.114 416.514 104.166 418.573 96.1 418.573V420.573V422.573C104.834 422.573 111.886 420.333 116.966 415.584L115.6 414.123ZM96.1 420.573V418.573H40.9V420.573V422.573H96.1V420.573ZM40.9 420.573V418.573C32.8339 418.573 26.8857 416.514 22.7658 412.662L21.4 414.123L20.0342 415.584C25.1143 420.333 32.1661 422.573 40.9 422.573V420.573ZM21.4 414.123L22.7658 412.662C18.6784 408.842 16.5 403.237 16.5 395.523H14.5H12.5C12.5 404.01 14.9216 410.805 20.0342 415.584L21.4 414.123ZM14.5 395.523H16.5C16.5 387.81 18.6784 382.205 22.7658 378.384L21.4 376.923L20.0342 375.462C14.9216 380.242 12.5 387.037 12.5 395.523H14.5ZM21.4 376.923L22.7658 378.384C26.8857 374.533 32.8339 372.473 40.9 372.473V370.473V368.473C32.1661 368.473 25.1143 370.714 20.0342 375.462L21.4 376.923ZM40.9 370.473V372.473H96.1V370.473V368.473H40.9V370.473ZM96.1 370.473V372.473C104.166 372.473 110.114 374.533 114.234 378.384L115.6 376.923L116.966 375.462C111.886 370.714 104.834 368.473 96.1 368.473V370.473ZM115.6 376.923L114.234 378.384C118.322 382.205 120.5 387.81 120.5 395.523H122.5H124.5C124.5 387.037 122.078 380.242 116.966 375.462L115.6 376.923ZM107.5 395.523H109.5C109.5 392.254 108.492 389.474 106.186 387.569C103.954 385.725 100.825 384.973 97.15 384.973V386.973V388.973C100.375 388.973 102.421 389.647 103.639 390.653C104.783 391.598 105.5 393.093 105.5 395.523H107.5ZM97.15 386.973V384.973H39.85V386.973V388.973H97.15V386.973ZM39.85 386.973V384.973C36.1748 384.973 33.0464 385.725 30.8137 387.569C28.5079 389.474 27.5 392.254 27.5 395.523H29.5H31.5C31.5 393.093 32.2171 391.598 33.3613 390.653C34.5786 389.647 36.6252 388.973 39.85 388.973V386.973ZM29.5 395.523H27.5C27.5 398.793 28.5079 401.573 30.8137 403.478C33.0464 405.322 36.1748 406.073 39.85 406.073V404.073V402.073C36.6252 402.073 34.5786 401.4 33.3613 400.394C32.2171 399.449 31.5 397.954 31.5 395.523H29.5ZM39.85 404.073V406.073H97.15V404.073V402.073H39.85V404.073ZM97.15 404.073V406.073C100.825 406.073 103.954 405.322 106.186 403.478C108.492 401.573 109.5 398.793 109.5 395.523H107.5H105.5C105.5 397.954 104.783 399.449 103.639 400.394C102.421 401.4 100.375 402.073 97.15 402.073V404.073ZM115.75 354.215L117.099 355.692L117.107 355.684L117.115 355.677L115.75 354.215ZM21.4 354.215L22.7646 352.753L22.7566 352.745L22.7485 352.738L21.4 354.215ZM21.4 317.615L22.7485 319.092L22.7566 319.084L22.7646 319.077L21.4 317.615ZM49.9 311.315H51.9V309.315H49.9V311.315ZM49.9 326.915V328.915H51.9V326.915H49.9ZM76.75 326.915V324.915H74.75V326.915H76.75ZM76.75 335.165V337.165H78.75V335.165H76.75ZM61.75 335.165H59.75V337.165H61.75V335.165ZM61.75 311.315V309.315H59.75V311.315H61.75ZM115.75 317.615L117.115 316.153L117.107 316.145L117.099 316.138L115.75 317.615ZM122.5 335.915H120.5C120.5 343.536 118.368 349.036 114.385 352.753L115.75 354.215L117.115 355.677C122.132 350.994 124.5 344.294 124.5 335.915H122.5ZM115.75 354.215L114.401 352.738C110.286 356.495 104.285 358.515 96.1 358.515V360.515V362.515C104.915 362.515 112.014 360.335 117.099 355.692L115.75 354.215ZM96.1 360.515V358.515H40.9V360.515V362.515H96.1V360.515ZM40.9 360.515V358.515C32.7118 358.515 26.773 356.494 22.7646 352.753L21.4 354.215L20.0354 355.677C25.027 360.336 32.0882 362.515 40.9 362.515V360.515ZM21.4 354.215L22.7485 352.738C18.6742 349.018 16.5 343.523 16.5 335.915H14.5H12.5C12.5 344.307 14.9258 351.012 20.0515 355.692L21.4 354.215ZM14.5 335.915H16.5C16.5 328.307 18.6742 322.812 22.7485 319.092L21.4 317.615L20.0515 316.138C14.9258 320.818 12.5 327.523 12.5 335.915H14.5ZM21.4 317.615L22.7646 319.077C26.773 315.336 32.7118 313.315 40.9 313.315V311.315V309.315C32.0882 309.315 25.027 311.494 20.0354 316.153L21.4 317.615ZM40.9 311.315V313.315H49.9V311.315V309.315H40.9V311.315ZM49.9 311.315H47.9V326.915H49.9H51.9V311.315H49.9ZM49.9 326.915V324.915H39.85V326.915V328.915H49.9V326.915ZM39.85 326.915V324.915C36.1748 324.915 33.0464 325.666 30.8137 327.51C28.5079 329.415 27.5 332.195 27.5 335.465H29.5H31.5C31.5 333.034 32.2171 331.539 33.3613 330.594C34.5786 329.589 36.6252 328.915 39.85 328.915V326.915ZM29.5 335.465H27.5C27.5 338.734 28.5079 341.514 30.8137 343.419C33.0464 345.264 36.1748 346.015 39.85 346.015V344.015V342.015C36.6252 342.015 34.5786 341.341 33.3613 340.335C32.2171 339.39 31.5 337.895 31.5 335.465H29.5ZM39.85 344.015V346.015H97.3V344.015V342.015H39.85V344.015ZM97.3 344.015V346.015C100.931 346.015 104.026 345.261 106.235 343.41C108.511 341.502 109.5 338.725 109.5 335.465H107.5H105.5C105.5 337.905 104.789 339.403 103.665 340.345C102.474 341.343 100.469 342.015 97.3 342.015V344.015ZM107.5 335.465H109.5C109.5 332.205 108.511 329.428 106.235 327.52C104.026 325.668 100.931 324.915 97.3 324.915V326.915V328.915C100.469 328.915 102.474 329.586 103.665 330.585C104.789 331.527 105.5 333.025 105.5 335.465H107.5ZM97.3 326.915V324.915H76.75V326.915V328.915H97.3V326.915ZM76.75 326.915H74.75V335.165H76.75H78.75V326.915H76.75ZM76.75 335.165V333.165H61.75V335.165V337.165H76.75V335.165ZM61.75 335.165H63.75V311.315H61.75H59.75V335.165H61.75ZM61.75 311.315V313.315H96.1V311.315V309.315H61.75V311.315ZM96.1 311.315V313.315C104.285 313.315 110.286 315.335 114.401 319.092L115.75 317.615L117.099 316.138C112.014 311.495 104.915 309.315 96.1 309.315V311.315ZM115.75 317.615L114.385 319.077C118.368 322.794 120.5 328.294 120.5 335.915H122.5H124.5C124.5 327.536 122.132 320.836 117.115 316.153L115.75 317.615ZM16 300.721H14V302.721H16V300.721ZM16 284.221V282.221H14V284.221H16ZM121 284.221H123V282.221H121V284.221ZM121 300.721V302.721H123V300.721H121ZM16 300.721H18V284.221H16H14V300.721H16ZM16 284.221V286.221H121V284.221V282.221H16V284.221ZM121 284.221H119V300.721H121H123V284.221H121ZM121 300.721V298.721H16V300.721V302.721H121V300.721ZM16 271.864H14V273.864H16V271.864ZM16 251.164L15.5051 249.226L14 249.61V251.164H16ZM78.85 235.114L79.3449 237.051L80.85 236.667V235.114H78.85ZM78.85 234.814H80.85V232.814H78.85V234.814ZM16 234.814H14V236.814H16V234.814ZM16 220.114V218.114H14V220.114H16ZM121 220.114H123V218.114H121V220.114ZM121 237.064L121.5 239L123 238.613V237.064H121ZM44.35 256.864L43.8498 254.927L42.35 255.315V256.864H44.35ZM44.35 257.164H42.35V259.164H44.35V257.164ZM121 257.164H123V255.164H121V257.164ZM121 271.864V273.864H123V271.864H121ZM16 271.864H18V251.164H16H14V271.864H16ZM16 251.164L16.4949 253.101L79.3449 237.051L78.85 235.114L78.3551 233.176L15.5051 249.226L16 251.164ZM78.85 235.114H80.85V234.814H78.85H76.85V235.114H78.85ZM78.85 234.814V232.814H16V234.814V236.814H78.85V234.814ZM16 234.814H18V220.114H16H14V234.814H16ZM16 220.114V222.114H121V220.114V218.114H16V220.114ZM121 220.114H119V237.064H121H123V220.114H121ZM121 237.064L120.5 235.127L43.8498 254.927L44.35 256.864L44.8502 258.8L121.5 239L121 237.064ZM44.35 256.864H42.35V257.164H44.35H46.35V256.864H44.35ZM44.35 257.164V259.164H121V257.164V255.164H44.35V257.164ZM121 257.164H119V271.864H121H123V257.164H121ZM121 271.864V269.864H16V271.864V273.864H121V271.864Z" fill="#666666" mask="url(#path-1-outside-1_33_714)"/>
</svg>
