<svg width="45" height="45" viewBox="0 0 45 45" fill="none" xmlns="http://www.w3.org/2000/svg">
<circle opacity="0.85" cx="22.5" cy="22.5" r="21.75" stroke="#B2B2B2" stroke-width="1.5"/>
<path d="M33 32.25V29.75C33 28.4239 32.4732 27.1521 31.5355 26.2145C30.5979 25.2768 29.3261 24.75 28 24.75H18C16.6739 24.75 15.4021 25.2768 14.4645 26.2145C13.5268 27.1521 13 28.4239 13 29.75V32.25M28 14.75C28 17.5114 25.7614 19.75 23 19.75C20.2386 19.75 18 17.5114 18 14.75C18 11.9886 20.2386 9.75 23 9.75C25.7614 9.75 28 11.9886 28 14.75Z" stroke="#B3B3B3" stroke-width="3.5" stroke-linecap="round" stroke-linejoin="round"/>
</svg>
