<svg width="325" height="166" viewBox="0 0 325 166" fill="none" xmlns="http://www.w3.org/2000/svg">
<g filter="url(#filter0_d_33_695)">
<path d="M52.8018 35.7998L47.3096 35.1582L47.1738 35.1416L47.1455 35.2754L30.667 111.992L30.6279 112.174H96.3613L96.2686 112.725H70.6719L70.627 112.785L69.9111 113.736L69.7295 113.977H96.0293L95.9609 114.417L95.8652 115.03L95.8184 115.338L95.8135 115.363L65.7324 115.229H65.666L65.6211 115.278L65.1436 115.806L64.9189 116.053L65.2529 116.056L95.623 116.361L95.6016 116.536L95.5664 116.825L95.5322 117.107L95.46 117.533L95.4248 117.746L95.3906 117.95L95.3438 118.146L73.4941 118.095L73.4131 118.094L73.3682 118.161L73.1299 118.52L73.124 118.528L72.9209 118.887L72.7939 119.11H95.1826L95.1738 119.236L95.0312 120.088L95.0156 120.176L69.5527 120.243L69.4863 120.244L69.4424 120.292L68.7256 121.076L68.4961 121.327H94.8232L94.8164 121.365L94.6729 122.216L94.502 123.229H71.1562L71.1113 123.28L70.3711 124.132L70.1553 124.38H94.3291L94.124 125.497H12.1836L30.9609 33.0684L30.9932 32.9072L30.8301 32.8887L25.1738 32.2695L44.6133 8.31445L52.8018 35.7998Z" fill="#B2B2B2" stroke="#666666" stroke-width="0.3"/>
</g>
<g filter="url(#filter1_d_33_695)">
<mask id="path-2-outside-1_33_695" maskUnits="userSpaceOnUse" x="97.5385" y="47" width="211" height="103" fill="black">
<rect fill="white" x="97.5385" y="47" width="211" height="103"/>
<path d="M122.746 127.065C117.182 127.065 112.578 125.882 108.932 123.514C105.286 121.123 102.717 117.809 101.226 113.571C99.7581 109.31 99.4859 104.35 100.409 98.6918C101.309 93.1046 103.179 88.2159 106.02 84.0256C108.861 79.8352 112.471 76.58 116.851 74.2599C121.231 71.9162 126.167 70.7443 131.659 70.7443C137.199 70.7443 141.792 71.9399 145.438 74.331C149.083 76.6984 151.652 80.0128 153.144 84.2741C154.635 88.5355 154.919 93.4953 153.996 99.1534C153.073 104.717 151.179 109.594 148.314 113.784C145.449 117.974 141.839 121.241 137.483 123.585C133.127 125.905 128.215 127.065 122.746 127.065ZM124.237 115.347C126.794 115.347 129.055 114.625 131.02 113.18C133.009 111.713 134.654 109.724 135.956 107.214C137.282 104.681 138.205 101.817 138.726 98.6207C139.247 95.4721 139.282 92.6785 138.832 90.2401C138.383 87.7779 137.436 85.8366 135.992 84.4162C134.571 82.9957 132.618 82.2855 130.132 82.2855C127.575 82.2855 125.303 83.0194 123.314 84.4872C121.325 85.9313 119.68 87.92 118.378 90.4531C117.076 92.9863 116.164 95.8627 115.644 99.0824C115.146 102.207 115.111 105.001 115.537 107.463C115.963 109.902 116.898 111.831 118.342 113.251C119.787 114.648 121.752 115.347 124.237 115.347ZM180.523 147.591C175.599 147.591 171.491 146.916 168.2 145.567C164.933 144.241 162.448 142.43 160.743 140.134C159.062 137.837 158.139 135.257 157.973 132.392L172.32 130.51C172.58 131.623 173.077 132.652 173.811 133.599C174.569 134.546 175.646 135.304 177.043 135.872C178.463 136.44 180.298 136.724 182.547 136.724C185.838 136.724 188.702 135.92 191.141 134.31C193.579 132.723 195.082 130.06 195.651 126.32L197.284 116.341H196.645C195.745 117.856 194.514 119.288 192.952 120.638C191.413 121.987 189.531 123.088 187.305 123.94C185.104 124.793 182.559 125.219 179.671 125.219C175.551 125.219 171.976 124.272 168.946 122.378C165.939 120.46 163.761 117.536 162.412 113.607C161.086 109.653 160.921 104.658 161.915 98.6207C162.957 92.4418 164.827 87.2808 167.526 83.1378C170.225 78.9948 173.421 75.8935 177.114 73.8338C180.807 71.7741 184.654 70.7443 188.655 70.7443C191.709 70.7443 194.171 71.2652 196.041 72.3068C197.935 73.3248 199.391 74.6032 200.409 76.142C201.427 77.6572 202.149 79.1487 202.575 80.6165H203.179L204.671 71.4545H219.692L210.53 126.533C209.796 131.196 208.032 135.079 205.239 138.18C202.469 141.305 198.953 143.649 194.692 145.212C190.43 146.798 185.707 147.591 180.523 147.591ZM186.205 113.855C188.619 113.855 190.786 113.251 192.703 112.044C194.645 110.813 196.266 109.061 197.568 106.788C198.87 104.492 199.782 101.746 200.303 98.5497C200.823 95.3537 200.812 92.5838 200.267 90.2401C199.746 87.8726 198.728 86.0379 197.213 84.7358C195.722 83.4337 193.757 82.7827 191.318 82.7827C188.809 82.7827 186.607 83.4574 184.713 84.8068C182.819 86.1326 181.245 87.9792 179.99 90.3466C178.759 92.714 177.895 95.4484 177.398 98.5497C176.877 101.698 176.853 104.421 177.327 106.717C177.824 108.99 178.806 110.754 180.274 112.009C181.742 113.24 183.719 113.855 186.205 113.855ZM222.639 126L231.73 71.4545H246.858L237.767 126H222.639ZM240.857 64.3523C238.608 64.3523 236.749 63.6065 235.281 62.1151C233.837 60.5999 233.245 58.8007 233.506 56.7173C233.766 54.5866 234.784 52.7874 236.56 51.3196C238.335 49.8281 240.348 49.0824 242.597 49.0824C244.846 49.0824 246.68 49.8281 248.101 51.3196C249.521 52.7874 250.113 54.5866 249.877 56.7173C249.64 58.8007 248.634 60.5999 246.858 62.1151C245.106 63.6065 243.106 64.3523 240.857 64.3523ZM270.34 94.4659L265.084 126H249.992L259.083 71.4545H273.465L271.902 81.0781H272.506C274.234 77.8821 276.673 75.3608 279.821 73.5142C282.994 71.6676 286.604 70.7443 290.652 70.7443C294.44 70.7443 297.601 71.5729 300.134 73.2301C302.691 74.8873 304.49 77.2429 305.532 80.2969C306.597 83.3509 306.775 87.0085 306.064 91.2699L300.241 126H285.113L290.475 93.9688C291.019 90.6307 290.593 88.0265 289.196 86.1562C287.823 84.2623 285.61 83.3153 282.556 83.3153C280.52 83.3153 278.65 83.7533 276.945 84.6293C275.241 85.5052 273.808 86.7836 272.648 88.4645C271.512 90.1217 270.742 92.1222 270.34 94.4659Z"/>
</mask>
<path d="M122.746 127.065C117.182 127.065 112.578 125.882 108.932 123.514C105.286 121.123 102.717 117.809 101.226 113.571C99.7581 109.31 99.4859 104.35 100.409 98.6918C101.309 93.1046 103.179 88.2159 106.02 84.0256C108.861 79.8352 112.471 76.58 116.851 74.2599C121.231 71.9162 126.167 70.7443 131.659 70.7443C137.199 70.7443 141.792 71.9399 145.438 74.331C149.083 76.6984 151.652 80.0128 153.144 84.2741C154.635 88.5355 154.919 93.4953 153.996 99.1534C153.073 104.717 151.179 109.594 148.314 113.784C145.449 117.974 141.839 121.241 137.483 123.585C133.127 125.905 128.215 127.065 122.746 127.065ZM124.237 115.347C126.794 115.347 129.055 114.625 131.02 113.18C133.009 111.713 134.654 109.724 135.956 107.214C137.282 104.681 138.205 101.817 138.726 98.6207C139.247 95.4721 139.282 92.6785 138.832 90.2401C138.383 87.7779 137.436 85.8366 135.992 84.4162C134.571 82.9957 132.618 82.2855 130.132 82.2855C127.575 82.2855 125.303 83.0194 123.314 84.4872C121.325 85.9313 119.68 87.92 118.378 90.4531C117.076 92.9863 116.164 95.8627 115.644 99.0824C115.146 102.207 115.111 105.001 115.537 107.463C115.963 109.902 116.898 111.831 118.342 113.251C119.787 114.648 121.752 115.347 124.237 115.347ZM180.523 147.591C175.599 147.591 171.491 146.916 168.2 145.567C164.933 144.241 162.448 142.43 160.743 140.134C159.062 137.837 158.139 135.257 157.973 132.392L172.32 130.51C172.58 131.623 173.077 132.652 173.811 133.599C174.569 134.546 175.646 135.304 177.043 135.872C178.463 136.44 180.298 136.724 182.547 136.724C185.838 136.724 188.702 135.92 191.141 134.31C193.579 132.723 195.082 130.06 195.651 126.32L197.284 116.341H196.645C195.745 117.856 194.514 119.288 192.952 120.638C191.413 121.987 189.531 123.088 187.305 123.94C185.104 124.793 182.559 125.219 179.671 125.219C175.551 125.219 171.976 124.272 168.946 122.378C165.939 120.46 163.761 117.536 162.412 113.607C161.086 109.653 160.921 104.658 161.915 98.6207C162.957 92.4418 164.827 87.2808 167.526 83.1378C170.225 78.9948 173.421 75.8935 177.114 73.8338C180.807 71.7741 184.654 70.7443 188.655 70.7443C191.709 70.7443 194.171 71.2652 196.041 72.3068C197.935 73.3248 199.391 74.6032 200.409 76.142C201.427 77.6572 202.149 79.1487 202.575 80.6165H203.179L204.671 71.4545H219.692L210.53 126.533C209.796 131.196 208.032 135.079 205.239 138.18C202.469 141.305 198.953 143.649 194.692 145.212C190.43 146.798 185.707 147.591 180.523 147.591ZM186.205 113.855C188.619 113.855 190.786 113.251 192.703 112.044C194.645 110.813 196.266 109.061 197.568 106.788C198.87 104.492 199.782 101.746 200.303 98.5497C200.823 95.3537 200.812 92.5838 200.267 90.2401C199.746 87.8726 198.728 86.0379 197.213 84.7358C195.722 83.4337 193.757 82.7827 191.318 82.7827C188.809 82.7827 186.607 83.4574 184.713 84.8068C182.819 86.1326 181.245 87.9792 179.99 90.3466C178.759 92.714 177.895 95.4484 177.398 98.5497C176.877 101.698 176.853 104.421 177.327 106.717C177.824 108.99 178.806 110.754 180.274 112.009C181.742 113.24 183.719 113.855 186.205 113.855ZM222.639 126L231.73 71.4545H246.858L237.767 126H222.639ZM240.857 64.3523C238.608 64.3523 236.749 63.6065 235.281 62.1151C233.837 60.5999 233.245 58.8007 233.506 56.7173C233.766 54.5866 234.784 52.7874 236.56 51.3196C238.335 49.8281 240.348 49.0824 242.597 49.0824C244.846 49.0824 246.68 49.8281 248.101 51.3196C249.521 52.7874 250.113 54.5866 249.877 56.7173C249.64 58.8007 248.634 60.5999 246.858 62.1151C245.106 63.6065 243.106 64.3523 240.857 64.3523ZM270.34 94.4659L265.084 126H249.992L259.083 71.4545H273.465L271.902 81.0781H272.506C274.234 77.8821 276.673 75.3608 279.821 73.5142C282.994 71.6676 286.604 70.7443 290.652 70.7443C294.44 70.7443 297.601 71.5729 300.134 73.2301C302.691 74.8873 304.49 77.2429 305.532 80.2969C306.597 83.3509 306.775 87.0085 306.064 91.2699L300.241 126H285.113L290.475 93.9688C291.019 90.6307 290.593 88.0265 289.196 86.1562C287.823 84.2623 285.61 83.3153 282.556 83.3153C280.52 83.3153 278.65 83.7533 276.945 84.6293C275.241 85.5052 273.808 86.7836 272.648 88.4645C271.512 90.1217 270.742 92.1222 270.34 94.4659Z" fill="white"/>
<path d="M108.932 123.514L107.835 125.187L107.843 125.192L108.932 123.514ZM101.226 113.571L99.3349 114.222L99.3394 114.235L101.226 113.571ZM100.409 98.6918L102.383 99.0139L102.384 99.0097L100.409 98.6918ZM106.02 84.0256L104.365 82.9032L106.02 84.0256ZM116.851 74.2599L117.787 76.0273L117.795 76.0233L116.851 74.2599ZM145.438 74.331L144.341 76.0034L144.348 76.0083L145.438 74.331ZM153.144 84.2741L151.256 84.9348V84.9348L153.144 84.2741ZM153.996 99.1534L155.969 99.4809L155.97 99.4755L153.996 99.1534ZM148.314 113.784L146.663 112.655V112.655L148.314 113.784ZM137.483 123.585L138.423 125.35L138.431 125.346L137.483 123.585ZM131.02 113.18L132.204 114.792L132.208 114.79L131.02 113.18ZM135.956 107.214L134.184 106.287L134.181 106.293L135.956 107.214ZM138.726 98.6207L136.753 98.2943L136.752 98.2991L138.726 98.6207ZM138.832 90.2401L136.865 90.5995L136.866 90.6029L138.832 90.2401ZM135.992 84.4162L134.577 85.8304L134.583 85.8362L134.589 85.842L135.992 84.4162ZM123.314 84.4872L124.489 86.1055L124.495 86.101L124.502 86.0964L123.314 84.4872ZM115.644 99.0824L113.669 98.763L113.668 98.7682L115.644 99.0824ZM115.537 107.463L113.566 107.804L113.567 107.807L115.537 107.463ZM118.342 113.251L116.94 114.677L116.946 114.683L116.952 114.689L118.342 113.251ZM122.746 127.065V125.065C117.462 125.065 113.263 123.942 110.021 121.837L108.932 123.514L107.843 125.192C111.892 127.821 116.903 129.065 122.746 129.065V127.065ZM108.932 123.514L110.029 121.842C106.761 119.699 104.463 116.745 103.113 112.907L101.226 113.571L99.3394 114.235C100.972 118.873 103.811 122.547 107.835 125.187L108.932 123.514ZM101.226 113.571L103.117 112.92C101.782 109.045 101.499 104.432 102.383 99.0139L100.409 98.6918L98.4353 98.3697C97.4729 104.267 97.7341 109.575 99.335 114.222L101.226 113.571ZM100.409 98.6918L102.384 99.0097C103.242 93.6766 105.017 89.0695 107.675 85.1479L106.02 84.0256L104.365 82.9032C101.341 87.3623 99.3751 92.5327 98.4346 98.3738L100.409 98.6918ZM106.02 84.0256L107.675 85.1479C110.337 81.2221 113.703 78.191 117.787 76.0273L116.851 74.2599L115.915 72.4926C111.24 74.9691 107.385 78.4484 104.365 82.9032L106.02 84.0256ZM116.851 74.2599L117.795 76.0233C121.854 73.8508 126.461 72.7443 131.659 72.7443V70.7443V68.7443C125.873 68.7443 120.607 69.9816 115.907 72.4966L116.851 74.2599ZM131.659 70.7443V72.7443C136.914 72.7443 141.099 73.8771 144.341 76.0034L145.438 74.331L146.534 72.6586C142.485 70.0027 137.484 68.7443 131.659 68.7443V70.7443ZM145.438 74.331L144.348 76.0083C147.608 78.1248 149.905 81.0741 151.256 84.9348L153.144 84.2741L155.031 83.6134C153.4 78.9515 150.559 75.272 146.527 72.6536L145.438 74.331ZM153.144 84.2741L151.256 84.9348C152.611 88.8071 152.906 93.4158 152.022 98.8313L153.996 99.1534L155.97 99.4755C156.933 93.5747 156.659 88.2639 155.031 83.6134L153.144 84.2741ZM153.996 99.1534L152.023 98.826C151.142 104.134 149.346 108.731 146.663 112.655L148.314 113.784L149.965 114.913C153.012 110.456 155.003 105.299 155.969 99.4808L153.996 99.1534ZM148.314 113.784L146.663 112.655C143.974 116.589 140.602 119.636 136.535 121.824L137.483 123.585L138.431 125.346C143.076 122.847 146.925 119.36 149.965 114.913L148.314 113.784ZM137.483 123.585L136.543 121.82C132.506 123.97 127.923 125.065 122.746 125.065V127.065V129.065C128.506 129.065 133.748 127.841 138.423 125.35L137.483 123.585ZM124.237 115.347V117.347C127.198 117.347 129.879 116.501 132.204 114.792L131.02 113.18L129.836 111.569C128.231 112.748 126.39 113.347 124.237 113.347V115.347ZM131.02 113.18L132.208 114.79C134.475 113.116 136.309 110.877 137.731 108.136L135.956 107.214L134.181 106.293C132.999 108.571 131.542 110.309 129.832 111.571L131.02 113.18ZM135.956 107.214L137.728 108.142C139.165 105.396 140.149 102.322 140.7 98.9424L138.726 98.6207L136.752 98.2991C136.261 101.311 135.398 103.967 134.184 106.287L135.956 107.214ZM138.726 98.6207L140.699 98.9471C141.247 95.6324 141.301 92.5981 140.799 89.8772L138.832 90.2401L136.866 90.6029C137.263 92.7589 137.246 95.3117 136.753 98.2943L138.726 98.6207ZM138.832 90.2401L140.8 89.8806C140.294 87.1099 139.195 84.7615 137.394 82.9903L135.992 84.4162L134.589 85.842C135.677 86.9118 136.472 88.446 136.865 90.5995L138.832 90.2401ZM135.992 84.4162L137.406 83.002C135.525 81.1216 133.015 80.2855 130.132 80.2855V82.2855V84.2855C132.221 84.2855 133.617 84.8699 134.577 85.8304L135.992 84.4162ZM130.132 82.2855V80.2855C127.164 80.2855 124.471 81.1472 122.126 82.8781L123.314 84.4872L124.502 86.0964C126.134 84.8916 127.987 84.2855 130.132 84.2855V82.2855ZM123.314 84.4872L122.139 82.8689C119.859 84.5244 118.022 86.7713 116.599 89.5388L118.378 90.4531L120.157 91.3674C121.338 89.0687 122.792 87.3383 124.489 86.1055L123.314 84.4872ZM118.378 90.4531L116.599 89.5388C115.188 92.2836 114.219 95.3655 113.669 98.763L115.644 99.0824L117.618 99.4018C118.11 96.3599 118.963 93.6889 120.157 91.3674L118.378 90.4531ZM115.644 99.0824L113.668 98.7682C113.145 102.055 113.094 105.076 113.566 107.804L115.537 107.463L117.508 107.122C117.128 104.925 117.147 102.36 117.619 99.3966L115.644 99.0824ZM115.537 107.463L113.567 107.807C114.049 110.564 115.138 112.905 116.94 114.677L118.342 113.251L119.745 111.826C118.659 110.757 117.878 109.239 117.507 107.119L115.537 107.463ZM118.342 113.251L116.952 114.689C118.853 116.528 121.362 117.347 124.237 117.347V115.347V113.347C122.141 113.347 120.72 112.769 119.733 111.814L118.342 113.251ZM168.2 145.567L168.959 143.716L168.952 143.714L168.2 145.567ZM160.743 140.134L159.129 141.315L159.137 141.326L160.743 140.134ZM157.973 132.392L157.713 130.409L155.869 130.651L155.976 132.508L157.973 132.392ZM172.32 130.51L174.267 130.054L173.855 128.291L172.06 128.527L172.32 130.51ZM173.811 133.599L172.23 134.825L172.24 134.837L172.249 134.849L173.811 133.599ZM177.043 135.872L176.289 137.725L176.3 137.729L177.043 135.872ZM191.141 134.31L190.05 132.633L190.039 132.641L191.141 134.31ZM195.651 126.32L193.677 125.996L193.675 126.008L193.673 126.019L195.651 126.32ZM197.284 116.341L199.258 116.664L199.638 114.341H197.284V116.341ZM196.645 116.341V114.341H195.507L194.925 115.32L196.645 116.341ZM192.952 120.638L191.645 119.124L191.639 119.129L191.633 119.134L192.952 120.638ZM187.305 123.94L186.59 122.073L186.584 122.075L187.305 123.94ZM168.946 122.378L167.871 124.064L167.878 124.069L167.886 124.074L168.946 122.378ZM162.412 113.607L160.516 114.242L160.518 114.249L160.52 114.256L162.412 113.607ZM161.915 98.6207L159.943 98.2883L159.941 98.2957L161.915 98.6207ZM167.526 83.1378L165.85 82.0461L167.526 83.1378ZM177.114 73.8338L176.14 72.0871L177.114 73.8338ZM196.041 72.3068L195.068 74.0541L195.081 74.0614L195.094 74.0685L196.041 72.3068ZM200.409 76.142L198.741 77.2455L198.745 77.2515L198.749 77.2574L200.409 76.142ZM202.575 80.6165L200.655 81.1741L201.073 82.6165H202.575V80.6165ZM203.179 80.6165V82.6165H204.88L205.153 80.9378L203.179 80.6165ZM204.671 71.4545V69.4545H202.97L202.697 71.1332L204.671 71.4545ZM219.692 71.4545L221.665 71.7827L222.052 69.4545H219.692V71.4545ZM210.53 126.533L208.557 126.204L208.556 126.213L208.554 126.222L210.53 126.533ZM205.239 138.18L203.753 136.842L203.747 136.848L203.742 136.854L205.239 138.18ZM194.692 145.212L194.003 143.334L193.994 143.337L194.692 145.212ZM192.703 112.044L193.769 113.737L193.774 113.733L192.703 112.044ZM197.568 106.788L199.304 107.783L199.308 107.775L197.568 106.788ZM200.267 90.2401L198.314 90.6698L198.316 90.6812L198.319 90.6926L200.267 90.2401ZM197.213 84.7358L195.898 86.2424L195.904 86.2476L195.91 86.2526L197.213 84.7358ZM184.713 84.8068L185.86 86.4453L185.867 86.4405L185.874 86.4357L184.713 84.8068ZM179.99 90.3466L178.223 89.41L178.219 89.4169L178.216 89.4239L179.99 90.3466ZM177.398 98.5497L179.371 98.8761L179.373 98.8663L177.398 98.5497ZM177.327 106.717L175.368 107.121L175.37 107.133L175.373 107.145L177.327 106.717ZM180.274 112.009L178.975 113.529L178.982 113.535L178.989 113.541L180.274 112.009ZM180.523 147.591V145.591C175.766 145.591 171.936 144.937 168.959 143.716L168.2 145.567L167.442 147.417C171.047 148.896 175.432 149.591 180.523 149.591V147.591ZM168.2 145.567L168.952 143.714C165.946 142.494 163.789 140.882 162.349 138.941L160.743 140.134L159.137 141.326C161.106 143.978 163.92 145.988 167.448 147.42L168.2 145.567ZM160.743 140.134L162.357 138.952C160.906 136.97 160.113 134.76 159.97 132.277L157.973 132.392L155.976 132.508C156.164 135.753 157.219 138.705 159.129 141.315L160.743 140.134ZM157.973 132.392L158.233 134.375L172.58 132.493L172.32 130.51L172.06 128.527L157.713 130.409L157.973 132.392ZM172.32 130.51L170.372 130.966C170.701 132.372 171.329 133.662 172.23 134.825L173.811 133.599L175.392 132.374C174.825 131.643 174.459 130.874 174.267 130.054L172.32 130.51ZM173.811 133.599L172.249 134.849C173.266 136.12 174.652 137.059 176.289 137.725L177.043 135.872L177.796 134.02C176.64 133.549 175.871 132.973 175.373 132.35L173.811 133.599ZM177.043 135.872L176.3 137.729C178.04 138.425 180.152 138.724 182.547 138.724V136.724V134.724C180.443 134.724 178.886 134.455 177.785 134.015L177.043 135.872ZM182.547 136.724V138.724C186.178 138.724 189.437 137.831 192.243 135.979L191.141 134.31L190.039 132.641C187.968 134.008 185.497 134.724 182.547 134.724V136.724ZM191.141 134.31L192.231 135.986C195.282 134.002 197.001 130.745 197.628 126.62L195.651 126.32L193.673 126.019C193.164 129.376 191.876 131.445 190.05 132.633L191.141 134.31ZM195.651 126.32L197.624 126.643L199.258 116.664L197.284 116.341L195.31 116.018L193.677 125.996L195.651 126.32ZM197.284 116.341V114.341H196.645V116.341V118.341H197.284V116.341ZM196.645 116.341L194.925 115.32C194.153 116.621 193.071 117.892 191.645 119.124L192.952 120.638L194.259 122.151C195.957 120.685 197.338 119.091 198.365 117.362L196.645 116.341ZM192.952 120.638L191.633 119.134C190.299 120.304 188.63 121.291 186.59 122.073L187.305 123.94L188.021 125.808C190.432 124.885 192.527 123.67 194.27 122.142L192.952 120.638ZM187.305 123.94L186.584 122.075C184.657 122.821 182.365 123.219 179.671 123.219V125.219V127.219C182.752 127.219 185.55 126.764 188.027 125.805L187.305 123.94ZM179.671 125.219V123.219C175.868 123.219 172.672 122.348 170.006 120.682L168.946 122.378L167.886 124.074C171.28 126.195 175.235 127.219 179.671 127.219V125.219ZM168.946 122.378L170.022 120.692C167.457 119.056 165.531 116.533 164.304 112.957L162.412 113.607L160.52 114.256C161.991 118.54 164.422 121.864 167.871 124.064L168.946 122.378ZM162.412 113.607L164.308 112.971C163.123 109.437 162.924 104.8 163.888 98.9458L161.915 98.6207L159.941 98.2957C158.917 104.515 159.049 109.869 160.516 114.242L162.412 113.607ZM161.915 98.6207L163.887 98.9532C164.895 92.9752 166.687 88.0897 169.201 84.2294L167.526 83.1378L165.85 82.0461C162.967 86.4718 161.018 91.9083 159.943 98.2883L161.915 98.6207ZM167.526 83.1378L169.201 84.2294C171.753 80.3124 174.723 77.4572 178.088 75.5805L177.114 73.8338L176.14 72.0871C172.118 74.3297 168.696 77.6772 165.85 82.0461L167.526 83.1378ZM177.114 73.8338L178.088 75.5805C181.501 73.6772 185.015 72.7443 188.655 72.7443V70.7443V68.7443C184.293 68.7443 180.113 69.8711 176.14 72.0871L177.114 73.8338ZM188.655 70.7443V72.7443C191.505 72.7443 193.596 73.2339 195.068 74.0541L196.041 72.3068L197.014 70.5595C194.746 69.2964 191.913 68.7443 188.655 68.7443V70.7443ZM196.041 72.3068L195.094 74.0685C196.746 74.956 197.934 76.0247 198.741 77.2455L200.409 76.142L202.077 75.0386C200.849 73.1818 199.125 71.6936 196.988 70.5452L196.041 72.3068ZM200.409 76.142L198.749 77.2574C199.674 78.6335 200.296 79.9387 200.655 81.1741L202.575 80.6165L204.496 80.0589C204.002 78.3586 203.181 76.6809 202.069 75.0267L200.409 76.142ZM202.575 80.6165V82.6165H203.179V80.6165V78.6165H202.575V80.6165ZM203.179 80.6165L205.153 80.9378L206.645 71.7759L204.671 71.4545L202.697 71.1332L201.205 80.2951L203.179 80.6165ZM204.671 71.4545V73.4545H219.692V71.4545V69.4545H204.671V71.4545ZM219.692 71.4545L217.719 71.1264L208.557 126.204L210.53 126.533L212.503 126.861L221.665 71.7827L219.692 71.4545ZM210.53 126.533L208.554 126.222C207.872 130.555 206.254 134.065 203.753 136.842L205.239 138.18L206.725 139.519C209.811 136.093 211.72 131.838 212.506 126.844L210.53 126.533ZM205.239 138.18L203.742 136.854C201.211 139.71 197.982 141.875 194.003 143.334L194.692 145.212L195.38 147.089C199.925 145.423 203.727 142.901 206.735 139.507L205.239 138.18ZM194.692 145.212L193.994 143.337C189.985 144.83 185.502 145.591 180.523 145.591V147.591V149.591C185.913 149.591 190.876 148.766 195.39 147.086L194.692 145.212ZM186.205 113.855V115.855C188.971 115.855 191.511 115.158 193.769 113.737L192.703 112.044L191.638 110.352C190.06 111.345 188.268 111.855 186.205 111.855V113.855ZM192.703 112.044L193.774 113.733C196.026 112.305 197.863 110.298 199.304 107.783L197.568 106.788L195.833 105.794C194.67 107.824 193.263 109.321 191.632 110.355L192.703 112.044ZM197.568 106.788L199.308 107.775C200.75 105.232 201.726 102.25 202.277 98.8714L200.303 98.5497L198.329 98.228C197.838 101.242 196.991 103.752 195.828 105.802L197.568 106.788ZM200.303 98.5497L202.277 98.8714C202.826 95.5019 202.835 92.4565 202.215 89.7875L200.267 90.2401L198.319 90.6926C198.788 92.7111 198.821 95.2055 198.329 98.228L200.303 98.5497ZM200.267 90.2401L202.22 89.8103C201.627 87.1123 200.426 84.8595 198.517 83.219L197.213 84.7358L195.91 86.2526C197.031 87.2162 197.866 88.633 198.314 90.6698L200.267 90.2401ZM197.213 84.7358L198.528 83.2292C196.594 81.5399 194.124 80.7827 191.318 80.7827V82.7827V84.7827C193.39 84.7827 194.85 85.3275 195.898 86.2424L197.213 84.7358ZM191.318 82.7827V80.7827C188.427 80.7827 185.813 81.5677 183.553 83.178L184.713 84.8068L185.874 86.4357C187.402 85.347 189.19 84.7827 191.318 84.7827V82.7827ZM184.713 84.8068L183.566 83.1684C181.375 84.7025 179.602 86.8074 178.223 89.41L179.99 90.3466L181.757 91.2832C182.887 89.1509 184.264 87.5626 185.86 86.4453L184.713 84.8068ZM179.99 90.3466L178.216 89.4239C176.87 92.0116 175.948 94.9568 175.423 98.2331L177.398 98.5497L179.373 98.8663C179.842 95.9399 180.648 93.4165 181.765 91.2693L179.99 90.3466ZM177.398 98.5497L175.425 98.2233C174.877 101.532 174.831 104.515 175.368 107.121L177.327 106.717L179.286 106.313C178.876 104.327 178.877 101.864 179.371 98.8761L177.398 98.5497ZM177.327 106.717L175.373 107.145C175.944 109.754 177.112 111.936 178.975 113.529L180.274 112.009L181.574 110.488C180.501 109.571 179.704 108.227 179.281 106.29L177.327 106.717ZM180.274 112.009L178.989 113.541C180.913 115.154 183.391 115.855 186.205 115.855V113.855V111.855C184.047 111.855 182.571 111.325 181.559 110.476L180.274 112.009ZM222.639 126L220.667 125.671L220.278 128H222.639V126ZM231.73 71.4545V69.4545H230.036L229.757 71.1257L231.73 71.4545ZM246.858 71.4545L248.831 71.7833L249.219 69.4545H246.858V71.4545ZM237.767 126V128H239.461L239.74 126.329L237.767 126ZM235.281 62.1151L233.834 63.4949L233.845 63.5065L233.856 63.5179L235.281 62.1151ZM233.506 56.7173L235.49 56.9654L235.491 56.96L233.506 56.7173ZM236.56 51.3196L237.834 52.8611L237.84 52.8561L237.846 52.851L236.56 51.3196ZM248.101 51.3196L246.653 52.6989L246.658 52.7047L246.664 52.7104L248.101 51.3196ZM249.877 56.7173L251.864 56.9431L251.864 56.9382L249.877 56.7173ZM246.858 62.1151L248.155 63.6379L248.156 63.6364L246.858 62.1151ZM222.639 126L224.612 126.329L233.703 71.7833L231.73 71.4545L229.757 71.1257L220.667 125.671L222.639 126ZM231.73 71.4545V73.4545H246.858V71.4545V69.4545H231.73V71.4545ZM246.858 71.4545L244.885 71.1257L235.794 125.671L237.767 126L239.74 126.329L248.831 71.7833L246.858 71.4545ZM237.767 126V124H222.639V126V128H237.767V126ZM240.857 64.3523V62.3523C239.099 62.3523 237.769 61.7911 236.707 60.7122L235.281 62.1151L233.856 63.5179C235.73 65.4219 238.116 66.3523 240.857 66.3523V64.3523ZM235.281 62.1151L236.729 60.7352C235.701 59.6562 235.304 58.4551 235.49 56.9654L233.506 56.7173L231.521 56.4693C231.187 59.1462 231.974 61.5437 233.834 63.4949L235.281 62.1151ZM233.506 56.7173L235.491 56.96C235.685 55.3766 236.421 54.029 237.834 52.8611L236.56 51.3196L235.285 49.7781C233.147 51.5458 231.848 53.7967 231.521 56.4747L233.506 56.7173ZM236.56 51.3196L237.846 52.851C239.274 51.652 240.834 51.0824 242.597 51.0824V49.0824V47.0824C239.861 47.0824 237.397 48.0043 235.273 49.7882L236.56 51.3196ZM242.597 49.0824V51.0824C244.354 51.0824 245.647 51.6425 246.653 52.6989L248.101 51.3196L249.549 49.9403C247.714 48.0138 245.337 47.0824 242.597 47.0824V49.0824ZM248.101 51.3196L246.664 52.7104C247.647 53.7261 248.063 54.9245 247.889 56.4965L249.877 56.7173L251.864 56.9382C252.163 54.2488 251.396 51.8487 249.538 49.9288L248.101 51.3196ZM249.877 56.7173L247.889 56.4915C247.716 58.0127 246.997 59.3671 245.56 60.5937L246.858 62.1151L248.156 63.6364C250.27 61.8327 251.563 59.5886 251.864 56.9431L249.877 56.7173ZM246.858 62.1151L245.562 60.5922C244.162 61.7834 242.619 62.3523 240.857 62.3523V64.3523V66.3523C243.593 66.3523 246.05 65.4296 248.155 63.6379L246.858 62.1151ZM270.34 94.4659L268.369 94.1274L268.367 94.1371L270.34 94.4659ZM265.084 126V128H266.779L267.057 126.329L265.084 126ZM249.992 126L248.019 125.671L247.631 128H249.992V126ZM259.083 71.4545V69.4545H257.389L257.11 71.1257L259.083 71.4545ZM273.465 71.4545L275.439 71.7751L275.816 69.4545H273.465V71.4545ZM271.902 81.0781L269.928 80.7576L269.552 83.0781H271.902V81.0781ZM272.506 81.0781V83.0781H273.698L274.265 82.0294L272.506 81.0781ZM279.821 73.5142L278.815 71.7857L278.81 71.789L279.821 73.5142ZM300.134 73.2301L299.039 74.9038L299.046 74.9084L300.134 73.2301ZM305.532 80.2969L303.639 80.9425L303.643 80.9556L305.532 80.2969ZM306.064 91.2699L308.037 91.6006L308.037 91.5987L306.064 91.2699ZM300.241 126V128H301.933L302.213 126.331L300.241 126ZM285.113 126L283.14 125.67L282.75 128H285.113V126ZM290.475 93.9688L292.447 94.299L292.449 94.2907L290.475 93.9688ZM289.196 86.1562L287.577 87.3302L287.586 87.3417L287.594 87.353L289.196 86.1562ZM276.945 84.6293L276.031 82.8504V82.8504L276.945 84.6293ZM272.648 88.4645L271.002 87.3285L270.999 87.3334L272.648 88.4645ZM270.34 94.4659L268.367 94.1371L263.111 125.671L265.084 126L267.057 126.329L272.313 94.7947L270.34 94.4659ZM265.084 126V124H249.992V126V128H265.084V126ZM249.992 126L251.965 126.329L261.056 71.7833L259.083 71.4545L257.11 71.1257L248.019 125.671L249.992 126ZM259.083 71.4545V73.4545H273.465V71.4545V69.4545H259.083V71.4545ZM273.465 71.4545L271.491 71.134L269.928 80.7576L271.902 81.0781L273.877 81.3987L275.439 71.7751L273.465 71.4545ZM271.902 81.0781V83.0781H272.506V81.0781V79.0781H271.902V81.0781ZM272.506 81.0781L274.265 82.0294C275.819 79.1564 277.998 76.9021 280.833 75.2394L279.821 73.5142L278.81 71.789C275.347 73.8195 272.65 76.6078 270.747 80.1268L272.506 81.0781ZM279.821 73.5142L280.828 75.2427C283.664 73.5918 286.92 72.7443 290.652 72.7443V70.7443V68.7443C286.288 68.7443 282.324 69.7434 278.815 71.7857L279.821 73.5142ZM290.652 70.7443V72.7443C294.149 72.7443 296.905 73.5073 299.039 74.9038L300.134 73.2301L301.229 71.5564C298.297 69.6385 294.732 68.7443 290.652 68.7443V70.7443ZM300.134 73.2301L299.046 74.9084C301.203 76.3065 302.733 78.2864 303.639 80.9425L305.532 80.2969L307.425 79.6512C306.247 76.1993 304.178 73.4682 301.222 71.5518L300.134 73.2301ZM305.532 80.2969L303.643 80.9556C304.567 83.6041 304.764 86.9039 304.092 90.9411L306.064 91.2699L308.037 91.5987C308.785 87.1132 308.627 83.0976 307.42 79.6381L305.532 80.2969ZM306.064 91.2699L304.092 90.9391L298.268 125.669L300.241 126L302.213 126.331L308.037 91.6006L306.064 91.2699ZM300.241 126V124H285.113V126V128H300.241V126ZM285.113 126L287.085 126.33L292.447 94.299L290.475 93.9688L288.502 93.6385L283.14 125.67L285.113 126ZM290.475 93.9688L292.449 94.2907C293.041 90.6592 292.643 87.4283 290.799 84.9595L289.196 86.1562L287.594 87.353C288.544 88.6247 288.998 90.6021 288.501 93.6468L290.475 93.9688ZM289.196 86.1562L290.816 84.9823C288.956 82.4168 286.035 81.3153 282.556 81.3153V83.3153V85.3153C285.184 85.3153 286.691 86.1078 287.577 87.3302L289.196 86.1562ZM282.556 83.3153V81.3153C280.222 81.3153 278.036 81.8201 276.031 82.8504L276.945 84.6293L277.859 86.4081C279.263 85.6865 280.817 85.3153 282.556 85.3153V83.3153ZM276.945 84.6293L276.031 82.8504C274.014 83.8869 272.337 85.3946 271.002 87.3285L272.648 88.4645L274.294 89.6005C275.28 88.1726 276.467 87.1235 277.859 86.4081L276.945 84.6293ZM272.648 88.4645L270.999 87.3334C269.672 89.2682 268.811 91.5509 268.369 94.1274L270.34 94.4659L272.311 94.8044C272.674 92.6934 273.352 90.9752 274.298 89.5955L272.648 88.4645Z" fill="#666666" mask="url(#path-2-outside-1_33_695)"/>
</g>
<defs>
<filter id="filter0_d_33_695" x="0" y="0" width="108.538" height="141.647" filterUnits="userSpaceOnUse" color-interpolation-filters="sRGB">
<feFlood flood-opacity="0" result="BackgroundImageFix"/>
<feColorMatrix in="SourceAlpha" type="matrix" values="0 0 0 0 0 0 0 0 0 0 0 0 0 0 0 0 0 0 127 0" result="hardAlpha"/>
<feOffset dy="4"/>
<feGaussianBlur stdDeviation="6"/>
<feComposite in2="hardAlpha" operator="out"/>
<feColorMatrix type="matrix" values="0 0 0 0 0 0 0 0 0 0 0 0 0 0 0 0 0 0 0.5 0"/>
<feBlend mode="normal" in2="BackgroundImageFix" result="effect1_dropShadow_33_695"/>
<feBlend mode="normal" in="SourceGraphic" in2="effect1_dropShadow_33_695" result="shape"/>
</filter>
<filter id="filter1_d_33_695" x="85.8745" y="39.0823" width="234.616" height="126.509" filterUnits="userSpaceOnUse" color-interpolation-filters="sRGB">
<feFlood flood-opacity="0" result="BackgroundImageFix"/>
<feColorMatrix in="SourceAlpha" type="matrix" values="0 0 0 0 0 0 0 0 0 0 0 0 0 0 0 0 0 0 127 0" result="hardAlpha"/>
<feOffset dy="4"/>
<feGaussianBlur stdDeviation="6"/>
<feComposite in2="hardAlpha" operator="out"/>
<feColorMatrix type="matrix" values="0 0 0 0 0 0 0 0 0 0 0 0 0 0 0 0 0 0 0.5 0"/>
<feBlend mode="normal" in2="BackgroundImageFix" result="effect1_dropShadow_33_695"/>
<feBlend mode="normal" in="SourceGraphic" in2="effect1_dropShadow_33_695" result="shape"/>
</filter>
</defs>
</svg>
