<svg width="72" height="72" viewBox="0 0 72 72" fill="none" xmlns="http://www.w3.org/2000/svg">
<circle cx="36" cy="36" r="35" fill="#1B1B24" fill-opacity="0.4" stroke="#666666" stroke-width="2"/>
<path d="M36.5845 16.307L33.8482 15.9876L33.8033 15.9828L33.7935 16.0267L25.69 53.7542L25.6773 53.8148H58.0015L57.9478 54.1332H45.3521L45.3374 54.1537L44.9849 54.6214L44.9243 54.7015H57.8384L57.8003 54.9457L57.7534 55.2474L57.73 55.3978L57.7242 55.43L42.9107 55.3646H42.8892L42.8736 55.3812L42.6392 55.641L42.564 55.723L42.6753 55.724L57.6372 55.8744L57.6236 55.9867L57.606 56.1292L57.5884 56.2708L57.5542 56.4779L57.5367 56.5833L57.5191 56.6849L57.4917 56.7982L46.7281 56.7738H46.7007L46.6861 56.7962L46.5689 56.972L46.5669 56.9759L46.4673 57.1517L46.4243 57.2259H57.4195L57.4126 57.3158L57.3775 57.5248L57.3423 57.7347L57.3316 57.7972L44.7896 57.8314H44.7681L44.7534 57.847L44.4009 58.2328L44.3238 58.3158H57.2447L57.2368 58.3626L57.1665 58.7816L57.0786 59.2992H45.5894L45.5738 59.3158L45.2105 59.7347L45.1382 59.8177H57.0025L56.8931 60.4144H16.5484L25.7876 14.932L25.7993 14.8783L25.7447 14.8724L22.9195 14.5628L32.5347 2.71323L36.5845 16.307Z" fill="#B2B2B2" stroke="#666666" stroke-width="0.1"/>
</svg>
