<svg width="48" height="48" viewBox="0 0 48 48" fill="none" xmlns="http://www.w3.org/2000/svg">
<circle cx="24" cy="24" r="23" stroke="#B3B3B3" stroke-width="2"/>
<g clip-path="url(#clip0_52_1181)">
<path d="M36.4167 29.8548V33.7298C36.4182 34.0895 36.3445 34.4456 36.2004 34.7752C36.0563 35.1048 35.8449 35.4007 35.5798 35.6439C35.3147 35.8871 35.0018 36.0722 34.661 36.1875C34.3202 36.3027 33.9592 36.3455 33.6009 36.3131C29.6262 35.8813 25.8083 34.5231 22.4538 32.3477C19.3329 30.3646 16.6869 27.7186 14.7038 24.5977C12.5209 21.228 11.1624 17.3915 10.7384 13.399C10.7061 13.0418 10.7486 12.6818 10.863 12.3419C10.9775 12.002 11.1615 11.6897 11.4033 11.4248C11.6451 11.1599 11.9394 10.9483 12.2675 10.8034C12.5955 10.6585 12.9502 10.5835 13.3088 10.5831H17.1838C17.8107 10.577 18.4184 10.7989 18.8937 11.2077C19.369 11.6164 19.6794 12.1841 19.7671 12.8048C19.9307 14.0449 20.234 15.2625 20.6713 16.4344C20.8451 16.8967 20.8827 17.3991 20.7797 17.8822C20.6767 18.3652 20.4373 18.8086 20.0901 19.1598L18.4496 20.8002C20.2884 24.034 22.9659 26.7115 26.1996 28.5502L27.8401 26.9098C28.1912 26.5625 28.6346 26.3232 29.1177 26.2202C29.6007 26.1172 30.1032 26.1548 30.5655 26.3286C31.7374 26.7658 32.955 27.0692 34.1951 27.2327C34.8225 27.3212 35.3955 27.6373 35.8052 28.1207C36.2148 28.6042 36.4324 29.2213 36.4167 29.8548Z" stroke="#B3B3B3" stroke-width="4" stroke-linecap="round" stroke-linejoin="round"/>
</g>
<defs>
<clipPath id="clip0_52_1181">
<rect width="31" height="31" fill="white" transform="translate(8 8)"/>
</clipPath>
</defs>
</svg>
