<svg width="552" height="100" viewBox="0 0 552 100" fill="none" xmlns="http://www.w3.org/2000/svg">
<g filter="url(#filter0_d_33_884)">
<mask id="path-1-outside-1_33_884" maskUnits="userSpaceOnUse" x="11.9" y="8" width="529" height="76" fill="black">
<rect fill="white" x="11.9" y="8" width="529" height="76"/>
<path d="M14 11H30.2C35.6667 11 39.7667 12.4667 42.5 15.4C45.2334 18.3333 46.6 22.6333 46.6 28.3V35.2C46.6 40.8667 45.2334 45.1667 42.5 48.1C39.7667 51.0333 35.6667 52.5 30.2 52.5H25V81H14V11ZM30.2 42.5C32 42.5 33.3334 42 34.2 41C35.1334 40 35.6 38.3 35.6 35.9V27.6C35.6 25.2 35.1334 23.5 34.2 22.5C33.3334 21.5 32 21 30.2 21H25V42.5H30.2ZM52.5742 11H68.8742C74.5409 11 78.6742 12.3333 81.2742 15C83.8742 17.6 85.1742 21.6333 85.1742 27.1V31.4C85.1742 38.6667 82.7742 43.2667 77.9742 45.2V45.4C80.6409 46.2 82.5076 47.8333 83.5742 50.3C84.7076 52.7667 85.2742 56.0667 85.2742 60.2V72.5C85.2742 74.5 85.3409 76.1333 85.4742 77.4C85.6076 78.6 85.9409 79.8 86.4742 81H75.2742C74.8742 79.8667 74.6076 78.8 74.4742 77.8C74.3409 76.8 74.2742 75 74.2742 72.4V59.6C74.2742 56.4 73.7409 54.1667 72.6742 52.9C71.6742 51.6333 69.9076 51 67.3742 51H63.5742V81H52.5742V11ZM67.5742 41C69.7742 41 71.4076 40.4333 72.4742 39.3C73.6076 38.1667 74.1742 36.2667 74.1742 33.6V28.2C74.1742 25.6667 73.7076 23.8333 72.7742 22.7C71.9076 21.5667 70.5076 21 68.5742 21H63.5742V41H67.5742ZM108.806 82C103.406 82 99.2729 80.4667 96.4063 77.4C93.5396 74.3333 92.1063 70 92.1063 64.4V27.6C92.1063 22 93.5396 17.6667 96.4063 14.6C99.2729 11.5333 103.406 10 108.806 10C114.206 10 118.34 11.5333 121.206 14.6C124.073 17.6667 125.506 22 125.506 27.6V64.4C125.506 70 124.073 74.3333 121.206 77.4C118.34 80.4667 114.206 82 108.806 82ZM108.806 72C112.606 72 114.506 69.7 114.506 65.1V26.9C114.506 22.3 112.606 20 108.806 20C105.006 20 103.106 22.3 103.106 26.9V65.1C103.106 69.7 105.006 72 108.806 72ZM132.945 11H149.745C155.212 11 159.312 12.4667 162.045 15.4C164.779 18.3333 166.145 22.6333 166.145 28.3V63.7C166.145 69.3667 164.779 73.6667 162.045 76.6C159.312 79.5333 155.212 81 149.745 81H132.945V11ZM149.545 71C151.345 71 152.712 70.4667 153.645 69.4C154.645 68.3333 155.145 66.6 155.145 64.2V27.8C155.145 25.4 154.645 23.6667 153.645 22.6C152.712 21.5333 151.345 21 149.545 21H143.945V71H149.545ZM189.57 82C184.237 82 180.17 80.5 177.37 77.5C174.57 74.4333 173.17 70.0667 173.17 64.4V11H184.17V65.2C184.17 67.6 184.637 69.3333 185.57 70.4C186.57 71.4667 187.97 72 189.77 72C191.57 72 192.937 71.4667 193.87 70.4C194.87 69.3333 195.37 67.6 195.37 65.2V11H205.97V64.4C205.97 70.0667 204.57 74.4333 201.77 77.5C198.97 80.5 194.904 82 189.57 82ZM229.305 82C224.038 82 220.005 80.5 217.205 77.5C214.471 74.5 213.105 70.2667 213.105 64.8V27.2C213.105 21.7333 214.471 17.5 217.205 14.5C220.005 11.5 224.038 10 229.305 10C234.571 10 238.571 11.5 241.305 14.5C244.105 17.5 245.505 21.7333 245.505 27.2V34.6H235.105V26.5C235.105 22.1667 233.271 20 229.605 20C225.938 20 224.105 22.1667 224.105 26.5V65.6C224.105 69.8667 225.938 72 229.605 72C233.271 72 235.105 69.8667 235.105 65.6V54.9H245.505V64.8C245.505 70.2667 244.105 74.5 241.305 77.5C238.571 80.5 234.571 82 229.305 82ZM260.686 21H249.186V11H283.186V21H271.686V81H260.686V21ZM304.527 11H321.327C326.794 11 330.894 12.4667 333.627 15.4C336.361 18.3333 337.727 22.6333 337.727 28.3V63.7C337.727 69.3667 336.361 73.6667 333.627 76.6C330.894 79.5333 326.794 81 321.327 81H304.527V11ZM321.127 71C322.927 71 324.294 70.4667 325.227 69.4C326.227 68.3333 326.727 66.6 326.727 64.2V27.8C326.727 25.4 326.227 23.6667 325.227 22.6C324.294 21.5333 322.927 21 321.127 21H315.527V71H321.127ZM345.152 11H375.152V21H356.152V39.5H371.252V49.5H356.152V71H375.152V81H345.152V11ZM390.08 21H378.58V11H412.58V21H401.08V81H390.08V21ZM421.816 11H436.716L448.116 81H437.116L435.116 67.1V67.3H422.616L420.616 81H410.416L421.816 11ZM433.816 57.8L428.916 23.2H428.716L423.916 57.8H433.816ZM453.453 11H464.453V81H453.453V11ZM472.691 11H483.691V71H501.791V81H472.691V11ZM521.366 82C516.033 82 512 80.5 509.266 77.5C506.533 74.4333 505.166 70.0667 505.166 64.4V60.4H515.566V65.2C515.566 69.7333 517.466 72 521.266 72C523.133 72 524.533 71.4667 525.466 70.4C526.466 69.2667 526.966 67.4667 526.966 65C526.966 62.0667 526.3 59.5 524.966 57.3C523.633 55.0333 521.166 52.3333 517.566 49.2C513.033 45.2 509.866 41.6 508.066 38.4C506.266 35.1333 505.366 31.4667 505.366 27.4C505.366 21.8667 506.766 17.6 509.566 14.6C512.366 11.5333 516.433 10 521.766 10C527.033 10 531 11.5333 533.666 14.6C536.4 17.6 537.766 21.9333 537.766 27.6V30.5H527.366V26.9C527.366 24.5 526.9 22.7667 525.966 21.7C525.033 20.5667 523.666 20 521.866 20C518.2 20 516.366 22.2333 516.366 26.7C516.366 29.2333 517.033 31.6 518.366 33.8C519.766 36 522.266 38.6667 525.866 41.8C530.466 45.8 533.633 49.4333 535.366 52.7C537.1 55.9667 537.966 59.8 537.966 64.2C537.966 69.9333 536.533 74.3333 533.666 77.4C530.866 80.4667 526.766 82 521.366 82Z"/>
</mask>
<path d="M14 11H30.2C35.6667 11 39.7667 12.4667 42.5 15.4C45.2334 18.3333 46.6 22.6333 46.6 28.3V35.2C46.6 40.8667 45.2334 45.1667 42.5 48.1C39.7667 51.0333 35.6667 52.5 30.2 52.5H25V81H14V11ZM30.2 42.5C32 42.5 33.3334 42 34.2 41C35.1334 40 35.6 38.3 35.6 35.9V27.6C35.6 25.2 35.1334 23.5 34.2 22.5C33.3334 21.5 32 21 30.2 21H25V42.5H30.2ZM52.5742 11H68.8742C74.5409 11 78.6742 12.3333 81.2742 15C83.8742 17.6 85.1742 21.6333 85.1742 27.1V31.4C85.1742 38.6667 82.7742 43.2667 77.9742 45.2V45.4C80.6409 46.2 82.5076 47.8333 83.5742 50.3C84.7076 52.7667 85.2742 56.0667 85.2742 60.2V72.5C85.2742 74.5 85.3409 76.1333 85.4742 77.4C85.6076 78.6 85.9409 79.8 86.4742 81H75.2742C74.8742 79.8667 74.6076 78.8 74.4742 77.8C74.3409 76.8 74.2742 75 74.2742 72.4V59.6C74.2742 56.4 73.7409 54.1667 72.6742 52.9C71.6742 51.6333 69.9076 51 67.3742 51H63.5742V81H52.5742V11ZM67.5742 41C69.7742 41 71.4076 40.4333 72.4742 39.3C73.6076 38.1667 74.1742 36.2667 74.1742 33.6V28.2C74.1742 25.6667 73.7076 23.8333 72.7742 22.7C71.9076 21.5667 70.5076 21 68.5742 21H63.5742V41H67.5742ZM108.806 82C103.406 82 99.2729 80.4667 96.4063 77.4C93.5396 74.3333 92.1063 70 92.1063 64.4V27.6C92.1063 22 93.5396 17.6667 96.4063 14.6C99.2729 11.5333 103.406 10 108.806 10C114.206 10 118.34 11.5333 121.206 14.6C124.073 17.6667 125.506 22 125.506 27.6V64.4C125.506 70 124.073 74.3333 121.206 77.4C118.34 80.4667 114.206 82 108.806 82ZM108.806 72C112.606 72 114.506 69.7 114.506 65.1V26.9C114.506 22.3 112.606 20 108.806 20C105.006 20 103.106 22.3 103.106 26.9V65.1C103.106 69.7 105.006 72 108.806 72ZM132.945 11H149.745C155.212 11 159.312 12.4667 162.045 15.4C164.779 18.3333 166.145 22.6333 166.145 28.3V63.7C166.145 69.3667 164.779 73.6667 162.045 76.6C159.312 79.5333 155.212 81 149.745 81H132.945V11ZM149.545 71C151.345 71 152.712 70.4667 153.645 69.4C154.645 68.3333 155.145 66.6 155.145 64.2V27.8C155.145 25.4 154.645 23.6667 153.645 22.6C152.712 21.5333 151.345 21 149.545 21H143.945V71H149.545ZM189.57 82C184.237 82 180.17 80.5 177.37 77.5C174.57 74.4333 173.17 70.0667 173.17 64.4V11H184.17V65.2C184.17 67.6 184.637 69.3333 185.57 70.4C186.57 71.4667 187.97 72 189.77 72C191.57 72 192.937 71.4667 193.87 70.4C194.87 69.3333 195.37 67.6 195.37 65.2V11H205.97V64.4C205.97 70.0667 204.57 74.4333 201.77 77.5C198.97 80.5 194.904 82 189.57 82ZM229.305 82C224.038 82 220.005 80.5 217.205 77.5C214.471 74.5 213.105 70.2667 213.105 64.8V27.2C213.105 21.7333 214.471 17.5 217.205 14.5C220.005 11.5 224.038 10 229.305 10C234.571 10 238.571 11.5 241.305 14.5C244.105 17.5 245.505 21.7333 245.505 27.2V34.6H235.105V26.5C235.105 22.1667 233.271 20 229.605 20C225.938 20 224.105 22.1667 224.105 26.5V65.6C224.105 69.8667 225.938 72 229.605 72C233.271 72 235.105 69.8667 235.105 65.6V54.9H245.505V64.8C245.505 70.2667 244.105 74.5 241.305 77.5C238.571 80.5 234.571 82 229.305 82ZM260.686 21H249.186V11H283.186V21H271.686V81H260.686V21ZM304.527 11H321.327C326.794 11 330.894 12.4667 333.627 15.4C336.361 18.3333 337.727 22.6333 337.727 28.3V63.7C337.727 69.3667 336.361 73.6667 333.627 76.6C330.894 79.5333 326.794 81 321.327 81H304.527V11ZM321.127 71C322.927 71 324.294 70.4667 325.227 69.4C326.227 68.3333 326.727 66.6 326.727 64.2V27.8C326.727 25.4 326.227 23.6667 325.227 22.6C324.294 21.5333 322.927 21 321.127 21H315.527V71H321.127ZM345.152 11H375.152V21H356.152V39.5H371.252V49.5H356.152V71H375.152V81H345.152V11ZM390.08 21H378.58V11H412.58V21H401.08V81H390.08V21ZM421.816 11H436.716L448.116 81H437.116L435.116 67.1V67.3H422.616L420.616 81H410.416L421.816 11ZM433.816 57.8L428.916 23.2H428.716L423.916 57.8H433.816ZM453.453 11H464.453V81H453.453V11ZM472.691 11H483.691V71H501.791V81H472.691V11ZM521.366 82C516.033 82 512 80.5 509.266 77.5C506.533 74.4333 505.166 70.0667 505.166 64.4V60.4H515.566V65.2C515.566 69.7333 517.466 72 521.266 72C523.133 72 524.533 71.4667 525.466 70.4C526.466 69.2667 526.966 67.4667 526.966 65C526.966 62.0667 526.3 59.5 524.966 57.3C523.633 55.0333 521.166 52.3333 517.566 49.2C513.033 45.2 509.866 41.6 508.066 38.4C506.266 35.1333 505.366 31.4667 505.366 27.4C505.366 21.8667 506.766 17.6 509.566 14.6C512.366 11.5333 516.433 10 521.766 10C527.033 10 531 11.5333 533.666 14.6C536.4 17.6 537.766 21.9333 537.766 27.6V30.5H527.366V26.9C527.366 24.5 526.9 22.7667 525.966 21.7C525.033 20.5667 523.666 20 521.866 20C518.2 20 516.366 22.2333 516.366 26.7C516.366 29.2333 517.033 31.6 518.366 33.8C519.766 36 522.266 38.6667 525.866 41.8C530.466 45.8 533.633 49.4333 535.366 52.7C537.1 55.9667 537.966 59.8 537.966 64.2C537.966 69.9333 536.533 74.3333 533.666 77.4C530.866 80.4667 526.766 82 521.366 82Z" fill="white"/>
<path d="M14 11V9H12V11H14ZM42.5 15.4L41.0368 16.7634L41.0368 16.7635L42.5 15.4ZM42.5 48.1L41.0368 46.7365H41.0368L42.5 48.1ZM25 52.5V50.5H23V52.5H25ZM25 81V83H27V81H25ZM14 81H12V83H14V81ZM34.2 41L32.7379 39.6354L32.7128 39.6623L32.6886 39.6901L34.2 41ZM34.2 22.5L32.6886 23.8099L32.7128 23.8377L32.7379 23.8646L34.2 22.5ZM25 21V19H23V21H25ZM25 42.5H23V44.5H25V42.5ZM14 11V13H30.2V11V9H14V11ZM30.2 11V13C35.3208 13 38.804 14.3672 41.0368 16.7634L42.5 15.4L43.9632 14.0365C40.7294 10.5661 36.0126 9 30.2 9V11ZM42.5 15.4L41.0368 16.7635C43.305 19.1976 44.6 22.9301 44.6 28.3H46.6H48.6C48.6 22.3366 47.1617 17.4691 43.9632 14.0365L42.5 15.4ZM46.6 28.3H44.6V35.2H46.6H48.6V28.3H46.6ZM46.6 35.2H44.6C44.6 40.5699 43.305 44.3024 41.0368 46.7365L42.5 48.1L43.9632 49.4634C47.1617 46.0309 48.6 41.1634 48.6 35.2H46.6ZM42.5 48.1L41.0368 46.7365C38.804 49.1328 35.3208 50.5 30.2 50.5V52.5V54.5C36.0126 54.5 40.7294 52.9339 43.9632 49.4634L42.5 48.1ZM30.2 52.5V50.5H25V52.5V54.5H30.2V52.5ZM25 52.5H23V81H25H27V52.5H25ZM25 81V79H14V81V83H25V81ZM14 81H16V11H14H12V81H14ZM30.2 42.5V44.5C32.3607 44.5 34.3415 43.8905 35.7114 42.3099L34.2 41L32.6886 39.6901C32.3252 40.1095 31.6393 40.5 30.2 40.5V42.5ZM34.2 41L35.6621 42.3646C37.1224 40.8001 37.6 38.4569 37.6 35.9H35.6H33.6C33.6 38.1431 33.1443 39.1999 32.7379 39.6354L34.2 41ZM35.6 35.9H37.6V27.6H35.6H33.6V35.9H35.6ZM35.6 27.6H37.6C37.6 25.0431 37.1224 22.6999 35.6621 21.1354L34.2 22.5L32.7379 23.8646C33.1443 24.3001 33.6 25.3569 33.6 27.6H35.6ZM34.2 22.5L35.7114 21.1901C34.3415 19.6095 32.3607 19 30.2 19V21V23C31.6393 23 32.3252 23.3905 32.6886 23.8099L34.2 22.5ZM30.2 21V19H25V21V23H30.2V21ZM25 21H23V42.5H25H27V21H25ZM25 42.5V44.5H30.2V42.5V40.5H25V42.5ZM52.5742 11V9H50.5742V11H52.5742ZM81.2742 15L79.8422 16.3962L79.8511 16.4053L79.86 16.4142L81.2742 15ZM77.9742 45.2L77.227 43.3448L75.9742 43.8494V45.2H77.9742ZM77.9742 45.4H75.9742V46.8881L77.3996 47.3157L77.9742 45.4ZM83.5742 50.3L81.7385 51.0938L81.7475 51.1145L81.7569 51.135L83.5742 50.3ZM85.4742 77.4L83.4852 77.6094L83.4865 77.6209L85.4742 77.4ZM86.4742 81V83H89.5518L88.3019 80.1877L86.4742 81ZM75.2742 81L73.3883 81.6656L73.8592 83H75.2742V81ZM72.6742 52.9L71.1045 54.1393L71.1241 54.1641L71.1444 54.1883L72.6742 52.9ZM63.5742 51V49H61.5742V51H63.5742ZM63.5742 81V83H65.5742V81H63.5742ZM52.5742 81H50.5742V83H52.5742V81ZM72.4742 39.3L71.06 37.8858L71.0386 37.9072L71.0178 37.9293L72.4742 39.3ZM72.7742 22.7L71.1855 23.9149L71.2074 23.9436L71.2304 23.9714L72.7742 22.7ZM63.5742 21V19H61.5742V21H63.5742ZM63.5742 41H61.5742V43H63.5742V41ZM52.5742 11V13H68.8742V11V9H52.5742V11ZM68.8742 11V13C74.2791 13 77.7761 14.277 79.8422 16.3962L81.2742 15L82.7062 13.6038C79.5724 10.3896 74.8027 9 68.8742 9V11ZM81.2742 15L79.86 16.4142C81.9361 18.4903 83.1742 21.9077 83.1742 27.1H85.1742H87.1742C87.1742 21.3589 85.8123 16.7097 82.6885 13.5858L81.2742 15ZM85.1742 27.1H83.1742V31.4H85.1742H87.1742V27.1H85.1742ZM85.1742 31.4H83.1742C83.1742 34.8328 82.6045 37.4517 81.6011 39.3749C80.6208 41.2538 79.1839 42.5566 77.227 43.3448L77.9742 45.2L78.7215 47.0552C81.5646 45.91 83.7277 43.9462 85.1474 41.2251C86.544 38.5483 87.1742 35.2339 87.1742 31.4H85.1742ZM77.9742 45.2H75.9742V45.4H77.9742H79.9742V45.2H77.9742ZM77.9742 45.4L77.3996 47.3157C79.5243 47.9531 80.9156 49.1908 81.7385 51.0938L83.5742 50.3L85.41 49.5062C84.0995 46.4758 81.7575 44.4469 78.5489 43.4843L77.9742 45.4ZM83.5742 50.3L81.7569 51.135C82.7236 53.2391 83.2742 56.2185 83.2742 60.2H85.2742H87.2742C87.2742 55.9148 86.6915 52.2943 85.3916 49.465L83.5742 50.3ZM85.2742 60.2H83.2742V72.5H85.2742H87.2742V60.2H85.2742ZM85.2742 72.5H83.2742C83.2742 74.5354 83.3417 76.2457 83.4852 77.6094L85.4742 77.4L87.4633 77.1906C87.3401 76.021 87.2742 74.4646 87.2742 72.5H85.2742ZM85.4742 77.4L83.4865 77.6209C83.6444 79.0421 84.0371 80.4409 84.6466 81.8123L86.4742 81L88.3019 80.1877C87.8447 79.1591 87.5708 78.1579 87.462 77.1791L85.4742 77.4ZM86.4742 81V79H75.2742V81V83H86.4742V81ZM75.2742 81L77.1602 80.3344C76.7977 79.3072 76.5687 78.3759 76.4567 77.5357L74.4742 77.8L72.4918 78.0643C72.6464 79.2241 72.9508 80.4261 73.3883 81.6656L75.2742 81ZM74.4742 77.8L76.4567 77.5357C76.3431 76.6837 76.2742 75.007 76.2742 72.4H74.2742H72.2742C72.2742 74.993 72.3387 76.9163 72.4918 78.0643L74.4742 77.8ZM74.2742 72.4H76.2742V59.6H74.2742H72.2742V72.4H74.2742ZM74.2742 59.6H76.2742C76.2742 56.3077 75.7518 53.4496 74.2041 51.6117L72.6742 52.9L71.1444 54.1883C71.73 54.8837 72.2742 56.4923 72.2742 59.6H74.2742ZM72.6742 52.9L74.244 51.6607C72.6903 49.6926 70.1681 49 67.3742 49V51V53C69.647 53 70.6582 53.574 71.1045 54.1393L72.6742 52.9ZM67.3742 51V49H63.5742V51V53H67.3742V51ZM63.5742 51H61.5742V81H63.5742H65.5742V51H63.5742ZM63.5742 81V79H52.5742V81V83H63.5742V81ZM52.5742 81H54.5742V11H52.5742H50.5742V81H52.5742ZM67.5742 41V43C70.0929 43 72.3516 42.3485 73.9306 40.6707L72.4742 39.3L71.0178 37.9293C70.4636 38.5182 69.4556 39 67.5742 39V41ZM72.4742 39.3L73.8885 40.7142C75.5804 39.0223 76.1742 36.4639 76.1742 33.6H74.1742H72.1742C72.1742 36.0694 71.6348 37.311 71.06 37.8858L72.4742 39.3ZM74.1742 33.6H76.1742V28.2H74.1742H72.1742V33.6H74.1742ZM74.1742 28.2H76.1742C76.1742 25.5079 75.6948 23.1003 74.3181 21.4286L72.7742 22.7L71.2304 23.9714C71.7203 24.5664 72.1742 25.8254 72.1742 28.2H74.1742ZM72.7742 22.7L74.363 21.4851C72.9937 19.6946 70.8929 19 68.5742 19V21V23C70.1223 23 70.8214 23.4387 71.1855 23.9149L72.7742 22.7ZM68.5742 21V19H63.5742V21V23H68.5742V21ZM63.5742 21H61.5742V41H63.5742H65.5742V21H63.5742ZM63.5742 41V43H67.5742V41V39H63.5742V41ZM96.4063 77.4L97.8673 76.0342L96.4063 77.4ZM96.4063 14.6L97.8673 15.9658L96.4063 14.6ZM121.206 14.6L119.745 15.9658V15.9658L121.206 14.6ZM121.206 77.4L119.745 76.0342L121.206 77.4ZM108.806 82V80C103.792 80 100.255 78.5882 97.8673 76.0342L96.4063 77.4L94.9452 78.7658C98.2911 82.3451 103.02 84 108.806 84V82ZM96.4063 77.4L97.8673 76.0342C95.4494 73.4477 94.1063 69.6661 94.1063 64.4H92.1063H90.1063C90.1063 70.3339 91.6298 75.219 94.9452 78.7658L96.4063 77.4ZM92.1063 64.4H94.1063V27.6H92.1063H90.1063V64.4H92.1063ZM92.1063 27.6H94.1063C94.1063 22.3339 95.4494 18.5523 97.8673 15.9658L96.4063 14.6L94.9452 13.2342C91.6298 16.781 90.1063 21.6661 90.1063 27.6H92.1063ZM96.4063 14.6L97.8673 15.9658C100.255 13.4118 103.792 12 108.806 12V10V8C103.02 8 98.2911 9.6549 94.9452 13.2342L96.4063 14.6ZM108.806 10V12C113.82 12 117.358 13.4118 119.745 15.9658L121.206 14.6L122.667 13.2342C119.321 9.6549 114.592 8 108.806 8V10ZM121.206 14.6L119.745 15.9658C122.163 18.5523 123.506 22.3339 123.506 27.6H125.506H127.506C127.506 21.6661 125.983 16.781 122.667 13.2342L121.206 14.6ZM125.506 27.6H123.506V64.4H125.506H127.506V27.6H125.506ZM125.506 64.4H123.506C123.506 69.6661 122.163 73.4477 119.745 76.0342L121.206 77.4L122.667 78.7658C125.983 75.219 127.506 70.3339 127.506 64.4H125.506ZM121.206 77.4L119.745 76.0342C117.358 78.5882 113.82 80 108.806 80V82V84C114.592 84 119.321 82.3451 122.667 78.7658L121.206 77.4ZM108.806 72V74C111.126 74 113.193 73.2796 114.623 71.5488C115.993 69.8911 116.506 67.6252 116.506 65.1H114.506H112.506C112.506 67.1748 112.07 68.3589 111.539 69.0012C111.069 69.5704 110.287 70 108.806 70V72ZM114.506 65.1H116.506V26.9H114.506H112.506V65.1H114.506ZM114.506 26.9H116.506C116.506 24.3748 115.993 22.1089 114.623 20.4512C113.193 18.7204 111.126 18 108.806 18V20V22C110.287 22 111.069 22.4296 111.539 22.9988C112.07 23.6411 112.506 24.8252 112.506 26.9H114.506ZM108.806 20V18C106.487 18 104.419 18.7204 102.989 20.4512C101.62 22.1089 101.106 24.3748 101.106 26.9H103.106H105.106C105.106 24.8252 105.543 23.6411 106.073 22.9988C106.543 22.4296 107.326 22 108.806 22V20ZM103.106 26.9H101.106V65.1H103.106H105.106V26.9H103.106ZM103.106 65.1H101.106C101.106 67.6252 101.62 69.8911 102.989 71.5488C104.419 73.2796 106.487 74 108.806 74V72V70C107.326 70 106.543 69.5704 106.073 69.0012C105.543 68.3589 105.106 67.1748 105.106 65.1H103.106ZM132.945 11V9H130.945V11H132.945ZM162.045 15.4L160.582 16.7634V16.7635L162.045 15.4ZM162.045 76.6L163.509 77.9634L162.045 76.6ZM132.945 81H130.945V83H132.945V81ZM153.645 69.4L152.186 68.0321L152.163 68.0572L152.14 68.083L153.645 69.4ZM153.645 22.6L152.14 23.917L152.163 23.9428L152.186 23.9679L153.645 22.6ZM143.945 21V19H141.945V21H143.945ZM143.945 71H141.945V73H143.945V71ZM132.945 11V13H149.745V11V9H132.945V11ZM149.745 11V13C154.866 13 158.349 14.3672 160.582 16.7634L162.045 15.4L163.509 14.0365C160.275 10.5661 155.558 9 149.745 9V11ZM162.045 15.4L160.582 16.7635C162.85 19.1976 164.145 22.9301 164.145 28.3H166.145H168.145C168.145 22.3366 166.707 17.4691 163.509 14.0365L162.045 15.4ZM166.145 28.3H164.145V63.7H166.145H168.145V28.3H166.145ZM166.145 63.7H164.145C164.145 69.0699 162.85 72.8024 160.582 75.2365L162.045 76.6L163.509 77.9634C166.707 74.5309 168.145 69.6634 168.145 63.7H166.145ZM162.045 76.6L160.582 75.2365C158.349 77.6328 154.866 79 149.745 79V81V83C155.558 83 160.275 81.4339 163.509 77.9634L162.045 76.6ZM149.745 81V79H132.945V81V83H149.745V81ZM132.945 81H134.945V11H132.945H130.945V81H132.945ZM149.545 71V73C151.755 73 153.74 72.3294 155.15 70.717L153.645 69.4L152.14 68.083C151.684 68.6039 150.936 69 149.545 69V71ZM153.645 69.4L155.104 70.7679C156.617 69.1548 157.145 66.8008 157.145 64.2H155.145H153.145C153.145 66.3992 152.674 67.5119 152.186 68.0321L153.645 69.4ZM155.145 64.2H157.145V27.8H155.145H153.145V64.2H155.145ZM155.145 27.8H157.145C157.145 25.1992 156.617 22.8452 155.104 21.2321L153.645 22.6L152.186 23.9679C152.674 24.4881 153.145 25.6008 153.145 27.8H155.145ZM153.645 22.6L155.15 21.283C153.74 19.6706 151.755 19 149.545 19V21V23C150.936 23 151.684 23.3961 152.14 23.917L153.645 22.6ZM149.545 21V19H143.945V21V23H149.545V21ZM143.945 21H141.945V71H143.945H145.945V21H143.945ZM143.945 71V73H149.545V71V69H143.945V71ZM177.37 77.5L175.893 78.8485L175.901 78.8566L175.908 78.8646L177.37 77.5ZM173.17 11V9H171.17V11H173.17ZM184.17 11H186.17V9H184.17V11ZM185.57 70.4L184.065 71.717L184.088 71.7428L184.111 71.7679L185.57 70.4ZM193.87 70.4L192.411 69.0321L192.388 69.0572L192.365 69.083L193.87 70.4ZM195.37 11V9H193.37V11H195.37ZM205.97 11H207.97V9H205.97V11ZM201.77 77.5L203.232 78.8646L203.24 78.8566L203.247 78.8485L201.77 77.5ZM189.57 82V80C184.616 80 181.149 78.6178 178.832 76.1354L177.37 77.5L175.908 78.8646C179.191 82.3822 183.858 84 189.57 84V82ZM177.37 77.5L178.847 76.1515C176.49 73.5697 175.17 69.7515 175.17 64.4H173.17H171.17C171.17 70.3818 172.651 75.297 175.893 78.8485L177.37 77.5ZM173.17 64.4H175.17V11H173.17H171.17V64.4H173.17ZM173.17 11V13H184.17V11V9H173.17V11ZM184.17 11H182.17V65.2H184.17H186.17V11H184.17ZM184.17 65.2H182.17C182.17 67.775 182.655 70.1059 184.065 71.717L185.57 70.4L187.075 69.083C186.619 68.5608 186.17 67.425 186.17 65.2H184.17ZM185.57 70.4L184.111 71.7679C185.574 73.328 187.555 74 189.77 74V72V70C188.386 70 187.567 69.6054 187.029 69.0321L185.57 70.4ZM189.77 72V74C191.98 74 193.965 73.3294 195.375 71.717L193.87 70.4L192.365 69.083C191.909 69.6039 191.161 70 189.77 70V72ZM193.87 70.4L195.329 71.7679C196.842 70.1548 197.37 67.8008 197.37 65.2H195.37H193.37C193.37 67.3992 192.899 68.5119 192.411 69.0321L193.87 70.4ZM195.37 65.2H197.37V11H195.37H193.37V65.2H195.37ZM195.37 11V13H205.97V11V9H195.37V11ZM205.97 11H203.97V64.4H205.97H207.97V11H205.97ZM205.97 64.4H203.97C203.97 69.7515 202.651 73.5697 200.293 76.1515L201.77 77.5L203.247 78.8485C206.49 75.297 207.97 70.3818 207.97 64.4H205.97ZM201.77 77.5L200.308 76.1354C197.991 78.6178 194.524 80 189.57 80V82V84C195.283 84 199.949 82.3822 203.232 78.8646L201.77 77.5ZM217.205 77.5L215.726 78.847L215.734 78.8559L215.743 78.8646L217.205 77.5ZM217.205 14.5L215.743 13.1354L215.734 13.1441L215.726 13.153L217.205 14.5ZM241.305 14.5L239.826 15.847L239.834 15.8559L239.843 15.8646L241.305 14.5ZM245.505 34.6V36.6H247.505V34.6H245.505ZM235.105 34.6H233.105V36.6H235.105V34.6ZM235.105 54.9V52.9H233.105V54.9H235.105ZM245.505 54.9H247.505V52.9H245.505V54.9ZM241.305 77.5L239.843 76.1354L239.834 76.1441L239.826 76.153L241.305 77.5ZM229.305 82V80C224.426 80 220.988 78.6227 218.667 76.1354L217.205 77.5L215.743 78.8646C219.021 82.3773 223.65 84 229.305 84V82ZM217.205 77.5L218.683 76.153C216.387 73.6333 215.105 69.9439 215.105 64.8H213.105H211.105C211.105 70.5894 212.555 75.3667 215.726 78.847L217.205 77.5ZM213.105 64.8H215.105V27.2H213.105H211.105V64.8H213.105ZM213.105 27.2H215.105C215.105 22.0561 216.387 18.3667 218.683 15.847L217.205 14.5L215.726 13.153C212.555 16.6333 211.105 21.4106 211.105 27.2H213.105ZM217.205 14.5L218.667 15.8646C220.988 13.3773 224.426 12 229.305 12V10V8C223.65 8 219.021 9.62271 215.743 13.1354L217.205 14.5ZM229.305 10V12C234.186 12 237.577 13.3781 239.826 15.847L241.305 14.5L242.783 13.153C239.566 9.6219 234.957 8 229.305 8V10ZM241.305 14.5L239.843 15.8646C242.195 18.3852 243.505 22.0678 243.505 27.2H245.505H247.505C247.505 21.3988 246.014 16.6148 242.767 13.1354L241.305 14.5ZM245.505 27.2H243.505V34.6H245.505H247.505V27.2H245.505ZM245.505 34.6V32.6H235.105V34.6V36.6H245.505V34.6ZM235.105 34.6H237.105V26.5H235.105H233.105V34.6H235.105ZM235.105 26.5H237.105C237.105 24.099 236.604 21.9255 235.256 20.3331C233.855 18.6768 231.842 18 229.605 18V20V22C231.034 22 231.771 22.4065 232.203 22.9169C232.689 23.4912 233.105 24.5676 233.105 26.5H235.105ZM229.605 20V18C227.367 18 225.354 18.6768 223.953 20.3331C222.606 21.9255 222.105 24.099 222.105 26.5H224.105H226.105C226.105 24.5676 226.521 23.4912 227.006 22.9169C227.438 22.4065 228.175 22 229.605 22V20ZM224.105 26.5H222.105V65.6H224.105H226.105V26.5H224.105ZM224.105 65.6H222.105C222.105 67.9737 222.608 70.1272 223.963 71.7035C225.367 73.3379 227.377 74 229.605 74V72V70C228.165 70 227.425 69.5955 226.997 69.0965C226.518 68.5395 226.105 67.493 226.105 65.6H224.105ZM229.605 72V74C231.832 74 233.842 73.3379 235.247 71.7035C236.601 70.1272 237.105 67.9737 237.105 65.6H235.105H233.105C233.105 67.493 232.692 68.5395 232.213 69.0965C231.784 69.5955 231.044 70 229.605 70V72ZM235.105 65.6H237.105V54.9H235.105H233.105V65.6H235.105ZM235.105 54.9V56.9H245.505V54.9V52.9H235.105V54.9ZM245.505 54.9H243.505V64.8H245.505H247.505V54.9H245.505ZM245.505 64.8H243.505C243.505 69.9322 242.195 73.6148 239.843 76.1354L241.305 77.5L242.767 78.8646C246.014 75.3852 247.505 70.6012 247.505 64.8H245.505ZM241.305 77.5L239.826 76.153C237.577 78.6219 234.186 80 229.305 80V82V84C234.957 84 239.566 82.3781 242.783 78.847L241.305 77.5ZM260.686 21H262.686V19H260.686V21ZM249.186 21H247.186V23H249.186V21ZM249.186 11V9H247.186V11H249.186ZM283.186 11H285.186V9H283.186V11ZM283.186 21V23H285.186V21H283.186ZM271.686 21V19H269.686V21H271.686ZM271.686 81V83H273.686V81H271.686ZM260.686 81H258.686V83H260.686V81ZM260.686 21V19H249.186V21V23H260.686V21ZM249.186 21H251.186V11H249.186H247.186V21H249.186ZM249.186 11V13H283.186V11V9H249.186V11ZM283.186 11H281.186V21H283.186H285.186V11H283.186ZM283.186 21V19H271.686V21V23H283.186V21ZM271.686 21H269.686V81H271.686H273.686V21H271.686ZM271.686 81V79H260.686V81V83H271.686V81ZM260.686 81H262.686V21H260.686H258.686V81H260.686ZM304.527 11V9H302.527V11H304.527ZM333.627 15.4L332.164 16.7634V16.7635L333.627 15.4ZM333.627 76.6L335.091 77.9634L333.627 76.6ZM304.527 81H302.527V83H304.527V81ZM325.227 69.4L323.768 68.0321L323.745 68.0572L323.722 68.083L325.227 69.4ZM325.227 22.6L323.722 23.917L323.745 23.9428L323.768 23.9679L325.227 22.6ZM315.527 21V19H313.527V21H315.527ZM315.527 71H313.527V73H315.527V71ZM304.527 11V13H321.327V11V9H304.527V11ZM321.327 11V13C326.448 13 329.931 14.3672 332.164 16.7634L333.627 15.4L335.091 14.0365C331.857 10.5661 327.14 9 321.327 9V11ZM333.627 15.4L332.164 16.7635C334.432 19.1976 335.727 22.9301 335.727 28.3H337.727H339.727C339.727 22.3366 338.289 17.4691 335.091 14.0365L333.627 15.4ZM337.727 28.3H335.727V63.7H337.727H339.727V28.3H337.727ZM337.727 63.7H335.727C335.727 69.0699 334.432 72.8024 332.164 75.2365L333.627 76.6L335.091 77.9634C338.289 74.5309 339.727 69.6634 339.727 63.7H337.727ZM333.627 76.6L332.164 75.2365C329.931 77.6328 326.448 79 321.327 79V81V83C327.14 83 331.857 81.4339 335.091 77.9634L333.627 76.6ZM321.327 81V79H304.527V81V83H321.327V81ZM304.527 81H306.527V11H304.527H302.527V81H304.527ZM321.127 71V73C323.337 73 325.322 72.3294 326.733 70.717L325.227 69.4L323.722 68.083C323.266 68.6039 322.518 69 321.127 69V71ZM325.227 69.4L326.686 70.7679C328.199 69.1548 328.727 66.8008 328.727 64.2H326.727H324.727C324.727 66.3992 324.256 67.5119 323.768 68.0321L325.227 69.4ZM326.727 64.2H328.727V27.8H326.727H324.727V64.2H326.727ZM326.727 27.8H328.727C328.727 25.1992 328.199 22.8452 326.686 21.2321L325.227 22.6L323.768 23.9679C324.256 24.4881 324.727 25.6008 324.727 27.8H326.727ZM325.227 22.6L326.733 21.283C325.322 19.6706 323.337 19 321.127 19V21V23C322.518 23 323.266 23.3961 323.722 23.917L325.227 22.6ZM321.127 21V19H315.527V21V23H321.127V21ZM315.527 21H313.527V71H315.527H317.527V21H315.527ZM315.527 71V73H321.127V71V69H315.527V71ZM345.152 11V9H343.152V11H345.152ZM375.152 11H377.152V9H375.152V11ZM375.152 21V23H377.152V21H375.152ZM356.152 21V19H354.152V21H356.152ZM356.152 39.5H354.152V41.5H356.152V39.5ZM371.252 39.5H373.252V37.5H371.252V39.5ZM371.252 49.5V51.5H373.252V49.5H371.252ZM356.152 49.5V47.5H354.152V49.5H356.152ZM356.152 71H354.152V73H356.152V71ZM375.152 71H377.152V69H375.152V71ZM375.152 81V83H377.152V81H375.152ZM345.152 81H343.152V83H345.152V81ZM345.152 11V13H375.152V11V9H345.152V11ZM375.152 11H373.152V21H375.152H377.152V11H375.152ZM375.152 21V19H356.152V21V23H375.152V21ZM356.152 21H354.152V39.5H356.152H358.152V21H356.152ZM356.152 39.5V41.5H371.252V39.5V37.5H356.152V39.5ZM371.252 39.5H369.252V49.5H371.252H373.252V39.5H371.252ZM371.252 49.5V47.5H356.152V49.5V51.5H371.252V49.5ZM356.152 49.5H354.152V71H356.152H358.152V49.5H356.152ZM356.152 71V73H375.152V71V69H356.152V71ZM375.152 71H373.152V81H375.152H377.152V71H375.152ZM375.152 81V79H345.152V81V83H375.152V81ZM345.152 81H347.152V11H345.152H343.152V81H345.152ZM390.081 21H392.081V19H390.081V21ZM378.581 21H376.581V23H378.581V21ZM378.581 11V9H376.581V11H378.581ZM412.581 11H414.581V9H412.581V11ZM412.581 21V23H414.581V21H412.581ZM401.081 21V19H399.081V21H401.081ZM401.081 81V83H403.081V81H401.081ZM390.081 81H388.081V83H390.081V81ZM390.081 21V19H378.581V21V23H390.081V21ZM378.581 21H380.581V11H378.581H376.581V21H378.581ZM378.581 11V13H412.581V11V9H378.581V11ZM412.581 11H410.581V21H412.581H414.581V11H412.581ZM412.581 21V19H401.081V21V23H412.581V21ZM401.081 21H399.081V81H401.081H403.081V21H401.081ZM401.081 81V79H390.081V81V83H401.081V81ZM390.081 81H392.081V21H390.081H388.081V81H390.081ZM421.816 11V9H420.116L419.842 10.6785L421.816 11ZM436.716 11L438.69 10.6785L438.417 9H436.716V11ZM448.116 81V83H450.469L450.09 80.6785L448.116 81ZM437.116 81L435.137 81.2848L435.384 83H437.116V81ZM435.116 67.1L437.096 66.8152L433.116 67.1H435.116ZM435.116 67.3V69.3H437.116V67.3H435.116ZM422.616 67.3V65.3H420.887L420.637 67.0111L422.616 67.3ZM420.616 81V83H422.346L422.595 81.2889L420.616 81ZM410.416 81L408.442 80.6785L408.064 83H410.416V81ZM433.816 57.8V59.8H436.12L435.797 57.5196L433.816 57.8ZM428.916 23.2L430.897 22.9196L430.653 21.2H428.916V23.2ZM428.716 23.2V21.2H426.975L426.735 22.9252L428.716 23.2ZM423.916 57.8L421.935 57.5252L421.62 59.8H423.916V57.8ZM421.816 11V13H436.716V11V9H421.816V11ZM436.716 11L434.742 11.3215L446.142 81.3215L448.116 81L450.09 80.6785L438.69 10.6785L436.716 11ZM448.116 81V79H437.116V81V83H448.116V81ZM437.116 81L439.096 80.7152L437.096 66.8152L435.116 67.1L433.137 67.3848L435.137 81.2848L437.116 81ZM435.116 67.1H433.116V67.3H435.116H437.116V67.1H435.116ZM435.116 67.3V65.3H422.616V67.3V69.3H435.116V67.3ZM422.616 67.3L420.637 67.0111L418.637 80.7111L420.616 81L422.595 81.2889L424.595 67.5889L422.616 67.3ZM420.616 81V79H410.416V81V83H420.616V81ZM410.416 81L412.39 81.3215L423.79 11.3215L421.816 11L419.842 10.6785L408.442 80.6785L410.416 81ZM433.816 57.8L435.797 57.5196L430.897 22.9196L428.916 23.2L426.936 23.4804L431.836 58.0804L433.816 57.8ZM428.916 23.2V21.2H428.716V23.2V25.2H428.916V23.2ZM428.716 23.2L426.735 22.9252L421.935 57.5252L423.916 57.8L425.897 58.0748L430.697 23.4748L428.716 23.2ZM423.916 57.8V59.8H433.816V57.8V55.8H423.916V57.8ZM453.453 11V9H451.453V11H453.453ZM464.453 11H466.453V9H464.453V11ZM464.453 81V83H466.453V81H464.453ZM453.453 81H451.453V83H453.453V81ZM453.453 11V13H464.453V11V9H453.453V11ZM464.453 11H462.453V81H464.453H466.453V11H464.453ZM464.453 81V79H453.453V81V83H464.453V81ZM453.453 81H455.453V11H453.453H451.453V81H453.453ZM472.691 11V9H470.691V11H472.691ZM483.691 11H485.691V9H483.691V11ZM483.691 71H481.691V73H483.691V71ZM501.791 71H503.791V69H501.791V71ZM501.791 81V83H503.791V81H501.791ZM472.691 81H470.691V83H472.691V81ZM472.691 11V13H483.691V11V9H472.691V11ZM483.691 11H481.691V71H483.691H485.691V11H483.691ZM483.691 71V73H501.791V71V69H483.691V71ZM501.791 71H499.791V81H501.791H503.791V71H501.791ZM501.791 81V79H472.691V81V83H501.791V81ZM472.691 81H474.691V11H472.691H470.691V81H472.691ZM509.266 77.5L507.773 78.8307L507.781 78.8389L507.788 78.847L509.266 77.5ZM505.166 60.4V58.4H503.166V60.4H505.166ZM515.566 60.4H517.566V58.4H515.566V60.4ZM525.466 70.4L523.967 69.0767L523.961 69.083L525.466 70.4ZM524.966 57.3L523.243 58.314L523.249 58.3254L523.256 58.3366L524.966 57.3ZM517.566 49.2L516.243 50.6997L516.253 50.7086L517.566 49.2ZM508.066 38.4L506.315 39.3652L506.319 39.3729L506.323 39.3805L508.066 38.4ZM509.566 14.6L511.029 15.9646L511.036 15.9566L511.043 15.9485L509.566 14.6ZM533.666 14.6L532.157 15.9124L532.172 15.9298L532.188 15.947L533.666 14.6ZM537.766 30.5V32.5H539.766V30.5H537.766ZM527.366 30.5H525.366V32.5H527.366V30.5ZM525.966 21.7L524.423 22.9714L524.442 22.9945L524.461 23.017L525.966 21.7ZM518.366 33.8L516.656 34.8366L516.667 34.8553L516.679 34.8737L518.366 33.8ZM525.866 41.8L524.553 43.3086L524.554 43.3092L525.866 41.8ZM535.366 52.7L533.6 53.6374L535.366 52.7ZM533.666 77.4L532.205 76.0342L532.197 76.0428L532.189 76.0515L533.666 77.4ZM521.366 82V80C516.41 80 512.99 78.6168 510.745 76.153L509.266 77.5L507.788 78.847C511.01 82.3832 515.657 84 521.366 84V82ZM509.266 77.5L510.759 76.1693C508.459 73.5878 507.166 69.7627 507.166 64.4H505.166H503.166C503.166 70.3706 504.608 75.2788 507.773 78.8307L509.266 77.5ZM505.166 64.4H507.166V60.4H505.166H503.166V64.4H505.166ZM505.166 60.4V62.4H515.566V60.4V58.4H505.166V60.4ZM515.566 60.4H513.566V65.2H515.566H517.566V60.4H515.566ZM515.566 65.2H513.566C513.566 67.6974 514.082 69.9429 515.459 71.5848C516.892 73.2943 518.956 74 521.266 74V72V70C519.776 70 518.991 69.5724 518.524 69.0152C518 68.3904 517.566 67.236 517.566 65.2H515.566ZM521.266 72V74C523.516 74 525.547 73.3449 526.972 71.717L525.466 70.4L523.961 69.083C523.519 69.5884 522.75 70 521.266 70V72ZM525.466 70.4L526.966 71.7232C528.439 70.0544 528.966 67.6653 528.966 65H526.966H524.966C524.966 67.268 524.494 68.479 523.967 69.0768L525.466 70.4ZM526.966 65H528.966C528.966 61.7535 528.225 58.8179 526.677 56.2634L524.966 57.3L523.256 58.3366C524.375 60.1821 524.966 62.3798 524.966 65H526.966ZM524.966 57.3L526.69 56.286C525.192 53.7396 522.532 50.8707 518.879 47.6914L517.566 49.2L516.253 50.7086C519.801 53.7959 522.074 56.3271 523.243 58.314L524.966 57.3ZM517.566 49.2L518.89 47.7003C514.43 43.7656 511.452 40.3386 509.81 37.4195L508.066 38.4L506.323 39.3805C508.281 42.8614 511.636 46.6344 516.243 50.6997L517.566 49.2ZM508.066 38.4L509.818 37.4348C508.195 34.49 507.366 31.1604 507.366 27.4H505.366H503.366C503.366 31.7729 504.337 35.7767 506.315 39.3652L508.066 38.4ZM505.366 27.4H507.366C507.366 22.1935 508.68 18.481 511.029 15.9646L509.566 14.6L508.104 13.2354C504.853 16.719 503.366 21.5398 503.366 27.4H505.366ZM509.566 14.6L511.043 15.9485C513.363 13.4075 516.825 12 521.766 12V10V8C516.041 8 511.369 9.65912 508.089 13.2515L509.566 14.6ZM521.766 10V12C526.637 12 529.976 13.4038 532.157 15.9124L533.666 14.6L535.176 13.2876C532.024 9.66285 527.429 8 521.766 8V10ZM533.666 14.6L532.188 15.947C534.473 18.4547 535.766 22.2338 535.766 27.6H537.766H539.766C539.766 21.6329 538.327 16.7453 535.145 13.253L533.666 14.6ZM537.766 27.6H535.766V30.5H537.766H539.766V27.6H537.766ZM537.766 30.5V28.5H527.366V30.5V32.5H537.766V30.5ZM527.366 30.5H529.366V26.9H527.366H525.366V30.5H527.366ZM527.366 26.9H529.366C529.366 24.325 528.881 21.9941 527.472 20.383L525.966 21.7L524.461 23.017C524.918 23.5392 525.366 24.675 525.366 26.9H527.366ZM525.966 21.7L527.51 20.4286C526.112 18.7305 524.116 18 521.866 18V20V22C523.217 22 523.954 22.4028 524.423 22.9714L525.966 21.7ZM521.866 20V18C519.609 18 517.591 18.7065 516.196 20.406C514.862 22.0299 514.366 24.2438 514.366 26.7H516.366H518.366C518.366 24.6896 518.787 23.5534 519.287 22.944C519.725 22.4102 520.457 22 521.866 22V20ZM516.366 26.7H514.366C514.366 29.6047 515.136 32.3291 516.656 34.8366L518.366 33.8L520.077 32.7634C518.93 30.8709 518.366 28.8619 518.366 26.7H516.366ZM518.366 33.8L516.679 34.8737C518.235 37.3183 520.907 40.1352 524.553 43.3086L525.866 41.8L527.18 40.2914C523.625 37.1981 521.298 34.6817 520.054 32.7262L518.366 33.8ZM525.866 41.8L524.554 43.3092C529.073 47.2388 532.032 50.6831 533.6 53.6374L535.366 52.7L537.133 51.7626C535.234 48.1835 531.86 44.3612 527.179 40.2908L525.866 41.8ZM535.366 52.7L533.6 53.6374C535.153 56.5653 535.966 60.065 535.966 64.2H537.966H539.966C539.966 59.535 539.046 55.368 537.133 51.7626L535.366 52.7ZM537.966 64.2H535.966C535.966 69.6143 534.616 73.4557 532.205 76.0342L533.666 77.4L535.128 78.7658C538.45 75.211 539.966 70.2524 539.966 64.2H537.966ZM533.666 77.4L532.189 76.0515C529.874 78.5874 526.383 80 521.366 80V82V84C527.15 84 531.859 82.3459 535.143 78.7485L533.666 77.4Z" fill="#666666" mask="url(#path-1-outside-1_33_884)"/>
</g>
<defs>
<filter id="filter0_d_33_884" x="0" y="0" width="551.966" height="100" filterUnits="userSpaceOnUse" color-interpolation-filters="sRGB">
<feFlood flood-opacity="0" result="BackgroundImageFix"/>
<feColorMatrix in="SourceAlpha" type="matrix" values="0 0 0 0 0 0 0 0 0 0 0 0 0 0 0 0 0 0 127 0" result="hardAlpha"/>
<feOffset dy="4"/>
<feGaussianBlur stdDeviation="6"/>
<feComposite in2="hardAlpha" operator="out"/>
<feColorMatrix type="matrix" values="0 0 0 0 0 0 0 0 0 0 0 0 0 0 0 0 0 0 0.5 0"/>
<feBlend mode="normal" in2="BackgroundImageFix" result="effect1_dropShadow_33_884"/>
<feBlend mode="normal" in="SourceGraphic" in2="effect1_dropShadow_33_884" result="shape"/>
</filter>
</defs>
</svg>
