<svg width="152" height="690" viewBox="0 0 152 690" fill="none" xmlns="http://www.w3.org/2000/svg">
<mask id="path-1-outside-1_33_711" maskUnits="userSpaceOnUse" x="27" y="3.5" width="113" height="685" fill="black">
<rect fill="white" x="27" y="3.5" width="113" height="685"/>
<path d="M136 5.65V30.1C136 38.6 134 44.8 130 48.7C126.1 52.6 120.05 54.55 111.85 54.55H105.4C94.5 54.55 87.6 50.95 84.7 43.75H84.4C83.2 47.75 80.75 50.55 77.05 52.15C73.35 53.85 68.4 54.7 62.2 54.7H43.75C40.75 54.7 38.3 54.8 36.4 55C34.6 55.2 32.8 55.7 31 56.5V39.7C32.7 39.1 34.3 38.7 35.8 38.5C37.3 38.3 40 38.2 43.9 38.2H63.1C67.9 38.2 71.25 37.4 73.15 35.8C75.05 34.3 76 31.65 76 27.85V22.15H31V5.65H136ZM91 28.15C91 31.45 91.85 33.9 93.55 35.5C95.25 37.2 98.1 38.05 102.1 38.05H110.2C114 38.05 116.75 37.35 118.45 35.95C120.15 34.65 121 32.55 121 29.65V22.15H91V28.15ZM136 66.148V111.148H121V82.648H93.25V105.298H78.25V82.648H46V111.148H31V66.148H136ZM29.5 144.04C29.5 136.04 31.75 129.94 36.25 125.74C40.85 121.54 47.4 119.44 55.9 119.44H111.1C119.6 119.44 126.1 121.54 130.6 125.74C135.2 129.94 137.5 136.04 137.5 144.04C137.5 152.04 135.2 158.14 130.6 162.34C126.1 166.54 119.6 168.64 111.1 168.64H102.1V153.04H112.15C119.05 153.04 122.5 150.19 122.5 144.49C122.5 138.79 119.05 135.94 112.15 135.94H54.7C47.9 135.94 44.5 138.79 44.5 144.49C44.5 150.19 47.9 153.04 54.7 153.04H75.25V144.79H90.25V168.64H55.9C47.4 168.64 40.85 166.54 36.25 162.34C31.75 158.14 29.5 152.04 29.5 144.04ZM136 179.234V195.734H31V179.234H136ZM29.5 229.541C29.5 221.541 31.75 215.491 36.25 211.391C40.85 207.291 47.4 205.241 55.9 205.241H61.9V220.841H54.7C47.9 220.841 44.5 223.691 44.5 229.391C44.5 232.191 45.3 234.291 46.9 235.691C48.6 237.191 51.3 237.941 55 237.941C59.4 237.941 63.25 236.941 66.55 234.941C69.95 232.941 74 229.241 78.7 223.841C84.7 217.041 90.1 212.291 94.9 209.591C99.8 206.891 105.3 205.541 111.4 205.541C119.7 205.541 126.1 207.641 130.6 211.841C135.2 216.041 137.5 222.141 137.5 230.141C137.5 238.041 135.2 243.991 130.6 247.991C126.1 252.091 119.6 254.141 111.1 254.141H106.75V238.541H112.15C115.75 238.541 118.35 237.841 119.95 236.441C121.65 235.041 122.5 232.991 122.5 230.291C122.5 224.791 119.15 222.041 112.45 222.041C108.65 222.041 105.1 223.041 101.8 225.041C98.5 227.141 94.5 230.891 89.8 236.291C83.8 243.191 78.35 247.941 73.45 250.541C68.55 253.141 62.8 254.441 56.2 254.441C47.6 254.441 41 252.291 36.4 247.991C31.8 243.791 29.5 237.641 29.5 229.541ZM121 276.802V259.552H136V310.552H121V293.302H31V276.802H121ZM136 318.541V342.991C136 351.491 134 357.691 130 361.591C126.1 365.491 120.05 367.441 111.85 367.441H105.4C94.5 367.441 87.6 363.841 84.7 356.641H84.4C83.2 360.641 80.75 363.441 77.05 365.041C73.35 366.741 68.4 367.591 62.2 367.591H43.75C40.75 367.591 38.3 367.691 36.4 367.891C34.6 368.091 32.8 368.591 31 369.391V352.591C32.7 351.991 34.3 351.591 35.8 351.391C37.3 351.191 40 351.091 43.9 351.091H63.1C67.9 351.091 71.25 350.291 73.15 348.691C75.05 347.191 76 344.541 76 340.741V335.041H31V318.541H136ZM91 341.041C91 344.341 91.85 346.791 93.55 348.391C95.25 350.091 98.1 350.941 102.1 350.941H110.2C114 350.941 116.75 350.241 118.45 348.841C120.15 347.541 121 345.441 121 342.541V335.041H91V341.041ZM136 391.789V414.139L31 431.239V414.739L51.85 411.739H51.55V392.989L31 389.989V374.689L136 391.789ZM65.8 409.789L117.7 402.439V402.139L65.8 394.939V409.789ZM121 445.259V428.009H136V479.009H121V461.759H31V445.259H121ZM136 486.998V503.498H31V486.998H136ZM29.5 539.705C29.5 531.605 31.8 525.405 36.4 521.105C41 516.805 47.5 514.655 55.9 514.655H111.1C119.5 514.655 126 516.805 130.6 521.105C135.2 525.405 137.5 531.605 137.5 539.705C137.5 547.805 135.2 554.005 130.6 558.305C126 562.605 119.5 564.755 111.1 564.755H55.9C47.5 564.755 41 562.605 36.4 558.305C31.8 554.005 29.5 547.805 29.5 539.705ZM44.5 539.705C44.5 545.405 47.95 548.255 54.85 548.255H112.15C119.05 548.255 122.5 545.405 122.5 539.705C122.5 534.005 119.05 531.155 112.15 531.155H54.85C47.95 531.155 44.5 534.005 44.5 539.705ZM136 575.914V596.614L73.15 612.664V612.964H136V627.664H31V610.714L107.65 590.914V590.614H31V575.914H136ZM29.5 661.377C29.5 653.377 31.75 647.327 36.25 643.227C40.85 639.127 47.4 637.077 55.9 637.077H61.9V652.677H54.7C47.9 652.677 44.5 655.527 44.5 661.227C44.5 664.027 45.3 666.127 46.9 667.527C48.6 669.027 51.3 669.777 55 669.777C59.4 669.777 63.25 668.777 66.55 666.777C69.95 664.777 74 661.077 78.7 655.677C84.7 648.877 90.1 644.127 94.9 641.427C99.8 638.727 105.3 637.377 111.4 637.377C119.7 637.377 126.1 639.477 130.6 643.677C135.2 647.877 137.5 653.977 137.5 661.977C137.5 669.877 135.2 675.827 130.6 679.827C126.1 683.927 119.6 685.977 111.1 685.977H106.75V670.377H112.15C115.75 670.377 118.35 669.677 119.95 668.277C121.65 666.877 122.5 664.827 122.5 662.127C122.5 656.627 119.15 653.877 112.45 653.877C108.65 653.877 105.1 654.877 101.8 656.877C98.5 658.977 94.5 662.727 89.8 668.127C83.8 675.027 78.35 679.777 73.45 682.377C68.55 684.977 62.8 686.277 56.2 686.277C47.6 686.277 41 684.127 36.4 679.827C31.8 675.627 29.5 669.477 29.5 661.377Z"/>
</mask>
<path d="M136 5.65H138V3.65H136V5.65ZM130 48.7L128.604 47.268L128.595 47.2768L128.586 47.2858L130 48.7ZM84.7 43.75L86.5552 43.0028L86.0506 41.75H84.7V43.75ZM84.4 43.75V41.75H82.9119L82.4843 43.1753L84.4 43.75ZM77.05 52.15L76.2562 50.3143L76.2355 50.3232L76.215 50.3326L77.05 52.15ZM36.4 55L36.1906 53.011L36.1791 53.0122L36.4 55ZM31 56.5H29V59.5775L31.8123 58.3276L31 56.5ZM31 39.7L30.3344 37.814L29 38.285V39.7H31ZM35.8 38.5L35.5357 36.5175L35.8 38.5ZM73.15 35.8L71.9107 34.2302L71.8859 34.2498L71.8617 34.2702L73.15 35.8ZM76 22.15H78V20.15H76V22.15ZM31 22.15H29V24.15H31V22.15ZM31 5.65V3.65H29V5.65H31ZM93.55 35.5L94.9642 34.0858L94.9428 34.0644L94.9207 34.0436L93.55 35.5ZM118.45 35.95L117.235 34.3613L117.206 34.3832L117.179 34.4061L118.45 35.95ZM121 22.15H123V20.15H121V22.15ZM91 22.15V20.15H89V22.15H91ZM136 5.65H134V30.1H136H138V5.65H136ZM136 30.1H134C134 38.3382 132.056 43.9018 128.604 47.268L130 48.7L131.396 50.132C135.944 45.6982 138 38.8618 138 30.1H136ZM130 48.7L128.586 47.2858C125.21 50.6619 119.776 52.55 111.85 52.55V54.55V56.55C120.324 56.55 126.99 54.5381 131.414 50.1142L130 48.7ZM111.85 54.55V52.55H105.4V54.55V56.55H111.85V54.55ZM105.4 54.55V52.55C100.151 52.55 96.0483 51.6802 92.9751 50.0768C89.9462 48.4965 87.8267 46.1597 86.5552 43.0028L84.7 43.75L82.8448 44.4972C84.4733 48.5403 87.2538 51.6035 91.1249 53.6232C94.9517 55.6198 99.7495 56.55 105.4 56.55V54.55ZM84.7 43.75V41.75H84.4V43.75V45.75H84.7V43.75ZM84.4 43.75L82.4843 43.1753C81.4469 46.6334 79.3925 48.958 76.2562 50.3143L77.05 52.15L77.8438 53.9857C82.1075 52.142 84.9531 48.8666 86.3157 44.3247L84.4 43.75ZM77.05 52.15L76.215 50.3326C72.8776 51.8661 68.2481 52.7 62.2 52.7V54.7V56.7C68.5519 56.7 73.8224 55.834 77.885 53.9674L77.05 52.15ZM62.2 54.7V52.7H43.75V54.7V56.7H62.2V54.7ZM43.75 54.7V52.7C40.7146 52.7 38.1877 52.8008 36.1906 53.011L36.4 55L36.6094 56.989C38.4123 56.7992 40.7854 56.7 43.75 56.7V54.7ZM36.4 55L36.1791 53.0122C34.1579 53.2368 32.1591 53.7962 30.1877 54.6724L31 56.5L31.8123 58.3276C33.4409 57.6038 35.0421 57.1632 36.6209 56.9878L36.4 55ZM31 56.5H33V39.7H31H29V56.5H31ZM31 39.7L31.6656 41.586C33.2594 41.0235 34.7241 40.6612 36.0643 40.4825L35.8 38.5L35.5357 36.5175C33.8759 36.7388 32.1405 37.1765 30.3344 37.814L31 39.7ZM35.8 38.5L36.0643 40.4825C37.4163 40.3022 39.993 40.2 43.9 40.2V38.2V36.2C40.007 36.2 37.1837 36.2978 35.5357 36.5175L35.8 38.5ZM43.9 38.2V40.2H63.1V38.2V36.2H43.9V38.2ZM63.1 38.2V40.2C67.9923 40.2 71.967 39.4109 74.4383 37.3298L73.15 35.8L71.8617 34.2702C70.533 35.3891 67.8077 36.2 63.1 36.2V38.2ZM73.15 35.8L74.3893 37.3698C76.9907 35.316 78 31.9105 78 27.85H76H74C74 31.3895 73.1093 33.284 71.9107 34.2302L73.15 35.8ZM76 27.85H78V22.15H76H74V27.85H76ZM76 22.15V20.15H31V22.15V24.15H76V22.15ZM31 22.15H33V5.65H31H29V22.15H31ZM31 5.65V7.65H136V5.65V3.65H31V5.65ZM91 28.15H89C89 31.7686 89.9349 34.844 92.1793 36.9564L93.55 35.5L94.9207 34.0436C93.7651 32.956 93 31.1314 93 28.15H91ZM93.55 35.5L92.1358 36.9142C94.3944 39.1728 97.9027 40.05 102.1 40.05V38.05V36.05C98.2973 36.05 96.1056 35.2272 94.9642 34.0858L93.55 35.5ZM102.1 38.05V40.05H110.2V38.05V36.05H102.1V38.05ZM110.2 38.05V40.05C114.159 40.05 117.483 39.3372 119.721 37.4939L118.45 35.95L117.179 34.4061C116.017 35.3628 113.841 36.05 110.2 36.05V38.05ZM118.45 35.95L119.665 37.5387C122.022 35.7362 123 32.9353 123 29.65H121H119C119 32.1647 118.278 33.5638 117.235 34.3613L118.45 35.95ZM121 29.65H123V22.15H121H119V29.65H121ZM121 22.15V20.15H91V22.15V24.15H121V22.15ZM91 22.15H89V28.15H91H93V22.15H91ZM136 66.148H138V64.148H136V66.148ZM136 111.148V113.148H138V111.148H136ZM121 111.148H119V113.148H121V111.148ZM121 82.648H123V80.648H121V82.648ZM93.25 82.648V80.648H91.25V82.648H93.25ZM93.25 105.298V107.298H95.25V105.298H93.25ZM78.25 105.298H76.25V107.298H78.25V105.298ZM78.25 82.648H80.25V80.648H78.25V82.648ZM46 82.648V80.648H44V82.648H46ZM46 111.148V113.148H48V111.148H46ZM31 111.148H29V113.148H31V111.148ZM31 66.148V64.148H29V66.148H31ZM136 66.148H134V111.148H136H138V66.148H136ZM136 111.148V109.148H121V111.148V113.148H136V111.148ZM121 111.148H123V82.648H121H119V111.148H121ZM121 82.648V80.648H93.25V82.648V84.648H121V82.648ZM93.25 82.648H91.25V105.298H93.25H95.25V82.648H93.25ZM93.25 105.298V103.298H78.25V105.298V107.298H93.25V105.298ZM78.25 105.298H80.25V82.648H78.25H76.25V105.298H78.25ZM78.25 82.648V80.648H46V82.648V84.648H78.25V82.648ZM46 82.648H44V111.148H46H48V82.648H46ZM46 111.148V109.148H31V111.148V113.148H46V111.148ZM31 111.148H33V66.148H31H29V111.148H31ZM31 66.148V68.148H136V66.148V64.148H31V66.148ZM36.25 125.74L34.9015 124.263L34.8934 124.271L34.8854 124.278L36.25 125.74ZM130.6 125.74L129.235 127.202L129.243 127.21L129.251 127.217L130.6 125.74ZM130.6 162.34L129.251 160.863L129.243 160.871L129.235 160.878L130.6 162.34ZM102.1 168.64H100.1V170.64H102.1V168.64ZM102.1 153.04V151.04H100.1V153.04H102.1ZM75.25 153.04V155.04H77.25V153.04H75.25ZM75.25 144.79V142.79H73.25V144.79H75.25ZM90.25 144.79H92.25V142.79H90.25V144.79ZM90.25 168.64V170.64H92.25V168.64H90.25ZM36.25 162.34L34.8854 163.802L34.8934 163.81L34.9015 163.817L36.25 162.34ZM29.5 144.04H31.5C31.5 136.42 33.6322 130.919 37.6146 127.202L36.25 125.74L34.8854 124.278C29.8678 128.961 27.5 135.661 27.5 144.04H29.5ZM36.25 125.74L37.5985 127.217C41.7136 123.46 47.7151 121.44 55.9 121.44V119.44V117.44C47.0849 117.44 39.9864 119.621 34.9015 124.263L36.25 125.74ZM55.9 119.44V121.44H111.1V119.44V117.44H55.9V119.44ZM111.1 119.44V121.44C119.288 121.44 125.227 123.461 129.235 127.202L130.6 125.74L131.965 124.278C126.973 119.619 119.912 117.44 111.1 117.44V119.44ZM130.6 125.74L129.251 127.217C133.326 130.937 135.5 136.433 135.5 144.04H137.5H139.5C139.5 135.648 137.074 128.943 131.949 124.263L130.6 125.74ZM137.5 144.04H135.5C135.5 151.648 133.326 157.143 129.251 160.863L130.6 162.34L131.949 163.817C137.074 159.137 139.5 152.433 139.5 144.04H137.5ZM130.6 162.34L129.235 160.878C125.227 164.619 119.288 166.64 111.1 166.64V168.64V170.64C119.912 170.64 126.973 168.461 131.965 163.802L130.6 162.34ZM111.1 168.64V166.64H102.1V168.64V170.64H111.1V168.64ZM102.1 168.64H104.1V153.04H102.1H100.1V168.64H102.1ZM102.1 153.04V155.04H112.15V153.04V151.04H102.1V153.04ZM112.15 153.04V155.04C115.825 155.04 118.954 154.289 121.186 152.445C123.492 150.54 124.5 147.76 124.5 144.49H122.5H120.5C120.5 146.921 119.783 148.416 118.639 149.361C117.421 150.366 115.375 151.04 112.15 151.04V153.04ZM122.5 144.49H124.5C124.5 141.221 123.492 138.441 121.186 136.536C118.954 134.691 115.825 133.94 112.15 133.94V135.94V137.94C115.375 137.94 117.421 138.614 118.639 139.62C119.783 140.565 120.5 142.06 120.5 144.49H122.5ZM112.15 135.94V133.94H54.7V135.94V137.94H112.15V135.94ZM54.7 135.94V133.94C51.0693 133.94 47.9737 134.694 45.7652 136.545C43.4891 138.453 42.5 141.23 42.5 144.49H44.5H46.5C46.5 142.05 47.2109 140.553 48.3348 139.61C49.5263 138.612 51.5307 137.94 54.7 137.94V135.94ZM44.5 144.49H42.5C42.5 147.75 43.4891 150.528 45.7652 152.435C47.9737 154.287 51.0693 155.04 54.7 155.04V153.04V151.04C51.5307 151.04 49.5263 150.369 48.3348 149.37C47.2109 148.428 46.5 146.93 46.5 144.49H44.5ZM54.7 153.04V155.04H75.25V153.04V151.04H54.7V153.04ZM75.25 153.04H77.25V144.79H75.25H73.25V153.04H75.25ZM75.25 144.79V146.79H90.25V144.79V142.79H75.25V144.79ZM90.25 144.79H88.25V168.64H90.25H92.25V144.79H90.25ZM90.25 168.64V166.64H55.9V168.64V170.64H90.25V168.64ZM55.9 168.64V166.64C47.7151 166.64 41.7136 164.621 37.5985 160.863L36.25 162.34L34.9015 163.817C39.9864 168.46 47.0849 170.64 55.9 170.64V168.64ZM36.25 162.34L37.6146 160.878C33.6322 157.161 31.5 151.661 31.5 144.04H29.5H27.5C27.5 152.42 29.8678 159.119 34.8854 163.802L36.25 162.34ZM136 179.234H138V177.234H136V179.234ZM136 195.734V197.734H138V195.734H136ZM31 195.734H29V197.734H31V195.734ZM31 179.234V177.234H29V179.234H31ZM136 179.234H134V195.734H136H138V179.234H136ZM136 195.734V193.734H31V195.734V197.734H136V195.734ZM31 195.734H33V179.234H31H29V195.734H31ZM31 179.234V181.234H136V179.234V177.234H31V179.234ZM36.25 211.391L34.9193 209.898L34.9111 209.906L34.903 209.913L36.25 211.391ZM61.9 205.241H63.9V203.241H61.9V205.241ZM61.9 220.841V222.841H63.9V220.841H61.9ZM46.9 235.691L48.2233 234.192L48.217 234.186L46.9 235.691ZM66.55 234.941L65.536 233.218L65.5246 233.224L65.5134 233.231L66.55 234.941ZM78.7 223.841L77.2003 222.518L77.1914 222.528L78.7 223.841ZM94.9 209.591L93.9348 207.84L93.9271 207.844L93.9195 207.848L94.9 209.591ZM130.6 211.841L129.235 213.304L129.243 213.311L129.251 213.318L130.6 211.841ZM130.6 247.991L129.288 246.482L129.27 246.497L129.253 246.513L130.6 247.991ZM106.75 254.141H104.75V256.141H106.75V254.141ZM106.75 238.541V236.541H104.75V238.541H106.75ZM119.95 236.441L118.679 234.898L118.656 234.917L118.633 234.936L119.95 236.441ZM101.8 225.041L100.763 223.331L100.745 223.342L100.726 223.354L101.8 225.041ZM89.8 236.291L88.2914 234.978L88.2908 234.979L89.8 236.291ZM73.45 250.541L72.5126 248.775L73.45 250.541ZM36.4 247.991L37.7658 246.53L37.7572 246.522L37.7485 246.514L36.4 247.991ZM29.5 229.541H31.5C31.5 221.918 33.6332 216.481 37.597 212.87L36.25 211.391L34.903 209.913C29.8668 214.502 27.5 221.165 27.5 229.541H29.5ZM36.25 211.391L37.5807 212.884C41.6955 209.217 47.7039 207.241 55.9 207.241V205.241V203.241C47.0961 203.241 40.0045 205.366 34.9193 209.898L36.25 211.391ZM55.9 205.241V207.241H61.9V205.241V203.241H55.9V205.241ZM61.9 205.241H59.9V220.841H61.9H63.9V205.241H61.9ZM61.9 220.841V218.841H54.7V220.841V222.841H61.9V220.841ZM54.7 220.841V218.841C51.0693 218.841 47.9737 219.595 45.7652 221.446C43.4891 223.354 42.5 226.131 42.5 229.391H44.5H46.5C46.5 226.951 47.2109 225.454 48.3348 224.512C49.5263 223.513 51.5307 222.841 54.7 222.841V220.841ZM44.5 229.391H42.5C42.5 232.574 43.4217 235.305 45.583 237.197L46.9 235.691L48.217 234.186C47.1783 233.277 46.5 231.809 46.5 229.391H44.5ZM46.9 235.691L45.5768 237.191C47.8123 239.164 51.1014 239.941 55 239.941V237.941V235.941C51.4986 235.941 49.3877 235.219 48.2232 234.192L46.9 235.691ZM55 237.941V239.941C59.7132 239.941 63.9321 238.867 67.5866 236.652L66.55 234.941L65.5134 233.231C62.5679 235.016 59.0868 235.941 55 235.941V237.941ZM66.55 234.941L67.564 236.665C71.2438 234.501 75.4626 230.607 80.2086 225.154L78.7 223.841L77.1914 222.528C72.5374 227.876 68.6562 231.382 65.536 233.218L66.55 234.941ZM78.7 223.841L80.1997 225.165C86.1344 218.439 91.3614 213.877 95.8805 211.335L94.9 209.591L93.9195 207.848C88.8386 210.706 83.2656 215.644 77.2003 222.518L78.7 223.841ZM94.9 209.591L95.8652 211.343C100.443 208.82 105.606 207.541 111.4 207.541V205.541V203.541C104.994 203.541 99.1567 204.962 93.9348 207.84L94.9 209.591ZM111.4 205.541V207.541C119.373 207.541 125.219 209.555 129.235 213.304L130.6 211.841L131.965 210.379C126.981 205.728 120.027 203.541 111.4 203.541V205.541ZM130.6 211.841L129.251 213.318C133.326 217.038 135.5 222.534 135.5 230.141H137.5H139.5C139.5 221.749 137.074 215.044 131.949 210.364L130.6 211.841ZM137.5 230.141H135.5C135.5 237.645 133.33 242.968 129.288 246.482L130.6 247.991L131.912 249.501C137.07 245.015 139.5 238.437 139.5 230.141H137.5ZM130.6 247.991L129.253 246.513C125.245 250.165 119.3 252.141 111.1 252.141V254.141V256.141C119.9 256.141 126.955 254.018 131.947 249.47L130.6 247.991ZM111.1 254.141V252.141H106.75V254.141V256.141H111.1V254.141ZM106.75 254.141H108.75V238.541H106.75H104.75V254.141H106.75ZM106.75 238.541V240.541H112.15V238.541V236.541H106.75V238.541ZM112.15 238.541V240.541C115.925 240.541 119.123 239.823 121.267 237.947L119.95 236.441L118.633 234.936C117.577 235.86 115.575 236.541 112.15 236.541V238.541ZM119.95 236.441L121.221 237.985C123.486 236.12 124.5 233.441 124.5 230.291H122.5H120.5C120.5 232.542 119.814 233.963 118.679 234.898L119.95 236.441ZM122.5 230.291H124.5C124.5 227.118 123.514 224.411 121.256 222.558C119.074 220.767 116.023 220.041 112.45 220.041V222.041V224.041C115.577 224.041 117.551 224.691 118.719 225.65C119.811 226.546 120.5 227.965 120.5 230.291H122.5ZM112.45 222.041V220.041C108.279 220.041 104.371 221.145 100.763 223.331L101.8 225.041L102.837 226.752C105.829 224.938 109.021 224.041 112.45 224.041V222.041ZM101.8 225.041L100.726 223.354C97.1817 225.61 93.0314 229.532 88.2914 234.978L89.8 236.291L91.3086 237.604C95.9686 232.25 99.8183 228.673 102.874 226.729L101.8 225.041ZM89.8 236.291L88.2908 234.979C82.3612 241.798 77.1002 246.34 72.5126 248.775L73.45 250.541L74.3874 252.308C79.5998 249.542 85.2388 244.585 91.3092 237.604L89.8 236.291ZM73.45 250.541L72.5126 248.775C67.9514 251.195 62.535 252.441 56.2 252.441V254.441V256.441C63.065 256.441 69.1486 255.088 74.3874 252.308L73.45 250.541ZM56.2 254.441V252.441C47.9191 252.441 41.8776 250.374 37.7658 246.53L36.4 247.991L35.0342 249.452C40.1224 254.209 47.2809 256.441 56.2 256.441V254.441ZM36.4 247.991L37.7485 246.514C33.6792 242.799 31.5 237.258 31.5 229.541H29.5H27.5C27.5 238.025 29.9208 244.784 35.0515 249.468L36.4 247.991ZM121 276.802V278.802H123V276.802H121ZM121 259.552V257.552H119V259.552H121ZM136 259.552H138V257.552H136V259.552ZM136 310.552V312.552H138V310.552H136ZM121 310.552H119V312.552H121V310.552ZM121 293.302H123V291.302H121V293.302ZM31 293.302H29V295.302H31V293.302ZM31 276.802V274.802H29V276.802H31ZM121 276.802H123V259.552H121H119V276.802H121ZM121 259.552V261.552H136V259.552V257.552H121V259.552ZM136 259.552H134V310.552H136H138V259.552H136ZM136 310.552V308.552H121V310.552V312.552H136V310.552ZM121 310.552H123V293.302H121H119V310.552H121ZM121 293.302V291.302H31V293.302V295.302H121V293.302ZM31 293.302H33V276.802H31H29V293.302H31ZM31 276.802V278.802H121V276.802V274.802H31V276.802ZM136 318.541H138V316.541H136V318.541ZM130 361.591L128.604 360.159L128.595 360.167L128.586 360.176L130 361.591ZM84.7 356.641L86.5552 355.893L86.0506 354.641H84.7V356.641ZM84.4 356.641V354.641H82.9119L82.4843 356.066L84.4 356.641ZM77.05 365.041L76.2562 363.205L76.2355 363.214L76.215 363.223L77.05 365.041ZM36.4 367.891L36.1906 365.902L36.1791 365.903L36.4 367.891ZM31 369.391H29V372.468L31.8123 371.218L31 369.391ZM31 352.591L30.3344 350.705L29 351.176V352.591H31ZM35.8 351.391L35.5357 349.408L35.8 351.391ZM73.15 348.691L71.9107 347.121L71.8859 347.14L71.8617 347.161L73.15 348.691ZM76 335.041H78V333.041H76V335.041ZM31 335.041H29V337.041H31V335.041ZM31 318.541V316.541H29V318.541H31ZM93.55 348.391L94.9642 346.976L94.9428 346.955L94.9207 346.934L93.55 348.391ZM118.45 348.841L117.235 347.252L117.206 347.274L117.179 347.297L118.45 348.841ZM121 335.041H123V333.041H121V335.041ZM91 335.041V333.041H89V335.041H91ZM136 318.541H134V342.991H136H138V318.541H136ZM136 342.991H134C134 351.229 132.056 356.792 128.604 360.159L130 361.591L131.396 363.023C135.944 358.589 138 351.752 138 342.991H136ZM130 361.591L128.586 360.176C125.21 363.553 119.776 365.441 111.85 365.441V367.441V369.441C120.324 369.441 126.99 367.429 131.414 363.005L130 361.591ZM111.85 367.441V365.441H105.4V367.441V369.441H111.85V367.441ZM105.4 367.441V365.441C100.151 365.441 96.0483 364.571 92.9751 362.967C89.9462 361.387 87.8267 359.05 86.5552 355.893L84.7 356.641L82.8448 357.388C84.4733 361.431 87.2538 364.494 91.1249 366.514C94.9517 368.51 99.7495 369.441 105.4 369.441V367.441ZM84.7 356.641V354.641H84.4V356.641V358.641H84.7V356.641ZM84.4 356.641L82.4843 356.066C81.4469 359.524 79.3925 361.849 76.2562 363.205L77.05 365.041L77.8438 366.876C82.1075 365.033 84.9531 361.757 86.3157 357.215L84.4 356.641ZM77.05 365.041L76.215 363.223C72.8776 364.757 68.2481 365.591 62.2 365.591V367.591V369.591C68.5519 369.591 73.8224 368.725 77.885 366.858L77.05 365.041ZM62.2 367.591V365.591H43.75V367.591V369.591H62.2V367.591ZM43.75 367.591V365.591C40.7146 365.591 38.1877 365.691 36.1906 365.902L36.4 367.891L36.6094 369.88C38.4123 369.69 40.7854 369.591 43.75 369.591V367.591ZM36.4 367.891L36.1791 365.903C34.1579 366.127 32.1591 366.687 30.1877 367.563L31 369.391L31.8123 371.218C33.4409 370.494 35.0421 370.054 36.6209 369.878L36.4 367.891ZM31 369.391H33V352.591H31H29V369.391H31ZM31 352.591L31.6656 354.477C33.2594 353.914 34.7241 353.552 36.0643 353.373L35.8 351.391L35.5357 349.408C33.8759 349.629 32.1405 350.067 30.3344 350.705L31 352.591ZM35.8 351.391L36.0643 353.373C37.4163 353.193 39.993 353.091 43.9 353.091V351.091V349.091C40.007 349.091 37.1837 349.188 35.5357 349.408L35.8 351.391ZM43.9 351.091V353.091H63.1V351.091V349.091H43.9V351.091ZM63.1 351.091V353.091C67.9923 353.091 71.967 352.301 74.4383 350.22L73.15 348.691L71.8617 347.161C70.533 348.28 67.8077 349.091 63.1 349.091V351.091ZM73.15 348.691L74.3893 350.26C76.9907 348.207 78 344.801 78 340.741H76H74C74 344.28 73.1093 346.175 71.9107 347.121L73.15 348.691ZM76 340.741H78V335.041H76H74V340.741H76ZM76 335.041V333.041H31V335.041V337.041H76V335.041ZM31 335.041H33V318.541H31H29V335.041H31ZM31 318.541V320.541H136V318.541V316.541H31V318.541ZM91 341.041H89C89 344.659 89.9349 347.735 92.1793 349.847L93.55 348.391L94.9207 346.934C93.7651 345.847 93 344.022 93 341.041H91ZM93.55 348.391L92.1358 349.805C94.3944 352.063 97.9027 352.941 102.1 352.941V350.941V348.941C98.2973 348.941 96.1056 348.118 94.9642 346.976L93.55 348.391ZM102.1 350.941V352.941H110.2V350.941V348.941H102.1V350.941ZM110.2 350.941V352.941C114.159 352.941 117.483 352.228 119.721 350.384L118.45 348.841L117.179 347.297C116.017 348.253 113.841 348.941 110.2 348.941V350.941ZM118.45 348.841L119.665 350.429C122.022 348.627 123 345.826 123 342.541H121H119C119 345.055 118.278 346.454 117.235 347.252L118.45 348.841ZM121 342.541H123V335.041H121H119V342.541H121ZM121 335.041V333.041H91V335.041V337.041H121V335.041ZM91 335.041H89V341.041H91H93V335.041H91ZM136 391.789H138V390.088L136.321 389.815L136 391.789ZM136 414.139L136.321 416.113L138 415.839V414.139H136ZM31 431.239H29V433.591L31.3215 433.213L31 431.239ZM31 414.739L30.7152 412.759L29 413.006V414.739H31ZM51.85 411.739L52.1348 413.718L51.85 409.739V411.739ZM51.55 411.739H49.55V413.739H51.55V411.739ZM51.55 392.989H53.55V391.259L51.8389 391.01L51.55 392.989ZM31 389.989H29V391.718L30.7111 391.968L31 389.989ZM31 374.689L31.3215 372.715L29 372.337V374.689H31ZM65.8 409.789H63.8V412.092L66.0804 411.769L65.8 409.789ZM117.7 402.439L117.98 404.419L119.7 404.175V402.439H117.7ZM117.7 402.139H119.7V400.397L117.975 400.158L117.7 402.139ZM65.8 394.939L66.0748 392.958L63.8 392.642V394.939H65.8ZM136 391.789H134V414.139H136H138V391.789H136ZM136 414.139L135.679 412.165L30.6785 429.265L31 431.239L31.3215 433.213L136.321 416.113L136 414.139ZM31 431.239H33V414.739H31H29V431.239H31ZM31 414.739L31.2848 416.718L52.1348 413.718L51.85 411.739L51.5652 409.759L30.7152 412.759L31 414.739ZM51.85 411.739V409.739H51.55V411.739V413.739H51.85V411.739ZM51.55 411.739H53.55V392.989H51.55H49.55V411.739H51.55ZM51.55 392.989L51.8389 391.01L31.2889 388.01L31 389.989L30.7111 391.968L51.2611 394.968L51.55 392.989ZM31 389.989H33V374.689H31H29V389.989H31ZM31 374.689L30.6785 376.663L135.679 393.763L136 391.789L136.321 389.815L31.3215 372.715L31 374.689ZM65.8 409.789L66.0804 411.769L117.98 404.419L117.7 402.439L117.42 400.458L65.5196 407.808L65.8 409.789ZM117.7 402.439H119.7V402.139H117.7H115.7V402.439H117.7ZM117.7 402.139L117.975 400.158L66.0748 392.958L65.8 394.939L65.5252 396.92L117.425 404.12L117.7 402.139ZM65.8 394.939H63.8V409.789H65.8H67.8V394.939H65.8ZM121 445.259V447.259H123V445.259H121ZM121 428.009V426.009H119V428.009H121ZM136 428.009H138V426.009H136V428.009ZM136 479.009V481.009H138V479.009H136ZM121 479.009H119V481.009H121V479.009ZM121 461.759H123V459.759H121V461.759ZM31 461.759H29V463.759H31V461.759ZM31 445.259V443.259H29V445.259H31ZM121 445.259H123V428.009H121H119V445.259H121ZM121 428.009V430.009H136V428.009V426.009H121V428.009ZM136 428.009H134V479.009H136H138V428.009H136ZM136 479.009V477.009H121V479.009V481.009H136V479.009ZM121 479.009H123V461.759H121H119V479.009H121ZM121 461.759V459.759H31V461.759V463.759H121V461.759ZM31 461.759H33V445.259H31H29V461.759H31ZM31 445.259V447.259H121V445.259V443.259H31V445.259ZM136 486.998H138V484.998H136V486.998ZM136 503.498V505.498H138V503.498H136ZM31 503.498H29V505.498H31V503.498ZM31 486.998V484.998H29V486.998H31ZM136 486.998H134V503.498H136H138V486.998H136ZM136 503.498V501.498H31V503.498V505.498H136V503.498ZM31 503.498H33V486.998H31H29V503.498H31ZM31 486.998V488.998H136V486.998V484.998H31V486.998ZM36.4 521.105L37.7658 522.566L36.4 521.105ZM130.6 521.105L129.234 522.566L130.6 521.105ZM130.6 558.305L129.234 556.844L130.6 558.305ZM36.4 558.305L37.7658 556.844L36.4 558.305ZM29.5 539.705H31.5C31.5 531.991 33.6784 526.387 37.7658 522.566L36.4 521.105L35.0342 519.644C29.9216 524.423 27.5 531.219 27.5 539.705H29.5ZM36.4 521.105L37.7658 522.566C41.8857 518.715 47.8339 516.655 55.9 516.655V514.655V512.655C47.1661 512.655 40.1143 514.895 35.0342 519.644L36.4 521.105ZM55.9 514.655V516.655H111.1V514.655V512.655H55.9V514.655ZM111.1 514.655V516.655C119.166 516.655 125.114 518.715 129.234 522.566L130.6 521.105L131.966 519.644C126.886 514.895 119.834 512.655 111.1 512.655V514.655ZM130.6 521.105L129.234 522.566C133.322 526.387 135.5 531.991 135.5 539.705H137.5H139.5C139.5 531.219 137.078 524.423 131.966 519.644L130.6 521.105ZM137.5 539.705H135.5C135.5 547.419 133.322 553.023 129.234 556.844L130.6 558.305L131.966 559.766C137.078 554.987 139.5 548.191 139.5 539.705H137.5ZM130.6 558.305L129.234 556.844C125.114 560.695 119.166 562.755 111.1 562.755V564.755V566.755C119.834 566.755 126.886 564.515 131.966 559.766L130.6 558.305ZM111.1 564.755V562.755H55.9V564.755V566.755H111.1V564.755ZM55.9 564.755V562.755C47.8339 562.755 41.8857 560.695 37.7658 556.844L36.4 558.305L35.0342 559.766C40.1143 564.515 47.1661 566.755 55.9 566.755V564.755ZM36.4 558.305L37.7658 556.844C33.6784 553.023 31.5 547.419 31.5 539.705H29.5H27.5C27.5 548.191 29.9216 554.987 35.0342 559.766L36.4 558.305ZM44.5 539.705H42.5C42.5 542.975 43.5079 545.755 45.8137 547.659C48.0464 549.504 51.1748 550.255 54.85 550.255V548.255V546.255C51.6252 546.255 49.5786 545.581 48.3613 544.576C47.2171 543.63 46.5 542.135 46.5 539.705H44.5ZM54.85 548.255V550.255H112.15V548.255V546.255H54.85V548.255ZM112.15 548.255V550.255C115.825 550.255 118.954 549.504 121.186 547.659C123.492 545.755 124.5 542.975 124.5 539.705H122.5H120.5C120.5 542.135 119.783 543.63 118.639 544.576C117.421 545.581 115.375 546.255 112.15 546.255V548.255ZM122.5 539.705H124.5C124.5 536.435 123.492 533.656 121.186 531.751C118.954 529.906 115.825 529.155 112.15 529.155V531.155V533.155C115.375 533.155 117.421 533.829 118.639 534.834C119.783 535.78 120.5 537.275 120.5 539.705H122.5ZM112.15 531.155V529.155H54.85V531.155V533.155H112.15V531.155ZM54.85 531.155V529.155C51.1748 529.155 48.0464 529.906 45.8137 531.751C43.5079 533.656 42.5 536.435 42.5 539.705H44.5H46.5C46.5 537.275 47.2171 535.78 48.3613 534.834C49.5786 533.829 51.6252 533.155 54.85 533.155V531.155ZM136 575.914H138V573.914H136V575.914ZM136 596.614L136.495 598.552L138 598.167V596.614H136ZM73.15 612.664L72.6551 610.726L71.15 611.11V612.664H73.15ZM73.15 612.964H71.15V614.964H73.15V612.964ZM136 612.964H138V610.964H136V612.964ZM136 627.664V629.664H138V627.664H136ZM31 627.664H29V629.664H31V627.664ZM31 610.714L30.4998 608.777L29 609.165V610.714H31ZM107.65 590.914L108.15 592.85L109.65 592.463V590.914H107.65ZM107.65 590.614H109.65V588.614H107.65V590.614ZM31 590.614H29V592.614H31V590.614ZM31 575.914V573.914H29V575.914H31ZM136 575.914H134V596.614H136H138V575.914H136ZM136 596.614L135.505 594.676L72.6551 610.726L73.15 612.664L73.6449 614.602L136.495 598.552L136 596.614ZM73.15 612.664H71.15V612.964H73.15H75.15V612.664H73.15ZM73.15 612.964V614.964H136V612.964V610.964H73.15V612.964ZM136 612.964H134V627.664H136H138V612.964H136ZM136 627.664V625.664H31V627.664V629.664H136V627.664ZM31 627.664H33V610.714H31H29V627.664H31ZM31 610.714L31.5002 612.65L108.15 592.85L107.65 590.914L107.15 588.977L30.4998 608.777L31 610.714ZM107.65 590.914H109.65V590.614H107.65H105.65V590.914H107.65ZM107.65 590.614V588.614H31V590.614V592.614H107.65V590.614ZM31 590.614H33V575.914H31H29V590.614H31ZM31 575.914V577.914H136V575.914V573.914H31V575.914ZM36.25 643.227L34.9193 641.734L34.9111 641.742L34.903 641.749L36.25 643.227ZM61.9 637.077H63.9V635.077H61.9V637.077ZM61.9 652.677V654.677H63.9V652.677H61.9ZM46.9 667.527L48.2233 666.028L48.217 666.022L46.9 667.527ZM66.55 666.777L65.536 665.053L65.5246 665.06L65.5134 665.067L66.55 666.777ZM78.7 655.677L77.2003 654.354L77.1914 654.364L78.7 655.677ZM94.9 641.427L93.9348 639.676L93.9271 639.68L93.9195 639.684L94.9 641.427ZM130.6 643.677L129.235 645.139L129.243 645.147L129.251 645.154L130.6 643.677ZM130.6 679.827L129.288 678.318L129.27 678.333L129.253 678.349L130.6 679.827ZM106.75 685.977H104.75V687.977H106.75V685.977ZM106.75 670.377V668.377H104.75V670.377H106.75ZM119.95 668.277L118.679 666.733L118.656 666.753L118.633 666.772L119.95 668.277ZM101.8 656.877L100.763 655.167L100.745 655.178L100.726 655.19L101.8 656.877ZM89.8 668.127L88.2914 666.814L88.2908 666.815L89.8 668.127ZM73.45 682.377L72.5126 680.611L73.45 682.377ZM36.4 679.827L37.7658 678.366L37.7572 678.358L37.7485 678.35L36.4 679.827ZM29.5 661.377H31.5C31.5 653.754 33.6332 648.317 37.597 644.706L36.25 643.227L34.903 641.749C29.8668 646.337 27.5 653.001 27.5 661.377H29.5ZM36.25 643.227L37.5807 644.72C41.6955 641.053 47.7039 639.077 55.9 639.077V637.077V635.077C47.0961 635.077 40.0045 637.202 34.9193 641.734L36.25 643.227ZM55.9 637.077V639.077H61.9V637.077V635.077H55.9V637.077ZM61.9 637.077H59.9V652.677H61.9H63.9V637.077H61.9ZM61.9 652.677V650.677H54.7V652.677V654.677H61.9V652.677ZM54.7 652.677V650.677C51.0693 650.677 47.9737 651.431 45.7652 653.282C43.4891 655.19 42.5 657.967 42.5 661.227H44.5H46.5C46.5 658.787 47.2109 657.29 48.3348 656.348C49.5263 655.349 51.5307 654.677 54.7 654.677V652.677ZM44.5 661.227H42.5C42.5 664.41 43.4217 667.141 45.583 669.032L46.9 667.527L48.217 666.022C47.1783 665.113 46.5 663.644 46.5 661.227H44.5ZM46.9 667.527L45.5768 669.027C47.8123 671 51.1014 671.777 55 671.777V669.777V667.777C51.4986 667.777 49.3877 667.055 48.2232 666.028L46.9 667.527ZM55 669.777V671.777C59.7132 671.777 63.9321 670.703 67.5866 668.488L66.55 666.777L65.5134 665.067C62.5679 666.852 59.0868 667.777 55 667.777V669.777ZM66.55 666.777L67.564 668.501C71.2438 666.337 75.4626 662.443 80.2086 656.99L78.7 655.677L77.1914 654.364C72.5374 659.711 68.6562 663.218 65.536 665.053L66.55 666.777ZM78.7 655.677L80.1997 657.001C86.1344 650.275 91.3614 645.713 95.8805 643.17L94.9 641.427L93.9195 639.684C88.8386 642.542 83.2656 647.48 77.2003 654.354L78.7 655.677ZM94.9 641.427L95.8652 643.179C100.443 640.656 105.606 639.377 111.4 639.377V637.377V635.377C104.994 635.377 99.1567 636.798 93.9348 639.676L94.9 641.427ZM111.4 637.377V639.377C119.373 639.377 125.219 641.391 129.235 645.139L130.6 643.677L131.965 642.215C126.981 637.564 120.027 635.377 111.4 635.377V637.377ZM130.6 643.677L129.251 645.154C133.326 648.874 135.5 654.37 135.5 661.977H137.5H139.5C139.5 653.585 137.074 646.88 131.949 642.2L130.6 643.677ZM137.5 661.977H135.5C135.5 669.481 133.33 674.803 129.288 678.318L130.6 679.827L131.912 681.337C137.07 676.851 139.5 670.273 139.5 661.977H137.5ZM130.6 679.827L129.253 678.349C125.245 682 119.3 683.977 111.1 683.977V685.977V687.977C119.9 687.977 126.955 685.854 131.947 681.306L130.6 679.827ZM111.1 685.977V683.977H106.75V685.977V687.977H111.1V685.977ZM106.75 685.977H108.75V670.377H106.75H104.75V685.977H106.75ZM106.75 670.377V672.377H112.15V670.377V668.377H106.75V670.377ZM112.15 670.377V672.377C115.925 672.377 119.123 671.659 121.267 669.782L119.95 668.277L118.633 666.772C117.577 667.696 115.575 668.377 112.15 668.377V670.377ZM119.95 668.277L121.221 669.821C123.486 667.956 124.5 665.277 124.5 662.127H122.5H120.5C120.5 664.378 119.814 665.799 118.679 666.733L119.95 668.277ZM122.5 662.127H124.5C124.5 658.953 123.514 656.247 121.256 654.394C119.074 652.603 116.023 651.877 112.45 651.877V653.877V655.877C115.577 655.877 117.551 656.527 118.719 657.486C119.811 658.382 120.5 659.801 120.5 662.127H122.5ZM112.45 653.877V651.877C108.279 651.877 104.371 652.981 100.763 655.167L101.8 656.877L102.837 658.588C105.829 656.774 109.021 655.877 112.45 655.877V653.877ZM101.8 656.877L100.726 655.19C97.1817 657.446 93.0314 661.368 88.2914 666.814L89.8 668.127L91.3086 669.44C95.9686 664.086 99.8183 660.509 102.874 658.565L101.8 656.877ZM89.8 668.127L88.2908 666.815C82.3612 673.634 77.1002 678.176 72.5126 680.611L73.45 682.377L74.3874 684.144C79.5998 681.378 85.2388 676.421 91.3092 669.44L89.8 668.127ZM73.45 682.377L72.5126 680.611C67.9514 683.031 62.535 684.277 56.2 684.277V686.277V688.277C63.065 688.277 69.1486 686.924 74.3874 684.144L73.45 682.377ZM56.2 686.277V684.277C47.9191 684.277 41.8776 682.21 37.7658 678.366L36.4 679.827L35.0342 681.288C40.1224 686.045 47.2809 688.277 56.2 688.277V686.277ZM36.4 679.827L37.7485 678.35C33.6792 674.635 31.5 669.094 31.5 661.377H29.5H27.5C27.5 669.861 29.9208 676.62 35.0515 681.304L36.4 679.827Z" fill="#666666" mask="url(#path-1-outside-1_33_711)"/>
</svg>
