<svg width="152" height="690" viewBox="0 0 152 690" fill="none" xmlns="http://www.w3.org/2000/svg">
<mask id="path-1-outside-1_33_759" maskUnits="userSpaceOnUse" x="12" y="1.5" width="113" height="685" fill="black">
<rect fill="white" x="12" y="1.5" width="113" height="685"/>
<path d="M16 684.35V659.9C16 651.4 18 645.2 22 641.3C25.9 637.4 31.95 635.45 40.15 635.45H46.6C57.5 635.45 64.4 639.05 67.3 646.25H67.6C68.8 642.25 71.25 639.45 74.95 637.85C78.65 636.15 83.6 635.3 89.8 635.3H108.25C111.25 635.3 113.7 635.2 115.6 635C117.4 634.8 119.2 634.3 121 633.5V650.3C119.3 650.9 117.7 651.3 116.2 651.5C114.7 651.7 112 651.8 108.1 651.8H88.9C84.1 651.8 80.75 652.6 78.85 654.2C76.95 655.7 76 658.35 76 662.15V667.85H121V684.35H16ZM61 661.85C61 658.55 60.15 656.1 58.45 654.5C56.75 652.8 53.9 651.95 49.9 651.95H41.8C38 651.95 35.25 652.65 33.55 654.05C31.85 655.35 31 657.45 31 660.35V667.85H61V661.85ZM16 623.852V578.852H31V607.352H58.75V584.702H73.75V607.352H106V578.852H121V623.852H16ZM122.5 545.96C122.5 553.96 120.25 560.06 115.75 564.26C111.15 568.46 104.6 570.56 96.1 570.56H40.9C32.4 570.56 25.9 568.46 21.4 564.26C16.8 560.06 14.5 553.96 14.5 545.96C14.5 537.96 16.8 531.86 21.4 527.66C25.9 523.46 32.4 521.36 40.9 521.36H49.9V536.96H39.85C32.95 536.96 29.5 539.81 29.5 545.51C29.5 551.21 32.95 554.06 39.85 554.06H97.3C104.1 554.06 107.5 551.21 107.5 545.51C107.5 539.81 104.1 536.96 97.3 536.96H76.75V545.21H61.75V521.36H96.1C104.6 521.36 111.15 523.46 115.75 527.66C120.25 531.86 122.5 537.96 122.5 545.96ZM16 510.766V494.266H121V510.766H16ZM122.5 460.459C122.5 468.459 120.25 474.509 115.75 478.609C111.15 482.709 104.6 484.759 96.1 484.759H90.1V469.159H97.3C104.1 469.159 107.5 466.309 107.5 460.609C107.5 457.809 106.7 455.709 105.1 454.309C103.4 452.809 100.7 452.059 97 452.059C92.6 452.059 88.75 453.059 85.45 455.059C82.05 457.059 78 460.759 73.3 466.159C67.3 472.959 61.9 477.709 57.1 480.409C52.2 483.109 46.7 484.459 40.6 484.459C32.3 484.459 25.9 482.359 21.4 478.159C16.8 473.959 14.5 467.859 14.5 459.859C14.5 451.959 16.8 446.009 21.4 442.009C25.9 437.909 32.4 435.859 40.9 435.859H45.25V451.459H39.85C36.25 451.459 33.65 452.159 32.05 453.559C30.35 454.959 29.5 457.009 29.5 459.709C29.5 465.209 32.85 467.959 39.55 467.959C43.35 467.959 46.9 466.959 50.2 464.959C53.5 462.859 57.5 459.109 62.2 453.709C68.2 446.809 73.65 442.059 78.55 439.459C83.45 436.859 89.2 435.559 95.8 435.559C104.4 435.559 111 437.709 115.6 442.009C120.2 446.209 122.5 452.359 122.5 460.459ZM31 413.198V430.448H16V379.448H31V396.698H121V413.198H31ZM16 371.459V347.009C16 338.509 18 332.309 22 328.409C25.9 324.509 31.95 322.559 40.15 322.559H46.6C57.5 322.559 64.4 326.159 67.3 333.359H67.6C68.8 329.359 71.25 326.559 74.95 324.959C78.65 323.259 83.6 322.409 89.8 322.409H108.25C111.25 322.409 113.7 322.309 115.6 322.109C117.4 321.909 119.2 321.409 121 320.609V337.409C119.3 338.009 117.7 338.409 116.2 338.609C114.7 338.809 112 338.909 108.1 338.909H88.9C84.1 338.909 80.75 339.709 78.85 341.309C76.95 342.809 76 345.459 76 349.259V354.959H121V371.459H16ZM61 348.959C61 345.659 60.15 343.209 58.45 341.609C56.75 339.909 53.9 339.059 49.9 339.059H41.8C38 339.059 35.25 339.759 33.55 341.159C31.85 342.459 31 344.559 31 347.459V354.959H61V348.959ZM16 298.211V275.861L121 258.761V275.261L100.15 278.261H100.45V297.011L121 300.011V315.311L16 298.211ZM86.2 280.211L34.3 287.561V287.861L86.2 295.061V280.211ZM31 244.741V261.991H16V210.991H31V228.241H121V244.741H31ZM16 203.002V186.502H121V203.002H16ZM122.5 150.295C122.5 158.395 120.2 164.595 115.6 168.895C111 173.195 104.5 175.345 96.1 175.345H40.9C32.5 175.345 26 173.195 21.4 168.895C16.8 164.595 14.5 158.395 14.5 150.295C14.5 142.195 16.8 135.995 21.4 131.695C26 127.395 32.5 125.245 40.9 125.245H96.1C104.5 125.245 111 127.395 115.6 131.695C120.2 135.995 122.5 142.195 122.5 150.295ZM107.5 150.295C107.5 144.595 104.05 141.745 97.15 141.745H39.85C32.95 141.745 29.5 144.595 29.5 150.295C29.5 155.995 32.95 158.845 39.85 158.845H97.15C104.05 158.845 107.5 155.995 107.5 150.295ZM16 114.086V93.3863L78.85 77.3363V77.0363H16V62.3363H121V79.2863L44.35 99.0863V99.3863H121V114.086H16ZM122.5 28.6227C122.5 36.6227 120.25 42.6727 115.75 46.7727C111.15 50.8727 104.6 52.9227 96.1 52.9227H90.1V37.3227H97.3C104.1 37.3227 107.5 34.4727 107.5 28.7727C107.5 25.9727 106.7 23.8727 105.1 22.4727C103.4 20.9727 100.7 20.2227 97 20.2227C92.6 20.2227 88.75 21.2227 85.45 23.2227C82.05 25.2227 78 28.9227 73.3 34.3227C67.3 41.1227 61.9 45.8727 57.1 48.5727C52.2 51.2727 46.7 52.6227 40.6 52.6227C32.3 52.6227 25.9 50.5227 21.4 46.3227C16.8 42.1227 14.5 36.0227 14.5 28.0227C14.5 20.1227 16.8 14.1727 21.4 10.1727C25.9 6.07265 32.4 4.02265 40.9 4.02265H45.25V19.6227H39.85C36.25 19.6227 33.65 20.3227 32.05 21.7227C30.35 23.1227 29.5 25.1727 29.5 27.8727C29.5 33.3727 32.85 36.1227 39.55 36.1227C43.35 36.1227 46.9 35.1227 50.2 33.1227C53.5 31.0227 57.5 27.2727 62.2 21.8727C68.2 14.9727 73.65 10.2227 78.55 7.62266C83.45 5.02265 89.2 3.72265 95.8 3.72265C104.4 3.72265 111 5.87265 115.6 10.1727C120.2 14.3727 122.5 20.5227 122.5 28.6227Z"/>
</mask>
<path d="M16 684.35H14V686.35H16V684.35ZM22 641.3L23.3962 642.732L23.4053 642.723L23.4142 642.714L22 641.3ZM67.3 646.25L65.4448 646.997L65.9494 648.25H67.3V646.25ZM67.6 646.25V648.25H69.0881L69.5157 646.825L67.6 646.25ZM74.95 637.85L75.7438 639.686L75.7645 639.677L75.785 639.667L74.95 637.85ZM115.6 635L115.809 636.989L115.821 636.988L115.6 635ZM121 633.5H123V630.422L120.188 631.672L121 633.5ZM121 650.3L121.666 652.186L123 651.715V650.3H121ZM116.2 651.5L116.464 653.482L116.2 651.5ZM78.85 654.2L80.0893 655.77L80.1141 655.75L80.1383 655.73L78.85 654.2ZM76 667.85H74V669.85H76V667.85ZM121 667.85H123V665.85H121V667.85ZM121 684.35V686.35H123V684.35H121ZM58.45 654.5L57.0358 655.914L57.0572 655.936L57.0793 655.956L58.45 654.5ZM33.55 654.05L34.7649 655.639L34.7936 655.617L34.8214 655.594L33.55 654.05ZM31 667.85H29V669.85H31V667.85ZM61 667.85V669.85H63V667.85H61ZM16 684.35H18V659.9H16H14V684.35H16ZM16 659.9H18C18 651.662 19.9437 646.098 23.3962 642.732L22 641.3L20.6038 639.868C16.0563 644.302 14 651.138 14 659.9H16ZM22 641.3L23.4142 642.714C26.7903 639.338 32.2244 637.45 40.15 637.45V635.45V633.45C31.6756 633.45 25.0097 635.462 20.5858 639.886L22 641.3ZM40.15 635.45V637.45H46.6V635.45V633.45H40.15V635.45ZM46.6 635.45V637.45C51.8494 637.45 55.9517 638.32 59.0249 639.923C62.0538 641.503 64.1733 643.84 65.4448 646.997L67.3 646.25L69.1552 645.503C67.5267 641.46 64.7462 638.397 60.8751 636.377C57.0483 634.38 52.2505 633.45 46.6 633.45V635.45ZM67.3 646.25V648.25H67.6V646.25V644.25H67.3V646.25ZM67.6 646.25L69.5157 646.825C70.5531 643.367 72.6075 641.042 75.7438 639.686L74.95 637.85L74.1562 636.014C69.8925 637.858 67.0469 641.133 65.6843 645.675L67.6 646.25ZM74.95 637.85L75.785 639.667C79.1224 638.134 83.7519 637.3 89.8 637.3V635.3V633.3C83.4481 633.3 78.1776 634.166 74.115 636.033L74.95 637.85ZM89.8 635.3V637.3H108.25V635.3V633.3H89.8V635.3ZM108.25 635.3V637.3C111.285 637.3 113.812 637.199 115.809 636.989L115.6 635L115.391 633.011C113.588 633.201 111.215 633.3 108.25 633.3V635.3ZM115.6 635L115.821 636.988C117.842 636.763 119.841 636.204 121.812 635.328L121 633.5L120.188 631.672C118.559 632.396 116.958 632.837 115.379 633.012L115.6 635ZM121 633.5H119V650.3H121H123V633.5H121ZM121 650.3L120.334 648.414C118.741 648.977 117.276 649.339 115.936 649.518L116.2 651.5L116.464 653.482C118.124 653.261 119.859 652.823 121.666 652.186L121 650.3ZM116.2 651.5L115.936 649.518C114.584 649.698 112.007 649.8 108.1 649.8V651.8V653.8C111.993 653.8 114.816 653.702 116.464 653.482L116.2 651.5ZM108.1 651.8V649.8H88.9V651.8V653.8H108.1V651.8ZM88.9 651.8V649.8C84.0077 649.8 80.033 650.589 77.5617 652.67L78.85 654.2L80.1383 655.73C81.467 654.611 84.1923 653.8 88.9 653.8V651.8ZM78.85 654.2L77.6107 652.63C75.0093 654.684 74 658.089 74 662.15H76H78C78 658.611 78.8907 656.716 80.0893 655.77L78.85 654.2ZM76 662.15H74V667.85H76H78V662.15H76ZM76 667.85V669.85H121V667.85V665.85H76V667.85ZM121 667.85H119V684.35H121H123V667.85H121ZM121 684.35V682.35H16V684.35V686.35H121V684.35ZM61 661.85H63C63 658.231 62.0651 655.156 59.8207 653.044L58.45 654.5L57.0793 655.956C58.2349 657.044 59 658.869 59 661.85H61ZM58.45 654.5L59.8642 653.086C57.6056 650.827 54.0973 649.95 49.9 649.95V651.95V653.95C53.7027 653.95 55.8944 654.773 57.0358 655.914L58.45 654.5ZM49.9 651.95V649.95H41.8V651.95V653.95H49.9V651.95ZM41.8 651.95V649.95C37.8412 649.95 34.517 650.663 32.2786 652.506L33.55 654.05L34.8214 655.594C35.983 654.637 38.1588 653.95 41.8 653.95V651.95ZM33.55 654.05L32.3351 652.461C29.9779 654.264 29 657.065 29 660.35H31H33C33 657.835 33.7221 656.436 34.7649 655.639L33.55 654.05ZM31 660.35H29V667.85H31H33V660.35H31ZM31 667.85V669.85H61V667.85V665.85H31V667.85ZM61 667.85H63V661.85H61H59V667.85H61ZM16 623.852H14V625.852H16V623.852ZM16 578.852V576.852H14V578.852H16ZM31 578.852H33V576.852H31V578.852ZM31 607.352H29V609.352H31V607.352ZM58.75 607.352V609.352H60.75V607.352H58.75ZM58.75 584.702V582.702H56.75V584.702H58.75ZM73.75 584.702H75.75V582.702H73.75V584.702ZM73.75 607.352H71.75V609.352H73.75V607.352ZM106 607.352V609.352H108V607.352H106ZM106 578.852V576.852H104V578.852H106ZM121 578.852H123V576.852H121V578.852ZM121 623.852V625.852H123V623.852H121ZM16 623.852H18V578.852H16H14V623.852H16ZM16 578.852V580.852H31V578.852V576.852H16V578.852ZM31 578.852H29V607.352H31H33V578.852H31ZM31 607.352V609.352H58.75V607.352V605.352H31V607.352ZM58.75 607.352H60.75V584.702H58.75H56.75V607.352H58.75ZM58.75 584.702V586.702H73.75V584.702V582.702H58.75V584.702ZM73.75 584.702H71.75V607.352H73.75H75.75V584.702H73.75ZM73.75 607.352V609.352H106V607.352V605.352H73.75V607.352ZM106 607.352H108V578.852H106H104V607.352H106ZM106 578.852V580.852H121V578.852V576.852H106V578.852ZM121 578.852H119V623.852H121H123V578.852H121ZM121 623.852V621.852H16V623.852V625.852H121V623.852ZM115.75 564.26L117.099 565.737L117.107 565.729L117.115 565.722L115.75 564.26ZM21.4 564.26L22.7646 562.798L22.7566 562.79L22.7485 562.783L21.4 564.26ZM21.4 527.66L22.7485 529.137L22.7566 529.129L22.7646 529.122L21.4 527.66ZM49.9 521.36H51.9V519.36H49.9V521.36ZM49.9 536.96V538.96H51.9V536.96H49.9ZM76.75 536.96V534.96H74.75V536.96H76.75ZM76.75 545.21V547.21H78.75V545.21H76.75ZM61.75 545.21H59.75V547.21H61.75V545.21ZM61.75 521.36V519.36H59.75V521.36H61.75ZM115.75 527.66L117.115 526.198L117.107 526.19L117.099 526.183L115.75 527.66ZM122.5 545.96H120.5C120.5 553.58 118.368 559.081 114.385 562.798L115.75 564.26L117.115 565.722C122.132 561.039 124.5 554.339 124.5 545.96H122.5ZM115.75 564.26L114.401 562.783C110.286 566.54 104.285 568.56 96.1 568.56V570.56V572.56C104.915 572.56 112.014 570.379 117.099 565.737L115.75 564.26ZM96.1 570.56V568.56H40.9V570.56V572.56H96.1V570.56ZM40.9 570.56V568.56C32.7118 568.56 26.773 566.539 22.7646 562.798L21.4 564.26L20.0354 565.722C25.027 570.381 32.0882 572.56 40.9 572.56V570.56ZM21.4 564.26L22.7485 562.783C18.6742 559.063 16.5 553.567 16.5 545.96H14.5H12.5C12.5 554.352 14.9258 561.057 20.0515 565.737L21.4 564.26ZM14.5 545.96H16.5C16.5 538.352 18.6742 532.857 22.7485 529.137L21.4 527.66L20.0515 526.183C14.9258 530.863 12.5 537.567 12.5 545.96H14.5ZM21.4 527.66L22.7646 529.122C26.773 525.381 32.7118 523.36 40.9 523.36V521.36V519.36C32.0882 519.36 25.027 521.539 20.0354 526.198L21.4 527.66ZM40.9 521.36V523.36H49.9V521.36V519.36H40.9V521.36ZM49.9 521.36H47.9V536.96H49.9H51.9V521.36H49.9ZM49.9 536.96V534.96H39.85V536.96V538.96H49.9V536.96ZM39.85 536.96V534.96C36.1748 534.96 33.0464 535.711 30.8137 537.555C28.5079 539.46 27.5 542.24 27.5 545.51H29.5H31.5C31.5 543.079 32.2171 541.584 33.3613 540.639C34.5786 539.634 36.6252 538.96 39.85 538.96V536.96ZM29.5 545.51H27.5C27.5 548.779 28.5079 551.559 30.8137 553.464C33.0464 555.309 36.1748 556.06 39.85 556.06V554.06V552.06C36.6252 552.06 34.5786 551.386 33.3613 550.38C32.2171 549.435 31.5 547.94 31.5 545.51H29.5ZM39.85 554.06V556.06H97.3V554.06V552.06H39.85V554.06ZM97.3 554.06V556.06C100.931 556.06 104.026 555.306 106.235 553.455C108.511 551.547 109.5 548.77 109.5 545.51H107.5H105.5C105.5 547.95 104.789 549.447 103.665 550.39C102.474 551.388 100.469 552.06 97.3 552.06V554.06ZM107.5 545.51H109.5C109.5 542.25 108.511 539.472 106.235 537.565C104.026 535.713 100.931 534.96 97.3 534.96V536.96V538.96C100.469 538.96 102.474 539.631 103.665 540.63C104.789 541.572 105.5 543.07 105.5 545.51H107.5ZM97.3 536.96V534.96H76.75V536.96V538.96H97.3V536.96ZM76.75 536.96H74.75V545.21H76.75H78.75V536.96H76.75ZM76.75 545.21V543.21H61.75V545.21V547.21H76.75V545.21ZM61.75 545.21H63.75V521.36H61.75H59.75V545.21H61.75ZM61.75 521.36V523.36H96.1V521.36V519.36H61.75V521.36ZM96.1 521.36V523.36C104.285 523.36 110.286 525.379 114.401 529.137L115.75 527.66L117.099 526.183C112.014 521.54 104.915 519.36 96.1 519.36V521.36ZM115.75 527.66L114.385 529.122C118.368 532.839 120.5 538.339 120.5 545.96H122.5H124.5C124.5 537.58 122.132 530.881 117.115 526.198L115.75 527.66ZM16 510.766H14V512.766H16V510.766ZM16 494.266V492.266H14V494.266H16ZM121 494.266H123V492.266H121V494.266ZM121 510.766V512.766H123V510.766H121ZM16 510.766H18V494.266H16H14V510.766H16ZM16 494.266V496.266H121V494.266V492.266H16V494.266ZM121 494.266H119V510.766H121H123V494.266H121ZM121 510.766V508.766H16V510.766V512.766H121V510.766ZM115.75 478.609L117.081 480.102L117.089 480.094L117.097 480.087L115.75 478.609ZM90.1 484.759H88.1V486.759H90.1V484.759ZM90.1 469.159V467.159H88.1V469.159H90.1ZM105.1 454.309L103.777 455.808L103.783 455.814L105.1 454.309ZM85.45 455.059L86.464 456.782L86.4754 456.776L86.4866 456.769L85.45 455.059ZM73.3 466.159L74.7997 467.482L74.8086 467.472L73.3 466.159ZM57.1 480.409L58.0652 482.16L58.0729 482.156L58.0805 482.152L57.1 480.409ZM21.4 478.159L22.7646 476.696L22.7566 476.689L22.7485 476.682L21.4 478.159ZM21.4 442.009L22.7124 443.518L22.7298 443.503L22.747 443.487L21.4 442.009ZM45.25 435.859H47.25V433.859H45.25V435.859ZM45.25 451.459V453.459H47.25V451.459H45.25ZM32.05 453.559L33.3214 455.102L33.3445 455.083L33.367 455.064L32.05 453.559ZM50.2 464.959L51.2366 466.669L51.2553 466.658L51.2737 466.646L50.2 464.959ZM62.2 453.709L63.7086 455.022L63.7092 455.021L62.2 453.709ZM78.55 439.459L79.4874 441.225L78.55 439.459ZM115.6 442.009L114.234 443.47L114.243 443.478L114.251 443.486L115.6 442.009ZM122.5 460.459H120.5C120.5 468.082 118.367 473.519 114.403 477.13L115.75 478.609L117.097 480.087C122.133 475.498 124.5 468.835 124.5 460.459H122.5ZM115.75 478.609L114.419 477.116C110.305 480.783 104.296 482.759 96.1 482.759V484.759V486.759C104.904 486.759 111.995 484.634 117.081 480.102L115.75 478.609ZM96.1 484.759V482.759H90.1V484.759V486.759H96.1V484.759ZM90.1 484.759H92.1V469.159H90.1H88.1V484.759H90.1ZM90.1 469.159V471.159H97.3V469.159V467.159H90.1V469.159ZM97.3 469.159V471.159C100.931 471.159 104.026 470.405 106.235 468.554C108.511 466.646 109.5 463.869 109.5 460.609H107.5H105.5C105.5 463.049 104.789 464.546 103.665 465.488C102.474 466.487 100.469 467.159 97.3 467.159V469.159ZM107.5 460.609H109.5C109.5 457.426 108.578 454.695 106.417 452.803L105.1 454.309L103.783 455.814C104.822 456.723 105.5 458.191 105.5 460.609H107.5ZM105.1 454.309L106.423 452.809C104.188 450.836 100.899 450.059 97 450.059V452.059V454.059C100.501 454.059 102.612 454.781 103.777 455.808L105.1 454.309ZM97 452.059V450.059C92.2868 450.059 88.0679 451.133 84.4134 453.348L85.45 455.059L86.4866 456.769C89.4321 454.984 92.9132 454.059 97 454.059V452.059ZM85.45 455.059L84.436 453.335C80.7562 455.499 76.5374 459.393 71.7914 464.846L73.3 466.159L74.8086 467.472C79.4626 462.124 83.3438 458.618 86.464 456.782L85.45 455.059ZM73.3 466.159L71.8003 464.835C65.8656 471.561 60.6386 476.123 56.1195 478.665L57.1 480.409L58.0805 482.152C63.1614 479.294 68.7344 474.356 74.7997 467.482L73.3 466.159ZM57.1 480.409L56.1348 478.657C51.5566 481.18 46.3937 482.459 40.6 482.459V484.459V486.459C47.0063 486.459 52.8433 485.038 58.0652 482.16L57.1 480.409ZM40.6 484.459V482.459C32.6269 482.459 26.781 480.445 22.7646 476.696L21.4 478.159L20.0354 479.621C25.019 484.272 31.9731 486.459 40.6 486.459V484.459ZM21.4 478.159L22.7485 476.682C18.6742 472.962 16.5 467.466 16.5 459.859H14.5H12.5C12.5 468.251 14.9258 474.956 20.0515 479.636L21.4 478.159ZM14.5 459.859H16.5C16.5 452.355 18.6705 447.032 22.7124 443.518L21.4 442.009L20.0876 440.499C14.9295 444.985 12.5 451.563 12.5 459.859H14.5ZM21.4 442.009L22.747 443.487C26.7547 439.835 32.7004 437.859 40.9 437.859V435.859V433.859C32.0995 433.859 25.0453 435.982 20.053 440.53L21.4 442.009ZM40.9 435.859V437.859H45.25V435.859V433.859H40.9V435.859ZM45.25 435.859H43.25V451.459H45.25H47.25V435.859H45.25ZM45.25 451.459V449.459H39.85V451.459V453.459H45.25V451.459ZM39.85 451.459V449.459C36.075 449.459 32.8775 450.177 30.733 452.053L32.05 453.559L33.367 455.064C34.4225 454.14 36.425 453.459 39.85 453.459V451.459ZM32.05 453.559L30.7786 452.015C28.5138 453.88 27.5 456.559 27.5 459.709H29.5H31.5C31.5 457.458 32.1861 456.037 33.3214 455.102L32.05 453.559ZM29.5 459.709H27.5C27.5 462.882 28.4857 465.589 30.7435 467.442C32.9258 469.233 35.9771 469.959 39.55 469.959V467.959V465.959C36.4229 465.959 34.4492 465.309 33.2815 464.35C32.1893 463.454 31.5 462.035 31.5 459.709H29.5ZM39.55 467.959V469.959C43.7214 469.959 47.6291 468.855 51.2366 466.669L50.2 464.959L49.1634 463.248C46.1709 465.062 42.9786 465.959 39.55 465.959V467.959ZM50.2 464.959L51.2737 466.646C54.8183 464.39 58.9686 460.468 63.7086 455.022L62.2 453.709L60.6914 452.396C56.0314 457.75 52.1817 461.327 49.1262 463.271L50.2 464.959ZM62.2 453.709L63.7092 455.021C69.6388 448.202 74.8998 443.66 79.4874 441.225L78.55 439.459L77.6126 437.692C72.4002 440.458 66.7612 445.415 60.6908 452.396L62.2 453.709ZM78.55 439.459L79.4874 441.225C84.0486 438.805 89.465 437.559 95.8 437.559V435.559V433.559C88.935 433.559 82.8514 434.912 77.6126 437.692L78.55 439.459ZM95.8 435.559V437.559C104.081 437.559 110.122 439.626 114.234 443.47L115.6 442.009L116.966 440.548C111.878 435.791 104.719 433.559 95.8 433.559V435.559ZM115.6 442.009L114.251 443.486C118.321 447.201 120.5 452.742 120.5 460.459H122.5H124.5C124.5 451.975 122.079 445.216 116.949 440.532L115.6 442.009ZM31 413.198V411.198H29V413.198H31ZM31 430.448V432.448H33V430.448H31ZM16 430.448H14V432.448H16V430.448ZM16 379.448V377.448H14V379.448H16ZM31 379.448H33V377.448H31V379.448ZM31 396.698H29V398.698H31V396.698ZM121 396.698H123V394.698H121V396.698ZM121 413.198V415.198H123V413.198H121ZM31 413.198H29V430.448H31H33V413.198H31ZM31 430.448V428.448H16V430.448V432.448H31V430.448ZM16 430.448H18V379.448H16H14V430.448H16ZM16 379.448V381.448H31V379.448V377.448H16V379.448ZM31 379.448H29V396.698H31H33V379.448H31ZM31 396.698V398.698H121V396.698V394.698H31V396.698ZM121 396.698H119V413.198H121H123V396.698H121ZM121 413.198V411.198H31V413.198V415.198H121V413.198ZM16 371.459H14V373.459H16V371.459ZM22 328.409L23.3962 329.841L23.4053 329.833L23.4142 329.824L22 328.409ZM67.3 333.359L65.4448 334.107L65.9494 335.359H67.3V333.359ZM67.6 333.359V335.359H69.0881L69.5157 333.934L67.6 333.359ZM74.95 324.959L75.7438 326.795L75.7645 326.786L75.785 326.777L74.95 324.959ZM115.6 322.109L115.809 324.098L115.821 324.097L115.6 322.109ZM121 320.609H123V317.532L120.188 318.782L121 320.609ZM121 337.409L121.666 339.295L123 338.824V337.409H121ZM116.2 338.609L116.464 340.592L116.2 338.609ZM78.85 341.309L80.0893 342.879L80.1141 342.86L80.1383 342.839L78.85 341.309ZM76 354.959H74V356.959H76V354.959ZM121 354.959H123V352.959H121V354.959ZM121 371.459V373.459H123V371.459H121ZM58.45 341.609L57.0358 343.024L57.0572 343.045L57.0793 343.066L58.45 341.609ZM33.55 341.159L34.7649 342.748L34.7936 342.726L34.8214 342.703L33.55 341.159ZM31 354.959H29V356.959H31V354.959ZM61 354.959V356.959H63V354.959H61ZM16 371.459H18V347.009H16H14V371.459H16ZM16 347.009H18C18 338.771 19.9437 333.208 23.3962 329.841L22 328.409L20.6038 326.977C16.0563 331.411 14 338.248 14 347.009H16ZM22 328.409L23.4142 329.824C26.7903 326.447 32.2244 324.559 40.15 324.559V322.559V320.559C31.6756 320.559 25.0097 322.571 20.5858 326.995L22 328.409ZM40.15 322.559V324.559H46.6V322.559V320.559H40.15V322.559ZM46.6 322.559V324.559C51.8494 324.559 55.9517 325.429 59.0249 327.033C62.0538 328.613 64.1733 330.95 65.4448 334.107L67.3 333.359L69.1552 332.612C67.5267 328.569 64.7462 325.506 60.8751 323.486C57.0483 321.49 52.2505 320.559 46.6 320.559V322.559ZM67.3 333.359V335.359H67.6V333.359V331.359H67.3V333.359ZM67.6 333.359L69.5157 333.934C70.5531 330.476 72.6075 328.151 75.7438 326.795L74.95 324.959L74.1562 323.124C69.8925 324.967 67.0469 328.243 65.6843 332.785L67.6 333.359ZM74.95 324.959L75.785 326.777C79.1224 325.243 83.7519 324.409 89.8 324.409V322.409V320.409C83.4481 320.409 78.1776 321.275 74.115 323.142L74.95 324.959ZM89.8 322.409V324.409H108.25V322.409V320.409H89.8V322.409ZM108.25 322.409V324.409C111.285 324.409 113.812 324.309 115.809 324.098L115.6 322.109L115.391 320.12C113.588 320.31 111.215 320.409 108.25 320.409V322.409ZM115.6 322.109L115.821 324.097C117.842 323.873 119.841 323.313 121.812 322.437L121 320.609L120.188 318.782C118.559 319.506 116.958 319.946 115.379 320.122L115.6 322.109ZM121 320.609H119V337.409H121H123V320.609H121ZM121 337.409L120.334 335.523C118.741 336.086 117.276 336.448 115.936 336.627L116.2 338.609L116.464 340.592C118.124 340.371 119.859 339.933 121.666 339.295L121 337.409ZM116.2 338.609L115.936 336.627C114.584 336.807 112.007 336.909 108.1 336.909V338.909V340.909C111.993 340.909 114.816 340.812 116.464 340.592L116.2 338.609ZM108.1 338.909V336.909H88.9V338.909V340.909H108.1V338.909ZM88.9 338.909V336.909C84.0077 336.909 80.033 337.699 77.5617 339.78L78.85 341.309L80.1383 342.839C81.467 341.72 84.1923 340.909 88.9 340.909V338.909ZM78.85 341.309L77.6107 339.74C75.0093 341.793 74 345.199 74 349.259H76H78C78 345.72 78.8907 343.825 80.0893 342.879L78.85 341.309ZM76 349.259H74V354.959H76H78V349.259H76ZM76 354.959V356.959H121V354.959V352.959H76V354.959ZM121 354.959H119V371.459H121H123V354.959H121ZM121 371.459V369.459H16V371.459V373.459H121V371.459ZM61 348.959H63C63 345.341 62.0651 342.265 59.8207 340.153L58.45 341.609L57.0793 343.066C58.2349 344.153 59 345.978 59 348.959H61ZM58.45 341.609L59.8642 340.195C57.6056 337.937 54.0973 337.059 49.9 337.059V339.059V341.059C53.7027 341.059 55.8944 341.882 57.0358 343.024L58.45 341.609ZM49.9 339.059V337.059H41.8V339.059V341.059H49.9V339.059ZM41.8 339.059V337.059C37.8412 337.059 34.517 337.772 32.2786 339.616L33.55 341.159L34.8214 342.703C35.983 341.747 38.1588 341.059 41.8 341.059V339.059ZM33.55 341.159L32.3351 339.571C29.9779 341.373 29 344.174 29 347.459H31H33C33 344.945 33.7221 343.546 34.7649 342.748L33.55 341.159ZM31 347.459H29V354.959H31H33V347.459H31ZM31 354.959V356.959H61V354.959V352.959H31V354.959ZM61 354.959H63V348.959H61H59V354.959H61ZM16 298.211H14V299.912L15.6785 300.185L16 298.211ZM16 275.861L15.6785 273.887L14 274.161V275.861H16ZM121 258.761H123V256.409L120.679 256.787L121 258.761ZM121 275.261L121.285 277.241L123 276.994V275.261H121ZM100.15 278.261L99.8652 276.282L100.15 280.261V278.261ZM100.45 278.261H102.45V276.261H100.45V278.261ZM100.45 297.011H98.45V298.741L100.161 298.99L100.45 297.011ZM121 300.011H123V298.282L121.289 298.032L121 300.011ZM121 315.311L120.679 317.285L123 317.663V315.311H121ZM86.2 280.211H88.2V277.908L85.9196 278.231L86.2 280.211ZM34.3 287.561L34.0196 285.581L32.3 285.825V287.561H34.3ZM34.3 287.861H32.3V289.603L34.0252 289.842L34.3 287.861ZM86.2 295.061L85.9252 297.042L88.2 297.358V295.061H86.2ZM16 298.211H18V275.861H16H14V298.211H16ZM16 275.861L16.3215 277.835L121.321 260.735L121 258.761L120.679 256.787L15.6785 273.887L16 275.861ZM121 258.761H119V275.261H121H123V258.761H121ZM121 275.261L120.715 273.282L99.8652 276.282L100.15 278.261L100.435 280.241L121.285 277.241L121 275.261ZM100.15 278.261V280.261H100.45V278.261V276.261H100.15V278.261ZM100.45 278.261H98.45V297.011H100.45H102.45V278.261H100.45ZM100.45 297.011L100.161 298.99L120.711 301.99L121 300.011L121.289 298.032L100.739 295.032L100.45 297.011ZM121 300.011H119V315.311H121H123V300.011H121ZM121 315.311L121.321 313.337L16.3215 296.237L16 298.211L15.6785 300.185L120.679 317.285L121 315.311ZM86.2 280.211L85.9196 278.231L34.0196 285.581L34.3 287.561L34.5804 289.542L86.4804 282.192L86.2 280.211ZM34.3 287.561H32.3V287.861H34.3H36.3V287.561H34.3ZM34.3 287.861L34.0252 289.842L85.9252 297.042L86.2 295.061L86.4748 293.08L34.5748 285.88L34.3 287.861ZM86.2 295.061H88.2V280.211H86.2H84.2V295.061H86.2ZM31 244.741V242.741H29V244.741H31ZM31 261.991V263.991H33V261.991H31ZM16 261.991H14V263.991H16V261.991ZM16 210.991V208.991H14V210.991H16ZM31 210.991H33V208.991H31V210.991ZM31 228.241H29V230.241H31V228.241ZM121 228.241H123V226.241H121V228.241ZM121 244.741V246.741H123V244.741H121ZM31 244.741H29V261.991H31H33V244.741H31ZM31 261.991V259.991H16V261.991V263.991H31V261.991ZM16 261.991H18V210.991H16H14V261.991H16ZM16 210.991V212.991H31V210.991V208.991H16V210.991ZM31 210.991H29V228.241H31H33V210.991H31ZM31 228.241V230.241H121V228.241V226.241H31V228.241ZM121 228.241H119V244.741H121H123V228.241H121ZM121 244.741V242.741H31V244.741V246.741H121V244.741ZM16 203.002H14V205.002H16V203.002ZM16 186.502V184.502H14V186.502H16ZM121 186.502H123V184.502H121V186.502ZM121 203.002V205.002H123V203.002H121ZM16 203.002H18V186.502H16H14V203.002H16ZM16 186.502V188.502H121V186.502V184.502H16V186.502ZM121 186.502H119V203.002H121H123V186.502H121ZM121 203.002V201.002H16V203.002V205.002H121V203.002ZM115.6 168.895L114.234 167.434L115.6 168.895ZM21.4 168.895L22.7658 167.434L21.4 168.895ZM21.4 131.695L22.7658 133.156L21.4 131.695ZM115.6 131.695L114.234 133.156L115.6 131.695ZM122.5 150.295H120.5C120.5 158.009 118.322 163.613 114.234 167.434L115.6 168.895L116.966 170.356C122.078 165.577 124.5 158.781 124.5 150.295H122.5ZM115.6 168.895L114.234 167.434C110.114 171.285 104.166 173.345 96.1 173.345V175.345V177.345C104.834 177.345 111.886 175.105 116.966 170.356L115.6 168.895ZM96.1 175.345V173.345H40.9V175.345V177.345H96.1V175.345ZM40.9 175.345V173.345C32.8339 173.345 26.8857 171.285 22.7658 167.434L21.4 168.895L20.0342 170.356C25.1143 175.105 32.1661 177.345 40.9 177.345V175.345ZM21.4 168.895L22.7658 167.434C18.6784 163.613 16.5 158.009 16.5 150.295H14.5H12.5C12.5 158.781 14.9216 165.577 20.0342 170.356L21.4 168.895ZM14.5 150.295H16.5C16.5 142.581 18.6784 136.977 22.7658 133.156L21.4 131.695L20.0342 130.234C14.9216 135.013 12.5 141.809 12.5 150.295H14.5ZM21.4 131.695L22.7658 133.156C26.8857 129.305 32.8339 127.245 40.9 127.245V125.245V123.245C32.1661 123.245 25.1143 125.485 20.0342 130.234L21.4 131.695ZM40.9 125.245V127.245H96.1V125.245V123.245H40.9V125.245ZM96.1 125.245V127.245C104.166 127.245 110.114 129.305 114.234 133.156L115.6 131.695L116.966 130.234C111.886 125.485 104.834 123.245 96.1 123.245V125.245ZM115.6 131.695L114.234 133.156C118.322 136.977 120.5 142.581 120.5 150.295H122.5H124.5C124.5 141.809 122.078 135.013 116.966 130.234L115.6 131.695ZM107.5 150.295H109.5C109.5 147.025 108.492 144.245 106.186 142.341C103.954 140.496 100.825 139.745 97.15 139.745V141.745V143.745C100.375 143.745 102.421 144.419 103.639 145.424C104.783 146.37 105.5 147.865 105.5 150.295H107.5ZM97.15 141.745V139.745H39.85V141.745V143.745H97.15V141.745ZM39.85 141.745V139.745C36.1748 139.745 33.0464 140.496 30.8137 142.341C28.5079 144.245 27.5 147.025 27.5 150.295H29.5H31.5C31.5 147.865 32.2171 146.37 33.3613 145.424C34.5786 144.419 36.6252 143.745 39.85 143.745V141.745ZM29.5 150.295H27.5C27.5 153.565 28.5079 156.344 30.8137 158.249C33.0464 160.094 36.1748 160.845 39.85 160.845V158.845V156.845C36.6252 156.845 34.5786 156.171 33.3613 155.166C32.2171 154.22 31.5 152.725 31.5 150.295H29.5ZM39.85 158.845V160.845H97.15V158.845V156.845H39.85V158.845ZM97.15 158.845V160.845C100.825 160.845 103.954 160.094 106.186 158.249C108.492 156.344 109.5 153.565 109.5 150.295H107.5H105.5C105.5 152.725 104.783 154.22 103.639 155.166C102.421 156.171 100.375 156.845 97.15 156.845V158.845ZM16 114.086H14V116.086H16V114.086ZM16 93.3864L15.5051 91.4485L14 91.8329V93.3864H16ZM78.85 77.3363L79.3449 79.2741L80.85 78.8898V77.3363H78.85ZM78.85 77.0363H80.85V75.0363H78.85V77.0363ZM16 77.0363H14V79.0363H16V77.0363ZM16 62.3363V60.3363H14V62.3363H16ZM121 62.3363H123V60.3363H121V62.3363ZM121 79.2863L121.5 81.2228L123 80.8353V79.2863H121ZM44.35 99.0863L43.8498 97.1499L42.35 97.5373V99.0863H44.35ZM44.35 99.3864H42.35V101.386H44.35V99.3864ZM121 99.3864H123V97.3864H121V99.3864ZM121 114.086V116.086H123V114.086H121ZM16 114.086H18V93.3864H16H14V114.086H16ZM16 93.3864L16.4949 95.3242L79.3449 79.2741L78.85 77.3363L78.3551 75.3985L15.5051 91.4485L16 93.3864ZM78.85 77.3363H80.85V77.0363H78.85H76.85V77.3363H78.85ZM78.85 77.0363V75.0363H16V77.0363V79.0363H78.85V77.0363ZM16 77.0363H18V62.3363H16H14V77.0363H16ZM16 62.3363V64.3363H121V62.3363V60.3363H16V62.3363ZM121 62.3363H119V79.2863H121H123V62.3363H121ZM121 79.2863L120.5 77.3499L43.8498 97.1499L44.35 99.0863L44.8502 101.023L121.5 81.2228L121 79.2863ZM44.35 99.0863H42.35V99.3864H44.35H46.35V99.0863H44.35ZM44.35 99.3864V101.386H121V99.3864V97.3864H44.35V99.3864ZM121 99.3864H119V114.086H121H123V99.3864H121ZM121 114.086V112.086H16V114.086V116.086H121V114.086ZM115.75 46.7726L117.081 48.2657L117.089 48.2584L117.097 48.251L115.75 46.7726ZM90.1 52.9227H88.1V54.9227H90.1V52.9227ZM90.1 37.3226V35.3226H88.1V37.3226H90.1ZM105.1 22.4727L103.777 23.9724L103.783 23.9778L105.1 22.4727ZM85.45 23.2227L86.464 24.9465L86.4754 24.9399L86.4866 24.933L85.45 23.2227ZM73.3 34.3226L74.7997 35.6459L74.8086 35.6357L73.3 34.3226ZM57.1 48.5726L58.0652 50.3243L58.0729 50.3201L58.0805 50.3158L57.1 48.5726ZM21.4 46.3226L22.7646 44.8605L22.7566 44.8531L22.7485 44.8457L21.4 46.3226ZM21.4 10.1727L22.7124 11.6819L22.7298 11.6667L22.747 11.6511L21.4 10.1727ZM45.25 4.02264H47.25V2.02264H45.25V4.02264ZM45.25 19.6227V21.6227H47.25V19.6227H45.25ZM32.05 21.7227L33.3214 23.2665L33.3445 23.2475L33.367 23.2278L32.05 21.7227ZM50.2 33.1227L51.2366 34.8331L51.2553 34.8217L51.2737 34.81L50.2 33.1227ZM62.2 21.8727L63.7086 23.1857L63.7092 23.185L62.2 21.8727ZM78.55 7.62268L79.4874 9.38934L78.55 7.62268ZM115.6 10.1727L114.234 11.6337L114.243 11.6417L114.251 11.6496L115.6 10.1727ZM122.5 28.6227H120.5C120.5 36.2463 118.367 41.6828 114.403 45.2943L115.75 46.7726L117.097 48.251C122.133 43.6625 124.5 36.9991 124.5 28.6227H122.5ZM115.75 46.7726L114.419 45.2796C110.305 48.9471 104.296 50.9227 96.1 50.9227V52.9227V54.9227C104.904 54.9227 111.995 52.7982 117.081 48.2657L115.75 46.7726ZM96.1 52.9227V50.9227H90.1V52.9227V54.9227H96.1V52.9227ZM90.1 52.9227H92.1V37.3226H90.1H88.1V52.9227H90.1ZM90.1 37.3226V39.3226H97.3V37.3226V35.3226H90.1V37.3226ZM97.3 37.3226V39.3226C100.931 39.3226 104.026 38.5692 106.235 36.7179C108.511 34.8099 109.5 32.0327 109.5 28.7726H107.5H105.5C105.5 31.2126 104.789 32.7103 103.665 33.6524C102.474 34.6511 100.469 35.3226 97.3 35.3226V37.3226ZM107.5 28.7726H109.5C109.5 25.5898 108.578 22.8586 106.417 20.9675L105.1 22.4727L103.783 23.9778C104.822 24.8867 105.5 26.3555 105.5 28.7726H107.5ZM105.1 22.4727L106.423 20.973C104.188 19.0004 100.899 18.2227 97 18.2227V20.2227V22.2227C100.501 22.2227 102.612 22.9449 103.777 23.9724L105.1 22.4727ZM97 20.2227V18.2227C92.2868 18.2227 88.0679 19.2974 84.4134 21.5123L85.45 23.2227L86.4866 24.933C89.4321 23.1479 92.9132 22.2227 97 22.2227V20.2227ZM85.45 23.2227L84.436 21.4988C80.7562 23.6633 76.5374 27.5568 71.7914 33.0096L73.3 34.3226L74.8086 35.6357C79.4626 30.2886 83.3438 26.782 86.464 24.9465L85.45 23.2227ZM73.3 34.3226L71.8003 32.9994C65.8656 39.7254 60.6386 44.2875 56.1195 46.8295L57.1 48.5726L58.0805 50.3158C63.1614 47.4578 68.7344 42.5199 74.7997 35.6459L73.3 34.3226ZM57.1 48.5726L56.1348 46.821C51.5566 49.3436 46.3937 50.6227 40.6 50.6227V52.6227V54.6227C47.0063 54.6227 52.8433 53.2017 58.0652 50.3243L57.1 48.5726ZM40.6 52.6227V50.6227C32.6269 50.6227 26.781 48.6092 22.7646 44.8605L21.4 46.3226L20.0354 47.7848C25.019 52.4361 31.9731 54.6227 40.6 54.6227V52.6227ZM21.4 46.3226L22.7485 44.8457C18.6742 41.1257 16.5 35.6304 16.5 28.0226H14.5H12.5C12.5 36.4149 14.9258 43.1197 20.0515 47.7996L21.4 46.3226ZM14.5 28.0226H16.5C16.5 20.5187 18.6705 15.1965 22.7124 11.6819L21.4 10.1727L20.0876 8.66345C14.9295 13.1487 12.5 19.7266 12.5 28.0226H14.5ZM21.4 10.1727L22.747 11.6511C26.7547 7.99957 32.7004 6.02264 40.9 6.02264V4.02264V2.02264C32.0995 2.02264 25.0453 4.14575 20.053 8.69427L21.4 10.1727ZM40.9 4.02264V6.02264H45.25V4.02264V2.02264H40.9V4.02264ZM45.25 4.02264H43.25V19.6227H45.25H47.25V4.02264H45.25ZM45.25 19.6227V17.6227H39.85V19.6227V21.6227H45.25V19.6227ZM39.85 19.6227V17.6227C36.075 17.6227 32.8775 18.3411 30.733 20.2175L32.05 21.7227L33.367 23.2278C34.4225 22.3042 36.425 21.6227 39.85 21.6227V19.6227ZM32.05 21.7227L30.7786 20.1788C28.5138 22.0439 27.5 24.7233 27.5 27.8727H29.5H31.5C31.5 25.622 32.1861 24.2014 33.3214 23.2665L32.05 21.7227ZM29.5 27.8727H27.5C27.5 31.0465 28.4857 33.7526 30.7435 35.606C32.9258 37.3974 35.9771 38.1227 39.55 38.1227V36.1227V34.1227C36.4229 34.1227 34.4492 33.4729 33.2815 32.5143C32.1893 31.6177 31.5 30.1988 31.5 27.8727H29.5ZM39.55 36.1227V38.1227C43.7214 38.1227 47.6291 37.0194 51.2366 34.8331L50.2 33.1227L49.1634 31.4122C46.1709 33.2259 42.9786 34.1227 39.55 34.1227V36.1227ZM50.2 33.1227L51.2737 34.81C54.8183 32.5543 58.9686 28.6317 63.7086 23.1857L62.2 21.8727L60.6914 20.5596C56.0314 25.9136 52.1817 29.491 49.1262 31.4353L50.2 33.1227ZM62.2 21.8727L63.7092 23.185C69.6388 16.366 74.8998 11.8236 79.4874 9.38934L78.55 7.62268L77.6126 5.85596C72.4002 8.6217 66.7612 13.5793 60.6908 20.5603L62.2 21.8727ZM78.55 7.62268L79.4874 9.38934C84.0486 6.96912 89.465 5.72266 95.8 5.72266V3.72266V1.72266C88.935 1.72266 82.8514 3.07617 77.6126 5.85596L78.55 7.62268ZM95.8 3.72266V5.72266C104.081 5.72266 110.122 7.79004 114.234 11.6337L115.6 10.1727L116.966 8.71161C111.878 3.95526 104.719 1.72266 95.8 1.72266V3.72266ZM115.6 10.1727L114.251 11.6496C118.321 15.3651 120.5 20.9061 120.5 28.6227H122.5H124.5C124.5 20.1392 122.079 13.3802 116.949 8.69568L115.6 10.1727Z" fill="#666666" mask="url(#path-1-outside-1_33_759)"/>
</svg>
