<svg width="162" height="66" viewBox="0 0 162 66" fill="none" xmlns="http://www.w3.org/2000/svg">
<g filter="url(#filter0_d_167_114)">
<mask id="path-1-outside-1_167_114" maskUnits="userSpaceOnUse" x="11.8679" y="7.92004" width="138" height="42" fill="black">
<rect fill="white" x="11.8679" y="7.92004" width="138" height="42"/>
<path d="M13.9999 10.52H22.4759C25.4226 10.52 27.5719 11.2134 28.9239 12.6C30.2759 13.952 30.9519 16.0494 30.9519 18.892V21.128C30.9519 24.9067 29.7039 27.2987 27.2079 28.304V28.408C28.5946 28.824 29.5653 29.6734 30.1199 30.956C30.7093 32.2387 31.0039 33.9547 31.0039 36.104V42.5C31.0039 43.54 31.0386 44.3894 31.1079 45.048C31.1773 45.672 31.3506 46.296 31.6279 46.92H25.8039C25.5959 46.3307 25.4573 45.776 25.3879 45.256C25.3186 44.736 25.2839 43.8 25.2839 42.448V35.792C25.2839 34.128 25.0066 32.9667 24.4519 32.308C23.9319 31.6494 23.0133 31.32 21.6959 31.32H19.7199V46.92H13.9999V10.52ZM21.7999 26.12C22.9439 26.12 23.7933 25.8254 24.3479 25.236C24.9373 24.6467 25.2319 23.6587 25.2319 22.272V19.464C25.2319 18.1467 24.9893 17.1934 24.5039 16.604C24.0533 16.0147 23.3253 15.72 22.3199 15.72H19.7199V26.12H21.7999ZM34.9726 10.52H50.5726V15.72H40.6926V25.34H48.5446V30.54H40.6926V41.72H50.5726V46.92H34.9726V10.52ZM52.3552 10.52H58.1272L61.8712 38.756H61.9752L65.7192 10.52H70.9712L65.4592 46.92H57.8672L52.3552 10.52ZM73.7187 10.52H79.4387V46.92H73.7187V10.52ZM83.7226 10.52H99.3226V15.72H89.4426V25.34H97.2946V30.54H89.4426V41.72H99.3226V46.92H83.7226V10.52ZM101.261 10.52H106.773L109.321 38.496H109.425L112.129 10.52H118.369L121.073 38.496H121.177L123.725 10.52H128.665L124.973 46.92H117.849L115.249 22.376H115.145L112.545 46.92H104.953L101.261 10.52ZM138.995 47.44C136.221 47.44 134.124 46.66 132.703 45.1C131.281 43.5054 130.571 41.2347 130.571 38.288V36.208H135.979V38.704C135.979 41.0614 136.967 42.24 138.943 42.24C139.913 42.24 140.641 41.9627 141.127 41.408C141.647 40.8187 141.907 39.8827 141.907 38.6C141.907 37.0747 141.56 35.74 140.867 34.596C140.173 33.4174 138.891 32.0134 137.019 30.384C134.661 28.304 133.015 26.432 132.079 24.768C131.143 23.0694 130.675 21.1627 130.675 19.048C130.675 16.1707 131.403 13.952 132.859 12.392C134.315 10.7974 136.429 10 139.203 10C141.941 10 144.004 10.7974 145.391 12.392C146.812 13.952 147.523 16.2054 147.523 19.152V20.66H142.115V18.788C142.115 17.54 141.872 16.6387 141.387 16.084C140.901 15.4947 140.191 15.2 139.255 15.2C137.348 15.2 136.395 16.3614 136.395 18.684C136.395 20.0014 136.741 21.232 137.435 22.376C138.163 23.52 139.463 24.9067 141.335 26.536C143.727 28.616 145.373 30.5054 146.275 32.204C147.176 33.9027 147.627 35.896 147.627 38.184C147.627 41.1654 146.881 43.4534 145.391 45.048C143.935 46.6427 141.803 47.44 138.995 47.44Z"/>
</mask>
<path d="M13.9999 10.52H22.4759C25.4226 10.52 27.5719 11.2134 28.9239 12.6C30.2759 13.952 30.9519 16.0494 30.9519 18.892V21.128C30.9519 24.9067 29.7039 27.2987 27.2079 28.304V28.408C28.5946 28.824 29.5653 29.6734 30.1199 30.956C30.7093 32.2387 31.0039 33.9547 31.0039 36.104V42.5C31.0039 43.54 31.0386 44.3894 31.1079 45.048C31.1773 45.672 31.3506 46.296 31.6279 46.92H25.8039C25.5959 46.3307 25.4573 45.776 25.3879 45.256C25.3186 44.736 25.2839 43.8 25.2839 42.448V35.792C25.2839 34.128 25.0066 32.9667 24.4519 32.308C23.9319 31.6494 23.0133 31.32 21.6959 31.32H19.7199V46.92H13.9999V10.52ZM21.7999 26.12C22.9439 26.12 23.7933 25.8254 24.3479 25.236C24.9373 24.6467 25.2319 23.6587 25.2319 22.272V19.464C25.2319 18.1467 24.9893 17.1934 24.5039 16.604C24.0533 16.0147 23.3253 15.72 22.3199 15.72H19.7199V26.12H21.7999ZM34.9726 10.52H50.5726V15.72H40.6926V25.34H48.5446V30.54H40.6926V41.72H50.5726V46.92H34.9726V10.52ZM52.3552 10.52H58.1272L61.8712 38.756H61.9752L65.7192 10.52H70.9712L65.4592 46.92H57.8672L52.3552 10.52ZM73.7187 10.52H79.4387V46.92H73.7187V10.52ZM83.7226 10.52H99.3226V15.72H89.4426V25.34H97.2946V30.54H89.4426V41.72H99.3226V46.92H83.7226V10.52ZM101.261 10.52H106.773L109.321 38.496H109.425L112.129 10.52H118.369L121.073 38.496H121.177L123.725 10.52H128.665L124.973 46.92H117.849L115.249 22.376H115.145L112.545 46.92H104.953L101.261 10.52ZM138.995 47.44C136.221 47.44 134.124 46.66 132.703 45.1C131.281 43.5054 130.571 41.2347 130.571 38.288V36.208H135.979V38.704C135.979 41.0614 136.967 42.24 138.943 42.24C139.913 42.24 140.641 41.9627 141.127 41.408C141.647 40.8187 141.907 39.8827 141.907 38.6C141.907 37.0747 141.56 35.74 140.867 34.596C140.173 33.4174 138.891 32.0134 137.019 30.384C134.661 28.304 133.015 26.432 132.079 24.768C131.143 23.0694 130.675 21.1627 130.675 19.048C130.675 16.1707 131.403 13.952 132.859 12.392C134.315 10.7974 136.429 10 139.203 10C141.941 10 144.004 10.7974 145.391 12.392C146.812 13.952 147.523 16.2054 147.523 19.152V20.66H142.115V18.788C142.115 17.54 141.872 16.6387 141.387 16.084C140.901 15.4947 140.191 15.2 139.255 15.2C137.348 15.2 136.395 16.3614 136.395 18.684C136.395 20.0014 136.741 21.232 137.435 22.376C138.163 23.52 139.463 24.9067 141.335 26.536C143.727 28.616 145.373 30.5054 146.275 32.204C147.176 33.9027 147.627 35.896 147.627 38.184C147.627 41.1654 146.881 43.4534 145.391 45.048C143.935 46.6427 141.803 47.44 138.995 47.44Z" fill="white"/>
<path d="M13.9999 10.52V8.52004H11.9999V10.52H13.9999ZM28.9239 12.6L27.4919 13.9962L27.5008 14.0053L27.5097 14.0143L28.9239 12.6ZM27.2079 28.304L26.4607 26.4489L25.2079 26.9535V28.304H27.2079ZM27.2079 28.408H25.2079V29.8961L26.6332 30.3237L27.2079 28.408ZM30.1199 30.956L28.2842 31.7499L28.2932 31.7706L28.3026 31.791L30.1199 30.956ZM31.1079 45.048L29.1189 45.2574L29.1202 45.2689L31.1079 45.048ZM31.6279 46.92V48.92H34.7054L33.4555 46.1078L31.6279 46.92ZM25.8039 46.92L23.9179 47.5857L24.3889 48.92H25.8039V46.92ZM24.4519 32.308L22.8822 33.5473L22.9017 33.5721L22.9221 33.5963L24.4519 32.308ZM19.7199 31.32V29.32H17.7199V31.32H19.7199ZM19.7199 46.92V48.92H21.7199V46.92H19.7199ZM13.9999 46.92H11.9999V48.92H13.9999V46.92ZM24.3479 25.236L22.9337 23.8218L22.9123 23.8433L22.8915 23.8653L24.3479 25.236ZM24.5039 16.604L22.9152 17.8189L22.9371 17.8476L22.9601 17.8755L24.5039 16.604ZM19.7199 15.72V13.72H17.7199V15.72H19.7199ZM19.7199 26.12H17.7199V28.12H19.7199V26.12ZM13.9999 10.52V12.52H22.4759V10.52V8.52004H13.9999V10.52ZM22.4759 10.52V12.52C25.1607 12.52 26.6737 13.1571 27.4919 13.9962L28.9239 12.6L30.3559 11.2038C28.4701 9.26966 25.6844 8.52004 22.4759 8.52004V10.52ZM28.9239 12.6L27.5097 14.0143C28.3378 14.8424 28.9519 16.3238 28.9519 18.892H30.9519H32.9519C32.9519 15.775 32.214 13.0617 30.3381 11.1858L28.9239 12.6ZM30.9519 18.892H28.9519V21.128H30.9519H32.9519V18.892H30.9519ZM30.9519 21.128H28.9519C28.9519 22.8168 28.6702 24.0117 28.2428 24.8309C27.8384 25.6059 27.2656 26.1247 26.4607 26.4489L27.2079 28.304L27.9551 30.1592C29.6462 29.4781 30.9454 28.2982 31.7891 26.6812C32.6097 25.1084 32.9519 23.2179 32.9519 21.128H30.9519ZM27.2079 28.304H25.2079V28.408H27.2079H29.2079V28.304H27.2079ZM27.2079 28.408L26.6332 30.3237C27.478 30.5771 27.9733 31.0309 28.2842 31.7499L30.1199 30.956L31.9556 30.1622C31.1572 28.3159 29.7112 27.071 27.7826 26.4924L27.2079 28.408ZM30.1199 30.956L28.3026 31.791C28.7253 32.7111 29.0039 34.1066 29.0039 36.104H31.0039H33.0039C33.0039 33.8028 32.6932 31.7663 31.9373 30.121L30.1199 30.956ZM31.0039 36.104H29.0039V42.5H31.0039H33.0039V36.104H31.0039ZM31.0039 42.5H29.0039C29.0039 43.5754 29.0394 44.5017 29.1189 45.2574L31.1079 45.048L33.0969 44.8387C33.0378 44.2771 33.0039 43.5047 33.0039 42.5H31.0039ZM31.1079 45.048L29.1202 45.2689C29.2141 46.1142 29.4468 46.937 29.8003 47.7323L31.6279 46.92L33.4555 46.1078C33.2544 45.6551 33.1404 45.2299 33.0957 44.8272L31.1079 45.048ZM31.6279 46.92V44.92H25.8039V46.92V48.92H31.6279V46.92ZM25.8039 46.92L27.6899 46.2544C27.5194 45.7713 27.4184 45.352 27.3704 44.9917L25.3879 45.256L23.4055 45.5204C23.4961 46.2001 23.6725 46.8902 23.9179 47.5857L25.8039 46.92ZM25.3879 45.256L27.3704 44.9917C27.3208 44.6198 27.2839 43.8071 27.2839 42.448H25.2839H23.2839C23.2839 43.793 23.3164 44.8523 23.4055 45.5204L25.3879 45.256ZM25.2839 42.448H27.2839V35.792H25.2839H23.2839V42.448H25.2839ZM25.2839 35.792H27.2839C27.2839 34.0357 27.0174 32.2497 25.9817 31.0198L24.4519 32.308L22.9221 33.5963C22.9957 33.6837 23.2839 34.2204 23.2839 35.792H25.2839ZM24.4519 32.308L26.0217 31.0688C24.9479 29.7087 23.2738 29.32 21.6959 29.32V31.32V33.32C22.1998 33.32 22.5162 33.3846 22.698 33.4497C22.7846 33.4808 22.8325 33.509 22.855 33.5245C22.8759 33.5388 22.8815 33.5465 22.8822 33.5473L24.4519 32.308ZM21.6959 31.32V29.32H19.7199V31.32V33.32H21.6959V31.32ZM19.7199 31.32H17.7199V46.92H19.7199H21.7199V31.32H19.7199ZM19.7199 46.92V44.92H13.9999V46.92V48.92H19.7199V46.92ZM13.9999 46.92H15.9999V10.52H13.9999H11.9999V46.92H13.9999ZM21.7999 26.12V28.12C23.2625 28.12 24.7373 27.7405 25.8043 26.6068L24.3479 25.236L22.8915 23.8653C22.8492 23.9103 22.6253 24.12 21.7999 24.12V26.12ZM24.3479 25.236L25.7621 26.6503C26.9101 25.5023 27.2319 23.856 27.2319 22.272H25.2319H23.2319C23.2319 23.4615 22.9645 23.7911 22.9337 23.8218L24.3479 25.236ZM25.2319 22.272H27.2319V19.464H25.2319H23.2319V22.272H25.2319ZM25.2319 19.464H27.2319C27.2319 17.9879 26.9765 16.4603 26.0478 15.3326L24.5039 16.604L22.9601 17.8755C23.002 17.9264 23.2319 18.3055 23.2319 19.464H25.2319ZM24.5039 16.604L26.0926 15.3891C25.1394 14.1426 23.7105 13.72 22.3199 13.72V15.72V17.72C22.6343 17.72 22.8005 17.767 22.8695 17.7949C22.9019 17.808 22.9137 17.8171 22.9139 17.8173C22.9145 17.8178 22.9142 17.8176 22.9136 17.817C22.913 17.8164 22.9135 17.8168 22.9152 17.8189L24.5039 16.604ZM22.3199 15.72V13.72H19.7199V15.72V17.72H22.3199V15.72ZM19.7199 15.72H17.7199V26.12H19.7199H21.7199V15.72H19.7199ZM19.7199 26.12V28.12H21.7999V26.12V24.12H19.7199V26.12ZM34.9726 10.52V8.52004H32.9726V10.52H34.9726ZM50.5726 10.52H52.5726V8.52004H50.5726V10.52ZM50.5726 15.72V17.72H52.5726V15.72H50.5726ZM40.6926 15.72V13.72H38.6926V15.72H40.6926ZM40.6926 25.34H38.6926V27.34H40.6926V25.34ZM48.5446 25.34H50.5446V23.34H48.5446V25.34ZM48.5446 30.54V32.54H50.5446V30.54H48.5446ZM40.6926 30.54V28.54H38.6926V30.54H40.6926ZM40.6926 41.72H38.6926V43.72H40.6926V41.72ZM50.5726 41.72H52.5726V39.72H50.5726V41.72ZM50.5726 46.92V48.92H52.5726V46.92H50.5726ZM34.9726 46.92H32.9726V48.92H34.9726V46.92ZM34.9726 10.52V12.52H50.5726V10.52V8.52004H34.9726V10.52ZM50.5726 10.52H48.5726V15.72H50.5726H52.5726V10.52H50.5726ZM50.5726 15.72V13.72H40.6926V15.72V17.72H50.5726V15.72ZM40.6926 15.72H38.6926V25.34H40.6926H42.6926V15.72H40.6926ZM40.6926 25.34V27.34H48.5446V25.34V23.34H40.6926V25.34ZM48.5446 25.34H46.5446V30.54H48.5446H50.5446V25.34H48.5446ZM48.5446 30.54V28.54H40.6926V30.54V32.54H48.5446V30.54ZM40.6926 30.54H38.6926V41.72H40.6926H42.6926V30.54H40.6926ZM40.6926 41.72V43.72H50.5726V41.72V39.72H40.6926V41.72ZM50.5726 41.72H48.5726V46.92H50.5726H52.5726V41.72H50.5726ZM50.5726 46.92V44.92H34.9726V46.92V48.92H50.5726V46.92ZM34.9726 46.92H36.9726V10.52H34.9726H32.9726V46.92H34.9726ZM52.3552 10.52V8.52004H50.0295L50.3777 10.8195L52.3552 10.52ZM58.1272 10.52L60.1098 10.2571L59.8795 8.52004H58.1272V10.52ZM61.8712 38.756L59.8886 39.0189L60.1189 40.756H61.8712V38.756ZM61.9752 38.756V40.756H63.7275L63.9578 39.0189L61.9752 38.756ZM65.7192 10.52V8.52004H63.9669L63.7366 10.2571L65.7192 10.52ZM70.9712 10.52L72.9487 10.8195L73.2969 8.52004H70.9712V10.52ZM65.4592 46.92V48.92H67.1791L67.4367 47.2195L65.4592 46.92ZM57.8672 46.92L55.8897 47.2195L56.1473 48.92H57.8672V46.92ZM52.3552 10.52V12.52H58.1272V10.52V8.52004H52.3552V10.52ZM58.1272 10.52L56.1446 10.7829L59.8886 39.0189L61.8712 38.756L63.8538 38.4931L60.1098 10.2571L58.1272 10.52ZM61.8712 38.756V40.756H61.9752V38.756V36.756H61.8712V38.756ZM61.9752 38.756L63.9578 39.0189L67.7019 10.7829L65.7192 10.52L63.7366 10.2571L59.9926 38.4931L61.9752 38.756ZM65.7192 10.52V12.52H70.9712V10.52V8.52004H65.7192V10.52ZM70.9712 10.52L68.9937 10.2206L63.4817 46.6206L65.4592 46.92L67.4367 47.2195L72.9487 10.8195L70.9712 10.52ZM65.4592 46.92V44.92H57.8672V46.92V48.92H65.4592V46.92ZM57.8672 46.92L59.8447 46.6206L54.3327 10.2206L52.3552 10.52L50.3777 10.8195L55.8897 47.2195L57.8672 46.92ZM73.7187 10.52V8.52004H71.7187V10.52H73.7187ZM79.4387 10.52H81.4387V8.52004H79.4387V10.52ZM79.4387 46.92V48.92H81.4387V46.92H79.4387ZM73.7187 46.92H71.7187V48.92H73.7187V46.92ZM73.7187 10.52V12.52H79.4387V10.52V8.52004H73.7187V10.52ZM79.4387 10.52H77.4387V46.92H79.4387H81.4387V10.52H79.4387ZM79.4387 46.92V44.92H73.7187V46.92V48.92H79.4387V46.92ZM73.7187 46.92H75.7187V10.52H73.7187H71.7187V46.92H73.7187ZM83.7226 10.52V8.52004H81.7226V10.52H83.7226ZM99.3226 10.52H101.323V8.52004H99.3226V10.52ZM99.3226 15.72V17.72H101.323V15.72H99.3226ZM89.4426 15.72V13.72H87.4426V15.72H89.4426ZM89.4426 25.34H87.4426V27.34H89.4426V25.34ZM97.2946 25.34H99.2946V23.34H97.2946V25.34ZM97.2946 30.54V32.54H99.2946V30.54H97.2946ZM89.4426 30.54V28.54H87.4426V30.54H89.4426ZM89.4426 41.72H87.4426V43.72H89.4426V41.72ZM99.3226 41.72H101.323V39.72H99.3226V41.72ZM99.3226 46.92V48.92H101.323V46.92H99.3226ZM83.7226 46.92H81.7226V48.92H83.7226V46.92ZM83.7226 10.52V12.52H99.3226V10.52V8.52004H83.7226V10.52ZM99.3226 10.52H97.3226V15.72H99.3226H101.323V10.52H99.3226ZM99.3226 15.72V13.72H89.4426V15.72V17.72H99.3226V15.72ZM89.4426 15.72H87.4426V25.34H89.4426H91.4426V15.72H89.4426ZM89.4426 25.34V27.34H97.2946V25.34V23.34H89.4426V25.34ZM97.2946 25.34H95.2946V30.54H97.2946H99.2946V25.34H97.2946ZM97.2946 30.54V28.54H89.4426V30.54V32.54H97.2946V30.54ZM89.4426 30.54H87.4426V41.72H89.4426H91.4426V30.54H89.4426ZM89.4426 41.72V43.72H99.3226V41.72V39.72H89.4426V41.72ZM99.3226 41.72H97.3226V46.92H99.3226H101.323V41.72H99.3226ZM99.3226 46.92V44.92H83.7226V46.92V48.92H99.3226V46.92ZM83.7226 46.92H85.7226V10.52H83.7226H81.7226V46.92H83.7226ZM101.261 10.52V8.52004H99.0481L99.2714 10.7219L101.261 10.52ZM106.773 10.52L108.765 10.3386L108.599 8.52004H106.773V10.52ZM109.321 38.496L107.329 38.6775L107.495 40.496H109.321V38.496ZM109.425 38.496V40.496H111.241L111.416 38.6885L109.425 38.496ZM112.129 10.52V8.52004H110.313L110.138 10.3276L112.129 10.52ZM118.369 10.52L120.36 10.3276L120.185 8.52004H118.369V10.52ZM121.073 38.496L119.082 38.6885L119.257 40.496H121.073V38.496ZM121.177 38.496V40.496H123.003L123.169 38.6775L121.177 38.496ZM123.725 10.52V8.52004H121.899L121.733 10.3386L123.725 10.52ZM128.665 10.52L130.655 10.7219L130.878 8.52004H128.665V10.52ZM124.973 46.92V48.92H126.781L126.963 47.1219L124.973 46.92ZM117.849 46.92L115.86 47.1307L116.05 48.92H117.849V46.92ZM115.249 22.376L117.238 22.1654L117.049 20.376H115.249V22.376ZM115.145 22.376V20.376H113.346L113.156 22.1654L115.145 22.376ZM112.545 46.92V48.92H114.345L114.534 47.1307L112.545 46.92ZM104.953 46.92L102.963 47.1219L103.146 48.92H104.953V46.92ZM101.261 10.52V12.52H106.773V10.52V8.52004H101.261V10.52ZM106.773 10.52L104.781 10.7014L107.329 38.6775L109.321 38.496L111.313 38.3146L108.765 10.3386L106.773 10.52ZM109.321 38.496V40.496H109.425V38.496V36.496H109.321V38.496ZM109.425 38.496L111.416 38.6885L114.12 10.7125L112.129 10.52L110.138 10.3276L107.434 38.3036L109.425 38.496ZM112.129 10.52V12.52H118.369V10.52V8.52004H112.129V10.52ZM118.369 10.52L116.378 10.7125L119.082 38.6885L121.073 38.496L123.064 38.3036L120.36 10.3276L118.369 10.52ZM121.073 38.496V40.496H121.177V38.496V36.496H121.073V38.496ZM121.177 38.496L123.169 38.6775L125.717 10.7014L123.725 10.52L121.733 10.3386L119.185 38.3146L121.177 38.496ZM123.725 10.52V12.52H128.665V10.52V8.52004H123.725V10.52ZM128.665 10.52L126.675 10.3182L122.983 46.7182L124.973 46.92L126.963 47.1219L130.655 10.7219L128.665 10.52ZM124.973 46.92V44.92H117.849V46.92V48.92H124.973V46.92ZM117.849 46.92L119.838 46.7094L117.238 22.1654L115.249 22.376L113.26 22.5867L115.86 47.1307L117.849 46.92ZM115.249 22.376V20.376H115.145V22.376V24.376H115.249V22.376ZM115.145 22.376L113.156 22.1654L110.556 46.7094L112.545 46.92L114.534 47.1307L117.134 22.5867L115.145 22.376ZM112.545 46.92V44.92H104.953V46.92V48.92H112.545V46.92ZM104.953 46.92L106.943 46.7182L103.251 10.3182L101.261 10.52L99.2714 10.7219L102.963 47.1219L104.953 46.92ZM132.703 45.1L131.209 46.4308L131.217 46.4389L131.224 46.447L132.703 45.1ZM130.571 36.208V34.208H128.571V36.208H130.571ZM135.979 36.208H137.979V34.208H135.979V36.208ZM141.127 41.408L139.627 40.0848L139.621 40.091L141.127 41.408ZM140.867 34.596L139.143 35.6101L139.149 35.6214L139.156 35.6326L140.867 34.596ZM137.019 30.384L135.695 31.8838L135.705 31.8927L137.019 30.384ZM132.079 24.768L130.327 25.7333L130.331 25.7409L130.335 25.7486L132.079 24.768ZM132.859 12.392L134.321 13.7567L134.328 13.7487L134.335 13.7406L132.859 12.392ZM145.391 12.392L143.881 13.7044L143.897 13.7219L143.912 13.739L145.391 12.392ZM147.523 20.66V22.66H149.523V20.66H147.523ZM142.115 20.66H140.115V22.66H142.115V20.66ZM141.387 16.084L139.843 17.3555L139.862 17.3785L139.881 17.4011L141.387 16.084ZM137.435 22.376L135.724 23.4126L135.735 23.4313L135.747 23.4498L137.435 22.376ZM141.335 26.536L140.021 28.0447L140.022 28.0453L141.335 26.536ZM146.275 32.204L144.508 33.1415L146.275 32.204ZM145.391 45.048L143.929 43.6823L143.921 43.6908L143.914 43.6995L145.391 45.048ZM138.995 47.44V45.44C136.598 45.44 135.114 44.7769 134.181 43.7531L132.703 45.1L131.224 46.447C133.134 48.5432 135.845 49.44 138.995 49.44V47.44ZM132.703 45.1L134.196 43.7693C133.207 42.6599 132.571 40.9308 132.571 38.288H130.571H128.571C128.571 41.5386 129.356 44.3509 131.209 46.4308L132.703 45.1ZM130.571 38.288H132.571V36.208H130.571H128.571V38.288H130.571ZM130.571 36.208V38.208H135.979V36.208V34.208H130.571V36.208ZM135.979 36.208H133.979V38.704H135.979H137.979V36.208H135.979ZM135.979 38.704H133.979C133.979 40.1134 134.267 41.543 135.187 42.6408C136.164 43.8063 137.544 44.24 138.943 44.24V42.24V40.24C138.365 40.24 138.263 40.0844 138.252 40.0712C138.185 39.9904 137.979 39.652 137.979 38.704H135.979ZM138.943 42.24V44.24C140.296 44.24 141.655 43.841 142.632 42.7251L141.127 41.408L139.621 40.091C139.606 40.1082 139.581 40.1339 139.505 40.1631C139.416 40.1967 139.242 40.24 138.943 40.24V42.24ZM141.127 41.408L142.626 42.7313C143.619 41.6064 143.907 40.0814 143.907 38.6H141.907H139.907C139.907 39.6841 139.674 40.031 139.627 40.0848L141.127 41.408ZM141.907 38.6H143.907C143.907 36.7616 143.485 35.0579 142.577 33.5594L140.867 34.596L139.156 35.6326C139.635 36.4221 139.907 37.3879 139.907 38.6H141.907ZM140.867 34.596L142.59 33.582C141.732 32.1236 140.256 30.5508 138.332 28.8754L137.019 30.384L135.705 31.8927C137.525 33.476 138.614 34.7112 139.143 35.6101L140.867 34.596ZM137.019 30.384L138.342 28.8844C136.058 26.8697 134.6 25.1706 133.822 23.7875L132.079 24.768L130.335 25.7486C131.429 27.6935 133.264 29.7384 135.695 31.8837L137.019 30.384ZM132.079 24.768L133.83 23.8028C133.072 22.426 132.675 20.8564 132.675 19.048H130.675H128.675C128.675 21.469 129.213 23.7127 130.327 25.7333L132.079 24.768ZM130.675 19.048H132.675C132.675 16.4976 133.316 14.8331 134.321 13.7567L132.859 12.392L131.396 11.0274C129.489 13.071 128.675 15.8438 128.675 19.048H130.675ZM132.859 12.392L134.335 13.7406C135.312 12.6716 136.821 12 139.203 12V10V8.00004C136.037 8.00004 133.317 8.92317 131.382 11.0435L132.859 12.392ZM139.203 10V12C141.545 12 142.98 12.6679 143.881 13.7044L145.391 12.392L146.9 11.0797C145.028 8.92689 142.337 8.00004 139.203 8.00004V10ZM145.391 12.392L143.912 13.739C144.885 14.8068 145.523 16.5058 145.523 19.152H147.523H149.523C149.523 15.9049 148.739 13.0973 146.869 11.0451L145.391 12.392ZM147.523 19.152H145.523V20.66H147.523H149.523V19.152H147.523ZM147.523 20.66V18.66H142.115V20.66V22.66H147.523V20.66ZM142.115 20.66H144.115V18.788H142.115H140.115V20.66H142.115ZM142.115 18.788H144.115C144.115 17.3651 143.853 15.8662 142.892 14.767L141.387 16.084L139.881 17.4011C139.877 17.3958 139.939 17.4637 140.001 17.696C140.065 17.9312 140.115 18.2846 140.115 18.788H142.115ZM141.387 16.084L142.93 14.8126C141.98 13.6586 140.64 13.2 139.255 13.2V15.2V17.2C139.741 17.2 139.822 17.3309 139.843 17.3555L141.387 16.084ZM139.255 15.2V13.2C137.877 13.2 136.519 13.6386 135.564 14.8021C134.671 15.89 134.395 17.2998 134.395 18.684H136.395H138.395C138.395 17.7456 138.595 17.4134 138.655 17.34C138.676 17.3147 138.698 17.2941 138.756 17.2708C138.825 17.2426 138.977 17.2 139.255 17.2V15.2ZM136.395 18.684H134.395C134.395 20.3728 134.844 21.9612 135.724 23.4126L137.435 22.376L139.145 21.3394C138.638 20.5029 138.395 19.63 138.395 18.684H136.395ZM137.435 22.376L135.747 23.4498C136.631 24.8384 138.103 26.3753 140.021 28.0447L141.335 26.536L142.648 25.0274C140.822 23.4382 139.694 22.2017 139.122 21.3023L137.435 22.376ZM141.335 26.536L140.022 28.0453C142.333 30.0549 143.772 31.7552 144.508 33.1415L146.275 32.204L148.041 31.2666C146.974 29.2556 145.12 27.1772 142.647 25.0268L141.335 26.536ZM146.275 32.204L144.508 33.1415C145.229 34.5013 145.627 36.1611 145.627 38.184H147.627H149.627C149.627 35.631 149.122 33.3041 148.041 31.2666L146.275 32.204ZM147.627 38.184H145.627C145.627 40.8463 144.964 42.5758 143.929 43.6823L145.391 45.048L146.852 46.4138C148.799 44.331 149.627 41.4844 149.627 38.184H147.627ZM145.391 45.048L143.914 43.6995C142.942 44.7635 141.419 45.44 138.995 45.44V47.44V49.44C142.186 49.44 144.927 48.522 146.867 46.3966L145.391 45.048Z" fill="#666666" mask="url(#path-1-outside-1_167_114)"/>
</g>
<defs>
<filter id="filter0_d_167_114" x="0" y="0" width="161.626" height="65.4401" filterUnits="userSpaceOnUse" color-interpolation-filters="sRGB">
<feFlood flood-opacity="0" result="BackgroundImageFix"/>
<feColorMatrix in="SourceAlpha" type="matrix" values="0 0 0 0 0 0 0 0 0 0 0 0 0 0 0 0 0 0 127 0" result="hardAlpha"/>
<feOffset dy="4"/>
<feGaussianBlur stdDeviation="6"/>
<feComposite in2="hardAlpha" operator="out"/>
<feColorMatrix type="matrix" values="0 0 0 0 0 0 0 0 0 0 0 0 0 0 0 0 0 0 0.5 0"/>
<feBlend mode="normal" in2="BackgroundImageFix" result="effect1_dropShadow_167_114"/>
<feBlend mode="normal" in="SourceGraphic" in2="effect1_dropShadow_167_114" result="shape"/>
</filter>
</defs>
</svg>
