<svg width="41" height="38" viewBox="0 0 41 38" fill="none" xmlns="http://www.w3.org/2000/svg">
<g clip-path="url(#clip0_399_63)">
<path d="M1.70837 1.58334H8.54171L13.12 22.7842C13.2763 23.5131 13.7041 24.1679 14.3288 24.634C14.9534 25.1 15.735 25.3476 16.5367 25.3333H33.1417C33.9434 25.3476 34.725 25.1 35.3497 24.634C35.9743 24.1679 36.4022 23.5131 36.5584 22.7842L39.2917 9.5H10.25M17.0834 33.25C17.0834 34.1245 16.3185 34.8333 15.375 34.8333C14.4316 34.8333 13.6667 34.1245 13.6667 33.25C13.6667 32.3756 14.4316 31.6667 15.375 31.6667C16.3185 31.6667 17.0834 32.3756 17.0834 33.25ZM35.875 33.25C35.875 34.1245 35.1102 34.8333 34.1667 34.8333C33.2232 34.8333 32.4584 34.1245 32.4584 33.25C32.4584 32.3756 33.2232 31.6667 34.1667 31.6667C35.1102 31.6667 35.875 32.3756 35.875 33.25Z" stroke="#B3B3B3" stroke-width="4" stroke-linecap="round" stroke-linejoin="round"/>
</g>
<defs>
<clipPath id="clip0_399_63">
<rect width="41" height="38" fill="white"/>
</clipPath>
</defs>
</svg>
