<svg width="240" height="142" viewBox="0 0 240 142" fill="none" xmlns="http://www.w3.org/2000/svg">
<g filter="url(#filter0_d_33_732)">
<mask id="path-1-outside-1_33_732" maskUnits="userSpaceOnUse" x="11.0842" y="23" width="217" height="103" fill="black">
<rect fill="white" x="11.0842" y="23" width="217" height="103"/>
<path d="M60.8357 50.402C60.954 47.4427 60.0899 45.1581 58.2433 43.5483C56.4204 41.9384 53.6624 41.1335 49.9692 41.1335C47.4597 41.1335 45.2817 41.4886 43.4351 42.1989C41.5885 42.8854 40.1088 43.8442 38.9962 45.0753C37.9071 46.2827 37.2324 47.6795 36.972 49.2656C36.7116 50.5677 36.7945 51.7041 37.2206 52.6747C37.6704 53.6454 38.3688 54.4858 39.3158 55.196C40.2864 55.8826 41.4346 56.4863 42.7604 57.0071C44.0861 57.5043 45.4947 57.9304 46.9862 58.2855L53.2362 59.848C56.2902 60.5582 59.0364 61.5052 61.4749 62.6889C63.937 63.8726 65.9966 65.3286 67.6538 67.0568C69.3347 68.785 70.5184 70.821 71.205 73.1648C71.8915 75.5085 71.9862 78.1955 71.4891 81.2259C70.7315 85.6766 68.9678 89.5355 66.1979 92.8026C63.428 96.0459 59.794 98.5672 55.2959 100.366C50.7978 102.142 45.5894 103.03 39.6709 103.03C33.7997 103.03 28.8399 102.13 24.7916 100.331C20.7433 98.5317 17.7959 95.8684 15.9493 92.3409C14.1264 88.7898 13.5819 84.3982 14.3158 79.1662H29.195C28.9346 81.6046 29.2897 83.6406 30.2604 85.2741C31.2547 86.884 32.7343 88.1032 34.6993 88.9318C36.6642 89.7367 38.9725 90.1392 41.624 90.1392C44.2518 90.1392 46.5838 89.7604 48.6197 89.0028C50.6794 88.2453 52.3484 87.1918 53.6268 85.8423C54.9053 84.4929 55.6865 82.9422 55.9706 81.1903C56.2547 79.5568 56.0061 78.1837 55.2249 77.071C54.4436 75.9583 53.1889 75.0114 51.4607 74.2301C49.7561 73.4252 47.6373 72.715 45.1041 72.0994L37.5047 70.1108C31.6335 68.6193 27.1946 66.2874 24.1879 63.1151C21.1813 59.9427 20.1041 55.6695 20.9564 50.2955C21.714 45.892 23.5487 42.045 26.4606 38.7543C29.3963 35.4399 33.0894 32.8712 37.5402 31.0483C42.0146 29.2017 46.9034 28.2784 52.2064 28.2784C57.6041 28.2784 62.1614 29.2135 65.8783 31.0838C69.5951 32.9304 72.3058 35.5109 74.0104 38.8253C75.7149 42.1397 76.2357 45.9986 75.5729 50.402H60.8357ZM78.103 102L87.194 47.4545H102.322L93.2309 102H78.103ZM96.3204 40.3523C94.0713 40.3523 92.2129 39.6065 90.7451 38.1151C89.301 36.5999 88.7091 34.8007 88.9695 32.7173C89.2299 30.5866 90.2479 28.7874 92.0235 27.3196C93.7991 25.8281 95.8114 25.0824 98.0604 25.0824C100.309 25.0824 102.144 25.8281 103.565 27.3196C104.985 28.7874 105.577 30.5866 105.34 32.7173C105.104 34.8007 104.097 36.5999 102.322 38.1151C100.57 39.6065 98.5694 40.3523 96.3204 40.3523ZM126.514 123.591C121.59 123.591 117.482 122.916 114.191 121.567C110.924 120.241 108.439 118.43 106.734 116.134C105.053 113.837 104.13 111.257 103.964 108.392L118.311 106.51C118.571 107.623 119.068 108.652 119.802 109.599C120.56 110.546 121.637 111.304 123.034 111.872C124.454 112.44 126.289 112.724 128.538 112.724C131.829 112.724 134.693 111.92 137.132 110.31C139.57 108.723 141.074 106.06 141.642 102.32L143.275 92.3409H142.636C141.736 93.8561 140.505 95.2884 138.943 96.6378C137.404 97.9872 135.522 99.0881 133.297 99.9403C131.095 100.793 128.55 101.219 125.662 101.219C121.542 101.219 117.968 100.272 114.937 98.3778C111.931 96.4602 109.753 93.5365 108.403 89.6065C107.077 85.6529 106.912 80.6577 107.906 74.6207C108.948 68.4418 110.818 63.2808 113.517 59.1378C116.216 54.9948 119.412 51.8935 123.105 49.8338C126.798 47.7741 130.645 46.7443 134.646 46.7443C137.7 46.7443 140.162 47.2652 142.032 48.3068C143.926 49.3248 145.382 50.6032 146.4 52.142C147.418 53.6572 148.14 55.1487 148.566 56.6165H149.17L150.662 47.4545H165.683L156.521 102.533C155.787 107.196 154.023 111.079 151.23 114.18C148.46 117.305 144.944 119.649 140.683 121.212C136.422 122.798 131.699 123.591 126.514 123.591ZM132.196 89.8551C134.611 89.8551 136.777 89.2514 138.694 88.044C140.636 86.813 142.257 85.0611 143.559 82.7884C144.861 80.492 145.773 77.7457 146.294 74.5497C146.815 71.3537 146.803 68.5838 146.258 66.2401C145.737 63.8726 144.719 62.0379 143.204 60.7358C141.713 59.4337 139.748 58.7827 137.309 58.7827C134.8 58.7827 132.598 59.4574 130.704 60.8068C128.81 62.1326 127.236 63.9792 125.981 66.3466C124.75 68.714 123.886 71.4484 123.389 74.5497C122.868 77.6984 122.844 80.4209 123.318 82.7173C123.815 84.9901 124.798 86.7538 126.265 88.0085C127.733 89.2396 129.71 89.8551 132.196 89.8551ZM189.085 70.4659L183.829 102H168.737L177.828 47.4545H192.21L190.647 57.0781H191.251C192.979 53.8821 195.418 51.3608 198.566 49.5142C201.739 47.6676 205.349 46.7443 209.397 46.7443C213.185 46.7443 216.346 47.5729 218.879 49.2301C221.436 50.8873 223.235 53.2429 224.277 56.2969C225.342 59.3509 225.52 63.0085 224.809 67.2699L218.986 102H203.858L209.22 69.9688C209.764 66.6307 209.338 64.0265 207.941 62.1562C206.568 60.2623 204.355 59.3153 201.301 59.3153C199.265 59.3153 197.395 59.7533 195.69 60.6293C193.986 61.5052 192.553 62.7836 191.393 64.4645C190.257 66.1217 189.487 68.1222 189.085 70.4659Z"/>
</mask>
<path d="M60.8357 50.402C60.954 47.4427 60.0899 45.1581 58.2433 43.5483C56.4204 41.9384 53.6624 41.1335 49.9692 41.1335C47.4597 41.1335 45.2817 41.4886 43.4351 42.1989C41.5885 42.8854 40.1088 43.8442 38.9962 45.0753C37.9071 46.2827 37.2324 47.6795 36.972 49.2656C36.7116 50.5677 36.7945 51.7041 37.2206 52.6747C37.6704 53.6454 38.3688 54.4858 39.3158 55.196C40.2864 55.8826 41.4346 56.4863 42.7604 57.0071C44.0861 57.5043 45.4947 57.9304 46.9862 58.2855L53.2362 59.848C56.2902 60.5582 59.0364 61.5052 61.4749 62.6889C63.937 63.8726 65.9966 65.3286 67.6538 67.0568C69.3347 68.785 70.5184 70.821 71.205 73.1648C71.8915 75.5085 71.9862 78.1955 71.4891 81.2259C70.7315 85.6766 68.9678 89.5355 66.1979 92.8026C63.428 96.0459 59.794 98.5672 55.2959 100.366C50.7978 102.142 45.5894 103.03 39.6709 103.03C33.7997 103.03 28.8399 102.13 24.7916 100.331C20.7433 98.5317 17.7959 95.8684 15.9493 92.3409C14.1264 88.7898 13.5819 84.3982 14.3158 79.1662H29.195C28.9346 81.6046 29.2897 83.6406 30.2604 85.2741C31.2547 86.884 32.7343 88.1032 34.6993 88.9318C36.6642 89.7367 38.9725 90.1392 41.624 90.1392C44.2518 90.1392 46.5838 89.7604 48.6197 89.0028C50.6794 88.2453 52.3484 87.1918 53.6268 85.8423C54.9053 84.4929 55.6865 82.9422 55.9706 81.1903C56.2547 79.5568 56.0061 78.1837 55.2249 77.071C54.4436 75.9583 53.1889 75.0114 51.4607 74.2301C49.7561 73.4252 47.6373 72.715 45.1041 72.0994L37.5047 70.1108C31.6335 68.6193 27.1946 66.2874 24.1879 63.1151C21.1813 59.9427 20.1041 55.6695 20.9564 50.2955C21.714 45.892 23.5487 42.045 26.4606 38.7543C29.3963 35.4399 33.0894 32.8712 37.5402 31.0483C42.0146 29.2017 46.9034 28.2784 52.2064 28.2784C57.6041 28.2784 62.1614 29.2135 65.8783 31.0838C69.5951 32.9304 72.3058 35.5109 74.0104 38.8253C75.7149 42.1397 76.2357 45.9986 75.5729 50.402H60.8357ZM78.103 102L87.194 47.4545H102.322L93.2309 102H78.103ZM96.3204 40.3523C94.0713 40.3523 92.2129 39.6065 90.7451 38.1151C89.301 36.5999 88.7091 34.8007 88.9695 32.7173C89.2299 30.5866 90.2479 28.7874 92.0235 27.3196C93.7991 25.8281 95.8114 25.0824 98.0604 25.0824C100.309 25.0824 102.144 25.8281 103.565 27.3196C104.985 28.7874 105.577 30.5866 105.34 32.7173C105.104 34.8007 104.097 36.5999 102.322 38.1151C100.57 39.6065 98.5694 40.3523 96.3204 40.3523ZM126.514 123.591C121.59 123.591 117.482 122.916 114.191 121.567C110.924 120.241 108.439 118.43 106.734 116.134C105.053 113.837 104.13 111.257 103.964 108.392L118.311 106.51C118.571 107.623 119.068 108.652 119.802 109.599C120.56 110.546 121.637 111.304 123.034 111.872C124.454 112.44 126.289 112.724 128.538 112.724C131.829 112.724 134.693 111.92 137.132 110.31C139.57 108.723 141.074 106.06 141.642 102.32L143.275 92.3409H142.636C141.736 93.8561 140.505 95.2884 138.943 96.6378C137.404 97.9872 135.522 99.0881 133.297 99.9403C131.095 100.793 128.55 101.219 125.662 101.219C121.542 101.219 117.968 100.272 114.937 98.3778C111.931 96.4602 109.753 93.5365 108.403 89.6065C107.077 85.6529 106.912 80.6577 107.906 74.6207C108.948 68.4418 110.818 63.2808 113.517 59.1378C116.216 54.9948 119.412 51.8935 123.105 49.8338C126.798 47.7741 130.645 46.7443 134.646 46.7443C137.7 46.7443 140.162 47.2652 142.032 48.3068C143.926 49.3248 145.382 50.6032 146.4 52.142C147.418 53.6572 148.14 55.1487 148.566 56.6165H149.17L150.662 47.4545H165.683L156.521 102.533C155.787 107.196 154.023 111.079 151.23 114.18C148.46 117.305 144.944 119.649 140.683 121.212C136.422 122.798 131.699 123.591 126.514 123.591ZM132.196 89.8551C134.611 89.8551 136.777 89.2514 138.694 88.044C140.636 86.813 142.257 85.0611 143.559 82.7884C144.861 80.492 145.773 77.7457 146.294 74.5497C146.815 71.3537 146.803 68.5838 146.258 66.2401C145.737 63.8726 144.719 62.0379 143.204 60.7358C141.713 59.4337 139.748 58.7827 137.309 58.7827C134.8 58.7827 132.598 59.4574 130.704 60.8068C128.81 62.1326 127.236 63.9792 125.981 66.3466C124.75 68.714 123.886 71.4484 123.389 74.5497C122.868 77.6984 122.844 80.4209 123.318 82.7173C123.815 84.9901 124.798 86.7538 126.265 88.0085C127.733 89.2396 129.71 89.8551 132.196 89.8551ZM189.085 70.4659L183.829 102H168.737L177.828 47.4545H192.21L190.647 57.0781H191.251C192.979 53.8821 195.418 51.3608 198.566 49.5142C201.739 47.6676 205.349 46.7443 209.397 46.7443C213.185 46.7443 216.346 47.5729 218.879 49.2301C221.436 50.8873 223.235 53.2429 224.277 56.2969C225.342 59.3509 225.52 63.0085 224.809 67.2699L218.986 102H203.858L209.22 69.9688C209.764 66.6307 209.338 64.0265 207.941 62.1562C206.568 60.2623 204.355 59.3153 201.301 59.3153C199.265 59.3153 197.395 59.7533 195.69 60.6293C193.986 61.5052 192.553 62.7836 191.393 64.4645C190.257 66.1217 189.487 68.1222 189.085 70.4659Z" fill="white"/>
<path d="M60.8357 50.402L58.8372 50.3221L58.7541 52.402H60.8357V50.402ZM58.2433 43.5483L56.9194 45.0474L56.9291 45.0558L58.2433 43.5483ZM43.4351 42.1989L44.1321 44.0735L44.1426 44.0696L44.153 44.0656L43.4351 42.1989ZM38.9962 45.0753L37.5124 43.7342L37.511 43.7357L38.9962 45.0753ZM36.972 49.2656L38.9332 49.6579L38.94 49.6239L38.9456 49.5896L36.972 49.2656ZM37.2206 52.6747L35.3893 53.4787L35.3975 53.4973L35.406 53.5156L37.2206 52.6747ZM39.3158 55.196L38.1158 56.796L38.1381 56.8128L38.1608 56.8289L39.3158 55.196ZM42.7604 57.0071L42.0291 58.8686L42.0435 58.8743L42.0581 58.8798L42.7604 57.0071ZM46.9862 58.2855L47.4713 56.3452L47.4604 56.3425L47.4495 56.3399L46.9862 58.2855ZM53.2362 59.848L52.7511 61.7883L52.7671 61.7923L52.7832 61.796L53.2362 59.848ZM61.4749 62.6889L60.6014 64.4881L60.6083 64.4914L61.4749 62.6889ZM67.6538 67.0568L66.2103 68.4411L66.2152 68.4462L66.2201 68.4513L67.6538 67.0568ZM71.205 73.1648L69.2856 73.727L71.205 73.1648ZM71.4891 81.2259L73.4607 81.5615L73.4627 81.5496L71.4891 81.2259ZM66.1979 92.8026L67.7187 94.1014L67.7234 94.0959L66.1979 92.8026ZM55.2959 100.366L56.0302 102.227L56.0387 102.223L55.2959 100.366ZM24.7916 100.331L25.6039 98.5033L24.7916 100.331ZM15.9493 92.3409L14.17 93.2543L14.1737 93.2614L14.1774 93.2685L15.9493 92.3409ZM14.3158 79.1662V77.1662H12.5767L12.3352 78.8884L14.3158 79.1662ZM29.195 79.1662L31.1837 79.3786L31.42 77.1662H29.195V79.1662ZM30.2604 85.2741L28.541 86.2958L28.5498 86.3105L28.5588 86.3251L30.2604 85.2741ZM34.6993 88.9318L33.9222 90.7747L33.9316 90.7787L33.9412 90.7826L34.6993 88.9318ZM48.6197 89.0028L47.9293 87.1258L47.9223 87.1284L48.6197 89.0028ZM53.6268 85.8423L55.0787 87.2178H55.0788L53.6268 85.8423ZM55.9706 81.1903L54.0002 80.8477L53.9982 80.8589L53.9964 80.8702L55.9706 81.1903ZM55.2249 77.071L56.8617 75.9218L55.2249 77.071ZM51.4607 74.2301L50.6066 76.0386L50.6217 76.0457L50.6368 76.0526L51.4607 74.2301ZM45.1041 72.0994L44.5978 74.0343L44.6148 74.0387L44.6319 74.0429L45.1041 72.0994ZM37.5047 70.1108L38.011 68.1759L38.0041 68.1741L37.9971 68.1724L37.5047 70.1108ZM24.1879 63.1151L22.7363 64.4908L24.1879 63.1151ZM20.9564 50.2954L18.9853 49.9563L18.9831 49.9692L18.9811 49.9822L20.9564 50.2954ZM26.4606 38.7543L24.9635 37.4282L24.9629 37.4289L26.4606 38.7543ZM37.5402 31.0483L38.2982 32.8991L38.3032 32.897L37.5402 31.0483ZM65.8783 31.0838L64.9793 32.8704L64.9884 32.8749L65.8783 31.0838ZM74.0104 38.8253L75.7889 37.9106V37.9106L74.0104 38.8253ZM75.5729 50.402V52.402H77.2943L77.5506 50.6997L75.5729 50.402ZM60.8357 50.402L62.8341 50.4819C62.971 47.0573 61.9571 44.1326 59.5576 42.0407L58.2433 43.5483L56.9291 45.0558C58.2227 46.1837 58.937 47.8281 58.8372 50.3221L60.8357 50.402ZM58.2433 43.5483L59.5672 42.0492C57.2299 39.9851 53.9058 39.1335 49.9692 39.1335V41.1335V43.1335C53.419 43.1335 55.6109 43.8918 56.9194 45.0474L58.2433 43.5483ZM49.9692 41.1335V39.1335C47.2773 39.1335 44.8451 39.5137 42.7171 40.3322L43.4351 42.1989L44.153 44.0656C45.7182 43.4636 47.6421 43.1335 49.9692 43.1335V41.1335ZM43.4351 42.1989L42.7381 40.3242C40.6464 41.1019 38.8776 42.2238 37.5124 43.7342L38.9962 45.0753L40.4799 46.4164C41.3401 45.4646 42.5306 44.6689 44.1321 44.0735L43.4351 42.1989ZM38.9962 45.0753L37.511 43.7357C36.1684 45.2243 35.3217 46.9725 34.9984 48.9416L36.972 49.2656L38.9456 49.5896C39.1431 48.3864 39.6459 47.341 40.4813 46.4148L38.9962 45.0753ZM36.972 49.2656L35.0109 48.8734C34.6904 50.4757 34.7606 52.0467 35.3893 53.4787L37.2206 52.6747L39.0519 51.8707C38.8283 51.3615 38.7328 50.6597 38.9332 49.6579L36.972 49.2656ZM37.2206 52.6747L35.406 53.5156C36.0091 54.8172 36.933 55.909 38.1158 56.796L39.3158 55.196L40.5158 53.596C39.8045 53.0626 39.3317 52.4736 39.0352 51.8338L37.2206 52.6747ZM39.3158 55.196L38.1608 56.8289C39.2858 57.6246 40.5819 58.3001 42.0291 58.8686L42.7604 57.0071L43.4917 55.1456C42.2873 54.6724 41.287 54.1406 40.4707 53.5632L39.3158 55.196ZM42.7604 57.0071L42.0581 58.8798C43.468 59.4085 44.957 59.8583 46.523 60.2311L46.9862 58.2855L47.4495 56.3399C46.0325 56.0025 44.7042 55.6 43.4626 55.1344L42.7604 57.0071ZM46.9862 58.2855L46.5011 60.2258L52.7511 61.7883L53.2362 59.848L53.7213 57.9077L47.4713 56.3452L46.9862 58.2855ZM53.2362 59.848L52.7832 61.796C55.714 62.4776 58.3161 63.3787 60.6014 64.4881L61.4749 62.6889L62.3483 60.8897C59.7567 59.6317 56.8664 58.6389 53.6892 57.9L53.2362 59.848ZM61.4749 62.6889L60.6083 64.4914C62.8846 65.5858 64.7404 66.9082 66.2103 68.4411L67.6538 67.0568L69.0974 65.6726C67.2528 63.749 64.9893 62.1594 62.3414 60.8864L61.4749 62.6889ZM67.6538 67.0568L66.2201 68.4513C67.6706 69.9426 68.6895 71.6918 69.2856 73.727L71.205 73.1648L73.1243 72.6025C72.3474 69.9502 70.9988 67.6274 69.0876 65.6624L67.6538 67.0568ZM71.205 73.1648L69.2856 73.727C69.8691 75.719 69.9762 78.0934 69.5154 80.9021L71.4891 81.2259L73.4627 81.5496C73.9962 78.2977 73.9139 75.298 73.1243 72.6025L71.205 73.1648ZM71.4891 81.2259L69.5174 80.8903C68.8166 85.0074 67.1976 88.5306 64.6724 91.5092L66.1979 92.8026L67.7234 94.0959C70.7379 90.5404 72.6464 86.3458 73.4607 81.5614L71.4891 81.2259ZM66.1979 92.8026L64.677 91.5037C62.1445 94.4691 58.7917 96.8141 54.5531 98.5095L55.2959 100.366L56.0387 102.223C60.7962 100.32 64.7114 97.6228 67.7187 94.1014L66.1979 92.8026ZM55.2959 100.366L54.5615 98.5062C50.3432 100.171 45.3927 101.03 39.6709 101.03V103.03V105.03C45.7862 105.03 51.2524 104.113 56.0302 102.227L55.2959 100.366ZM39.6709 103.03V101.03C33.993 101.03 29.3277 100.158 25.6039 98.5033L24.7916 100.331L23.9793 102.159C28.3521 104.102 33.6064 105.03 39.6709 105.03V103.03ZM24.7916 100.331L25.6039 98.5033C21.9186 96.8654 19.3349 94.4959 17.7212 91.4133L15.9493 92.3409L14.1774 93.2685C16.2569 97.2408 19.568 100.198 23.9793 102.159L24.7916 100.331ZM15.9493 92.3409L17.7285 91.4276C16.1463 88.3453 15.6014 84.3983 16.2964 79.444L14.3158 79.1662L12.3352 78.8884C11.5623 84.3981 12.1064 89.2343 14.17 93.2543L15.9493 92.3409ZM14.3158 79.1662V81.1662H29.195V79.1662V77.1662H14.3158V79.1662ZM29.195 79.1662L27.2063 78.9538C26.9134 81.6965 27.2929 84.1954 28.541 86.2958L30.2604 85.2741L31.9797 84.2525C31.2865 83.0859 30.9558 81.5127 31.1837 79.3786L29.195 79.1662ZM30.2604 85.2741L28.5588 86.3251C29.7987 88.3327 31.6249 89.806 33.9222 90.7747L34.6993 88.9318L35.4764 87.089C33.8437 86.4005 32.7107 85.4353 31.962 84.2232L30.2604 85.2741ZM34.6993 88.9318L33.9412 90.7826C36.1984 91.7072 38.7749 92.1392 41.624 92.1392V90.1392V88.1392C39.1701 88.1392 37.1301 87.7663 35.4574 87.0811L34.6993 88.9318ZM41.624 90.1392V92.1392C44.4415 92.1392 47.0167 91.7333 49.3172 90.8773L48.6197 89.0028L47.9223 87.1284C46.1508 87.7876 44.0622 88.1392 41.624 88.1392V90.1392ZM48.6197 89.0028L49.3102 90.8799C51.607 90.0351 53.5535 88.8278 55.0787 87.2178L53.6268 85.8423L52.1749 84.4668C51.1434 85.5557 49.7518 86.4554 47.9293 87.1258L48.6197 89.0028ZM53.6268 85.8423L55.0788 87.2178C56.6194 85.5916 57.5933 83.678 57.9448 81.5105L55.9706 81.1903L53.9964 80.8702C53.7797 82.2065 53.1911 83.3942 52.1749 84.4668L53.6268 85.8423ZM55.9706 81.1903L57.941 81.533C58.2947 79.4996 58.0117 77.5597 56.8617 75.9218L55.2249 77.071L53.588 78.2203C54.0005 78.8077 54.2147 79.6141 54.0002 80.8477L55.9706 81.1903ZM55.2249 77.071L56.8617 75.9218C55.8089 74.4223 54.2162 73.2809 52.2845 72.4077L51.4607 74.2301L50.6368 76.0526C52.1616 76.7418 53.0783 77.4943 53.588 78.2203L55.2249 77.071ZM51.4607 74.2301L52.3147 72.4216C50.4513 71.5417 48.195 70.7923 45.5764 70.156L45.1041 72.0994L44.6319 74.0429C47.0795 74.6376 49.0609 75.3087 50.6066 76.0386L51.4607 74.2301ZM45.1041 72.0994L45.6104 70.1646L38.011 68.1759L37.5047 70.1108L36.9984 72.0456L44.5978 74.0343L45.1041 72.0994ZM37.5047 70.1108L37.9971 68.1724C32.3564 66.7394 28.304 64.5506 25.6395 61.7393L24.1879 63.1151L22.7363 64.4908C26.0851 68.0243 30.9106 70.4992 37.0123 72.0492L37.5047 70.1108ZM24.1879 63.1151L25.6395 61.7393C23.1642 59.1275 22.1504 55.5352 22.9317 50.6087L20.9564 50.2954L18.9811 49.9822C18.0578 55.8038 19.1983 60.7579 22.7363 64.4908L24.1879 63.1151ZM20.9564 50.2954L22.9274 50.6346C23.6231 46.591 25.2972 43.0871 27.9584 40.0796L26.4606 38.7543L24.9629 37.4289C21.8002 41.0029 19.8048 45.1931 18.9853 49.9563L20.9564 50.2954ZM26.4606 38.7543L27.9578 40.0803C30.6733 37.0144 34.1059 34.6162 38.2982 32.8991L37.5402 31.0483L36.7822 29.1975C32.073 31.1263 28.1192 33.8653 24.9635 37.4282L26.4606 38.7543ZM37.5402 31.0483L38.3032 32.897C42.5134 31.1595 47.14 30.2784 52.2064 30.2784V28.2784V26.2784C46.6667 26.2784 41.5158 27.2439 36.7772 29.1995L37.5402 31.0483ZM52.2064 28.2784V30.2784C57.3815 30.2784 61.6116 31.1758 64.9793 32.8704L65.8783 31.0838L66.7772 29.2972C62.7112 27.2513 57.8267 26.2784 52.2064 26.2784V28.2784ZM65.8783 31.0838L64.9884 32.8749C68.3687 34.5543 70.7444 36.8479 72.2318 39.74L74.0104 38.8253L75.7889 37.9106C73.8672 34.1739 70.8216 31.3065 66.7681 29.2927L65.8783 31.0838ZM74.0104 38.8253L72.2318 39.74C73.7093 42.6129 74.208 46.033 73.5951 50.1043L75.5729 50.402L77.5506 50.6997C78.2635 45.9641 77.7205 41.6664 75.7889 37.9106L74.0104 38.8253ZM75.5729 50.402V48.402H60.8357V50.402V52.402H75.5729V50.402ZM78.1031 102L76.1303 101.671L75.7421 104H78.1031V102ZM87.194 47.4545V45.4545H85.4997L85.2212 47.1257L87.194 47.4545ZM102.322 47.4545L104.295 47.7833L104.683 45.4545H102.322V47.4545ZM93.2309 102V104H94.9251L95.2037 102.329L93.2309 102ZM90.7451 38.1151L89.2974 39.4949L89.3084 39.5065L89.3196 39.5179L90.7451 38.1151ZM88.9695 32.7173L90.9541 32.9654L90.9548 32.96L88.9695 32.7173ZM92.0235 27.3196L93.2978 28.8611L93.3039 28.8561L93.3099 28.851L92.0235 27.3196ZM103.565 27.3196L102.116 28.6989L102.122 28.7047L102.127 28.7104L103.565 27.3196ZM105.34 32.7173L107.327 32.9431L107.328 32.9382L105.34 32.7173ZM102.322 38.1151L103.618 39.6379L103.62 39.6364L102.322 38.1151ZM78.1031 102L80.0758 102.329L89.1667 47.7833L87.194 47.4545L85.2212 47.1257L76.1303 101.671L78.1031 102ZM87.194 47.4545V49.4545H102.322V47.4545V45.4545H87.194V47.4545ZM102.322 47.4545L100.349 47.1257L91.2581 101.671L93.2309 102L95.2037 102.329L104.295 47.7833L102.322 47.4545ZM93.2309 102V100H78.1031V102V104H93.2309V102ZM96.3204 40.3523V38.3523C94.5629 38.3523 93.2324 37.7911 92.1706 36.7122L90.7451 38.1151L89.3196 39.5179C91.1934 41.4219 93.5798 42.3523 96.3204 42.3523V40.3523ZM90.7451 38.1151L92.1928 36.7352C91.1644 35.6562 90.7679 34.4551 90.9541 32.9654L88.9695 32.7173L86.985 32.4693C86.6504 35.1462 87.4375 37.5437 89.2974 39.4949L90.7451 38.1151ZM88.9695 32.7173L90.9548 32.96C91.1483 31.3766 91.885 30.029 93.2978 28.8611L92.0235 27.3196L90.7492 25.7781C88.6109 27.5458 87.3116 29.7967 86.9843 32.4747L88.9695 32.7173ZM92.0235 27.3196L93.3099 28.851C94.7373 27.652 96.2976 27.0824 98.0604 27.0824V25.0824V23.0824C95.3251 23.0824 92.8608 24.0043 90.7371 25.7882L92.0235 27.3196ZM98.0604 25.0824V27.0824C99.818 27.0824 101.11 27.6425 102.116 28.6989L103.565 27.3196L105.013 25.9403C103.178 24.0138 100.801 23.0824 98.0604 23.0824V25.0824ZM103.565 27.3196L102.127 28.7104C103.11 29.7261 103.527 30.9245 103.353 32.4965L105.34 32.7173L107.328 32.9382C107.627 30.2488 106.86 27.8487 105.002 25.9288L103.565 27.3196ZM105.34 32.7173L103.353 32.4915C103.18 34.0127 102.461 35.3671 101.024 36.5937L102.322 38.1151L103.62 39.6364C105.734 37.8327 107.027 35.5886 107.327 32.9431L105.34 32.7173ZM102.322 38.1151L101.025 36.5922C99.6261 37.7834 98.0825 38.3523 96.3204 38.3523V40.3523V42.3523C99.0564 42.3523 101.514 41.4296 103.618 39.6379L102.322 38.1151ZM114.191 121.567L114.95 119.716L114.944 119.714L114.191 121.567ZM106.734 116.134L105.12 117.315L105.128 117.326L106.734 116.134ZM103.964 108.392L103.704 106.409L101.86 106.651L101.968 108.508L103.964 108.392ZM118.311 106.51L120.258 106.054L119.846 104.291L118.051 104.527L118.311 106.51ZM119.802 109.599L118.221 110.825L118.231 110.837L118.241 110.849L119.802 109.599ZM123.034 111.872L122.28 113.725L122.291 113.729L123.034 111.872ZM137.132 110.31L136.041 108.633L136.03 108.641L137.132 110.31ZM141.642 102.32L139.668 101.996L139.666 102.008L139.664 102.019L141.642 102.32ZM143.275 92.3409L145.249 92.664L145.629 90.3409H143.275V92.3409ZM142.636 92.3409V90.3409H141.498L140.916 91.3198L142.636 92.3409ZM138.943 96.6378L137.636 95.1241L137.63 95.1291L137.624 95.1341L138.943 96.6378ZM133.297 99.9403L132.581 98.0726L132.575 98.0752L133.297 99.9403ZM114.937 98.3778L113.862 100.064L113.869 100.069L113.877 100.074L114.937 98.3778ZM108.403 89.6065L106.507 90.2424L106.509 90.2492L106.512 90.2561L108.403 89.6065ZM107.906 74.6207L105.934 74.2883L105.933 74.2957L107.906 74.6207ZM113.517 59.1378L111.841 58.0461L113.517 59.1378ZM123.105 49.8338L122.131 48.0871L123.105 49.8338ZM142.032 48.3068L141.059 50.0541L141.072 50.0614L141.085 50.0685L142.032 48.3068ZM146.4 52.142L144.732 53.2455L144.736 53.2515L144.74 53.2574L146.4 52.142ZM148.566 56.6165L146.646 57.1741L147.065 58.6165H148.566V56.6165ZM149.17 56.6165V58.6165H150.871L151.144 56.9378L149.17 56.6165ZM150.662 47.4545V45.4545H148.961L148.688 47.1332L150.662 47.4545ZM165.683 47.4545L167.656 47.7827L168.043 45.4545H165.683V47.4545ZM156.521 102.533L154.548 102.204L154.547 102.213L154.545 102.222L156.521 102.533ZM151.23 114.18L149.744 112.842L149.738 112.848L149.733 112.854L151.23 114.18ZM140.683 121.212L139.994 119.334L139.985 119.337L140.683 121.212ZM138.694 88.044L139.76 89.7365L139.765 89.733L138.694 88.044ZM143.559 82.7884L145.295 83.7826L145.299 83.7748L143.559 82.7884ZM146.258 66.2401L144.305 66.6698L144.307 66.6812L144.31 66.6926L146.258 66.2401ZM143.204 60.7358L141.889 62.2424L141.895 62.2476L141.901 62.2526L143.204 60.7358ZM130.704 60.8068L131.851 62.4453L131.858 62.4405L131.865 62.4357L130.704 60.8068ZM125.981 66.3466L124.214 65.41L124.21 65.4169L124.207 65.4239L125.981 66.3466ZM123.389 74.5497L125.362 74.8761L125.364 74.8663L123.389 74.5497ZM123.318 82.7173L121.359 83.1212L121.362 83.133L121.364 83.1447L123.318 82.7173ZM126.265 88.0085L124.966 89.5288L124.973 89.5349L124.98 89.5409L126.265 88.0085ZM126.514 123.591V121.591C121.757 121.591 117.927 120.937 114.95 119.716L114.191 121.567L113.433 123.417C117.038 124.896 121.423 125.591 126.514 125.591V123.591ZM114.191 121.567L114.944 119.714C111.937 118.494 109.78 116.882 108.34 114.941L106.734 116.134L105.128 117.326C107.097 119.978 109.911 121.988 113.439 123.42L114.191 121.567ZM106.734 116.134L108.348 114.952C106.897 112.97 106.105 110.76 105.961 108.277L103.964 108.392L101.968 108.508C102.155 111.753 103.21 114.705 105.12 117.315L106.734 116.134ZM103.964 108.392L104.224 110.375L118.571 108.493L118.311 106.51L118.051 104.527L103.704 106.409L103.964 108.392ZM118.311 106.51L116.363 106.966C116.692 108.372 117.32 109.662 118.221 110.825L119.802 109.599L121.383 108.374C120.817 107.643 120.45 106.874 120.258 106.054L118.311 106.51ZM119.802 109.599L118.241 110.849C119.258 112.12 120.643 113.059 122.28 113.725L123.034 111.872L123.787 110.02C122.631 109.549 121.862 108.973 121.364 108.35L119.802 109.599ZM123.034 111.872L122.291 113.729C124.031 114.425 126.144 114.724 128.538 114.724V112.724V110.724C126.435 110.724 124.877 110.455 123.777 110.015L123.034 111.872ZM128.538 112.724V114.724C132.169 114.724 135.428 113.831 138.234 111.979L137.132 110.31L136.03 108.641C133.959 110.008 131.488 110.724 128.538 110.724V112.724ZM137.132 110.31L138.222 111.986C141.273 110.002 142.993 106.745 143.619 102.62L141.642 102.32L139.664 102.019C139.155 105.376 137.867 107.445 136.041 108.633L137.132 110.31ZM141.642 102.32L143.615 102.643L145.249 92.664L143.275 92.3409L141.302 92.0178L139.668 101.996L141.642 102.32ZM143.275 92.3409V90.3409H142.636V92.3409V94.3409H143.275V92.3409ZM142.636 92.3409L140.916 91.3198C140.144 92.6209 139.062 93.892 137.636 95.1241L138.943 96.6378L140.25 98.1514C141.948 96.6847 143.329 95.0912 144.356 93.362L142.636 92.3409ZM138.943 96.6378L137.624 95.1341C136.29 96.3041 134.621 97.2914 132.581 98.0726L133.297 99.9403L134.012 101.808C136.423 100.885 138.518 99.6704 140.262 98.1415L138.943 96.6378ZM133.297 99.9403L132.575 98.0752C130.648 98.8209 128.356 99.2188 125.662 99.2188V101.219V103.219C128.743 103.219 131.542 102.764 134.019 101.805L133.297 99.9403ZM125.662 101.219V99.2188C121.859 99.2188 118.663 98.3483 115.997 96.6818L114.937 98.3778L113.877 100.074C117.272 102.195 121.226 103.219 125.662 103.219V101.219ZM114.937 98.3778L116.013 96.6916C113.449 95.0562 111.523 92.5329 110.295 88.957L108.403 89.6065L106.512 90.2561C107.983 94.54 110.413 97.8642 113.862 100.064L114.937 98.3778ZM108.403 89.6065L110.299 88.9707C109.114 85.4371 108.915 80.8003 109.879 74.9458L107.906 74.6207L105.933 74.2957C104.908 80.515 105.04 85.8688 106.507 90.2424L108.403 89.6065ZM107.906 74.6207L109.878 74.9532C110.886 68.9752 112.678 64.0897 115.193 60.2294L113.517 59.1378L111.841 58.0461C108.958 62.4718 107.009 67.9083 105.934 74.2883L107.906 74.6207ZM113.517 59.1378L115.193 60.2294C117.744 56.3124 120.714 53.4572 124.079 51.5805L123.105 49.8338L122.131 48.0871C118.109 50.3297 114.687 53.6772 111.841 58.0461L113.517 59.1378ZM123.105 49.8338L124.079 51.5805C127.492 49.6772 131.006 48.7443 134.646 48.7443V46.7443V44.7443C130.285 44.7443 126.104 45.8711 122.131 48.0871L123.105 49.8338ZM134.646 46.7443V48.7443C137.496 48.7443 139.587 49.2339 141.059 50.0541L142.032 48.3068L143.006 46.5595C140.738 45.2964 137.904 44.7443 134.646 44.7443V46.7443ZM142.032 48.3068L141.085 50.0685C142.737 50.956 143.925 52.0247 144.732 53.2455L146.4 52.142L148.068 51.0386C146.84 49.1818 145.116 47.6936 142.979 46.5452L142.032 48.3068ZM146.4 52.142L144.74 53.2574C145.665 54.6335 146.287 55.9387 146.646 57.1741L148.566 56.6165L150.487 56.0589C149.994 54.3586 149.172 52.6809 148.06 51.0267L146.4 52.142ZM148.566 56.6165V58.6165H149.17V56.6165V54.6165H148.566V56.6165ZM149.17 56.6165L151.144 56.9378L152.636 47.7759L150.662 47.4545L148.688 47.1332L147.196 56.2951L149.17 56.6165ZM150.662 47.4545V49.4545H165.683V47.4545V45.4545H150.662V47.4545ZM165.683 47.4545L163.71 47.1264L154.548 102.204L156.521 102.533L158.494 102.861L167.656 47.7827L165.683 47.4545ZM156.521 102.533L154.545 102.222C153.864 106.555 152.245 110.065 149.744 112.842L151.23 114.18L152.716 115.519C155.802 112.093 157.711 107.838 158.497 102.844L156.521 102.533ZM151.23 114.18L149.733 112.854C147.202 115.71 143.973 117.875 139.994 119.334L140.683 121.212L141.371 123.089C145.916 121.423 149.718 118.901 152.727 115.507L151.23 114.18ZM140.683 121.212L139.985 119.337C135.976 120.83 131.493 121.591 126.514 121.591V123.591V125.591C131.904 125.591 136.867 124.766 141.381 123.086L140.683 121.212ZM132.196 89.8551V91.8551C134.962 91.8551 137.502 91.1581 139.76 89.7365L138.694 88.044L137.629 86.3516C136.051 87.3447 134.259 87.8551 132.196 87.8551V89.8551ZM138.694 88.044L139.765 89.733C142.018 88.3049 143.854 86.2977 145.295 83.7826L143.559 82.7884L141.824 81.7941C140.661 83.8244 139.254 85.3211 137.623 86.355L138.694 88.044ZM143.559 82.7884L145.299 83.7748C146.741 81.2317 147.717 78.2499 148.268 74.8714L146.294 74.5497L144.32 74.228C143.829 77.2415 142.982 79.7522 141.82 81.8019L143.559 82.7884ZM146.294 74.5497L148.268 74.8714C148.817 71.5019 148.826 68.4565 148.206 65.7875L146.258 66.2401L144.31 66.6926C144.779 68.7111 144.812 71.2055 144.32 74.228L146.294 74.5497ZM146.258 66.2401L148.212 65.8103C147.618 63.1123 146.417 60.8595 144.508 59.219L143.204 60.7358L141.901 62.2526C143.022 63.2162 143.857 64.633 144.305 66.6698L146.258 66.2401ZM143.204 60.7358L144.52 59.2292C142.585 57.5399 140.115 56.7827 137.309 56.7827V58.7827V60.7827C139.381 60.7827 140.841 61.3275 141.889 62.2424L143.204 60.7358ZM137.309 58.7827V56.7827C134.419 56.7827 131.804 57.5677 129.544 59.178L130.704 60.8068L131.865 62.4357C133.393 61.347 135.181 60.7827 137.309 60.7827V58.7827ZM130.704 60.8068L129.557 59.1684C127.366 60.7025 125.593 62.8074 124.214 65.41L125.981 66.3466L127.748 67.2832C128.878 65.1509 130.255 63.5626 131.851 62.4453L130.704 60.8068ZM125.981 66.3466L124.207 65.4239C122.861 68.0116 121.939 70.9568 121.414 74.2331L123.389 74.5497L125.364 74.8663C125.833 71.9399 126.639 69.4165 127.756 67.2693L125.981 66.3466ZM123.389 74.5497L121.416 74.2233C120.868 77.5324 120.822 80.5147 121.359 83.1212L123.318 82.7173L125.277 82.3135C124.867 80.3272 124.868 77.8643 125.362 74.8761L123.389 74.5497ZM123.318 82.7173L121.364 83.1447C121.935 85.7536 123.103 87.9364 124.966 89.5288L126.265 88.0085L127.565 86.4883C126.492 85.5712 125.695 84.2265 125.272 82.2899L123.318 82.7173ZM126.265 88.0085L124.98 89.5409C126.904 91.1543 129.382 91.8551 132.196 91.8551V89.8551V87.8551C130.038 87.8551 128.562 87.3249 127.551 86.4761L126.265 88.0085ZM189.085 70.4659L187.114 70.1274L187.112 70.1371L189.085 70.4659ZM183.829 102V104H185.524L185.802 102.329L183.829 102ZM168.737 102L166.764 101.671L166.376 104H168.737V102ZM177.828 47.4545V45.4545H176.134L175.855 47.1257L177.828 47.4545ZM192.21 47.4545L194.184 47.7751L194.561 45.4545H192.21V47.4545ZM190.647 57.0781L188.673 56.7576L188.297 59.0781H190.647V57.0781ZM191.251 57.0781V59.0781H192.443L193.01 58.0294L191.251 57.0781ZM198.566 49.5142L197.56 47.7857L197.555 47.789L198.566 49.5142ZM218.879 49.2301L217.784 50.9038L217.791 50.9084L218.879 49.2301ZM224.277 56.2969L222.384 56.9425L222.388 56.9556L224.277 56.2969ZM224.809 67.2699L226.782 67.6006L226.782 67.5987L224.809 67.2699ZM218.986 102V104H220.678L220.958 102.331L218.986 102ZM203.858 102L201.885 101.67L201.495 104H203.858V102ZM209.22 69.9688L211.192 70.299L211.194 70.2907L209.22 69.9688ZM207.941 62.1562L206.322 63.3302L206.331 63.3417L206.339 63.353L207.941 62.1562ZM195.69 60.6293L194.776 58.8504V58.8504L195.69 60.6293ZM191.393 64.4645L189.747 63.3285L189.744 63.3334L191.393 64.4645ZM189.085 70.4659L187.112 70.1371L181.856 101.671L183.829 102L185.802 102.329L191.058 70.7947L189.085 70.4659ZM183.829 102V100H168.737V102V104H183.829V102ZM168.737 102L170.71 102.329L179.801 47.7833L177.828 47.4545L175.855 47.1257L166.764 101.671L168.737 102ZM177.828 47.4545V49.4545H192.21V47.4545V45.4545H177.828V47.4545ZM192.21 47.4545L190.236 47.134L188.673 56.7576L190.647 57.0781L192.622 57.3987L194.184 47.7751L192.21 47.4545ZM190.647 57.0781V59.0781H191.251V57.0781V55.0781H190.647V57.0781ZM191.251 57.0781L193.01 58.0294C194.564 55.1564 196.743 52.9021 199.578 51.2394L198.566 49.5142L197.555 47.789C194.092 49.8195 191.395 52.6078 189.492 56.1268L191.251 57.0781ZM198.566 49.5142L199.573 51.2427C202.409 49.5918 205.665 48.7443 209.397 48.7443V46.7443V44.7443C205.033 44.7443 201.069 45.7434 197.56 47.7857L198.566 49.5142ZM209.397 46.7443V48.7443C212.894 48.7443 215.65 49.5073 217.784 50.9038L218.879 49.2301L219.974 47.5564C217.042 45.6385 213.477 44.7443 209.397 44.7443V46.7443ZM218.879 49.2301L217.791 50.9084C219.948 52.3065 221.478 54.2864 222.384 56.9425L224.277 56.2969L226.17 55.6512C224.992 52.1993 222.923 49.4682 219.967 47.5518L218.879 49.2301ZM224.277 56.2969L222.388 56.9556C223.312 59.6041 223.509 62.9039 222.837 66.9411L224.809 67.2699L226.782 67.5987C227.53 63.1132 227.372 59.0976 226.165 55.6381L224.277 56.2969ZM224.809 67.2699L222.837 66.9391L217.013 101.669L218.986 102L220.958 102.331L226.782 67.6006L224.809 67.2699ZM218.986 102V100H203.858V102V104H218.986V102ZM203.858 102L205.83 102.33L211.192 70.299L209.22 69.9688L207.247 69.6385L201.885 101.67L203.858 102ZM209.22 69.9688L211.194 70.2907C211.786 66.6592 211.388 63.4283 209.544 60.9595L207.941 62.1562L206.339 63.353C207.289 64.6247 207.743 66.6021 207.246 69.6468L209.22 69.9688ZM207.941 62.1562L209.561 60.9823C207.701 58.4168 204.78 57.3153 201.301 57.3153V59.3153V61.3153C203.929 61.3153 205.436 62.1078 206.322 63.3302L207.941 62.1562ZM201.301 59.3153V57.3153C198.967 57.3153 196.781 57.8201 194.776 58.8504L195.69 60.6293L196.604 62.4081C198.008 61.6865 199.562 61.3153 201.301 61.3153V59.3153ZM195.69 60.6293L194.776 58.8504C192.759 59.8869 191.082 61.3946 189.747 63.3285L191.393 64.4645L193.039 65.6005C194.025 64.1726 195.212 63.1235 196.604 62.4081L195.69 60.6293ZM191.393 64.4645L189.744 63.3334C188.417 65.2682 187.556 67.5509 187.114 70.1274L189.085 70.4659L191.056 70.8044C191.419 68.6934 192.097 66.9752 193.043 65.5955L191.393 64.4645Z" fill="#666666" mask="url(#path-1-outside-1_33_732)"/>
</g>
<defs>
<filter id="filter0_d_33_732" x="0" y="15.0823" width="239.236" height="126.509" filterUnits="userSpaceOnUse" color-interpolation-filters="sRGB">
<feFlood flood-opacity="0" result="BackgroundImageFix"/>
<feColorMatrix in="SourceAlpha" type="matrix" values="0 0 0 0 0 0 0 0 0 0 0 0 0 0 0 0 0 0 127 0" result="hardAlpha"/>
<feOffset dy="4"/>
<feGaussianBlur stdDeviation="6"/>
<feComposite in2="hardAlpha" operator="out"/>
<feColorMatrix type="matrix" values="0 0 0 0 0 0 0 0 0 0 0 0 0 0 0 0 0 0 0.5 0"/>
<feBlend mode="normal" in2="BackgroundImageFix" result="effect1_dropShadow_33_732"/>
<feBlend mode="normal" in="SourceGraphic" in2="effect1_dropShadow_33_732" result="shape"/>
</filter>
</defs>
</svg>
