<svg width="112" height="321" viewBox="0 0 112 321" fill="none" xmlns="http://www.w3.org/2000/svg">
<mask id="path-1-outside-1_17_121" maskUnits="userSpaceOnUse" x="-0.5" y="-0.299988" width="113" height="321" fill="black">
<rect fill="white" x="-0.5" y="-0.299988" width="113" height="321"/>
<path d="M2 26.3C2 18.3 4.25 12.25 8.75 8.15001C13.35 4.05001 19.9 2.00001 28.4 2.00001H34.4V17.6H27.2C20.4 17.6 17 20.45 17 26.15C17 28.95 17.8 31.05 19.4 32.45C21.1 33.95 23.8 34.7 27.5 34.7C31.9 34.7 35.75 33.7 39.05 31.7C42.45 29.7 46.5 26 51.2 20.6C57.2 13.8 62.6 9.05001 67.4 6.35001C72.3 3.65001 77.8 2.30001 83.9 2.30001C92.2 2.30001 98.6 4.40001 103.1 8.60001C107.7 12.8 110 18.9 110 26.9C110 34.8 107.7 40.75 103.1 44.75C98.6 48.85 92.1 50.9 83.6 50.9H79.25V35.3H84.65C88.25 35.3 90.85 34.6 92.45 33.2C94.15 31.8 95 29.75 95 27.05C95 21.55 91.65 18.8 84.95 18.8C81.15 18.8 77.6 19.8 74.3 21.8C71 23.9 67 27.65 62.3 33.05C56.3 39.95 50.85 44.7 45.95 47.3C41.05 49.9 35.3 51.2 28.7 51.2C20.1 51.2 13.5 49.05 8.9 44.75C4.3 40.55 2 34.4 2 26.3ZM108.5 60.6606V84.9606C108.5 93.1606 106.3 99.3106 101.9 103.411C97.5 107.511 91.05 109.561 82.55 109.561H72.2C63.7 109.561 57.25 107.511 52.85 103.411C48.45 99.3106 46.25 93.1606 46.25 84.9606V77.1606H3.5V60.6606H108.5ZM61.25 84.9606C61.25 87.6606 62 89.6606 63.5 90.9606C65 92.3606 67.55 93.0606 71.15 93.0606H83.6C87.2 93.0606 89.75 92.3606 91.25 90.9606C92.75 89.6606 93.5 87.6606 93.5 84.9606V77.1606H61.25V84.9606ZM108.5 118.522V142.972C108.5 151.472 106.5 157.672 102.5 161.572C98.6 165.472 92.55 167.422 84.35 167.422H77.9C67 167.422 60.1 163.822 57.2 156.622H56.9C55.7 160.622 53.25 163.422 49.55 165.022C45.85 166.722 40.9 167.572 34.7 167.572H16.25C13.25 167.572 10.8 167.672 8.9 167.872C7.1 168.072 5.3 168.572 3.5 169.372V152.572C5.2 151.972 6.8 151.572 8.3 151.372C9.8 151.172 12.5 151.072 16.4 151.072H35.6C40.4 151.072 43.75 150.272 45.65 148.672C47.55 147.172 48.5 144.522 48.5 140.722V135.022H3.5V118.522H108.5ZM63.5 141.022C63.5 144.322 64.35 146.772 66.05 148.372C67.75 150.072 70.6 150.922 74.6 150.922H82.7C86.5 150.922 89.25 150.222 90.95 148.822C92.65 147.522 93.5 145.422 93.5 142.522V135.022H63.5V141.022ZM108.5 179.02V195.52H3.5V179.02H108.5ZM108.5 207.877V228.577L45.65 244.627V244.927H108.5V259.627H3.5V242.677L80.15 222.877V222.577H3.5V207.877H108.5ZM93.5 284.791V267.541H108.5V318.541H93.5V301.291H3.5V284.791H93.5Z"/>
</mask>
<path d="M8.75 8.15001L7.41926 6.65699L7.4111 6.66426L7.40302 6.67162L8.75 8.15001ZM34.4 2.00001H36.4V1.2517e-05H34.4V2.00001ZM34.4 17.6V19.6H36.4V17.6H34.4ZM19.4 32.45L20.7233 30.9503L20.717 30.9449L19.4 32.45ZM39.05 31.7L38.036 29.9761L38.0246 29.9828L38.0134 29.9896L39.05 31.7ZM51.2 20.6L49.7003 19.2767L49.6914 19.287L51.2 20.6ZM67.4 6.35001L66.4348 4.59834L66.4271 4.60257L66.4195 4.60686L67.4 6.35001ZM103.1 8.60001L101.735 10.0621L101.743 10.0696L101.751 10.077L103.1 8.60001ZM103.1 44.75L101.788 43.2408L101.77 43.256L101.753 43.2716L103.1 44.75ZM79.25 50.9H77.25V52.9H79.25V50.9ZM79.25 35.3V33.3H77.25V35.3H79.25ZM92.45 33.2L91.1786 31.6562L91.1555 31.6752L91.133 31.6949L92.45 33.2ZM74.3 21.8L73.2634 20.0896L73.2447 20.101L73.2263 20.1127L74.3 21.8ZM62.3 33.05L60.7914 31.737L60.7908 31.7377L62.3 33.05ZM45.95 47.3L45.0126 45.5333L45.95 47.3ZM8.9 44.75L10.2658 43.289L10.2572 43.281L10.2485 43.273L8.9 44.75ZM2 26.3H4C4 18.6764 6.13317 13.2399 10.097 9.6284L8.75 8.15001L7.40302 6.67162C2.36683 11.2601 0 17.9236 0 26.3H2ZM8.75 8.15001L10.0807 9.64304C14.1955 5.97554 20.2039 4.00001 28.4 4.00001V2.00001V1.2517e-05C19.5961 1.2517e-05 12.5045 2.12449 7.41926 6.65699L8.75 8.15001ZM28.4 2.00001V4.00001H34.4V2.00001V1.2517e-05H28.4V2.00001ZM34.4 2.00001H32.4V17.6H34.4H36.4V2.00001H34.4ZM34.4 17.6V15.6H27.2V17.6V19.6H34.4V17.6ZM27.2 17.6V15.6C23.5693 15.6 20.4737 16.3535 18.2652 18.2048C15.9891 20.1127 15 22.89 15 26.15H17H19C19 23.71 19.7109 22.2123 20.8348 21.2703C22.0263 20.2715 24.0307 19.6 27.2 19.6V17.6ZM17 26.15H15C15 29.3329 15.9217 32.0641 18.083 33.9552L19.4 32.45L20.717 30.9449C19.6783 30.036 19 28.5671 19 26.15H17ZM19.4 32.45L18.0768 33.9497C20.3123 35.9222 23.6014 36.7 27.5 36.7V34.7V32.7C23.9986 32.7 21.8877 31.9778 20.7232 30.9503L19.4 32.45ZM27.5 34.7V36.7C32.2132 36.7 36.4321 35.6253 40.0866 33.4104L39.05 31.7L38.0134 29.9896C35.0679 31.7748 31.5868 32.7 27.5 32.7V34.7ZM39.05 31.7L40.064 33.4239C43.7438 31.2593 47.9626 27.3659 52.7086 21.9131L51.2 20.6L49.6914 19.287C45.0374 24.6341 41.1562 28.1407 38.036 29.9761L39.05 31.7ZM51.2 20.6L52.6997 21.9233C58.6344 15.1973 63.8614 10.6352 68.3805 8.09316L67.4 6.35001L66.4195 4.60686C61.3386 7.46486 55.7656 12.4028 49.7003 19.2768L51.2 20.6ZM67.4 6.35001L68.3652 8.10169C72.9434 5.57904 78.1063 4.30001 83.9 4.30001V2.30001V0.300012C77.4937 0.300012 71.6567 1.72099 66.4348 4.59834L67.4 6.35001ZM83.9 2.30001V4.30001C91.8731 4.30001 97.719 6.31348 101.735 10.0621L103.1 8.60001L104.465 7.1379C99.481 2.48654 92.5269 0.300012 83.9 0.300012V2.30001ZM103.1 8.60001L101.751 10.077C105.826 13.797 108 19.2923 108 26.9H110H112C112 18.5077 109.574 11.803 104.449 7.12304L103.1 8.60001ZM110 26.9H108C108 34.404 105.83 39.7261 101.788 43.2408L103.1 44.75L104.412 46.2592C109.57 41.7739 112 35.196 112 26.9H110ZM103.1 44.75L101.753 43.2716C97.7453 46.9231 91.7996 48.9 83.6 48.9V50.9V52.9C92.4005 52.9 99.4547 50.7769 104.447 46.2284L103.1 44.75ZM83.6 50.9V48.9H79.25V50.9V52.9H83.6V50.9ZM79.25 50.9H81.25V35.3H79.25H77.25V50.9H79.25ZM79.25 35.3V37.3H84.65V35.3V33.3H79.25V35.3ZM84.65 35.3V37.3C88.425 37.3 91.6225 36.5816 93.767 34.7052L92.45 33.2L91.133 31.6949C90.0775 32.6184 88.075 33.3 84.65 33.3V35.3ZM92.45 33.2L93.7214 34.7439C95.9862 32.8788 97 30.1994 97 27.05H95H93C93 29.3007 92.3139 30.7212 91.1786 31.6562L92.45 33.2ZM95 27.05H97C97 23.8762 96.0143 21.1701 93.7565 19.3167C91.5742 17.5252 88.5229 16.8 84.95 16.8V18.8V20.8C88.0771 20.8 90.0508 21.4498 91.2185 22.4084C92.3107 23.3049 93 24.7239 93 27.05H95ZM84.95 18.8V16.8C80.7786 16.8 76.8709 17.9033 73.2634 20.0896L74.3 21.8L75.3366 23.5104C78.3291 21.6968 81.5214 20.8 84.95 20.8V18.8ZM74.3 21.8L73.2263 20.1127C69.6817 22.3683 65.5314 26.2909 60.7914 31.737L62.3 33.05L63.8086 34.3631C68.4686 29.0091 72.3183 25.4317 75.3738 23.4873L74.3 21.8ZM62.3 33.05L60.7908 31.7377C54.8612 38.5567 49.6002 43.0991 45.0126 45.5333L45.95 47.3L46.8874 49.0667C52.0998 46.301 57.7388 41.3433 63.8092 34.3624L62.3 33.05ZM45.95 47.3L45.0126 45.5333C40.4514 47.9535 35.035 49.2 28.7 49.2V51.2V53.2C35.565 53.2 41.6486 51.8465 46.8874 49.0667L45.95 47.3ZM28.7 51.2V49.2C20.4191 49.2 14.3776 47.1326 10.2658 43.289L8.9 44.75L7.53423 46.2111C12.6224 50.9674 19.7809 53.2 28.7 53.2V51.2ZM8.9 44.75L10.2485 43.273C6.17924 39.5576 4 34.0165 4 26.3H2H0C0 34.7835 2.42075 41.5424 7.55146 46.227L8.9 44.75ZM108.5 60.6606H110.5V58.6606H108.5V60.6606ZM101.9 103.411L100.537 101.947H100.537L101.9 103.411ZM52.85 103.411L54.2135 101.947L52.85 103.411ZM46.25 77.1606H48.25V75.1606H46.25V77.1606ZM3.5 77.1606H1.5V79.1606H3.5V77.1606ZM3.5 60.6606V58.6606H1.5V60.6606H3.5ZM63.5 90.9606L64.8646 89.4985L64.8377 89.4733L64.8099 89.4492L63.5 90.9606ZM91.25 90.9606L89.9401 89.4492L89.9123 89.4733L89.8854 89.4985L91.25 90.9606ZM93.5 77.1606H95.5V75.1606H93.5V77.1606ZM61.25 77.1606V75.1606H59.25V77.1606H61.25ZM108.5 60.6606H106.5V84.9606H108.5H110.5V60.6606H108.5ZM108.5 84.9606H106.5C106.5 92.8147 104.399 98.3478 100.537 101.947L101.9 103.411L103.263 104.874C108.201 100.273 110.5 93.5065 110.5 84.9606H108.5ZM101.9 103.411L100.537 101.947C96.6358 105.582 90.7533 107.561 82.55 107.561V109.561V111.561C91.3467 111.561 98.3643 109.439 103.263 104.874L101.9 103.411ZM82.55 109.561V107.561H72.2V109.561V111.561H82.55V109.561ZM72.2 109.561V107.561C63.9967 107.561 58.1143 105.582 54.2135 101.947L52.85 103.411L51.4866 104.874C56.3858 109.439 63.4033 111.561 72.2 111.561V109.561ZM52.85 103.411L54.2135 101.947C50.3506 98.3478 48.25 92.8147 48.25 84.9606H46.25H44.25C44.25 93.5065 46.5495 100.273 51.4866 104.874L52.85 103.411ZM46.25 84.9606H48.25V77.1606H46.25H44.25V84.9606H46.25ZM46.25 77.1606V75.1606H3.5V77.1606V79.1606H46.25V77.1606ZM3.5 77.1606H5.5V60.6606H3.5H1.5V77.1606H3.5ZM3.5 60.6606V62.6606H108.5V60.6606V58.6606H3.5V60.6606ZM61.25 84.9606H59.25C59.25 88.0212 60.1095 90.6687 62.1901 92.4719L63.5 90.9606L64.8099 89.4492C63.8905 88.6524 63.25 87.2999 63.25 84.9606H61.25ZM63.5 90.9606L62.1354 92.4227C64.1999 94.3496 67.3931 95.0606 71.15 95.0606V93.0606V91.0606C67.7069 91.0606 65.8001 90.3715 64.8646 89.4985L63.5 90.9606ZM71.15 93.0606V95.0606H83.6V93.0606V91.0606H71.15V93.0606ZM83.6 93.0606V95.0606C87.3569 95.0606 90.5501 94.3496 92.6146 92.4227L91.25 90.9606L89.8854 89.4985C88.9499 90.3715 87.0431 91.0606 83.6 91.0606V93.0606ZM91.25 90.9606L92.5599 92.4719C94.6405 90.6687 95.5 88.0212 95.5 84.9606H93.5H91.5C91.5 87.2999 90.8595 88.6524 89.9401 89.4492L91.25 90.9606ZM93.5 84.9606H95.5V77.1606H93.5H91.5V84.9606H93.5ZM93.5 77.1606V75.1606H61.25V77.1606V79.1606H93.5V77.1606ZM61.25 77.1606H59.25V84.9606H61.25H63.25V77.1606H61.25ZM108.5 118.522H110.5V116.522H108.5V118.522ZM102.5 161.572L101.104 160.14L101.095 160.149L101.086 160.158L102.5 161.572ZM57.2 156.622L59.0552 155.875L58.5506 154.622H57.2V156.622ZM56.9 156.622V154.622H55.4119L54.9843 156.047L56.9 156.622ZM49.55 165.022L48.7562 163.186L48.7355 163.195L48.715 163.205L49.55 165.022ZM8.9 167.872L8.69063 165.883L8.67914 165.884L8.9 167.872ZM3.5 169.372H1.5V172.449L4.31228 171.2L3.5 169.372ZM3.5 152.572L2.83436 150.686L1.5 151.157V152.572H3.5ZM8.3 151.372L8.03568 149.389L8.3 151.372ZM45.65 148.672L44.4107 147.102L44.3859 147.122L44.3617 147.142L45.65 148.672ZM48.5 135.022H50.5V133.022H48.5V135.022ZM3.5 135.022H1.5V137.022H3.5V135.022ZM3.5 118.522V116.522H1.5V118.522H3.5ZM66.05 148.372L67.4642 146.958L67.4428 146.936L67.4207 146.915L66.05 148.372ZM90.95 148.822L89.7351 147.233L89.7064 147.255L89.6786 147.278L90.95 148.822ZM93.5 135.022H95.5V133.022H93.5V135.022ZM63.5 135.022V133.022H61.5V135.022H63.5ZM108.5 118.522H106.5V142.972H108.5H110.5V118.522H108.5ZM108.5 142.972H106.5C106.5 151.21 104.556 156.774 101.104 160.14L102.5 161.572L103.896 163.004C108.444 158.57 110.5 151.734 110.5 142.972H108.5ZM102.5 161.572L101.086 160.158C97.7097 163.534 92.2756 165.422 84.35 165.422V167.422V169.422C92.8244 169.422 99.4903 167.41 103.914 162.986L102.5 161.572ZM84.35 167.422V165.422H77.9V167.422V169.422H84.35V167.422ZM77.9 167.422V165.422C72.6506 165.422 68.5483 164.552 65.4751 162.949C62.4462 161.368 60.3267 159.032 59.0552 155.875L57.2 156.622L55.3448 157.369C56.9733 161.412 59.7538 164.475 63.6249 166.495C67.4517 168.492 72.2495 169.422 77.9 169.422V167.422ZM57.2 156.622V154.622H56.9V156.622V158.622H57.2V156.622ZM56.9 156.622L54.9843 156.047C53.9469 159.505 51.8925 161.83 48.7562 163.186L49.55 165.022L50.3438 166.858C54.6075 165.014 57.4531 161.738 58.8157 157.197L56.9 156.622ZM49.55 165.022L48.715 163.205C45.3776 164.738 40.7481 165.572 34.7 165.572V167.572V169.572C41.0519 169.572 46.3224 168.706 50.385 166.839L49.55 165.022ZM34.7 167.572V165.572H16.25V167.572V169.572H34.7V167.572ZM16.25 167.572V165.572C13.2146 165.572 10.6877 165.673 8.69064 165.883L8.9 167.872L9.10937 169.861C10.9123 169.671 13.2854 169.572 16.25 169.572V167.572ZM8.9 167.872L8.67914 165.884C6.65786 166.109 4.65908 166.668 2.68772 167.544L3.5 169.372L4.31228 171.2C5.94092 170.476 7.54214 170.035 9.12086 169.86L8.9 167.872ZM3.5 169.372H5.5V152.572H3.5H1.5V169.372H3.5ZM3.5 152.572L4.16564 154.458C5.75945 153.895 7.22408 153.533 8.56433 153.354L8.3 151.372L8.03568 149.389C6.37592 149.611 4.64055 150.048 2.83436 150.686L3.5 152.572ZM8.3 151.372L8.56433 153.354C9.91629 153.174 12.493 153.072 16.4 153.072V151.072V149.072C12.507 149.072 9.68371 149.17 8.03568 149.389L8.3 151.372ZM16.4 151.072V153.072H35.6V151.072V149.072H16.4V151.072ZM35.6 151.072V153.072C40.4923 153.072 44.467 152.283 46.9383 150.202L45.65 148.672L44.3617 147.142C43.033 148.261 40.3077 149.072 35.6 149.072V151.072ZM45.65 148.672L46.8893 150.242C49.4907 148.188 50.5 144.782 50.5 140.722H48.5H46.5C46.5 144.261 45.6093 146.156 44.4107 147.102L45.65 148.672ZM48.5 140.722H50.5V135.022H48.5H46.5V140.722H48.5ZM48.5 135.022V133.022H3.5V135.022V137.022H48.5V135.022ZM3.5 135.022H5.5V118.522H3.5H1.5V135.022H3.5ZM3.5 118.522V120.522H108.5V118.522V116.522H3.5V118.522ZM63.5 141.022H61.5C61.5 144.641 62.4349 147.716 64.6793 149.828L66.05 148.372L67.4207 146.915C66.2651 145.828 65.5 144.003 65.5 141.022H63.5ZM66.05 148.372L64.6358 149.786C66.8944 152.045 70.4027 152.922 74.6 152.922V150.922V148.922C70.7973 148.922 68.6056 148.099 67.4642 146.958L66.05 148.372ZM74.6 150.922V152.922H82.7V150.922V148.922H74.6V150.922ZM82.7 150.922V152.922C86.6588 152.922 89.983 152.209 92.2214 150.366L90.95 148.822L89.6786 147.278C88.517 148.235 86.3412 148.922 82.7 148.922V150.922ZM90.95 148.822L92.1649 150.411C94.5221 148.608 95.5 145.807 95.5 142.522H93.5H91.5C91.5 145.037 90.7779 146.436 89.7351 147.233L90.95 148.822ZM93.5 142.522H95.5V135.022H93.5H91.5V142.522H93.5ZM93.5 135.022V133.022H63.5V135.022V137.022H93.5V135.022ZM63.5 135.022H61.5V141.022H63.5H65.5V135.022H63.5ZM108.5 179.02H110.5V177.02H108.5V179.02ZM108.5 195.52V197.52H110.5V195.52H108.5ZM3.5 195.52H1.5V197.52H3.5V195.52ZM3.5 179.02V177.02H1.5V179.02H3.5ZM108.5 179.02H106.5V195.52H108.5H110.5V179.02H108.5ZM108.5 195.52V193.52H3.5V195.52V197.52H108.5V195.52ZM3.5 195.52H5.5V179.02H3.5H1.5V195.52H3.5ZM3.5 179.02V181.02H108.5V179.02V177.02H3.5V179.02ZM108.5 207.877H110.5V205.877H108.5V207.877ZM108.5 228.577L108.995 230.515L110.5 230.131V228.577H108.5ZM45.65 244.627L45.1551 242.69L43.65 243.074V244.627H45.65ZM45.65 244.927H43.65V246.927H45.65V244.927ZM108.5 244.927H110.5V242.927H108.5V244.927ZM108.5 259.627V261.627H110.5V259.627H108.5ZM3.5 259.627H1.5V261.627H3.5V259.627ZM3.5 242.677L2.99979 240.741L1.5 241.128V242.677H3.5ZM80.15 222.877L80.6502 224.814L82.15 224.426V222.877H80.15ZM80.15 222.577H82.15V220.577H80.15V222.577ZM3.5 222.577H1.5V224.577H3.5V222.577ZM3.5 207.877V205.877H1.5V207.877H3.5ZM108.5 207.877H106.5V228.577H108.5H110.5V207.877H108.5ZM108.5 228.577L108.005 226.64L45.1551 242.69L45.65 244.627L46.1449 246.565L108.995 230.515L108.5 228.577ZM45.65 244.627H43.65V244.927H45.65H47.65V244.627H45.65ZM45.65 244.927V246.927H108.5V244.927V242.927H45.65V244.927ZM108.5 244.927H106.5V259.627H108.5H110.5V244.927H108.5ZM108.5 259.627V257.627H3.5V259.627V261.627H108.5V259.627ZM3.5 259.627H5.5V242.677H3.5H1.5V259.627H3.5ZM3.5 242.677L4.00021 244.614L80.6502 224.814L80.15 222.877L79.6498 220.941L2.99979 240.741L3.5 242.677ZM80.15 222.877H82.15V222.577H80.15H78.15V222.877H80.15ZM80.15 222.577V220.577H3.5V222.577V224.577H80.15V222.577ZM3.5 222.577H5.5V207.877H3.5H1.5V222.577H3.5ZM3.5 207.877V209.877H108.5V207.877V205.877H3.5V207.877ZM93.5 284.791V286.791H95.5V284.791H93.5ZM93.5 267.541V265.541H91.5V267.541H93.5ZM108.5 267.541H110.5V265.541H108.5V267.541ZM108.5 318.541V320.541H110.5V318.541H108.5ZM93.5 318.541H91.5V320.541H93.5V318.541ZM93.5 301.291H95.5V299.291H93.5V301.291ZM3.5 301.291H1.5V303.291H3.5V301.291ZM3.5 284.791V282.791H1.5V284.791H3.5ZM93.5 284.791H95.5V267.541H93.5H91.5V284.791H93.5ZM93.5 267.541V269.541H108.5V267.541V265.541H93.5V267.541ZM108.5 267.541H106.5V318.541H108.5H110.5V267.541H108.5ZM108.5 318.541V316.541H93.5V318.541V320.541H108.5V318.541ZM93.5 318.541H95.5V301.291H93.5H91.5V318.541H93.5ZM93.5 301.291V299.291H3.5V301.291V303.291H93.5V301.291ZM3.5 301.291H5.5V284.791H3.5H1.5V301.291H3.5ZM3.5 284.791V286.791H93.5V284.791V282.791H3.5V284.791Z" fill="#666666" mask="url(#path-1-outside-1_17_121)"/>
</svg>
