<svg width="314" height="100" viewBox="0 0 314 100" fill="none" xmlns="http://www.w3.org/2000/svg">
<g filter="url(#filter0_d_46_98)">
<mask id="path-1-outside-1_46_98" maskUnits="userSpaceOnUse" x="11.8" y="8" width="290" height="76" fill="black">
<rect fill="white" x="11.8" y="8" width="290" height="76"/>
<path d="M25.5 21H14V11H48V21H36.5V81H25.5V21ZM53.3258 11H64.3258V39.5H76.1258V11H87.1258V81H76.1258V49.5H64.3258V81H53.3258V11ZM95.318 11H125.318V21H106.318V39.5H121.418V49.5H106.318V71H125.318V81H95.318V11ZM161.962 82C156.628 82 152.595 80.5 149.862 77.5C147.128 74.4333 145.762 70.0667 145.762 64.4V60.4H156.162V65.2C156.162 69.7333 158.062 72 161.862 72C163.728 72 165.128 71.4667 166.062 70.4C167.062 69.2667 167.562 67.4667 167.562 65C167.562 62.0667 166.895 59.5 165.562 57.3C164.228 55.0333 161.762 52.3333 158.162 49.2C153.628 45.2 150.462 41.6 148.662 38.4C146.862 35.1333 145.962 31.4667 145.962 27.4C145.962 21.8667 147.362 17.6 150.162 14.6C152.962 11.5333 157.028 10 162.362 10C167.628 10 171.595 11.5333 174.262 14.6C176.995 17.6 178.362 21.9333 178.362 27.6V30.5H167.962V26.9C167.962 24.5 167.495 22.7667 166.562 21.7C165.628 20.5667 164.262 20 162.462 20C158.795 20 156.962 22.2333 156.962 26.7C156.962 29.2333 157.628 31.6 158.962 33.8C160.362 36 162.862 38.6667 166.462 41.8C171.062 45.8 174.228 49.4333 175.962 52.7C177.695 55.9667 178.562 59.8 178.562 64.2C178.562 69.9333 177.128 74.3333 174.262 77.4C171.462 80.4667 167.362 82 161.962 82ZM184.869 11H195.869V39.5H207.669V11H218.669V81H207.669V49.5H195.869V81H184.869V11ZM242.761 82C237.361 82 233.228 80.4667 230.361 77.4C227.494 74.3333 226.061 70 226.061 64.4V27.6C226.061 22 227.494 17.6667 230.361 14.6C233.228 11.5333 237.361 10 242.761 10C248.161 10 252.294 11.5333 255.161 14.6C258.028 17.6667 259.461 22 259.461 27.6V64.4C259.461 70 258.028 74.3333 255.161 77.4C252.294 80.4667 248.161 82 242.761 82ZM242.761 72C246.561 72 248.461 69.7 248.461 65.1V26.9C248.461 22.3 246.561 20 242.761 20C238.961 20 237.061 22.3 237.061 26.9V65.1C237.061 69.7 238.961 72 242.761 72ZM266.9 11H283.1C288.567 11 292.667 12.4667 295.4 15.4C298.133 18.3333 299.5 22.6333 299.5 28.3V35.2C299.5 40.8667 298.133 45.1667 295.4 48.1C292.667 51.0333 288.567 52.5 283.1 52.5H277.9V81H266.9V11ZM283.1 42.5C284.9 42.5 286.233 42 287.1 41C288.033 40 288.5 38.3 288.5 35.9V27.6C288.5 25.2 288.033 23.5 287.1 22.5C286.233 21.5 284.9 21 283.1 21H277.9V42.5H283.1Z"/>
</mask>
<path d="M25.5 21H14V11H48V21H36.5V81H25.5V21ZM53.3258 11H64.3258V39.5H76.1258V11H87.1258V81H76.1258V49.5H64.3258V81H53.3258V11ZM95.318 11H125.318V21H106.318V39.5H121.418V49.5H106.318V71H125.318V81H95.318V11ZM161.962 82C156.628 82 152.595 80.5 149.862 77.5C147.128 74.4333 145.762 70.0667 145.762 64.4V60.4H156.162V65.2C156.162 69.7333 158.062 72 161.862 72C163.728 72 165.128 71.4667 166.062 70.4C167.062 69.2667 167.562 67.4667 167.562 65C167.562 62.0667 166.895 59.5 165.562 57.3C164.228 55.0333 161.762 52.3333 158.162 49.2C153.628 45.2 150.462 41.6 148.662 38.4C146.862 35.1333 145.962 31.4667 145.962 27.4C145.962 21.8667 147.362 17.6 150.162 14.6C152.962 11.5333 157.028 10 162.362 10C167.628 10 171.595 11.5333 174.262 14.6C176.995 17.6 178.362 21.9333 178.362 27.6V30.5H167.962V26.9C167.962 24.5 167.495 22.7667 166.562 21.7C165.628 20.5667 164.262 20 162.462 20C158.795 20 156.962 22.2333 156.962 26.7C156.962 29.2333 157.628 31.6 158.962 33.8C160.362 36 162.862 38.6667 166.462 41.8C171.062 45.8 174.228 49.4333 175.962 52.7C177.695 55.9667 178.562 59.8 178.562 64.2C178.562 69.9333 177.128 74.3333 174.262 77.4C171.462 80.4667 167.362 82 161.962 82ZM184.869 11H195.869V39.5H207.669V11H218.669V81H207.669V49.5H195.869V81H184.869V11ZM242.761 82C237.361 82 233.228 80.4667 230.361 77.4C227.494 74.3333 226.061 70 226.061 64.4V27.6C226.061 22 227.494 17.6667 230.361 14.6C233.228 11.5333 237.361 10 242.761 10C248.161 10 252.294 11.5333 255.161 14.6C258.028 17.6667 259.461 22 259.461 27.6V64.4C259.461 70 258.028 74.3333 255.161 77.4C252.294 80.4667 248.161 82 242.761 82ZM242.761 72C246.561 72 248.461 69.7 248.461 65.1V26.9C248.461 22.3 246.561 20 242.761 20C238.961 20 237.061 22.3 237.061 26.9V65.1C237.061 69.7 238.961 72 242.761 72ZM266.9 11H283.1C288.567 11 292.667 12.4667 295.4 15.4C298.133 18.3333 299.5 22.6333 299.5 28.3V35.2C299.5 40.8667 298.133 45.1667 295.4 48.1C292.667 51.0333 288.567 52.5 283.1 52.5H277.9V81H266.9V11ZM283.1 42.5C284.9 42.5 286.233 42 287.1 41C288.033 40 288.5 38.3 288.5 35.9V27.6C288.5 25.2 288.033 23.5 287.1 22.5C286.233 21.5 284.9 21 283.1 21H277.9V42.5H283.1Z" fill="white"/>
<path d="M25.5 21H27.5V19H25.5V21ZM14 21H12V23H14V21ZM14 11V9H12V11H14ZM48 11H50V9H48V11ZM48 21V23H50V21H48ZM36.5 21V19H34.5V21H36.5ZM36.5 81V83H38.5V81H36.5ZM25.5 81H23.5V83H25.5V81ZM25.5 21V19H14V21V23H25.5V21ZM14 21H16V11H14H12V21H14ZM14 11V13H48V11V9H14V11ZM48 11H46V21H48H50V11H48ZM48 21V19H36.5V21V23H48V21ZM36.5 21H34.5V81H36.5H38.5V21H36.5ZM36.5 81V79H25.5V81V83H36.5V81ZM25.5 81H27.5V21H25.5H23.5V81H25.5ZM53.3258 11V9H51.3258V11H53.3258ZM64.3258 11H66.3258V9H64.3258V11ZM64.3258 39.5H62.3258V41.5H64.3258V39.5ZM76.1258 39.5V41.5H78.1258V39.5H76.1258ZM76.1258 11V9H74.1258V11H76.1258ZM87.1258 11H89.1258V9H87.1258V11ZM87.1258 81V83H89.1258V81H87.1258ZM76.1258 81H74.1258V83H76.1258V81ZM76.1258 49.5H78.1258V47.5H76.1258V49.5ZM64.3258 49.5V47.5H62.3258V49.5H64.3258ZM64.3258 81V83H66.3258V81H64.3258ZM53.3258 81H51.3258V83H53.3258V81ZM53.3258 11V13H64.3258V11V9H53.3258V11ZM64.3258 11H62.3258V39.5H64.3258H66.3258V11H64.3258ZM64.3258 39.5V41.5H76.1258V39.5V37.5H64.3258V39.5ZM76.1258 39.5H78.1258V11H76.1258H74.1258V39.5H76.1258ZM76.1258 11V13H87.1258V11V9H76.1258V11ZM87.1258 11H85.1258V81H87.1258H89.1258V11H87.1258ZM87.1258 81V79H76.1258V81V83H87.1258V81ZM76.1258 81H78.1258V49.5H76.1258H74.1258V81H76.1258ZM76.1258 49.5V47.5H64.3258V49.5V51.5H76.1258V49.5ZM64.3258 49.5H62.3258V81H64.3258H66.3258V49.5H64.3258ZM64.3258 81V79H53.3258V81V83H64.3258V81ZM53.3258 81H55.3258V11H53.3258H51.3258V81H53.3258ZM95.318 11V9H93.318V11H95.318ZM125.318 11H127.318V9H125.318V11ZM125.318 21V23H127.318V21H125.318ZM106.318 21V19H104.318V21H106.318ZM106.318 39.5H104.318V41.5H106.318V39.5ZM121.418 39.5H123.418V37.5H121.418V39.5ZM121.418 49.5V51.5H123.418V49.5H121.418ZM106.318 49.5V47.5H104.318V49.5H106.318ZM106.318 71H104.318V73H106.318V71ZM125.318 71H127.318V69H125.318V71ZM125.318 81V83H127.318V81H125.318ZM95.318 81H93.318V83H95.318V81ZM95.318 11V13H125.318V11V9H95.318V11ZM125.318 11H123.318V21H125.318H127.318V11H125.318ZM125.318 21V19H106.318V21V23H125.318V21ZM106.318 21H104.318V39.5H106.318H108.318V21H106.318ZM106.318 39.5V41.5H121.418V39.5V37.5H106.318V39.5ZM121.418 39.5H119.418V49.5H121.418H123.418V39.5H121.418ZM121.418 49.5V47.5H106.318V49.5V51.5H121.418V49.5ZM106.318 49.5H104.318V71H106.318H108.318V49.5H106.318ZM106.318 71V73H125.318V71V69H106.318V71ZM125.318 71H123.318V81H125.318H127.318V71H125.318ZM125.318 81V79H95.318V81V83H125.318V81ZM95.318 81H97.318V11H95.318H93.318V81H95.318ZM149.862 77.5L148.369 78.8307L148.376 78.8389L148.383 78.847L149.862 77.5ZM145.762 60.4V58.4H143.762V60.4H145.762ZM156.162 60.4H158.162V58.4H156.162V60.4ZM166.062 70.4L164.562 69.0767L164.557 69.083L166.062 70.4ZM165.562 57.3L163.838 58.314L163.845 58.3254L163.851 58.3366L165.562 57.3ZM158.162 49.2L156.838 50.6997L156.849 50.7086L158.162 49.2ZM148.662 38.4L146.91 39.3652L146.914 39.3729L146.919 39.3805L148.662 38.4ZM150.162 14.6L151.624 15.9646L151.631 15.9566L151.639 15.9485L150.162 14.6ZM174.262 14.6L172.753 15.9124L172.768 15.9298L172.783 15.947L174.262 14.6ZM178.362 30.5V32.5H180.362V30.5H178.362ZM167.962 30.5H165.962V32.5H167.962V30.5ZM166.562 21.7L165.018 22.9714L165.037 22.9945L165.057 23.017L166.562 21.7ZM158.962 33.8L157.251 34.8366L157.263 34.8553L157.274 34.8737L158.962 33.8ZM166.462 41.8L165.149 43.3086L165.149 43.3092L166.462 41.8ZM175.962 52.7L174.195 53.6374L175.962 52.7ZM174.262 77.4L172.801 76.0342L172.793 76.0428L172.785 76.0515L174.262 77.4ZM161.962 82V80C157.005 80 153.585 78.6168 151.34 76.153L149.862 77.5L148.383 78.847C151.605 82.3832 156.252 84 161.962 84V82ZM149.862 77.5L151.355 76.1693C149.054 73.5878 147.762 69.7627 147.762 64.4H145.762H143.762C143.762 70.3706 145.203 75.2788 148.369 78.8307L149.862 77.5ZM145.762 64.4H147.762V60.4H145.762H143.762V64.4H145.762ZM145.762 60.4V62.4H156.162V60.4V58.4H145.762V60.4ZM156.162 60.4H154.162V65.2H156.162H158.162V60.4H156.162ZM156.162 65.2H154.162C154.162 67.6974 154.678 69.9429 156.054 71.5848C157.487 73.2943 159.552 74 161.862 74V72V70C160.372 70 159.587 69.5724 159.119 69.0152C158.596 68.3904 158.162 67.236 158.162 65.2H156.162ZM161.862 72V74C164.111 74 166.142 73.3449 167.567 71.717L166.062 70.4L164.557 69.083C164.114 69.5884 163.346 70 161.862 70V72ZM166.062 70.4L167.561 71.7232C169.034 70.0544 169.562 67.6653 169.562 65H167.562H165.562C165.562 67.268 165.09 68.479 164.562 69.0768L166.062 70.4ZM167.562 65H169.562C169.562 61.7535 168.82 58.8179 167.272 56.2634L165.562 57.3L163.851 58.3366C164.97 60.1821 165.562 62.3798 165.562 65H167.562ZM165.562 57.3L167.286 56.286C165.788 53.7396 163.128 50.8707 159.475 47.6914L158.162 49.2L156.849 50.7086C160.396 53.7959 162.669 56.3271 163.838 58.314L165.562 57.3ZM158.162 49.2L159.485 47.7003C155.026 43.7656 152.047 40.3386 150.405 37.4195L148.662 38.4L146.919 39.3805C148.877 42.8614 152.231 46.6344 156.838 50.6997L158.162 49.2ZM148.662 38.4L150.413 37.4348C148.791 34.49 147.962 31.1604 147.962 27.4H145.962H143.962C143.962 31.7729 144.933 35.7767 146.91 39.3652L148.662 38.4ZM145.962 27.4H147.962C147.962 22.1935 149.275 18.481 151.624 15.9646L150.162 14.6L148.7 13.2354C145.448 16.719 143.962 21.5398 143.962 27.4H145.962ZM150.162 14.6L151.639 15.9485C153.959 13.4075 157.421 12 162.362 12V10V8C156.636 8 151.965 9.65912 148.685 13.2515L150.162 14.6ZM162.362 10V12C167.232 12 170.571 13.4038 172.753 15.9124L174.262 14.6L175.771 13.2876C172.619 9.66285 168.024 8 162.362 8V10ZM174.262 14.6L172.783 15.947C175.068 18.4547 176.362 22.2338 176.362 27.6H178.362H180.362C180.362 21.6329 178.922 16.7453 175.74 13.253L174.262 14.6ZM178.362 27.6H176.362V30.5H178.362H180.362V27.6H178.362ZM178.362 30.5V28.5H167.962V30.5V32.5H178.362V30.5ZM167.962 30.5H169.962V26.9H167.962H165.962V30.5H167.962ZM167.962 26.9H169.962C169.962 24.325 169.477 21.9941 168.067 20.383L166.562 21.7L165.057 23.017C165.513 23.5392 165.962 24.675 165.962 26.9H167.962ZM166.562 21.7L168.106 20.4286C166.707 18.7305 164.711 18 162.462 18V20V22C163.812 22 164.55 22.4028 165.018 22.9714L166.562 21.7ZM162.462 20V18C160.205 18 158.186 18.7065 156.791 20.406C155.458 22.0299 154.962 24.2438 154.962 26.7H156.962H158.962C158.962 24.6896 159.382 23.5534 159.883 22.944C160.321 22.4102 161.052 22 162.462 22V20ZM156.962 26.7H154.962C154.962 29.6047 155.732 32.3291 157.251 34.8366L158.962 33.8L160.672 32.7634C159.525 30.8709 158.962 28.8619 158.962 26.7H156.962ZM158.962 33.8L157.274 34.8737C158.83 37.3183 161.503 40.1352 165.149 43.3086L166.462 41.8L167.775 40.2914C164.221 37.1981 161.893 34.6817 160.649 32.7262L158.962 33.8ZM166.462 41.8L165.149 43.3092C169.668 47.2388 172.627 50.6831 174.195 53.6374L175.962 52.7L177.728 51.7626C175.829 48.1835 172.455 44.3612 167.774 40.2908L166.462 41.8ZM175.962 52.7L174.195 53.6374C175.749 56.5653 176.562 60.065 176.562 64.2H178.562H180.562C180.562 59.535 179.642 55.368 177.728 51.7626L175.962 52.7ZM178.562 64.2H176.562C176.562 69.6143 175.211 73.4557 172.801 76.0342L174.262 77.4L175.723 78.7658C179.046 75.211 180.562 70.2524 180.562 64.2H178.562ZM174.262 77.4L172.785 76.0515C170.469 78.5874 166.978 80 161.962 80V82V84C167.745 84 172.454 82.3459 175.739 78.7485L174.262 77.4ZM184.869 11V9H182.869V11H184.869ZM195.869 11H197.869V9H195.869V11ZM195.869 39.5H193.869V41.5H195.869V39.5ZM207.669 39.5V41.5H209.669V39.5H207.669ZM207.669 11V9H205.669V11H207.669ZM218.669 11H220.669V9H218.669V11ZM218.669 81V83H220.669V81H218.669ZM207.669 81H205.669V83H207.669V81ZM207.669 49.5H209.669V47.5H207.669V49.5ZM195.869 49.5V47.5H193.869V49.5H195.869ZM195.869 81V83H197.869V81H195.869ZM184.869 81H182.869V83H184.869V81ZM184.869 11V13H195.869V11V9H184.869V11ZM195.869 11H193.869V39.5H195.869H197.869V11H195.869ZM195.869 39.5V41.5H207.669V39.5V37.5H195.869V39.5ZM207.669 39.5H209.669V11H207.669H205.669V39.5H207.669ZM207.669 11V13H218.669V11V9H207.669V11ZM218.669 11H216.669V81H218.669H220.669V11H218.669ZM218.669 81V79H207.669V81V83H218.669V81ZM207.669 81H209.669V49.5H207.669H205.669V81H207.669ZM207.669 49.5V47.5H195.869V49.5V51.5H207.669V49.5ZM195.869 49.5H193.869V81H195.869H197.869V49.5H195.869ZM195.869 81V79H184.869V81V83H195.869V81ZM184.869 81H186.869V11H184.869H182.869V81H184.869ZM230.361 77.4L231.822 76.0342L230.361 77.4ZM230.361 14.6L231.822 15.9658L230.361 14.6ZM255.161 14.6L253.7 15.9658V15.9658L255.161 14.6ZM255.161 77.4L253.7 76.0342L255.161 77.4ZM242.761 82V80C237.747 80 234.209 78.5882 231.822 76.0342L230.361 77.4L228.9 78.7658C232.246 82.3451 236.975 84 242.761 84V82ZM230.361 77.4L231.822 76.0342C229.404 73.4477 228.061 69.6661 228.061 64.4H226.061H224.061C224.061 70.3339 225.584 75.219 228.9 78.7658L230.361 77.4ZM226.061 64.4H228.061V27.6H226.061H224.061V64.4H226.061ZM226.061 27.6H228.061C228.061 22.3339 229.404 18.5523 231.822 15.9658L230.361 14.6L228.9 13.2342C225.584 16.781 224.061 21.6661 224.061 27.6H226.061ZM230.361 14.6L231.822 15.9658C234.209 13.4118 237.747 12 242.761 12V10V8C236.975 8 232.246 9.6549 228.9 13.2342L230.361 14.6ZM242.761 10V12C247.775 12 251.312 13.4118 253.7 15.9658L255.161 14.6L256.622 13.2342C253.276 9.6549 248.547 8 242.761 8V10ZM255.161 14.6L253.7 15.9658C256.118 18.5523 257.461 22.3339 257.461 27.6H259.461H261.461C261.461 21.6661 259.937 16.781 256.622 13.2342L255.161 14.6ZM259.461 27.6H257.461V64.4H259.461H261.461V27.6H259.461ZM259.461 64.4H257.461C257.461 69.6661 256.118 73.4477 253.7 76.0342L255.161 77.4L256.622 78.7658C259.937 75.219 261.461 70.3339 261.461 64.4H259.461ZM255.161 77.4L253.7 76.0342C251.312 78.5882 247.775 80 242.761 80V82V84C248.547 84 253.276 82.3451 256.622 78.7658L255.161 77.4ZM242.761 72V74C245.081 74 247.148 73.2796 248.578 71.5488C249.947 69.8911 250.461 67.6252 250.461 65.1H248.461H246.461C246.461 67.1748 246.025 68.3589 245.494 69.0012C245.024 69.5704 244.241 70 242.761 70V72ZM248.461 65.1H250.461V26.9H248.461H246.461V65.1H248.461ZM248.461 26.9H250.461C250.461 24.3748 249.947 22.1089 248.578 20.4512C247.148 18.7204 245.081 18 242.761 18V20V22C244.241 22 245.024 22.4296 245.494 22.9988C246.025 23.6411 246.461 24.8252 246.461 26.9H248.461ZM242.761 20V18C240.441 18 238.374 18.7204 236.944 20.4512C235.575 22.1089 235.061 24.3748 235.061 26.9H237.061H239.061C239.061 24.8252 239.497 23.6411 240.028 22.9988C240.498 22.4296 241.281 22 242.761 22V20ZM237.061 26.9H235.061V65.1H237.061H239.061V26.9H237.061ZM237.061 65.1H235.061C235.061 67.6252 235.575 69.8911 236.944 71.5488C238.374 73.2796 240.441 74 242.761 74V72V70C241.281 70 240.498 69.5704 240.028 69.0012C239.497 68.3589 239.061 67.1748 239.061 65.1H237.061ZM266.9 11V9H264.9V11H266.9ZM295.4 15.4L293.937 16.7634V16.7635L295.4 15.4ZM295.4 48.1L293.937 46.7365L295.4 48.1ZM277.9 52.5V50.5H275.9V52.5H277.9ZM277.9 81V83H279.9V81H277.9ZM266.9 81H264.9V83H266.9V81ZM287.1 41L285.638 39.6354L285.613 39.6623L285.589 39.6901L287.1 41ZM287.1 22.5L285.589 23.8099L285.613 23.8377L285.638 23.8646L287.1 22.5ZM277.9 21V19H275.9V21H277.9ZM277.9 42.5H275.9V44.5H277.9V42.5ZM266.9 11V13H283.1V11V9H266.9V11ZM283.1 11V13C288.221 13 291.704 14.3672 293.937 16.7634L295.4 15.4L296.863 14.0365C293.629 10.5661 288.913 9 283.1 9V11ZM295.4 15.4L293.937 16.7635C296.205 19.1976 297.5 22.9301 297.5 28.3H299.5H301.5C301.5 22.3366 300.062 17.4691 296.863 14.0365L295.4 15.4ZM299.5 28.3H297.5V35.2H299.5H301.5V28.3H299.5ZM299.5 35.2H297.5C297.5 40.5699 296.205 44.3024 293.937 46.7365L295.4 48.1L296.863 49.4634C300.062 46.0309 301.5 41.1634 301.5 35.2H299.5ZM295.4 48.1L293.937 46.7365C291.704 49.1328 288.221 50.5 283.1 50.5V52.5V54.5C288.913 54.5 293.629 52.9339 296.863 49.4634L295.4 48.1ZM283.1 52.5V50.5H277.9V52.5V54.5H283.1V52.5ZM277.9 52.5H275.9V81H277.9H279.9V52.5H277.9ZM277.9 81V79H266.9V81V83H277.9V81ZM266.9 81H268.9V11H266.9H264.9V81H266.9ZM283.1 42.5V44.5C285.261 44.5 287.242 43.8905 288.611 42.3099L287.1 41L285.589 39.6901C285.225 40.1095 284.539 40.5 283.1 40.5V42.5ZM287.1 41L288.562 42.3646C290.022 40.8001 290.5 38.4569 290.5 35.9H288.5H286.5C286.5 38.1431 286.044 39.1999 285.638 39.6354L287.1 41ZM288.5 35.9H290.5V27.6H288.5H286.5V35.9H288.5ZM288.5 27.6H290.5C290.5 25.0431 290.022 22.6999 288.562 21.1354L287.1 22.5L285.638 23.8646C286.044 24.3001 286.5 25.3569 286.5 27.6H288.5ZM287.1 22.5L288.611 21.1901C287.242 19.6095 285.261 19 283.1 19V21V23C284.539 23 285.225 23.3905 285.589 23.8099L287.1 22.5ZM283.1 21V19H277.9V21V23H283.1V21ZM277.9 21H275.9V42.5H277.9H279.9V21H277.9ZM277.9 42.5V44.5H283.1V42.5V40.5H277.9V42.5Z" fill="#666666" mask="url(#path-1-outside-1_46_98)"/>
</g>
<defs>
<filter id="filter0_d_46_98" x="0" y="0" width="313.5" height="100" filterUnits="userSpaceOnUse" color-interpolation-filters="sRGB">
<feFlood flood-opacity="0" result="BackgroundImageFix"/>
<feColorMatrix in="SourceAlpha" type="matrix" values="0 0 0 0 0 0 0 0 0 0 0 0 0 0 0 0 0 0 127 0" result="hardAlpha"/>
<feOffset dy="4"/>
<feGaussianBlur stdDeviation="6"/>
<feComposite in2="hardAlpha" operator="out"/>
<feColorMatrix type="matrix" values="0 0 0 0 0 0 0 0 0 0 0 0 0 0 0 0 0 0 0.5 0"/>
<feBlend mode="normal" in2="BackgroundImageFix" result="effect1_dropShadow_46_98"/>
<feBlend mode="normal" in="SourceGraphic" in2="effect1_dropShadow_46_98" result="shape"/>
</filter>
</defs>
</svg>
